%FSLAX45Y45*%
G04 Gerber Fmt 4.5, Leading zero omitted, Abs format (unit mm)*
G04 Created by KiCad (PCBNEW (5.1.10-1-10_14)) date 2021-12-02 22:53:45*
%MOMM*%
%LPD*%
G01*
G04 APERTURE LIST*
%TA.AperFunction,Profile*%
%ADD10C,0.330078*%
%TD*%
%ADD11C,0.200000*%
%ADD12C,0.300000*%
G04 APERTURE END LIST*
D10*
X16588534Y-4113199D02*
X16588534Y-4113199D01*
X16290899Y-4113199D02*
X16588534Y-4113199D01*
X16290899Y-4203175D02*
X16290899Y-4113199D01*
X15670417Y-4203175D02*
X16290899Y-4203175D01*
X15659570Y-4235968D02*
X15670417Y-4203175D01*
X15606367Y-4327658D02*
X15659570Y-4235968D01*
X15508502Y-4425865D02*
X15606367Y-4327658D01*
X15384279Y-4490313D02*
X15508502Y-4425865D01*
X15277029Y-4513501D02*
X15384279Y-4490313D01*
X15241295Y-4513501D02*
X15277029Y-4513501D01*
X15205496Y-4513501D02*
X15241295Y-4513501D01*
X15098197Y-4490313D02*
X15205496Y-4513501D01*
X14973982Y-4425865D02*
X15098197Y-4490313D01*
X14876117Y-4327658D02*
X14973982Y-4425865D01*
X14822914Y-4235968D02*
X14876117Y-4327658D01*
X14812108Y-4203175D02*
X14822914Y-4235968D01*
X14191675Y-4203175D02*
X14812108Y-4203175D01*
X14191675Y-4113199D02*
X14191675Y-4203175D01*
X13894040Y-4113199D02*
X14191675Y-4113199D01*
X13894040Y-4335011D02*
X13894040Y-4113199D01*
X13894040Y-4356705D02*
X13894040Y-4335011D01*
X13885265Y-4421859D02*
X13894040Y-4356705D01*
X13860102Y-4502752D02*
X13885265Y-4421859D01*
X13820338Y-4575966D02*
X13860102Y-4502752D01*
X13767660Y-4639788D02*
X13820338Y-4575966D01*
X13703830Y-4692471D02*
X13767660Y-4639788D01*
X13630612Y-4732234D02*
X13703830Y-4692471D01*
X13549724Y-4757398D02*
X13630612Y-4732234D01*
X13484572Y-4766164D02*
X13549724Y-4757398D01*
X13462885Y-4766164D02*
X13484572Y-4766164D01*
X13241069Y-4766164D02*
X13462885Y-4766164D01*
X13241069Y-6561147D02*
X13241069Y-4766164D01*
X13331039Y-6561147D02*
X13241069Y-6561147D01*
X13331039Y-7181979D02*
X13331039Y-6561147D01*
X13363746Y-7192866D02*
X13331039Y-7181979D01*
X13455082Y-7246117D02*
X13363746Y-7192866D01*
X13552942Y-7343934D02*
X13455082Y-7246117D01*
X13617124Y-7467979D02*
X13552942Y-7343934D01*
X13640222Y-7575058D02*
X13617124Y-7467979D01*
X13640222Y-7610767D02*
X13640222Y-7575058D01*
X13640222Y-7646420D02*
X13640222Y-7610767D01*
X13617124Y-7753540D02*
X13640222Y-7646420D01*
X13552942Y-7877576D02*
X13617124Y-7753540D01*
X13455082Y-7975393D02*
X13552942Y-7877576D01*
X13363746Y-8028693D02*
X13455082Y-7975393D01*
X13331039Y-8039581D02*
X13363746Y-8028693D01*
X13331039Y-8660371D02*
X13331039Y-8039581D01*
X13241069Y-8660371D02*
X13331039Y-8660371D01*
X13241069Y-10455387D02*
X13241069Y-8660371D01*
X13462885Y-10455387D02*
X13241069Y-10455387D01*
X13484572Y-10455387D02*
X13462885Y-10455387D01*
X13549724Y-10464121D02*
X13484572Y-10455387D01*
X13630612Y-10489293D02*
X13549724Y-10464121D01*
X13703830Y-10529048D02*
X13630612Y-10489293D01*
X13767660Y-10581727D02*
X13703830Y-10529048D01*
X13820338Y-10645557D02*
X13767660Y-10581727D01*
X13860102Y-10718775D02*
X13820338Y-10645557D01*
X13885265Y-10799663D02*
X13860102Y-10718775D01*
X13894040Y-10864815D02*
X13885265Y-10799663D01*
X13894040Y-10886547D02*
X13894040Y-10864815D01*
X13894040Y-11108318D02*
X13894040Y-10886547D01*
X14191675Y-11108318D02*
X13894040Y-11108318D01*
X14191675Y-11018393D02*
X14191675Y-11108318D01*
X14812774Y-11018393D02*
X14191675Y-11018393D01*
X14823711Y-10985728D02*
X14812774Y-11018393D01*
X14877043Y-10894658D02*
X14823711Y-10985728D01*
X14974811Y-10797063D02*
X14877043Y-10894658D01*
X15098734Y-10733057D02*
X14974811Y-10797063D01*
X15205618Y-10710090D02*
X15098734Y-10733057D01*
X15241295Y-10710090D02*
X15205618Y-10710090D01*
X15276907Y-10710090D02*
X15241295Y-10710090D01*
X15383791Y-10733057D02*
X15276907Y-10710090D01*
X15507665Y-10797063D02*
X15383791Y-10733057D01*
X15605482Y-10894658D02*
X15507665Y-10797063D01*
X15658782Y-10985728D02*
X15605482Y-10894658D01*
X15669751Y-11018393D02*
X15658782Y-10985728D01*
X16290899Y-11018393D02*
X15669751Y-11018393D01*
X16290899Y-11108318D02*
X16290899Y-11018393D01*
X16588534Y-11108318D02*
X16290899Y-11108318D01*
X16588534Y-10886547D02*
X16588534Y-11108318D01*
X16588534Y-10864815D02*
X16588534Y-10886547D01*
X16597260Y-10799663D02*
X16588534Y-10864815D01*
X16622431Y-10718775D02*
X16597260Y-10799663D01*
X16662195Y-10645557D02*
X16622431Y-10718775D01*
X16714829Y-10581727D02*
X16662195Y-10645557D01*
X16778651Y-10529048D02*
X16714829Y-10581727D01*
X16851873Y-10489293D02*
X16778651Y-10529048D01*
X16932758Y-10464121D02*
X16851873Y-10489293D01*
X16997920Y-10455387D02*
X16932758Y-10464121D01*
X17019638Y-10455387D02*
X16997920Y-10455387D01*
X17240541Y-10455387D02*
X17019638Y-10455387D01*
X17240541Y-8660371D02*
X17240541Y-10455387D01*
X17150564Y-8660371D02*
X17240541Y-8660371D01*
X17150564Y-8038386D02*
X17150564Y-8660371D01*
X17117772Y-8027629D02*
X17150564Y-8038386D01*
X17026252Y-7974727D02*
X17117772Y-8027629D01*
X16928175Y-7877227D02*
X17026252Y-7974727D01*
X16863776Y-7753402D02*
X16928175Y-7877227D01*
X16840677Y-7646420D02*
X16863776Y-7753402D01*
X16840677Y-7610767D02*
X16840677Y-7646420D01*
X16840677Y-7575091D02*
X16840677Y-7610767D01*
X16863776Y-7468117D02*
X16840677Y-7575091D01*
X16928175Y-7344243D02*
X16863776Y-7468117D01*
X17026252Y-7246784D02*
X16928175Y-7344243D01*
X17117772Y-7193882D02*
X17026252Y-7246784D01*
X17150564Y-7183173D02*
X17117772Y-7193882D01*
X17150564Y-6561147D02*
X17150564Y-7183173D01*
X17240541Y-6561147D02*
X17150564Y-6561147D01*
X17240541Y-4766164D02*
X17240541Y-6561147D01*
X17019638Y-4766164D02*
X17240541Y-4766164D01*
X16997920Y-4766164D02*
X17019638Y-4766164D01*
X16932758Y-4757398D02*
X16997920Y-4766164D01*
X16851873Y-4732234D02*
X16932758Y-4757398D01*
X16778651Y-4692471D02*
X16851873Y-4732234D01*
X16714829Y-4639788D02*
X16778651Y-4692471D01*
X16662195Y-4575966D02*
X16714829Y-4639788D01*
X16622431Y-4502752D02*
X16662195Y-4575966D01*
X16597260Y-4421859D02*
X16622431Y-4502752D01*
X16588534Y-4356705D02*
X16597260Y-4421859D01*
X16588534Y-4335011D02*
X16588534Y-4356705D01*
X16588534Y-4113199D02*
X16588534Y-4335011D01*
D11*
X15065000Y-8603000D02*
X15415000Y-8953000D01*
X15415000Y-8603000D02*
X15065000Y-8953000D01*
D12*
X13510994Y-11590536D02*
X13510994Y-11290536D01*
X13582423Y-11290536D01*
X13625280Y-11304822D01*
X13653851Y-11333393D01*
X13668137Y-11361964D01*
X13682423Y-11419107D01*
X13682423Y-11461964D01*
X13668137Y-11519107D01*
X13653851Y-11547679D01*
X13625280Y-11576250D01*
X13582423Y-11590536D01*
X13510994Y-11590536D01*
X13810994Y-11590536D02*
X13810994Y-11390536D01*
X13810994Y-11447679D02*
X13825280Y-11419107D01*
X13839565Y-11404822D01*
X13868137Y-11390536D01*
X13896708Y-11390536D01*
X13996708Y-11590536D02*
X13996708Y-11390536D01*
X13996708Y-11290536D02*
X13982423Y-11304822D01*
X13996708Y-11319107D01*
X14010994Y-11304822D01*
X13996708Y-11290536D01*
X13996708Y-11319107D01*
X14182423Y-11590536D02*
X14153851Y-11576250D01*
X14139565Y-11547679D01*
X14139565Y-11290536D01*
X14339565Y-11590536D02*
X14310994Y-11576250D01*
X14296708Y-11547679D01*
X14296708Y-11290536D01*
X14682423Y-11590536D02*
X14682423Y-11290536D01*
X14782423Y-11504822D01*
X14882423Y-11290536D01*
X14882423Y-11590536D01*
X15153851Y-11590536D02*
X15153851Y-11433393D01*
X15139565Y-11404822D01*
X15110994Y-11390536D01*
X15053851Y-11390536D01*
X15025280Y-11404822D01*
X15153851Y-11576250D02*
X15125280Y-11590536D01*
X15053851Y-11590536D01*
X15025280Y-11576250D01*
X15010994Y-11547679D01*
X15010994Y-11519107D01*
X15025280Y-11490536D01*
X15053851Y-11476250D01*
X15125280Y-11476250D01*
X15153851Y-11461964D01*
X15296708Y-11390536D02*
X15296708Y-11690536D01*
X15296708Y-11404822D02*
X15325280Y-11390536D01*
X15382423Y-11390536D01*
X15410994Y-11404822D01*
X15425280Y-11419107D01*
X15439565Y-11447679D01*
X15439565Y-11533393D01*
X15425280Y-11561964D01*
X15410994Y-11576250D01*
X15382423Y-11590536D01*
X15325280Y-11590536D01*
X15296708Y-11576250D01*
X15568137Y-11561964D02*
X15582423Y-11576250D01*
X15568137Y-11590536D01*
X15553851Y-11576250D01*
X15568137Y-11561964D01*
X15568137Y-11590536D01*
X15568137Y-11404822D02*
X15582423Y-11419107D01*
X15568137Y-11433393D01*
X15553851Y-11419107D01*
X15568137Y-11404822D01*
X15568137Y-11433393D01*
X12874565Y-11909822D02*
X13224565Y-12259822D01*
X13224565Y-11909822D02*
X12874565Y-12259822D01*
X13482423Y-11920536D02*
X13668137Y-11920536D01*
X13568137Y-12034822D01*
X13610994Y-12034822D01*
X13639565Y-12049107D01*
X13653851Y-12063393D01*
X13668137Y-12091964D01*
X13668137Y-12163393D01*
X13653851Y-12191964D01*
X13639565Y-12206250D01*
X13610994Y-12220536D01*
X13525280Y-12220536D01*
X13496708Y-12206250D01*
X13482423Y-12191964D01*
X13796708Y-12191964D02*
X13810994Y-12206250D01*
X13796708Y-12220536D01*
X13782423Y-12206250D01*
X13796708Y-12191964D01*
X13796708Y-12220536D01*
X14082423Y-11920536D02*
X13939565Y-11920536D01*
X13925280Y-12063393D01*
X13939565Y-12049107D01*
X13968137Y-12034822D01*
X14039565Y-12034822D01*
X14068137Y-12049107D01*
X14082423Y-12063393D01*
X14096708Y-12091964D01*
X14096708Y-12163393D01*
X14082423Y-12191964D01*
X14068137Y-12206250D01*
X14039565Y-12220536D01*
X13968137Y-12220536D01*
X13939565Y-12206250D01*
X13925280Y-12191964D01*
X14282423Y-11920536D02*
X14310994Y-11920536D01*
X14339565Y-11934822D01*
X14353851Y-11949107D01*
X14368137Y-11977679D01*
X14382423Y-12034822D01*
X14382423Y-12106250D01*
X14368137Y-12163393D01*
X14353851Y-12191964D01*
X14339565Y-12206250D01*
X14310994Y-12220536D01*
X14282423Y-12220536D01*
X14253851Y-12206250D01*
X14239565Y-12191964D01*
X14225280Y-12163393D01*
X14210994Y-12106250D01*
X14210994Y-12034822D01*
X14225280Y-11977679D01*
X14239565Y-11949107D01*
X14253851Y-11934822D01*
X14282423Y-11920536D01*
X14568137Y-11920536D02*
X14596708Y-11920536D01*
X14625280Y-11934822D01*
X14639565Y-11949107D01*
X14653851Y-11977679D01*
X14668137Y-12034822D01*
X14668137Y-12106250D01*
X14653851Y-12163393D01*
X14639565Y-12191964D01*
X14625280Y-12206250D01*
X14596708Y-12220536D01*
X14568137Y-12220536D01*
X14539565Y-12206250D01*
X14525280Y-12191964D01*
X14510994Y-12163393D01*
X14496708Y-12106250D01*
X14496708Y-12034822D01*
X14510994Y-11977679D01*
X14525280Y-11949107D01*
X14539565Y-11934822D01*
X14568137Y-11920536D01*
X14796708Y-12220536D02*
X14796708Y-12020536D01*
X14796708Y-12049107D02*
X14810994Y-12034822D01*
X14839565Y-12020536D01*
X14882423Y-12020536D01*
X14910994Y-12034822D01*
X14925280Y-12063393D01*
X14925280Y-12220536D01*
X14925280Y-12063393D02*
X14939565Y-12034822D01*
X14968137Y-12020536D01*
X15010994Y-12020536D01*
X15039565Y-12034822D01*
X15053851Y-12063393D01*
X15053851Y-12220536D01*
X15196708Y-12220536D02*
X15196708Y-12020536D01*
X15196708Y-12049107D02*
X15210994Y-12034822D01*
X15239565Y-12020536D01*
X15282423Y-12020536D01*
X15310994Y-12034822D01*
X15325280Y-12063393D01*
X15325280Y-12220536D01*
X15325280Y-12063393D02*
X15339565Y-12034822D01*
X15368137Y-12020536D01*
X15410994Y-12020536D01*
X15439565Y-12034822D01*
X15453851Y-12063393D01*
X15453851Y-12220536D01*
X16039565Y-11906250D02*
X15782423Y-12291964D01*
X16425280Y-11920536D02*
X16453851Y-11920536D01*
X16482423Y-11934822D01*
X16496708Y-11949107D01*
X16510994Y-11977679D01*
X16525280Y-12034822D01*
X16525280Y-12106250D01*
X16510994Y-12163393D01*
X16496708Y-12191964D01*
X16482423Y-12206250D01*
X16453851Y-12220536D01*
X16425280Y-12220536D01*
X16396708Y-12206250D01*
X16382423Y-12191964D01*
X16368137Y-12163393D01*
X16353851Y-12106250D01*
X16353851Y-12034822D01*
X16368137Y-11977679D01*
X16382423Y-11949107D01*
X16396708Y-11934822D01*
X16425280Y-11920536D01*
X16653851Y-12191964D02*
X16668137Y-12206250D01*
X16653851Y-12220536D01*
X16639565Y-12206250D01*
X16653851Y-12191964D01*
X16653851Y-12220536D01*
X16953851Y-12220536D02*
X16782423Y-12220536D01*
X16868137Y-12220536D02*
X16868137Y-11920536D01*
X16839566Y-11963393D01*
X16810994Y-11991964D01*
X16782423Y-12006250D01*
X17053851Y-11920536D02*
X17239566Y-11920536D01*
X17139566Y-12034822D01*
X17182423Y-12034822D01*
X17210994Y-12049107D01*
X17225280Y-12063393D01*
X17239566Y-12091964D01*
X17239566Y-12163393D01*
X17225280Y-12191964D01*
X17210994Y-12206250D01*
X17182423Y-12220536D01*
X17096708Y-12220536D01*
X17068137Y-12206250D01*
X17053851Y-12191964D01*
X17339566Y-11920536D02*
X17539566Y-11920536D01*
X17410994Y-12220536D01*
X17696708Y-12049107D02*
X17668137Y-12034822D01*
X17653851Y-12020536D01*
X17639566Y-11991964D01*
X17639566Y-11977679D01*
X17653851Y-11949107D01*
X17668137Y-11934822D01*
X17696708Y-11920536D01*
X17753851Y-11920536D01*
X17782423Y-11934822D01*
X17796708Y-11949107D01*
X17810994Y-11977679D01*
X17810994Y-11991964D01*
X17796708Y-12020536D01*
X17782423Y-12034822D01*
X17753851Y-12049107D01*
X17696708Y-12049107D01*
X17668137Y-12063393D01*
X17653851Y-12077679D01*
X17639566Y-12106250D01*
X17639566Y-12163393D01*
X17653851Y-12191964D01*
X17668137Y-12206250D01*
X17696708Y-12220536D01*
X17753851Y-12220536D01*
X17782423Y-12206250D01*
X17796708Y-12191964D01*
X17810994Y-12163393D01*
X17810994Y-12106250D01*
X17796708Y-12077679D01*
X17782423Y-12063393D01*
X17753851Y-12049107D01*
X17925280Y-11920536D02*
X17925280Y-11977679D01*
X18039566Y-11920536D02*
X18039566Y-11977679D01*
X18482423Y-12334822D02*
X18468137Y-12320536D01*
X18439566Y-12277679D01*
X18425280Y-12249107D01*
X18410994Y-12206250D01*
X18396708Y-12134822D01*
X18396708Y-12077679D01*
X18410994Y-12006250D01*
X18425280Y-11963393D01*
X18439566Y-11934822D01*
X18468137Y-11891964D01*
X18482423Y-11877679D01*
X18753851Y-12220536D02*
X18582423Y-12220536D01*
X18668137Y-12220536D02*
X18668137Y-11920536D01*
X18639566Y-11963393D01*
X18610994Y-11991964D01*
X18582423Y-12006250D01*
X19110994Y-12220536D02*
X19110994Y-11920536D01*
X19239566Y-12220536D02*
X19239566Y-12063393D01*
X19225280Y-12034822D01*
X19196708Y-12020536D01*
X19153851Y-12020536D01*
X19125280Y-12034822D01*
X19110994Y-12049107D01*
X19425280Y-12220536D02*
X19396708Y-12206250D01*
X19382423Y-12191964D01*
X19368137Y-12163393D01*
X19368137Y-12077679D01*
X19382423Y-12049107D01*
X19396708Y-12034822D01*
X19425280Y-12020536D01*
X19468137Y-12020536D01*
X19496708Y-12034822D01*
X19510994Y-12049107D01*
X19525280Y-12077679D01*
X19525280Y-12163393D01*
X19510994Y-12191964D01*
X19496708Y-12206250D01*
X19468137Y-12220536D01*
X19425280Y-12220536D01*
X19696708Y-12220536D02*
X19668137Y-12206250D01*
X19653851Y-12177679D01*
X19653851Y-11920536D01*
X19925280Y-12206250D02*
X19896708Y-12220536D01*
X19839566Y-12220536D01*
X19810994Y-12206250D01*
X19796708Y-12177679D01*
X19796708Y-12063393D01*
X19810994Y-12034822D01*
X19839566Y-12020536D01*
X19896708Y-12020536D01*
X19925280Y-12034822D01*
X19939566Y-12063393D01*
X19939566Y-12091964D01*
X19796708Y-12120536D01*
X20039566Y-12334822D02*
X20053851Y-12320536D01*
X20082423Y-12277679D01*
X20096708Y-12249107D01*
X20110994Y-12206250D01*
X20125280Y-12134822D01*
X20125280Y-12077679D01*
X20110994Y-12006250D01*
X20096708Y-11963393D01*
X20082423Y-11934822D01*
X20053851Y-11891964D01*
X20039566Y-11877679D01*
X20582423Y-12334822D02*
X20568137Y-12320536D01*
X20539566Y-12277679D01*
X20525280Y-12249107D01*
X20510994Y-12206250D01*
X20496708Y-12134822D01*
X20496708Y-12077679D01*
X20510994Y-12006250D01*
X20525280Y-11963393D01*
X20539566Y-11934822D01*
X20568137Y-11891964D01*
X20582423Y-11877679D01*
X20696708Y-12020536D02*
X20696708Y-12220536D01*
X20696708Y-12049107D02*
X20710994Y-12034822D01*
X20739566Y-12020536D01*
X20782423Y-12020536D01*
X20810994Y-12034822D01*
X20825280Y-12063393D01*
X20825280Y-12220536D01*
X21010994Y-12220536D02*
X20982423Y-12206250D01*
X20968137Y-12191964D01*
X20953851Y-12163393D01*
X20953851Y-12077679D01*
X20968137Y-12049107D01*
X20982423Y-12034822D01*
X21010994Y-12020536D01*
X21053851Y-12020536D01*
X21082423Y-12034822D01*
X21096708Y-12049107D01*
X21110994Y-12077679D01*
X21110994Y-12163393D01*
X21096708Y-12191964D01*
X21082423Y-12206250D01*
X21053851Y-12220536D01*
X21010994Y-12220536D01*
X21196708Y-12020536D02*
X21310994Y-12020536D01*
X21239566Y-11920536D02*
X21239566Y-12177679D01*
X21253851Y-12206250D01*
X21282423Y-12220536D01*
X21310994Y-12220536D01*
X21639566Y-12020536D02*
X21639566Y-12320536D01*
X21639566Y-12034822D02*
X21668137Y-12020536D01*
X21725280Y-12020536D01*
X21753851Y-12034822D01*
X21768137Y-12049107D01*
X21782423Y-12077679D01*
X21782423Y-12163393D01*
X21768137Y-12191964D01*
X21753851Y-12206250D01*
X21725280Y-12220536D01*
X21668137Y-12220536D01*
X21639566Y-12206250D01*
X21953851Y-12220536D02*
X21925280Y-12206250D01*
X21910994Y-12177679D01*
X21910994Y-11920536D01*
X22196708Y-12220536D02*
X22196708Y-12063393D01*
X22182423Y-12034822D01*
X22153851Y-12020536D01*
X22096708Y-12020536D01*
X22068137Y-12034822D01*
X22196708Y-12206250D02*
X22168137Y-12220536D01*
X22096708Y-12220536D01*
X22068137Y-12206250D01*
X22053851Y-12177679D01*
X22053851Y-12149107D01*
X22068137Y-12120536D01*
X22096708Y-12106250D01*
X22168137Y-12106250D01*
X22196708Y-12091964D01*
X22296708Y-12020536D02*
X22410994Y-12020536D01*
X22339566Y-11920536D02*
X22339566Y-12177679D01*
X22353851Y-12206250D01*
X22382423Y-12220536D01*
X22410994Y-12220536D01*
X22625280Y-12206250D02*
X22596708Y-12220536D01*
X22539565Y-12220536D01*
X22510994Y-12206250D01*
X22496708Y-12177679D01*
X22496708Y-12063393D01*
X22510994Y-12034822D01*
X22539565Y-12020536D01*
X22596708Y-12020536D01*
X22625280Y-12034822D01*
X22639565Y-12063393D01*
X22639565Y-12091964D01*
X22496708Y-12120536D01*
X22896708Y-12220536D02*
X22896708Y-11920536D01*
X22896708Y-12206250D02*
X22868137Y-12220536D01*
X22810994Y-12220536D01*
X22782423Y-12206250D01*
X22768137Y-12191964D01*
X22753851Y-12163393D01*
X22753851Y-12077679D01*
X22768137Y-12049107D01*
X22782423Y-12034822D01*
X22810994Y-12020536D01*
X22868137Y-12020536D01*
X22896708Y-12034822D01*
X23010994Y-12334822D02*
X23025280Y-12320536D01*
X23053851Y-12277679D01*
X23068137Y-12249107D01*
X23082423Y-12206250D01*
X23096708Y-12134822D01*
X23096708Y-12077679D01*
X23082423Y-12006250D01*
X23068137Y-11963393D01*
X23053851Y-11934822D01*
X23025280Y-11891964D01*
X23010994Y-11877679D01*
M02*
