G04 #@! TF.GenerationSoftware,KiCad,Pcbnew,(5.1.10-1-10_14)*
G04 #@! TF.CreationDate,2021-12-02T22:50:33+01:00*
G04 #@! TF.ProjectId,Power-Zauberling,506f7765-722d-45a6-9175-6265726c696e,rev?*
G04 #@! TF.SameCoordinates,Original*
G04 #@! TF.FileFunction,Soldermask,Bot*
G04 #@! TF.FilePolarity,Negative*
%FSLAX46Y46*%
G04 Gerber Fmt 4.6, Leading zero omitted, Abs format (unit mm)*
G04 Created by KiCad (PCBNEW (5.1.10-1-10_14)) date 2021-12-02 22:50:33*
%MOMM*%
%LPD*%
G01*
G04 APERTURE LIST*
%ADD10C,0.800000*%
%ADD11C,6.400000*%
%ADD12C,2.000000*%
%ADD13R,4.000000X4.000000*%
%ADD14O,1.905000X2.000000*%
%ADD15R,1.905000X2.000000*%
%ADD16O,3.500000X3.500000*%
%ADD17O,1.700000X1.700000*%
%ADD18R,1.700000X1.700000*%
%ADD19O,1.200000X1.750000*%
%ADD20O,1.700000X2.000000*%
G04 APERTURE END LIST*
D10*
X154097056Y-86186944D03*
X152400000Y-85484000D03*
X150702944Y-86186944D03*
X150000000Y-87884000D03*
X150702944Y-89581056D03*
X152400000Y-90284000D03*
X154097056Y-89581056D03*
X154800000Y-87884000D03*
D11*
X152400000Y-87884000D03*
D10*
X154097056Y-62564944D03*
X152400000Y-61862000D03*
X150702944Y-62564944D03*
X150000000Y-64262000D03*
X150702944Y-65959056D03*
X152400000Y-66662000D03*
X154097056Y-65959056D03*
X154800000Y-64262000D03*
D11*
X152400000Y-64262000D03*
D12*
X169545000Y-70612000D03*
X135382000Y-81661000D03*
D13*
X145542000Y-107569000D03*
X159258000Y-107569000D03*
X145415000Y-44958000D03*
X159385000Y-44958000D03*
D14*
X149860000Y-71120000D03*
X152400000Y-71120000D03*
D15*
X154940000Y-71120000D03*
D16*
X152400000Y-87780000D03*
D17*
X134620000Y-91440000D03*
X134620000Y-93980000D03*
X134620000Y-96520000D03*
D18*
X134620000Y-99060000D03*
D19*
X146208000Y-58420000D03*
X144208000Y-58420000D03*
X142208000Y-58420000D03*
G36*
G01*
X139608000Y-59045001D02*
X139608000Y-57794999D01*
G75*
G02*
X139857999Y-57545000I249999J0D01*
G01*
X140558001Y-57545000D01*
G75*
G02*
X140808000Y-57794999I0J-249999D01*
G01*
X140808000Y-59045001D01*
G75*
G02*
X140558001Y-59295000I-249999J0D01*
G01*
X139857999Y-59295000D01*
G75*
G02*
X139608000Y-59045001I0J249999D01*
G01*
G37*
X164718000Y-58420000D03*
X162718000Y-58420000D03*
X160718000Y-58420000D03*
X158718000Y-58420000D03*
G36*
G01*
X156118000Y-59045001D02*
X156118000Y-57794999D01*
G75*
G02*
X156367999Y-57545000I249999J0D01*
G01*
X157068001Y-57545000D01*
G75*
G02*
X157318000Y-57794999I0J-249999D01*
G01*
X157318000Y-59045001D01*
G75*
G02*
X157068001Y-59295000I-249999J0D01*
G01*
X156367999Y-59295000D01*
G75*
G02*
X156118000Y-59045001I0J249999D01*
G01*
G37*
D20*
X158028000Y-93980000D03*
G36*
G01*
X161378000Y-93230000D02*
X161378000Y-94730000D01*
G75*
G02*
X161128000Y-94980000I-250000J0D01*
G01*
X159928000Y-94980000D01*
G75*
G02*
X159678000Y-94730000I0J250000D01*
G01*
X159678000Y-93230000D01*
G75*
G02*
X159928000Y-92980000I250000J0D01*
G01*
X161128000Y-92980000D01*
G75*
G02*
X161378000Y-93230000I0J-250000D01*
G01*
G37*
D17*
X170180000Y-89154000D03*
X170180000Y-91694000D03*
X170180000Y-94234000D03*
X170180000Y-96774000D03*
X170180000Y-99314000D03*
D18*
X170180000Y-101854000D03*
D20*
X144312000Y-93980000D03*
G36*
G01*
X147662000Y-93230000D02*
X147662000Y-94730000D01*
G75*
G02*
X147412000Y-94980000I-250000J0D01*
G01*
X146212000Y-94980000D01*
G75*
G02*
X145962000Y-94730000I0J250000D01*
G01*
X145962000Y-93230000D01*
G75*
G02*
X146212000Y-92980000I250000J0D01*
G01*
X147412000Y-92980000D01*
G75*
G02*
X147662000Y-93230000I0J-250000D01*
G01*
G37*
M02*
