%FSLAX45Y45*%
G04 Gerber Fmt 4.5, Leading zero omitted, Abs format (unit mm)*
G04 Created by KiCad (PCBNEW (5.1.10-1-10_14)) date 2021-12-02 22:53:45*
%MOMM*%
%LPD*%
G01*
G04 APERTURE LIST*
%TA.AperFunction,Profile*%
%ADD10C,0.330078*%
%TD*%
%ADD11C,0.200000*%
%ADD12C,0.300000*%
G04 APERTURE END LIST*
D10*
X16588534Y-4113199D02*
X16588534Y-4113199D01*
X16290899Y-4113199D02*
X16588534Y-4113199D01*
X16290899Y-4203175D02*
X16290899Y-4113199D01*
X15670417Y-4203175D02*
X16290899Y-4203175D01*
X15659570Y-4235968D02*
X15670417Y-4203175D01*
X15606367Y-4327658D02*
X15659570Y-4235968D01*
X15508502Y-4425865D02*
X15606367Y-4327658D01*
X15384279Y-4490313D02*
X15508502Y-4425865D01*
X15277029Y-4513501D02*
X15384279Y-4490313D01*
X15241295Y-4513501D02*
X15277029Y-4513501D01*
X15205496Y-4513501D02*
X15241295Y-4513501D01*
X15098197Y-4490313D02*
X15205496Y-4513501D01*
X14973982Y-4425865D02*
X15098197Y-4490313D01*
X14876117Y-4327658D02*
X14973982Y-4425865D01*
X14822914Y-4235968D02*
X14876117Y-4327658D01*
X14812108Y-4203175D02*
X14822914Y-4235968D01*
X14191675Y-4203175D02*
X14812108Y-4203175D01*
X14191675Y-4113199D02*
X14191675Y-4203175D01*
X13894040Y-4113199D02*
X14191675Y-4113199D01*
X13894040Y-4335011D02*
X13894040Y-4113199D01*
X13894040Y-4356705D02*
X13894040Y-4335011D01*
X13885265Y-4421859D02*
X13894040Y-4356705D01*
X13860102Y-4502752D02*
X13885265Y-4421859D01*
X13820338Y-4575966D02*
X13860102Y-4502752D01*
X13767660Y-4639788D02*
X13820338Y-4575966D01*
X13703830Y-4692471D02*
X13767660Y-4639788D01*
X13630612Y-4732234D02*
X13703830Y-4692471D01*
X13549724Y-4757398D02*
X13630612Y-4732234D01*
X13484572Y-4766164D02*
X13549724Y-4757398D01*
X13462885Y-4766164D02*
X13484572Y-4766164D01*
X13241069Y-4766164D02*
X13462885Y-4766164D01*
X13241069Y-6561147D02*
X13241069Y-4766164D01*
X13331039Y-6561147D02*
X13241069Y-6561147D01*
X13331039Y-7181979D02*
X13331039Y-6561147D01*
X13363746Y-7192866D02*
X13331039Y-7181979D01*
X13455082Y-7246117D02*
X13363746Y-7192866D01*
X13552942Y-7343934D02*
X13455082Y-7246117D01*
X13617124Y-7467979D02*
X13552942Y-7343934D01*
X13640222Y-7575058D02*
X13617124Y-7467979D01*
X13640222Y-7610767D02*
X13640222Y-7575058D01*
X13640222Y-7646420D02*
X13640222Y-7610767D01*
X13617124Y-7753540D02*
X13640222Y-7646420D01*
X13552942Y-7877576D02*
X13617124Y-7753540D01*
X13455082Y-7975393D02*
X13552942Y-7877576D01*
X13363746Y-8028693D02*
X13455082Y-7975393D01*
X13331039Y-8039581D02*
X13363746Y-8028693D01*
X13331039Y-8660371D02*
X13331039Y-8039581D01*
X13241069Y-8660371D02*
X13331039Y-8660371D01*
X13241069Y-10455387D02*
X13241069Y-8660371D01*
X13462885Y-10455387D02*
X13241069Y-10455387D01*
X13484572Y-10455387D02*
X13462885Y-10455387D01*
X13549724Y-10464121D02*
X13484572Y-10455387D01*
X13630612Y-10489293D02*
X13549724Y-10464121D01*
X13703830Y-10529048D02*
X13630612Y-10489293D01*
X13767660Y-10581727D02*
X13703830Y-10529048D01*
X13820338Y-10645557D02*
X13767660Y-10581727D01*
X13860102Y-10718775D02*
X13820338Y-10645557D01*
X13885265Y-10799663D02*
X13860102Y-10718775D01*
X13894040Y-10864815D02*
X13885265Y-10799663D01*
X13894040Y-10886547D02*
X13894040Y-10864815D01*
X13894040Y-11108318D02*
X13894040Y-10886547D01*
X14191675Y-11108318D02*
X13894040Y-11108318D01*
X14191675Y-11018393D02*
X14191675Y-11108318D01*
X14812774Y-11018393D02*
X14191675Y-11018393D01*
X14823711Y-10985728D02*
X14812774Y-11018393D01*
X14877043Y-10894658D02*
X14823711Y-10985728D01*
X14974811Y-10797063D02*
X14877043Y-10894658D01*
X15098734Y-10733057D02*
X14974811Y-10797063D01*
X15205618Y-10710090D02*
X15098734Y-10733057D01*
X15241295Y-10710090D02*
X15205618Y-10710090D01*
X15276907Y-10710090D02*
X15241295Y-10710090D01*
X15383791Y-10733057D02*
X15276907Y-10710090D01*
X15507665Y-10797063D02*
X15383791Y-10733057D01*
X15605482Y-10894658D02*
X15507665Y-10797063D01*
X15658782Y-10985728D02*
X15605482Y-10894658D01*
X15669751Y-11018393D02*
X15658782Y-10985728D01*
X16290899Y-11018393D02*
X15669751Y-11018393D01*
X16290899Y-11108318D02*
X16290899Y-11018393D01*
X16588534Y-11108318D02*
X16290899Y-11108318D01*
X16588534Y-10886547D02*
X16588534Y-11108318D01*
X16588534Y-10864815D02*
X16588534Y-10886547D01*
X16597260Y-10799663D02*
X16588534Y-10864815D01*
X16622431Y-10718775D02*
X16597260Y-10799663D01*
X16662195Y-10645557D02*
X16622431Y-10718775D01*
X16714829Y-10581727D02*
X16662195Y-10645557D01*
X16778651Y-10529048D02*
X16714829Y-10581727D01*
X16851873Y-10489293D02*
X16778651Y-10529048D01*
X16932758Y-10464121D02*
X16851873Y-10489293D01*
X16997920Y-10455387D02*
X16932758Y-10464121D01*
X17019638Y-10455387D02*
X16997920Y-10455387D01*
X17240541Y-10455387D02*
X17019638Y-10455387D01*
X17240541Y-8660371D02*
X17240541Y-10455387D01*
X17150564Y-8660371D02*
X17240541Y-8660371D01*
X17150564Y-8038386D02*
X17150564Y-8660371D01*
X17117772Y-8027629D02*
X17150564Y-8038386D01*
X17026252Y-7974727D02*
X17117772Y-8027629D01*
X16928175Y-7877227D02*
X17026252Y-7974727D01*
X16863776Y-7753402D02*
X16928175Y-7877227D01*
X16840677Y-7646420D02*
X16863776Y-7753402D01*
X16840677Y-7610767D02*
X16840677Y-7646420D01*
X16840677Y-7575091D02*
X16840677Y-7610767D01*
X16863776Y-7468117D02*
X16840677Y-7575091D01*
X16928175Y-7344243D02*
X16863776Y-7468117D01*
X17026252Y-7246784D02*
X16928175Y-7344243D01*
X17117772Y-7193882D02*
X17026252Y-7246784D01*
X17150564Y-7183173D02*
X17117772Y-7193882D01*
X17150564Y-6561147D02*
X17150564Y-7183173D01*
X17240541Y-6561147D02*
X17150564Y-6561147D01*
X17240541Y-4766164D02*
X17240541Y-6561147D01*
X17019638Y-4766164D02*
X17240541Y-4766164D01*
X16997920Y-4766164D02*
X17019638Y-4766164D01*
X16932758Y-4757398D02*
X16997920Y-4766164D01*
X16851873Y-4732234D02*
X16932758Y-4757398D01*
X16778651Y-4692471D02*
X16851873Y-4732234D01*
X16714829Y-4639788D02*
X16778651Y-4692471D01*
X16662195Y-4575966D02*
X16714829Y-4639788D01*
X16622431Y-4502752D02*
X16662195Y-4575966D01*
X16597260Y-4421859D02*
X16622431Y-4502752D01*
X16588534Y-4356705D02*
X16597260Y-4421859D01*
X16588534Y-4335011D02*
X16588534Y-4356705D01*
X16588534Y-4113199D02*
X16588534Y-4335011D01*
D11*
X14000800Y-7727000D02*
X14040800Y-7767000D01*
X14040800Y-7727000D02*
X14000800Y-7767000D01*
X14407200Y-6939600D02*
X14447200Y-6979600D01*
X14447200Y-6939600D02*
X14407200Y-6979600D01*
X14407200Y-7955600D02*
X14447200Y-7995600D01*
X14447200Y-7955600D02*
X14407200Y-7995600D01*
X14546900Y-8400100D02*
X14586900Y-8440100D01*
X14586900Y-8400100D02*
X14546900Y-8440100D01*
X14585000Y-6888800D02*
X14625000Y-6928800D01*
X14625000Y-6888800D02*
X14585000Y-6928800D01*
X14585000Y-8133400D02*
X14625000Y-8173400D01*
X14625000Y-8133400D02*
X14585000Y-8173400D01*
X15740700Y-7727000D02*
X15780700Y-7767000D01*
X15780700Y-7727000D02*
X15740700Y-7767000D01*
X15842300Y-5555300D02*
X15882300Y-5595300D01*
X15882300Y-5555300D02*
X15842300Y-5595300D01*
X16159800Y-6838000D02*
X16199800Y-6878000D01*
X16199800Y-6838000D02*
X16159800Y-6878000D01*
X16185200Y-8260400D02*
X16225200Y-8300400D01*
X16225200Y-8260400D02*
X16185200Y-8300400D01*
X16185200Y-8260400D02*
X16225200Y-8300400D01*
X16225200Y-8260400D02*
X16185200Y-8300400D01*
X16185200Y-8463600D02*
X16225200Y-8503600D01*
X16225200Y-8463600D02*
X16185200Y-8503600D01*
X16286800Y-9911400D02*
X16326800Y-9951400D01*
X16326800Y-9911400D02*
X16286800Y-9951400D01*
X16413800Y-9784400D02*
X16453800Y-9824400D01*
X16453800Y-9784400D02*
X16413800Y-9824400D01*
X15025000Y-6426200D02*
G75*
G03*
X15025000Y-6426200I-25000J0D01*
G01*
X15025000Y-8788400D02*
G75*
G03*
X15025000Y-8788400I-25000J0D01*
G01*
X15095294Y-6256494D02*
G75*
G03*
X15095294Y-6256494I-25000J0D01*
G01*
X15095294Y-6595906D02*
G75*
G03*
X15095294Y-6595906I-25000J0D01*
G01*
X15095294Y-8618694D02*
G75*
G03*
X15095294Y-8618694I-25000J0D01*
G01*
X15095294Y-8958106D02*
G75*
G03*
X15095294Y-8958106I-25000J0D01*
G01*
X15265000Y-6186200D02*
G75*
G03*
X15265000Y-6186200I-25000J0D01*
G01*
X15265000Y-6666200D02*
G75*
G03*
X15265000Y-6666200I-25000J0D01*
G01*
X15265000Y-8548400D02*
G75*
G03*
X15265000Y-8548400I-25000J0D01*
G01*
X15265000Y-9028400D02*
G75*
G03*
X15265000Y-9028400I-25000J0D01*
G01*
X15434706Y-6256494D02*
G75*
G03*
X15434706Y-6256494I-25000J0D01*
G01*
X15434706Y-6595906D02*
G75*
G03*
X15434706Y-6595906I-25000J0D01*
G01*
X15434706Y-8618694D02*
G75*
G03*
X15434706Y-8618694I-25000J0D01*
G01*
X15434706Y-8958106D02*
G75*
G03*
X15434706Y-8958106I-25000J0D01*
G01*
X15505000Y-6426200D02*
G75*
G03*
X15505000Y-6426200I-25000J0D01*
G01*
X15505000Y-8788400D02*
G75*
G03*
X15505000Y-8788400I-25000J0D01*
G01*
X14020800Y-5804500D02*
X14020800Y-5879500D01*
X13983300Y-5842000D02*
X14058300Y-5842000D01*
X14220800Y-5804500D02*
X14220800Y-5879500D01*
X14183300Y-5842000D02*
X14258300Y-5842000D01*
X14420800Y-5804500D02*
X14420800Y-5879500D01*
X14383300Y-5842000D02*
X14458300Y-5842000D01*
X14620800Y-5804500D02*
X14620800Y-5879500D01*
X14583300Y-5842000D02*
X14658300Y-5842000D01*
X15671800Y-5804500D02*
X15671800Y-5879500D01*
X15634300Y-5842000D02*
X15709300Y-5842000D01*
X15871800Y-5804500D02*
X15871800Y-5879500D01*
X15834300Y-5842000D02*
X15909300Y-5842000D01*
X16071800Y-5804500D02*
X16071800Y-5879500D01*
X16034300Y-5842000D02*
X16109300Y-5842000D01*
X16271800Y-5804500D02*
X16271800Y-5879500D01*
X16234300Y-5842000D02*
X16309300Y-5842000D01*
X16471800Y-5804500D02*
X16471800Y-5879500D01*
X16434300Y-5842000D02*
X16509300Y-5842000D01*
X13497356Y-9179356D02*
X13497356Y-9108644D01*
X13426644Y-9108644D01*
X13426644Y-9179356D01*
X13497356Y-9179356D01*
X13497356Y-9433356D02*
X13497356Y-9362644D01*
X13426644Y-9362644D01*
X13426644Y-9433356D01*
X13497356Y-9433356D01*
X13497356Y-9687356D02*
X13497356Y-9616644D01*
X13426644Y-9616644D01*
X13426644Y-9687356D01*
X13497356Y-9687356D01*
X13497356Y-9941356D02*
X13497356Y-9870644D01*
X13426644Y-9870644D01*
X13426644Y-9941356D01*
X13497356Y-9941356D01*
X13573556Y-8201456D02*
X13573556Y-8130744D01*
X13502844Y-8130744D01*
X13502844Y-8201456D01*
X13573556Y-8201456D01*
X14466556Y-9433356D02*
X14466556Y-9362644D01*
X14395844Y-9362644D01*
X14395844Y-9433356D01*
X14466556Y-9433356D01*
X14716556Y-9433356D02*
X14716556Y-9362644D01*
X14645844Y-9362644D01*
X14645844Y-9433356D01*
X14716556Y-9433356D01*
X15838156Y-9433356D02*
X15838156Y-9362644D01*
X15767444Y-9362644D01*
X15767444Y-9433356D01*
X15838156Y-9433356D01*
X16088156Y-9433356D02*
X16088156Y-9362644D01*
X16017444Y-9362644D01*
X16017444Y-9433356D01*
X16088156Y-9433356D01*
X16989856Y-7096556D02*
X16989856Y-7025844D01*
X16919144Y-7025844D01*
X16919144Y-7096556D01*
X16989856Y-7096556D01*
X17053356Y-8950756D02*
X17053356Y-8880044D01*
X16982644Y-8880044D01*
X16982644Y-8950756D01*
X17053356Y-8950756D01*
X17053356Y-9204756D02*
X17053356Y-9134044D01*
X16982644Y-9134044D01*
X16982644Y-9204756D01*
X17053356Y-9204756D01*
X17053356Y-9458756D02*
X17053356Y-9388044D01*
X16982644Y-9388044D01*
X16982644Y-9458756D01*
X17053356Y-9458756D01*
X17053356Y-9712756D02*
X17053356Y-9642044D01*
X16982644Y-9642044D01*
X16982644Y-9712756D01*
X17053356Y-9712756D01*
X17053356Y-9966756D02*
X17053356Y-9896044D01*
X16982644Y-9896044D01*
X16982644Y-9966756D01*
X17053356Y-9966756D01*
X17053356Y-10220756D02*
X17053356Y-10150044D01*
X16982644Y-10150044D01*
X16982644Y-10220756D01*
X17053356Y-10220756D01*
X14986000Y-7167000D02*
X15041000Y-7112000D01*
X14986000Y-7057000D01*
X14931000Y-7112000D01*
X14986000Y-7167000D01*
X15240000Y-7167000D02*
X15295000Y-7112000D01*
X15240000Y-7057000D01*
X15185000Y-7112000D01*
X15240000Y-7167000D01*
X15494000Y-7167000D02*
X15549000Y-7112000D01*
X15494000Y-7057000D01*
X15439000Y-7112000D01*
X15494000Y-7167000D01*
X14441500Y-4395800D02*
X14641500Y-4595800D01*
X14641500Y-4395800D02*
X14441500Y-4595800D01*
X14641500Y-4495800D02*
G75*
G03*
X14641500Y-4495800I-100000J0D01*
G01*
X14454200Y-10656900D02*
X14654200Y-10856900D01*
X14654200Y-10656900D02*
X14454200Y-10856900D01*
X14654200Y-10756900D02*
G75*
G03*
X14654200Y-10756900I-100000J0D01*
G01*
X15825800Y-10656900D02*
X16025800Y-10856900D01*
X16025800Y-10656900D02*
X15825800Y-10856900D01*
X16025800Y-10756900D02*
G75*
G03*
X16025800Y-10756900I-100000J0D01*
G01*
X15838500Y-4395800D02*
X16038500Y-4595800D01*
X16038500Y-4395800D02*
X15838500Y-4595800D01*
X16038500Y-4495800D02*
G75*
G03*
X16038500Y-4495800I-100000J0D01*
G01*
X15080000Y-6266200D02*
X15400000Y-6586200D01*
X15400000Y-6266200D02*
X15080000Y-6586200D01*
X15240000Y-6266200D02*
X15240000Y-6586200D01*
X15080000Y-6426200D02*
X15400000Y-6426200D01*
X15080000Y-8628400D02*
X15400000Y-8948400D01*
X15400000Y-8628400D02*
X15080000Y-8948400D01*
X15240000Y-8628400D02*
X15240000Y-8948400D01*
X15080000Y-8788400D02*
X15400000Y-8788400D01*
D12*
X13510994Y-11590536D02*
X13510994Y-11290536D01*
X13582423Y-11290536D01*
X13625280Y-11304822D01*
X13653851Y-11333393D01*
X13668137Y-11361964D01*
X13682423Y-11419107D01*
X13682423Y-11461964D01*
X13668137Y-11519107D01*
X13653851Y-11547679D01*
X13625280Y-11576250D01*
X13582423Y-11590536D01*
X13510994Y-11590536D01*
X13810994Y-11590536D02*
X13810994Y-11390536D01*
X13810994Y-11447679D02*
X13825280Y-11419107D01*
X13839565Y-11404822D01*
X13868137Y-11390536D01*
X13896708Y-11390536D01*
X13996708Y-11590536D02*
X13996708Y-11390536D01*
X13996708Y-11290536D02*
X13982423Y-11304822D01*
X13996708Y-11319107D01*
X14010994Y-11304822D01*
X13996708Y-11290536D01*
X13996708Y-11319107D01*
X14182423Y-11590536D02*
X14153851Y-11576250D01*
X14139565Y-11547679D01*
X14139565Y-11290536D01*
X14339565Y-11590536D02*
X14310994Y-11576250D01*
X14296708Y-11547679D01*
X14296708Y-11290536D01*
X14682423Y-11590536D02*
X14682423Y-11290536D01*
X14782423Y-11504822D01*
X14882423Y-11290536D01*
X14882423Y-11590536D01*
X15153851Y-11590536D02*
X15153851Y-11433393D01*
X15139565Y-11404822D01*
X15110994Y-11390536D01*
X15053851Y-11390536D01*
X15025280Y-11404822D01*
X15153851Y-11576250D02*
X15125280Y-11590536D01*
X15053851Y-11590536D01*
X15025280Y-11576250D01*
X15010994Y-11547679D01*
X15010994Y-11519107D01*
X15025280Y-11490536D01*
X15053851Y-11476250D01*
X15125280Y-11476250D01*
X15153851Y-11461964D01*
X15296708Y-11390536D02*
X15296708Y-11690536D01*
X15296708Y-11404822D02*
X15325280Y-11390536D01*
X15382423Y-11390536D01*
X15410994Y-11404822D01*
X15425280Y-11419107D01*
X15439565Y-11447679D01*
X15439565Y-11533393D01*
X15425280Y-11561964D01*
X15410994Y-11576250D01*
X15382423Y-11590536D01*
X15325280Y-11590536D01*
X15296708Y-11576250D01*
X15568137Y-11561964D02*
X15582423Y-11576250D01*
X15568137Y-11590536D01*
X15553851Y-11576250D01*
X15568137Y-11561964D01*
X15568137Y-11590536D01*
X15568137Y-11404822D02*
X15582423Y-11419107D01*
X15568137Y-11433393D01*
X15553851Y-11419107D01*
X15568137Y-11404822D01*
X15568137Y-11433393D01*
X13184565Y-12064822D02*
X13224565Y-12104822D01*
X13224565Y-12064822D02*
X13184565Y-12104822D01*
X13568137Y-11920536D02*
X13596708Y-11920536D01*
X13625280Y-11934822D01*
X13639565Y-11949107D01*
X13653851Y-11977679D01*
X13668137Y-12034822D01*
X13668137Y-12106250D01*
X13653851Y-12163393D01*
X13639565Y-12191964D01*
X13625280Y-12206250D01*
X13596708Y-12220536D01*
X13568137Y-12220536D01*
X13539565Y-12206250D01*
X13525280Y-12191964D01*
X13510994Y-12163393D01*
X13496708Y-12106250D01*
X13496708Y-12034822D01*
X13510994Y-11977679D01*
X13525280Y-11949107D01*
X13539565Y-11934822D01*
X13568137Y-11920536D01*
X13796708Y-12191964D02*
X13810994Y-12206250D01*
X13796708Y-12220536D01*
X13782423Y-12206250D01*
X13796708Y-12191964D01*
X13796708Y-12220536D01*
X14068137Y-12020536D02*
X14068137Y-12220536D01*
X13996708Y-11906250D02*
X13925280Y-12120536D01*
X14110994Y-12120536D01*
X14282423Y-11920536D02*
X14310994Y-11920536D01*
X14339565Y-11934822D01*
X14353851Y-11949107D01*
X14368137Y-11977679D01*
X14382423Y-12034822D01*
X14382423Y-12106250D01*
X14368137Y-12163393D01*
X14353851Y-12191964D01*
X14339565Y-12206250D01*
X14310994Y-12220536D01*
X14282423Y-12220536D01*
X14253851Y-12206250D01*
X14239565Y-12191964D01*
X14225280Y-12163393D01*
X14210994Y-12106250D01*
X14210994Y-12034822D01*
X14225280Y-11977679D01*
X14239565Y-11949107D01*
X14253851Y-11934822D01*
X14282423Y-11920536D01*
X14568137Y-11920536D02*
X14596708Y-11920536D01*
X14625280Y-11934822D01*
X14639565Y-11949107D01*
X14653851Y-11977679D01*
X14668137Y-12034822D01*
X14668137Y-12106250D01*
X14653851Y-12163393D01*
X14639565Y-12191964D01*
X14625280Y-12206250D01*
X14596708Y-12220536D01*
X14568137Y-12220536D01*
X14539565Y-12206250D01*
X14525280Y-12191964D01*
X14510994Y-12163393D01*
X14496708Y-12106250D01*
X14496708Y-12034822D01*
X14510994Y-11977679D01*
X14525280Y-11949107D01*
X14539565Y-11934822D01*
X14568137Y-11920536D01*
X14796708Y-12220536D02*
X14796708Y-12020536D01*
X14796708Y-12049107D02*
X14810994Y-12034822D01*
X14839565Y-12020536D01*
X14882423Y-12020536D01*
X14910994Y-12034822D01*
X14925280Y-12063393D01*
X14925280Y-12220536D01*
X14925280Y-12063393D02*
X14939565Y-12034822D01*
X14968137Y-12020536D01*
X15010994Y-12020536D01*
X15039565Y-12034822D01*
X15053851Y-12063393D01*
X15053851Y-12220536D01*
X15196708Y-12220536D02*
X15196708Y-12020536D01*
X15196708Y-12049107D02*
X15210994Y-12034822D01*
X15239565Y-12020536D01*
X15282423Y-12020536D01*
X15310994Y-12034822D01*
X15325280Y-12063393D01*
X15325280Y-12220536D01*
X15325280Y-12063393D02*
X15339565Y-12034822D01*
X15368137Y-12020536D01*
X15410994Y-12020536D01*
X15439565Y-12034822D01*
X15453851Y-12063393D01*
X15453851Y-12220536D01*
X16039565Y-11906250D02*
X15782423Y-12291964D01*
X16425280Y-11920536D02*
X16453851Y-11920536D01*
X16482423Y-11934822D01*
X16496708Y-11949107D01*
X16510994Y-11977679D01*
X16525280Y-12034822D01*
X16525280Y-12106250D01*
X16510994Y-12163393D01*
X16496708Y-12191964D01*
X16482423Y-12206250D01*
X16453851Y-12220536D01*
X16425280Y-12220536D01*
X16396708Y-12206250D01*
X16382423Y-12191964D01*
X16368137Y-12163393D01*
X16353851Y-12106250D01*
X16353851Y-12034822D01*
X16368137Y-11977679D01*
X16382423Y-11949107D01*
X16396708Y-11934822D01*
X16425280Y-11920536D01*
X16653851Y-12191964D02*
X16668137Y-12206250D01*
X16653851Y-12220536D01*
X16639565Y-12206250D01*
X16653851Y-12191964D01*
X16653851Y-12220536D01*
X16853851Y-11920536D02*
X16882423Y-11920536D01*
X16910994Y-11934822D01*
X16925280Y-11949107D01*
X16939566Y-11977679D01*
X16953851Y-12034822D01*
X16953851Y-12106250D01*
X16939566Y-12163393D01*
X16925280Y-12191964D01*
X16910994Y-12206250D01*
X16882423Y-12220536D01*
X16853851Y-12220536D01*
X16825280Y-12206250D01*
X16810994Y-12191964D01*
X16796708Y-12163393D01*
X16782423Y-12106250D01*
X16782423Y-12034822D01*
X16796708Y-11977679D01*
X16810994Y-11949107D01*
X16825280Y-11934822D01*
X16853851Y-11920536D01*
X17239566Y-12220536D02*
X17068137Y-12220536D01*
X17153851Y-12220536D02*
X17153851Y-11920536D01*
X17125280Y-11963393D01*
X17096708Y-11991964D01*
X17068137Y-12006250D01*
X17510994Y-11920536D02*
X17368137Y-11920536D01*
X17353851Y-12063393D01*
X17368137Y-12049107D01*
X17396708Y-12034822D01*
X17468137Y-12034822D01*
X17496708Y-12049107D01*
X17510994Y-12063393D01*
X17525280Y-12091964D01*
X17525280Y-12163393D01*
X17510994Y-12191964D01*
X17496708Y-12206250D01*
X17468137Y-12220536D01*
X17396708Y-12220536D01*
X17368137Y-12206250D01*
X17353851Y-12191964D01*
X17625280Y-11920536D02*
X17825280Y-11920536D01*
X17696708Y-12220536D01*
X17925280Y-11920536D02*
X17925280Y-11977679D01*
X18039566Y-11920536D02*
X18039566Y-11977679D01*
X18482423Y-12334822D02*
X18468137Y-12320536D01*
X18439566Y-12277679D01*
X18425280Y-12249107D01*
X18410994Y-12206250D01*
X18396708Y-12134822D01*
X18396708Y-12077679D01*
X18410994Y-12006250D01*
X18425280Y-11963393D01*
X18439566Y-11934822D01*
X18468137Y-11891964D01*
X18482423Y-11877679D01*
X18753851Y-12220536D02*
X18582423Y-12220536D01*
X18668137Y-12220536D02*
X18668137Y-11920536D01*
X18639566Y-11963393D01*
X18610994Y-11991964D01*
X18582423Y-12006250D01*
X19010994Y-12020536D02*
X19010994Y-12220536D01*
X18939566Y-11906250D02*
X18868137Y-12120536D01*
X19053851Y-12120536D01*
X19396708Y-12220536D02*
X19396708Y-11920536D01*
X19525280Y-12220536D02*
X19525280Y-12063393D01*
X19510994Y-12034822D01*
X19482423Y-12020536D01*
X19439566Y-12020536D01*
X19410994Y-12034822D01*
X19396708Y-12049107D01*
X19710994Y-12220536D02*
X19682423Y-12206250D01*
X19668137Y-12191964D01*
X19653851Y-12163393D01*
X19653851Y-12077679D01*
X19668137Y-12049107D01*
X19682423Y-12034822D01*
X19710994Y-12020536D01*
X19753851Y-12020536D01*
X19782423Y-12034822D01*
X19796708Y-12049107D01*
X19810994Y-12077679D01*
X19810994Y-12163393D01*
X19796708Y-12191964D01*
X19782423Y-12206250D01*
X19753851Y-12220536D01*
X19710994Y-12220536D01*
X19982423Y-12220536D02*
X19953851Y-12206250D01*
X19939566Y-12177679D01*
X19939566Y-11920536D01*
X20210994Y-12206250D02*
X20182423Y-12220536D01*
X20125280Y-12220536D01*
X20096708Y-12206250D01*
X20082423Y-12177679D01*
X20082423Y-12063393D01*
X20096708Y-12034822D01*
X20125280Y-12020536D01*
X20182423Y-12020536D01*
X20210994Y-12034822D01*
X20225280Y-12063393D01*
X20225280Y-12091964D01*
X20082423Y-12120536D01*
X20339566Y-12206250D02*
X20368137Y-12220536D01*
X20425280Y-12220536D01*
X20453851Y-12206250D01*
X20468137Y-12177679D01*
X20468137Y-12163393D01*
X20453851Y-12134822D01*
X20425280Y-12120536D01*
X20382423Y-12120536D01*
X20353851Y-12106250D01*
X20339566Y-12077679D01*
X20339566Y-12063393D01*
X20353851Y-12034822D01*
X20382423Y-12020536D01*
X20425280Y-12020536D01*
X20453851Y-12034822D01*
X20568137Y-12334822D02*
X20582423Y-12320536D01*
X20610994Y-12277679D01*
X20625280Y-12249107D01*
X20639566Y-12206250D01*
X20653851Y-12134822D01*
X20653851Y-12077679D01*
X20639566Y-12006250D01*
X20625280Y-11963393D01*
X20610994Y-11934822D01*
X20582423Y-11891964D01*
X20568137Y-11877679D01*
X13224565Y-12480822D02*
G75*
G03*
X13224565Y-12480822I-25000J0D01*
G01*
X13568137Y-12316536D02*
X13596708Y-12316536D01*
X13625280Y-12330822D01*
X13639565Y-12345107D01*
X13653851Y-12373679D01*
X13668137Y-12430822D01*
X13668137Y-12502250D01*
X13653851Y-12559393D01*
X13639565Y-12587964D01*
X13625280Y-12602250D01*
X13596708Y-12616536D01*
X13568137Y-12616536D01*
X13539565Y-12602250D01*
X13525280Y-12587964D01*
X13510994Y-12559393D01*
X13496708Y-12502250D01*
X13496708Y-12430822D01*
X13510994Y-12373679D01*
X13525280Y-12345107D01*
X13539565Y-12330822D01*
X13568137Y-12316536D01*
X13796708Y-12587964D02*
X13810994Y-12602250D01*
X13796708Y-12616536D01*
X13782423Y-12602250D01*
X13796708Y-12587964D01*
X13796708Y-12616536D01*
X14082423Y-12316536D02*
X13939565Y-12316536D01*
X13925280Y-12459393D01*
X13939565Y-12445107D01*
X13968137Y-12430822D01*
X14039565Y-12430822D01*
X14068137Y-12445107D01*
X14082423Y-12459393D01*
X14096708Y-12487964D01*
X14096708Y-12559393D01*
X14082423Y-12587964D01*
X14068137Y-12602250D01*
X14039565Y-12616536D01*
X13968137Y-12616536D01*
X13939565Y-12602250D01*
X13925280Y-12587964D01*
X14282423Y-12316536D02*
X14310994Y-12316536D01*
X14339565Y-12330822D01*
X14353851Y-12345107D01*
X14368137Y-12373679D01*
X14382423Y-12430822D01*
X14382423Y-12502250D01*
X14368137Y-12559393D01*
X14353851Y-12587964D01*
X14339565Y-12602250D01*
X14310994Y-12616536D01*
X14282423Y-12616536D01*
X14253851Y-12602250D01*
X14239565Y-12587964D01*
X14225280Y-12559393D01*
X14210994Y-12502250D01*
X14210994Y-12430822D01*
X14225280Y-12373679D01*
X14239565Y-12345107D01*
X14253851Y-12330822D01*
X14282423Y-12316536D01*
X14568137Y-12316536D02*
X14596708Y-12316536D01*
X14625280Y-12330822D01*
X14639565Y-12345107D01*
X14653851Y-12373679D01*
X14668137Y-12430822D01*
X14668137Y-12502250D01*
X14653851Y-12559393D01*
X14639565Y-12587964D01*
X14625280Y-12602250D01*
X14596708Y-12616536D01*
X14568137Y-12616536D01*
X14539565Y-12602250D01*
X14525280Y-12587964D01*
X14510994Y-12559393D01*
X14496708Y-12502250D01*
X14496708Y-12430822D01*
X14510994Y-12373679D01*
X14525280Y-12345107D01*
X14539565Y-12330822D01*
X14568137Y-12316536D01*
X14796708Y-12616536D02*
X14796708Y-12416536D01*
X14796708Y-12445107D02*
X14810994Y-12430822D01*
X14839565Y-12416536D01*
X14882423Y-12416536D01*
X14910994Y-12430822D01*
X14925280Y-12459393D01*
X14925280Y-12616536D01*
X14925280Y-12459393D02*
X14939565Y-12430822D01*
X14968137Y-12416536D01*
X15010994Y-12416536D01*
X15039565Y-12430822D01*
X15053851Y-12459393D01*
X15053851Y-12616536D01*
X15196708Y-12616536D02*
X15196708Y-12416536D01*
X15196708Y-12445107D02*
X15210994Y-12430822D01*
X15239565Y-12416536D01*
X15282423Y-12416536D01*
X15310994Y-12430822D01*
X15325280Y-12459393D01*
X15325280Y-12616536D01*
X15325280Y-12459393D02*
X15339565Y-12430822D01*
X15368137Y-12416536D01*
X15410994Y-12416536D01*
X15439565Y-12430822D01*
X15453851Y-12459393D01*
X15453851Y-12616536D01*
X16039565Y-12302250D02*
X15782423Y-12687964D01*
X16425280Y-12316536D02*
X16453851Y-12316536D01*
X16482423Y-12330822D01*
X16496708Y-12345107D01*
X16510994Y-12373679D01*
X16525280Y-12430822D01*
X16525280Y-12502250D01*
X16510994Y-12559393D01*
X16496708Y-12587964D01*
X16482423Y-12602250D01*
X16453851Y-12616536D01*
X16425280Y-12616536D01*
X16396708Y-12602250D01*
X16382423Y-12587964D01*
X16368137Y-12559393D01*
X16353851Y-12502250D01*
X16353851Y-12430822D01*
X16368137Y-12373679D01*
X16382423Y-12345107D01*
X16396708Y-12330822D01*
X16425280Y-12316536D01*
X16653851Y-12587964D02*
X16668137Y-12602250D01*
X16653851Y-12616536D01*
X16639565Y-12602250D01*
X16653851Y-12587964D01*
X16653851Y-12616536D01*
X16853851Y-12316536D02*
X16882423Y-12316536D01*
X16910994Y-12330822D01*
X16925280Y-12345107D01*
X16939566Y-12373679D01*
X16953851Y-12430822D01*
X16953851Y-12502250D01*
X16939566Y-12559393D01*
X16925280Y-12587964D01*
X16910994Y-12602250D01*
X16882423Y-12616536D01*
X16853851Y-12616536D01*
X16825280Y-12602250D01*
X16810994Y-12587964D01*
X16796708Y-12559393D01*
X16782423Y-12502250D01*
X16782423Y-12430822D01*
X16796708Y-12373679D01*
X16810994Y-12345107D01*
X16825280Y-12330822D01*
X16853851Y-12316536D01*
X17239566Y-12616536D02*
X17068137Y-12616536D01*
X17153851Y-12616536D02*
X17153851Y-12316536D01*
X17125280Y-12359393D01*
X17096708Y-12387964D01*
X17068137Y-12402250D01*
X17382423Y-12616536D02*
X17439566Y-12616536D01*
X17468137Y-12602250D01*
X17482423Y-12587964D01*
X17510994Y-12545107D01*
X17525280Y-12487964D01*
X17525280Y-12373679D01*
X17510994Y-12345107D01*
X17496708Y-12330822D01*
X17468137Y-12316536D01*
X17410994Y-12316536D01*
X17382423Y-12330822D01*
X17368137Y-12345107D01*
X17353851Y-12373679D01*
X17353851Y-12445107D01*
X17368137Y-12473679D01*
X17382423Y-12487964D01*
X17410994Y-12502250D01*
X17468137Y-12502250D01*
X17496708Y-12487964D01*
X17510994Y-12473679D01*
X17525280Y-12445107D01*
X17625280Y-12316536D02*
X17825280Y-12316536D01*
X17696708Y-12616536D01*
X17925280Y-12316536D02*
X17925280Y-12373679D01*
X18039566Y-12316536D02*
X18039566Y-12373679D01*
X18482423Y-12730822D02*
X18468137Y-12716536D01*
X18439566Y-12673679D01*
X18425280Y-12645107D01*
X18410994Y-12602250D01*
X18396708Y-12530822D01*
X18396708Y-12473679D01*
X18410994Y-12402250D01*
X18425280Y-12359393D01*
X18439566Y-12330822D01*
X18468137Y-12287964D01*
X18482423Y-12273679D01*
X18753851Y-12616536D02*
X18582423Y-12616536D01*
X18668137Y-12616536D02*
X18668137Y-12316536D01*
X18639566Y-12359393D01*
X18610994Y-12387964D01*
X18582423Y-12402250D01*
X19010994Y-12316536D02*
X18953851Y-12316536D01*
X18925280Y-12330822D01*
X18910994Y-12345107D01*
X18882423Y-12387964D01*
X18868137Y-12445107D01*
X18868137Y-12559393D01*
X18882423Y-12587964D01*
X18896708Y-12602250D01*
X18925280Y-12616536D01*
X18982423Y-12616536D01*
X19010994Y-12602250D01*
X19025280Y-12587964D01*
X19039566Y-12559393D01*
X19039566Y-12487964D01*
X19025280Y-12459393D01*
X19010994Y-12445107D01*
X18982423Y-12430822D01*
X18925280Y-12430822D01*
X18896708Y-12445107D01*
X18882423Y-12459393D01*
X18868137Y-12487964D01*
X19396708Y-12616536D02*
X19396708Y-12316536D01*
X19525280Y-12616536D02*
X19525280Y-12459393D01*
X19510994Y-12430822D01*
X19482423Y-12416536D01*
X19439566Y-12416536D01*
X19410994Y-12430822D01*
X19396708Y-12445107D01*
X19710994Y-12616536D02*
X19682423Y-12602250D01*
X19668137Y-12587964D01*
X19653851Y-12559393D01*
X19653851Y-12473679D01*
X19668137Y-12445107D01*
X19682423Y-12430822D01*
X19710994Y-12416536D01*
X19753851Y-12416536D01*
X19782423Y-12430822D01*
X19796708Y-12445107D01*
X19810994Y-12473679D01*
X19810994Y-12559393D01*
X19796708Y-12587964D01*
X19782423Y-12602250D01*
X19753851Y-12616536D01*
X19710994Y-12616536D01*
X19982423Y-12616536D02*
X19953851Y-12602250D01*
X19939566Y-12573679D01*
X19939566Y-12316536D01*
X20210994Y-12602250D02*
X20182423Y-12616536D01*
X20125280Y-12616536D01*
X20096708Y-12602250D01*
X20082423Y-12573679D01*
X20082423Y-12459393D01*
X20096708Y-12430822D01*
X20125280Y-12416536D01*
X20182423Y-12416536D01*
X20210994Y-12430822D01*
X20225280Y-12459393D01*
X20225280Y-12487964D01*
X20082423Y-12516536D01*
X20339566Y-12602250D02*
X20368137Y-12616536D01*
X20425280Y-12616536D01*
X20453851Y-12602250D01*
X20468137Y-12573679D01*
X20468137Y-12559393D01*
X20453851Y-12530822D01*
X20425280Y-12516536D01*
X20382423Y-12516536D01*
X20353851Y-12502250D01*
X20339566Y-12473679D01*
X20339566Y-12459393D01*
X20353851Y-12430822D01*
X20382423Y-12416536D01*
X20425280Y-12416536D01*
X20453851Y-12430822D01*
X20568137Y-12730822D02*
X20582423Y-12716536D01*
X20610994Y-12673679D01*
X20625280Y-12645107D01*
X20639566Y-12602250D01*
X20653851Y-12530822D01*
X20653851Y-12473679D01*
X20639566Y-12402250D01*
X20625280Y-12359393D01*
X20610994Y-12330822D01*
X20582423Y-12287964D01*
X20568137Y-12273679D01*
X13187065Y-12839322D02*
X13187065Y-12914322D01*
X13149565Y-12876822D02*
X13224565Y-12876822D01*
X13568137Y-12712536D02*
X13596708Y-12712536D01*
X13625280Y-12726822D01*
X13639565Y-12741107D01*
X13653851Y-12769679D01*
X13668137Y-12826822D01*
X13668137Y-12898250D01*
X13653851Y-12955393D01*
X13639565Y-12983964D01*
X13625280Y-12998250D01*
X13596708Y-13012536D01*
X13568137Y-13012536D01*
X13539565Y-12998250D01*
X13525280Y-12983964D01*
X13510994Y-12955393D01*
X13496708Y-12898250D01*
X13496708Y-12826822D01*
X13510994Y-12769679D01*
X13525280Y-12741107D01*
X13539565Y-12726822D01*
X13568137Y-12712536D01*
X13796708Y-12983964D02*
X13810994Y-12998250D01*
X13796708Y-13012536D01*
X13782423Y-12998250D01*
X13796708Y-12983964D01*
X13796708Y-13012536D01*
X13910994Y-12712536D02*
X14110994Y-12712536D01*
X13982423Y-13012536D01*
X14368137Y-12712536D02*
X14225280Y-12712536D01*
X14210994Y-12855393D01*
X14225280Y-12841107D01*
X14253851Y-12826822D01*
X14325280Y-12826822D01*
X14353851Y-12841107D01*
X14368137Y-12855393D01*
X14382423Y-12883964D01*
X14382423Y-12955393D01*
X14368137Y-12983964D01*
X14353851Y-12998250D01*
X14325280Y-13012536D01*
X14253851Y-13012536D01*
X14225280Y-12998250D01*
X14210994Y-12983964D01*
X14568137Y-12712536D02*
X14596708Y-12712536D01*
X14625280Y-12726822D01*
X14639565Y-12741107D01*
X14653851Y-12769679D01*
X14668137Y-12826822D01*
X14668137Y-12898250D01*
X14653851Y-12955393D01*
X14639565Y-12983964D01*
X14625280Y-12998250D01*
X14596708Y-13012536D01*
X14568137Y-13012536D01*
X14539565Y-12998250D01*
X14525280Y-12983964D01*
X14510994Y-12955393D01*
X14496708Y-12898250D01*
X14496708Y-12826822D01*
X14510994Y-12769679D01*
X14525280Y-12741107D01*
X14539565Y-12726822D01*
X14568137Y-12712536D01*
X14796708Y-13012536D02*
X14796708Y-12812536D01*
X14796708Y-12841107D02*
X14810994Y-12826822D01*
X14839565Y-12812536D01*
X14882423Y-12812536D01*
X14910994Y-12826822D01*
X14925280Y-12855393D01*
X14925280Y-13012536D01*
X14925280Y-12855393D02*
X14939565Y-12826822D01*
X14968137Y-12812536D01*
X15010994Y-12812536D01*
X15039565Y-12826822D01*
X15053851Y-12855393D01*
X15053851Y-13012536D01*
X15196708Y-13012536D02*
X15196708Y-12812536D01*
X15196708Y-12841107D02*
X15210994Y-12826822D01*
X15239565Y-12812536D01*
X15282423Y-12812536D01*
X15310994Y-12826822D01*
X15325280Y-12855393D01*
X15325280Y-13012536D01*
X15325280Y-12855393D02*
X15339565Y-12826822D01*
X15368137Y-12812536D01*
X15410994Y-12812536D01*
X15439565Y-12826822D01*
X15453851Y-12855393D01*
X15453851Y-13012536D01*
X16039565Y-12698250D02*
X15782423Y-13083964D01*
X16425280Y-12712536D02*
X16453851Y-12712536D01*
X16482423Y-12726822D01*
X16496708Y-12741107D01*
X16510994Y-12769679D01*
X16525280Y-12826822D01*
X16525280Y-12898250D01*
X16510994Y-12955393D01*
X16496708Y-12983964D01*
X16482423Y-12998250D01*
X16453851Y-13012536D01*
X16425280Y-13012536D01*
X16396708Y-12998250D01*
X16382423Y-12983964D01*
X16368137Y-12955393D01*
X16353851Y-12898250D01*
X16353851Y-12826822D01*
X16368137Y-12769679D01*
X16382423Y-12741107D01*
X16396708Y-12726822D01*
X16425280Y-12712536D01*
X16653851Y-12983964D02*
X16668137Y-12998250D01*
X16653851Y-13012536D01*
X16639565Y-12998250D01*
X16653851Y-12983964D01*
X16653851Y-13012536D01*
X16853851Y-12712536D02*
X16882423Y-12712536D01*
X16910994Y-12726822D01*
X16925280Y-12741107D01*
X16939566Y-12769679D01*
X16953851Y-12826822D01*
X16953851Y-12898250D01*
X16939566Y-12955393D01*
X16925280Y-12983964D01*
X16910994Y-12998250D01*
X16882423Y-13012536D01*
X16853851Y-13012536D01*
X16825280Y-12998250D01*
X16810994Y-12983964D01*
X16796708Y-12955393D01*
X16782423Y-12898250D01*
X16782423Y-12826822D01*
X16796708Y-12769679D01*
X16810994Y-12741107D01*
X16825280Y-12726822D01*
X16853851Y-12712536D01*
X17068137Y-12741107D02*
X17082423Y-12726822D01*
X17110994Y-12712536D01*
X17182423Y-12712536D01*
X17210994Y-12726822D01*
X17225280Y-12741107D01*
X17239566Y-12769679D01*
X17239566Y-12798250D01*
X17225280Y-12841107D01*
X17053851Y-13012536D01*
X17239566Y-13012536D01*
X17382423Y-13012536D02*
X17439566Y-13012536D01*
X17468137Y-12998250D01*
X17482423Y-12983964D01*
X17510994Y-12941107D01*
X17525280Y-12883964D01*
X17525280Y-12769679D01*
X17510994Y-12741107D01*
X17496708Y-12726822D01*
X17468137Y-12712536D01*
X17410994Y-12712536D01*
X17382423Y-12726822D01*
X17368137Y-12741107D01*
X17353851Y-12769679D01*
X17353851Y-12841107D01*
X17368137Y-12869679D01*
X17382423Y-12883964D01*
X17410994Y-12898250D01*
X17468137Y-12898250D01*
X17496708Y-12883964D01*
X17510994Y-12869679D01*
X17525280Y-12841107D01*
X17796708Y-12712536D02*
X17653851Y-12712536D01*
X17639566Y-12855393D01*
X17653851Y-12841107D01*
X17682423Y-12826822D01*
X17753851Y-12826822D01*
X17782423Y-12841107D01*
X17796708Y-12855393D01*
X17810994Y-12883964D01*
X17810994Y-12955393D01*
X17796708Y-12983964D01*
X17782423Y-12998250D01*
X17753851Y-13012536D01*
X17682423Y-13012536D01*
X17653851Y-12998250D01*
X17639566Y-12983964D01*
X17925280Y-12712536D02*
X17925280Y-12769679D01*
X18039566Y-12712536D02*
X18039566Y-12769679D01*
X18482423Y-13126822D02*
X18468137Y-13112536D01*
X18439566Y-13069679D01*
X18425280Y-13041107D01*
X18410994Y-12998250D01*
X18396708Y-12926822D01*
X18396708Y-12869679D01*
X18410994Y-12798250D01*
X18425280Y-12755393D01*
X18439566Y-12726822D01*
X18468137Y-12683964D01*
X18482423Y-12669679D01*
X18610994Y-13012536D02*
X18668137Y-13012536D01*
X18696708Y-12998250D01*
X18710994Y-12983964D01*
X18739566Y-12941107D01*
X18753851Y-12883964D01*
X18753851Y-12769679D01*
X18739566Y-12741107D01*
X18725280Y-12726822D01*
X18696708Y-12712536D01*
X18639566Y-12712536D01*
X18610994Y-12726822D01*
X18596708Y-12741107D01*
X18582423Y-12769679D01*
X18582423Y-12841107D01*
X18596708Y-12869679D01*
X18610994Y-12883964D01*
X18639566Y-12898250D01*
X18696708Y-12898250D01*
X18725280Y-12883964D01*
X18739566Y-12869679D01*
X18753851Y-12841107D01*
X19110994Y-13012536D02*
X19110994Y-12712536D01*
X19239566Y-13012536D02*
X19239566Y-12855393D01*
X19225280Y-12826822D01*
X19196708Y-12812536D01*
X19153851Y-12812536D01*
X19125280Y-12826822D01*
X19110994Y-12841107D01*
X19425280Y-13012536D02*
X19396708Y-12998250D01*
X19382423Y-12983964D01*
X19368137Y-12955393D01*
X19368137Y-12869679D01*
X19382423Y-12841107D01*
X19396708Y-12826822D01*
X19425280Y-12812536D01*
X19468137Y-12812536D01*
X19496708Y-12826822D01*
X19510994Y-12841107D01*
X19525280Y-12869679D01*
X19525280Y-12955393D01*
X19510994Y-12983964D01*
X19496708Y-12998250D01*
X19468137Y-13012536D01*
X19425280Y-13012536D01*
X19696708Y-13012536D02*
X19668137Y-12998250D01*
X19653851Y-12969679D01*
X19653851Y-12712536D01*
X19925280Y-12998250D02*
X19896708Y-13012536D01*
X19839566Y-13012536D01*
X19810994Y-12998250D01*
X19796708Y-12969679D01*
X19796708Y-12855393D01*
X19810994Y-12826822D01*
X19839566Y-12812536D01*
X19896708Y-12812536D01*
X19925280Y-12826822D01*
X19939566Y-12855393D01*
X19939566Y-12883964D01*
X19796708Y-12912536D01*
X20053851Y-12998250D02*
X20082423Y-13012536D01*
X20139566Y-13012536D01*
X20168137Y-12998250D01*
X20182423Y-12969679D01*
X20182423Y-12955393D01*
X20168137Y-12926822D01*
X20139566Y-12912536D01*
X20096708Y-12912536D01*
X20068137Y-12898250D01*
X20053851Y-12869679D01*
X20053851Y-12855393D01*
X20068137Y-12826822D01*
X20096708Y-12812536D01*
X20139566Y-12812536D01*
X20168137Y-12826822D01*
X20282423Y-13126822D02*
X20296708Y-13112536D01*
X20325280Y-13069679D01*
X20339566Y-13041107D01*
X20353851Y-12998250D01*
X20368137Y-12926822D01*
X20368137Y-12869679D01*
X20353851Y-12798250D01*
X20339566Y-12755393D01*
X20325280Y-12726822D01*
X20296708Y-12683964D01*
X20282423Y-12669679D01*
X13209921Y-13308177D02*
X13209921Y-13237466D01*
X13139210Y-13237466D01*
X13139210Y-13308177D01*
X13209921Y-13308177D01*
X13668137Y-13408536D02*
X13496708Y-13408536D01*
X13582423Y-13408536D02*
X13582423Y-13108536D01*
X13553851Y-13151393D01*
X13525280Y-13179964D01*
X13496708Y-13194250D01*
X13796708Y-13379964D02*
X13810994Y-13394250D01*
X13796708Y-13408536D01*
X13782423Y-13394250D01*
X13796708Y-13379964D01*
X13796708Y-13408536D01*
X13996708Y-13108536D02*
X14025280Y-13108536D01*
X14053851Y-13122822D01*
X14068137Y-13137107D01*
X14082423Y-13165679D01*
X14096708Y-13222822D01*
X14096708Y-13294250D01*
X14082423Y-13351393D01*
X14068137Y-13379964D01*
X14053851Y-13394250D01*
X14025280Y-13408536D01*
X13996708Y-13408536D01*
X13968137Y-13394250D01*
X13953851Y-13379964D01*
X13939565Y-13351393D01*
X13925280Y-13294250D01*
X13925280Y-13222822D01*
X13939565Y-13165679D01*
X13953851Y-13137107D01*
X13968137Y-13122822D01*
X13996708Y-13108536D01*
X14282423Y-13108536D02*
X14310994Y-13108536D01*
X14339565Y-13122822D01*
X14353851Y-13137107D01*
X14368137Y-13165679D01*
X14382423Y-13222822D01*
X14382423Y-13294250D01*
X14368137Y-13351393D01*
X14353851Y-13379964D01*
X14339565Y-13394250D01*
X14310994Y-13408536D01*
X14282423Y-13408536D01*
X14253851Y-13394250D01*
X14239565Y-13379964D01*
X14225280Y-13351393D01*
X14210994Y-13294250D01*
X14210994Y-13222822D01*
X14225280Y-13165679D01*
X14239565Y-13137107D01*
X14253851Y-13122822D01*
X14282423Y-13108536D01*
X14568137Y-13108536D02*
X14596708Y-13108536D01*
X14625280Y-13122822D01*
X14639565Y-13137107D01*
X14653851Y-13165679D01*
X14668137Y-13222822D01*
X14668137Y-13294250D01*
X14653851Y-13351393D01*
X14639565Y-13379964D01*
X14625280Y-13394250D01*
X14596708Y-13408536D01*
X14568137Y-13408536D01*
X14539565Y-13394250D01*
X14525280Y-13379964D01*
X14510994Y-13351393D01*
X14496708Y-13294250D01*
X14496708Y-13222822D01*
X14510994Y-13165679D01*
X14525280Y-13137107D01*
X14539565Y-13122822D01*
X14568137Y-13108536D01*
X14796708Y-13408536D02*
X14796708Y-13208536D01*
X14796708Y-13237107D02*
X14810994Y-13222822D01*
X14839565Y-13208536D01*
X14882423Y-13208536D01*
X14910994Y-13222822D01*
X14925280Y-13251393D01*
X14925280Y-13408536D01*
X14925280Y-13251393D02*
X14939565Y-13222822D01*
X14968137Y-13208536D01*
X15010994Y-13208536D01*
X15039565Y-13222822D01*
X15053851Y-13251393D01*
X15053851Y-13408536D01*
X15196708Y-13408536D02*
X15196708Y-13208536D01*
X15196708Y-13237107D02*
X15210994Y-13222822D01*
X15239565Y-13208536D01*
X15282423Y-13208536D01*
X15310994Y-13222822D01*
X15325280Y-13251393D01*
X15325280Y-13408536D01*
X15325280Y-13251393D02*
X15339565Y-13222822D01*
X15368137Y-13208536D01*
X15410994Y-13208536D01*
X15439565Y-13222822D01*
X15453851Y-13251393D01*
X15453851Y-13408536D01*
X16039565Y-13094250D02*
X15782423Y-13479964D01*
X16425280Y-13108536D02*
X16453851Y-13108536D01*
X16482423Y-13122822D01*
X16496708Y-13137107D01*
X16510994Y-13165679D01*
X16525280Y-13222822D01*
X16525280Y-13294250D01*
X16510994Y-13351393D01*
X16496708Y-13379964D01*
X16482423Y-13394250D01*
X16453851Y-13408536D01*
X16425280Y-13408536D01*
X16396708Y-13394250D01*
X16382423Y-13379964D01*
X16368137Y-13351393D01*
X16353851Y-13294250D01*
X16353851Y-13222822D01*
X16368137Y-13165679D01*
X16382423Y-13137107D01*
X16396708Y-13122822D01*
X16425280Y-13108536D01*
X16653851Y-13379964D02*
X16668137Y-13394250D01*
X16653851Y-13408536D01*
X16639565Y-13394250D01*
X16653851Y-13379964D01*
X16653851Y-13408536D01*
X16853851Y-13108536D02*
X16882423Y-13108536D01*
X16910994Y-13122822D01*
X16925280Y-13137107D01*
X16939566Y-13165679D01*
X16953851Y-13222822D01*
X16953851Y-13294250D01*
X16939566Y-13351393D01*
X16925280Y-13379964D01*
X16910994Y-13394250D01*
X16882423Y-13408536D01*
X16853851Y-13408536D01*
X16825280Y-13394250D01*
X16810994Y-13379964D01*
X16796708Y-13351393D01*
X16782423Y-13294250D01*
X16782423Y-13222822D01*
X16796708Y-13165679D01*
X16810994Y-13137107D01*
X16825280Y-13122822D01*
X16853851Y-13108536D01*
X17053851Y-13108536D02*
X17239566Y-13108536D01*
X17139566Y-13222822D01*
X17182423Y-13222822D01*
X17210994Y-13237107D01*
X17225280Y-13251393D01*
X17239566Y-13279964D01*
X17239566Y-13351393D01*
X17225280Y-13379964D01*
X17210994Y-13394250D01*
X17182423Y-13408536D01*
X17096708Y-13408536D01*
X17068137Y-13394250D01*
X17053851Y-13379964D01*
X17382423Y-13408536D02*
X17439566Y-13408536D01*
X17468137Y-13394250D01*
X17482423Y-13379964D01*
X17510994Y-13337107D01*
X17525280Y-13279964D01*
X17525280Y-13165679D01*
X17510994Y-13137107D01*
X17496708Y-13122822D01*
X17468137Y-13108536D01*
X17410994Y-13108536D01*
X17382423Y-13122822D01*
X17368137Y-13137107D01*
X17353851Y-13165679D01*
X17353851Y-13237107D01*
X17368137Y-13265679D01*
X17382423Y-13279964D01*
X17410994Y-13294250D01*
X17468137Y-13294250D01*
X17496708Y-13279964D01*
X17510994Y-13265679D01*
X17525280Y-13237107D01*
X17782423Y-13208536D02*
X17782423Y-13408536D01*
X17710994Y-13094250D02*
X17639566Y-13308536D01*
X17825280Y-13308536D01*
X17925280Y-13108536D02*
X17925280Y-13165679D01*
X18039566Y-13108536D02*
X18039566Y-13165679D01*
X18482423Y-13522822D02*
X18468137Y-13508536D01*
X18439566Y-13465679D01*
X18425280Y-13437107D01*
X18410994Y-13394250D01*
X18396708Y-13322822D01*
X18396708Y-13265679D01*
X18410994Y-13194250D01*
X18425280Y-13151393D01*
X18439566Y-13122822D01*
X18468137Y-13079964D01*
X18482423Y-13065679D01*
X18753851Y-13408536D02*
X18582423Y-13408536D01*
X18668137Y-13408536D02*
X18668137Y-13108536D01*
X18639566Y-13151393D01*
X18610994Y-13179964D01*
X18582423Y-13194250D01*
X19010994Y-13108536D02*
X18953851Y-13108536D01*
X18925280Y-13122822D01*
X18910994Y-13137107D01*
X18882423Y-13179964D01*
X18868137Y-13237107D01*
X18868137Y-13351393D01*
X18882423Y-13379964D01*
X18896708Y-13394250D01*
X18925280Y-13408536D01*
X18982423Y-13408536D01*
X19010994Y-13394250D01*
X19025280Y-13379964D01*
X19039566Y-13351393D01*
X19039566Y-13279964D01*
X19025280Y-13251393D01*
X19010994Y-13237107D01*
X18982423Y-13222822D01*
X18925280Y-13222822D01*
X18896708Y-13237107D01*
X18882423Y-13251393D01*
X18868137Y-13279964D01*
X19396708Y-13408536D02*
X19396708Y-13108536D01*
X19525280Y-13408536D02*
X19525280Y-13251393D01*
X19510994Y-13222822D01*
X19482423Y-13208536D01*
X19439566Y-13208536D01*
X19410994Y-13222822D01*
X19396708Y-13237107D01*
X19710994Y-13408536D02*
X19682423Y-13394250D01*
X19668137Y-13379964D01*
X19653851Y-13351393D01*
X19653851Y-13265679D01*
X19668137Y-13237107D01*
X19682423Y-13222822D01*
X19710994Y-13208536D01*
X19753851Y-13208536D01*
X19782423Y-13222822D01*
X19796708Y-13237107D01*
X19810994Y-13265679D01*
X19810994Y-13351393D01*
X19796708Y-13379964D01*
X19782423Y-13394250D01*
X19753851Y-13408536D01*
X19710994Y-13408536D01*
X19982423Y-13408536D02*
X19953851Y-13394250D01*
X19939566Y-13365679D01*
X19939566Y-13108536D01*
X20210994Y-13394250D02*
X20182423Y-13408536D01*
X20125280Y-13408536D01*
X20096708Y-13394250D01*
X20082423Y-13365679D01*
X20082423Y-13251393D01*
X20096708Y-13222822D01*
X20125280Y-13208536D01*
X20182423Y-13208536D01*
X20210994Y-13222822D01*
X20225280Y-13251393D01*
X20225280Y-13279964D01*
X20082423Y-13308536D01*
X20339566Y-13394250D02*
X20368137Y-13408536D01*
X20425280Y-13408536D01*
X20453851Y-13394250D01*
X20468137Y-13365679D01*
X20468137Y-13351393D01*
X20453851Y-13322822D01*
X20425280Y-13308536D01*
X20382423Y-13308536D01*
X20353851Y-13294250D01*
X20339566Y-13265679D01*
X20339566Y-13251393D01*
X20353851Y-13222822D01*
X20382423Y-13208536D01*
X20425280Y-13208536D01*
X20453851Y-13222822D01*
X20568137Y-13522822D02*
X20582423Y-13508536D01*
X20610994Y-13465679D01*
X20625280Y-13437107D01*
X20639566Y-13394250D01*
X20653851Y-13322822D01*
X20653851Y-13265679D01*
X20639566Y-13194250D01*
X20625280Y-13151393D01*
X20610994Y-13122822D01*
X20582423Y-13079964D01*
X20568137Y-13065679D01*
X13169565Y-13723822D02*
X13224565Y-13668822D01*
X13169565Y-13613822D01*
X13114565Y-13668822D01*
X13169565Y-13723822D01*
X13668137Y-13804536D02*
X13496708Y-13804536D01*
X13582423Y-13804536D02*
X13582423Y-13504536D01*
X13553851Y-13547393D01*
X13525280Y-13575964D01*
X13496708Y-13590250D01*
X13796708Y-13775964D02*
X13810994Y-13790250D01*
X13796708Y-13804536D01*
X13782423Y-13790250D01*
X13796708Y-13775964D01*
X13796708Y-13804536D01*
X14096708Y-13804536D02*
X13925280Y-13804536D01*
X14010994Y-13804536D02*
X14010994Y-13504536D01*
X13982423Y-13547393D01*
X13953851Y-13575964D01*
X13925280Y-13590250D01*
X14282423Y-13504536D02*
X14310994Y-13504536D01*
X14339565Y-13518822D01*
X14353851Y-13533107D01*
X14368137Y-13561679D01*
X14382423Y-13618822D01*
X14382423Y-13690250D01*
X14368137Y-13747393D01*
X14353851Y-13775964D01*
X14339565Y-13790250D01*
X14310994Y-13804536D01*
X14282423Y-13804536D01*
X14253851Y-13790250D01*
X14239565Y-13775964D01*
X14225280Y-13747393D01*
X14210994Y-13690250D01*
X14210994Y-13618822D01*
X14225280Y-13561679D01*
X14239565Y-13533107D01*
X14253851Y-13518822D01*
X14282423Y-13504536D01*
X14568137Y-13504536D02*
X14596708Y-13504536D01*
X14625280Y-13518822D01*
X14639565Y-13533107D01*
X14653851Y-13561679D01*
X14668137Y-13618822D01*
X14668137Y-13690250D01*
X14653851Y-13747393D01*
X14639565Y-13775964D01*
X14625280Y-13790250D01*
X14596708Y-13804536D01*
X14568137Y-13804536D01*
X14539565Y-13790250D01*
X14525280Y-13775964D01*
X14510994Y-13747393D01*
X14496708Y-13690250D01*
X14496708Y-13618822D01*
X14510994Y-13561679D01*
X14525280Y-13533107D01*
X14539565Y-13518822D01*
X14568137Y-13504536D01*
X14796708Y-13804536D02*
X14796708Y-13604536D01*
X14796708Y-13633107D02*
X14810994Y-13618822D01*
X14839565Y-13604536D01*
X14882423Y-13604536D01*
X14910994Y-13618822D01*
X14925280Y-13647393D01*
X14925280Y-13804536D01*
X14925280Y-13647393D02*
X14939565Y-13618822D01*
X14968137Y-13604536D01*
X15010994Y-13604536D01*
X15039565Y-13618822D01*
X15053851Y-13647393D01*
X15053851Y-13804536D01*
X15196708Y-13804536D02*
X15196708Y-13604536D01*
X15196708Y-13633107D02*
X15210994Y-13618822D01*
X15239565Y-13604536D01*
X15282423Y-13604536D01*
X15310994Y-13618822D01*
X15325280Y-13647393D01*
X15325280Y-13804536D01*
X15325280Y-13647393D02*
X15339565Y-13618822D01*
X15368137Y-13604536D01*
X15410994Y-13604536D01*
X15439565Y-13618822D01*
X15453851Y-13647393D01*
X15453851Y-13804536D01*
X16039565Y-13490250D02*
X15782423Y-13875964D01*
X16425280Y-13504536D02*
X16453851Y-13504536D01*
X16482423Y-13518822D01*
X16496708Y-13533107D01*
X16510994Y-13561679D01*
X16525280Y-13618822D01*
X16525280Y-13690250D01*
X16510994Y-13747393D01*
X16496708Y-13775964D01*
X16482423Y-13790250D01*
X16453851Y-13804536D01*
X16425280Y-13804536D01*
X16396708Y-13790250D01*
X16382423Y-13775964D01*
X16368137Y-13747393D01*
X16353851Y-13690250D01*
X16353851Y-13618822D01*
X16368137Y-13561679D01*
X16382423Y-13533107D01*
X16396708Y-13518822D01*
X16425280Y-13504536D01*
X16653851Y-13775964D02*
X16668137Y-13790250D01*
X16653851Y-13804536D01*
X16639565Y-13790250D01*
X16653851Y-13775964D01*
X16653851Y-13804536D01*
X16853851Y-13504536D02*
X16882423Y-13504536D01*
X16910994Y-13518822D01*
X16925280Y-13533107D01*
X16939566Y-13561679D01*
X16953851Y-13618822D01*
X16953851Y-13690250D01*
X16939566Y-13747393D01*
X16925280Y-13775964D01*
X16910994Y-13790250D01*
X16882423Y-13804536D01*
X16853851Y-13804536D01*
X16825280Y-13790250D01*
X16810994Y-13775964D01*
X16796708Y-13747393D01*
X16782423Y-13690250D01*
X16782423Y-13618822D01*
X16796708Y-13561679D01*
X16810994Y-13533107D01*
X16825280Y-13518822D01*
X16853851Y-13504536D01*
X17210994Y-13604536D02*
X17210994Y-13804536D01*
X17139566Y-13490250D02*
X17068137Y-13704536D01*
X17253851Y-13704536D01*
X17339566Y-13504536D02*
X17525280Y-13504536D01*
X17425280Y-13618822D01*
X17468137Y-13618822D01*
X17496708Y-13633107D01*
X17510994Y-13647393D01*
X17525280Y-13675964D01*
X17525280Y-13747393D01*
X17510994Y-13775964D01*
X17496708Y-13790250D01*
X17468137Y-13804536D01*
X17382423Y-13804536D01*
X17353851Y-13790250D01*
X17339566Y-13775964D01*
X17625280Y-13504536D02*
X17810994Y-13504536D01*
X17710994Y-13618822D01*
X17753851Y-13618822D01*
X17782423Y-13633107D01*
X17796708Y-13647393D01*
X17810994Y-13675964D01*
X17810994Y-13747393D01*
X17796708Y-13775964D01*
X17782423Y-13790250D01*
X17753851Y-13804536D01*
X17668137Y-13804536D01*
X17639566Y-13790250D01*
X17625280Y-13775964D01*
X17925280Y-13504536D02*
X17925280Y-13561679D01*
X18039566Y-13504536D02*
X18039566Y-13561679D01*
X18482423Y-13918822D02*
X18468137Y-13904536D01*
X18439566Y-13861679D01*
X18425280Y-13833107D01*
X18410994Y-13790250D01*
X18396708Y-13718822D01*
X18396708Y-13661679D01*
X18410994Y-13590250D01*
X18425280Y-13547393D01*
X18439566Y-13518822D01*
X18468137Y-13475964D01*
X18482423Y-13461679D01*
X18568137Y-13504536D02*
X18753851Y-13504536D01*
X18653851Y-13618822D01*
X18696708Y-13618822D01*
X18725280Y-13633107D01*
X18739566Y-13647393D01*
X18753851Y-13675964D01*
X18753851Y-13747393D01*
X18739566Y-13775964D01*
X18725280Y-13790250D01*
X18696708Y-13804536D01*
X18610994Y-13804536D01*
X18582423Y-13790250D01*
X18568137Y-13775964D01*
X19110994Y-13804536D02*
X19110994Y-13504536D01*
X19239566Y-13804536D02*
X19239566Y-13647393D01*
X19225280Y-13618822D01*
X19196708Y-13604536D01*
X19153851Y-13604536D01*
X19125280Y-13618822D01*
X19110994Y-13633107D01*
X19425280Y-13804536D02*
X19396708Y-13790250D01*
X19382423Y-13775964D01*
X19368137Y-13747393D01*
X19368137Y-13661679D01*
X19382423Y-13633107D01*
X19396708Y-13618822D01*
X19425280Y-13604536D01*
X19468137Y-13604536D01*
X19496708Y-13618822D01*
X19510994Y-13633107D01*
X19525280Y-13661679D01*
X19525280Y-13747393D01*
X19510994Y-13775964D01*
X19496708Y-13790250D01*
X19468137Y-13804536D01*
X19425280Y-13804536D01*
X19696708Y-13804536D02*
X19668137Y-13790250D01*
X19653851Y-13761679D01*
X19653851Y-13504536D01*
X19925280Y-13790250D02*
X19896708Y-13804536D01*
X19839566Y-13804536D01*
X19810994Y-13790250D01*
X19796708Y-13761679D01*
X19796708Y-13647393D01*
X19810994Y-13618822D01*
X19839566Y-13604536D01*
X19896708Y-13604536D01*
X19925280Y-13618822D01*
X19939566Y-13647393D01*
X19939566Y-13675964D01*
X19796708Y-13704536D01*
X20053851Y-13790250D02*
X20082423Y-13804536D01*
X20139566Y-13804536D01*
X20168137Y-13790250D01*
X20182423Y-13761679D01*
X20182423Y-13747393D01*
X20168137Y-13718822D01*
X20139566Y-13704536D01*
X20096708Y-13704536D01*
X20068137Y-13690250D01*
X20053851Y-13661679D01*
X20053851Y-13647393D01*
X20068137Y-13618822D01*
X20096708Y-13604536D01*
X20139566Y-13604536D01*
X20168137Y-13618822D01*
X20282423Y-13918822D02*
X20296708Y-13904536D01*
X20325280Y-13861679D01*
X20339566Y-13833107D01*
X20353851Y-13790250D01*
X20368137Y-13718822D01*
X20368137Y-13661679D01*
X20353851Y-13590250D01*
X20339566Y-13547393D01*
X20325280Y-13518822D01*
X20296708Y-13475964D01*
X20282423Y-13461679D01*
X13024565Y-13964822D02*
X13224565Y-14164822D01*
X13224565Y-13964822D02*
X13024565Y-14164822D01*
X13224565Y-14064822D02*
G75*
G03*
X13224565Y-14064822I-100000J0D01*
G01*
X13496708Y-13929107D02*
X13510994Y-13914822D01*
X13539565Y-13900536D01*
X13610994Y-13900536D01*
X13639565Y-13914822D01*
X13653851Y-13929107D01*
X13668137Y-13957679D01*
X13668137Y-13986250D01*
X13653851Y-14029107D01*
X13482423Y-14200536D01*
X13668137Y-14200536D01*
X13796708Y-14171964D02*
X13810994Y-14186250D01*
X13796708Y-14200536D01*
X13782423Y-14186250D01*
X13796708Y-14171964D01*
X13796708Y-14200536D01*
X13996708Y-13900536D02*
X14025280Y-13900536D01*
X14053851Y-13914822D01*
X14068137Y-13929107D01*
X14082423Y-13957679D01*
X14096708Y-14014822D01*
X14096708Y-14086250D01*
X14082423Y-14143393D01*
X14068137Y-14171964D01*
X14053851Y-14186250D01*
X14025280Y-14200536D01*
X13996708Y-14200536D01*
X13968137Y-14186250D01*
X13953851Y-14171964D01*
X13939565Y-14143393D01*
X13925280Y-14086250D01*
X13925280Y-14014822D01*
X13939565Y-13957679D01*
X13953851Y-13929107D01*
X13968137Y-13914822D01*
X13996708Y-13900536D01*
X14282423Y-13900536D02*
X14310994Y-13900536D01*
X14339565Y-13914822D01*
X14353851Y-13929107D01*
X14368137Y-13957679D01*
X14382423Y-14014822D01*
X14382423Y-14086250D01*
X14368137Y-14143393D01*
X14353851Y-14171964D01*
X14339565Y-14186250D01*
X14310994Y-14200536D01*
X14282423Y-14200536D01*
X14253851Y-14186250D01*
X14239565Y-14171964D01*
X14225280Y-14143393D01*
X14210994Y-14086250D01*
X14210994Y-14014822D01*
X14225280Y-13957679D01*
X14239565Y-13929107D01*
X14253851Y-13914822D01*
X14282423Y-13900536D01*
X14568137Y-13900536D02*
X14596708Y-13900536D01*
X14625280Y-13914822D01*
X14639565Y-13929107D01*
X14653851Y-13957679D01*
X14668137Y-14014822D01*
X14668137Y-14086250D01*
X14653851Y-14143393D01*
X14639565Y-14171964D01*
X14625280Y-14186250D01*
X14596708Y-14200536D01*
X14568137Y-14200536D01*
X14539565Y-14186250D01*
X14525280Y-14171964D01*
X14510994Y-14143393D01*
X14496708Y-14086250D01*
X14496708Y-14014822D01*
X14510994Y-13957679D01*
X14525280Y-13929107D01*
X14539565Y-13914822D01*
X14568137Y-13900536D01*
X14796708Y-14200536D02*
X14796708Y-14000536D01*
X14796708Y-14029107D02*
X14810994Y-14014822D01*
X14839565Y-14000536D01*
X14882423Y-14000536D01*
X14910994Y-14014822D01*
X14925280Y-14043393D01*
X14925280Y-14200536D01*
X14925280Y-14043393D02*
X14939565Y-14014822D01*
X14968137Y-14000536D01*
X15010994Y-14000536D01*
X15039565Y-14014822D01*
X15053851Y-14043393D01*
X15053851Y-14200536D01*
X15196708Y-14200536D02*
X15196708Y-14000536D01*
X15196708Y-14029107D02*
X15210994Y-14014822D01*
X15239565Y-14000536D01*
X15282423Y-14000536D01*
X15310994Y-14014822D01*
X15325280Y-14043393D01*
X15325280Y-14200536D01*
X15325280Y-14043393D02*
X15339565Y-14014822D01*
X15368137Y-14000536D01*
X15410994Y-14000536D01*
X15439565Y-14014822D01*
X15453851Y-14043393D01*
X15453851Y-14200536D01*
X16039565Y-13886250D02*
X15782423Y-14271964D01*
X16425280Y-13900536D02*
X16453851Y-13900536D01*
X16482423Y-13914822D01*
X16496708Y-13929107D01*
X16510994Y-13957679D01*
X16525280Y-14014822D01*
X16525280Y-14086250D01*
X16510994Y-14143393D01*
X16496708Y-14171964D01*
X16482423Y-14186250D01*
X16453851Y-14200536D01*
X16425280Y-14200536D01*
X16396708Y-14186250D01*
X16382423Y-14171964D01*
X16368137Y-14143393D01*
X16353851Y-14086250D01*
X16353851Y-14014822D01*
X16368137Y-13957679D01*
X16382423Y-13929107D01*
X16396708Y-13914822D01*
X16425280Y-13900536D01*
X16653851Y-14171964D02*
X16668137Y-14186250D01*
X16653851Y-14200536D01*
X16639565Y-14186250D01*
X16653851Y-14171964D01*
X16653851Y-14200536D01*
X16853851Y-13900536D02*
X16882423Y-13900536D01*
X16910994Y-13914822D01*
X16925280Y-13929107D01*
X16939566Y-13957679D01*
X16953851Y-14014822D01*
X16953851Y-14086250D01*
X16939566Y-14143393D01*
X16925280Y-14171964D01*
X16910994Y-14186250D01*
X16882423Y-14200536D01*
X16853851Y-14200536D01*
X16825280Y-14186250D01*
X16810994Y-14171964D01*
X16796708Y-14143393D01*
X16782423Y-14086250D01*
X16782423Y-14014822D01*
X16796708Y-13957679D01*
X16810994Y-13929107D01*
X16825280Y-13914822D01*
X16853851Y-13900536D01*
X17053851Y-13900536D02*
X17253851Y-13900536D01*
X17125280Y-14200536D01*
X17410994Y-14029107D02*
X17382423Y-14014822D01*
X17368137Y-14000536D01*
X17353851Y-13971964D01*
X17353851Y-13957679D01*
X17368137Y-13929107D01*
X17382423Y-13914822D01*
X17410994Y-13900536D01*
X17468137Y-13900536D01*
X17496708Y-13914822D01*
X17510994Y-13929107D01*
X17525280Y-13957679D01*
X17525280Y-13971964D01*
X17510994Y-14000536D01*
X17496708Y-14014822D01*
X17468137Y-14029107D01*
X17410994Y-14029107D01*
X17382423Y-14043393D01*
X17368137Y-14057679D01*
X17353851Y-14086250D01*
X17353851Y-14143393D01*
X17368137Y-14171964D01*
X17382423Y-14186250D01*
X17410994Y-14200536D01*
X17468137Y-14200536D01*
X17496708Y-14186250D01*
X17510994Y-14171964D01*
X17525280Y-14143393D01*
X17525280Y-14086250D01*
X17510994Y-14057679D01*
X17496708Y-14043393D01*
X17468137Y-14029107D01*
X17625280Y-13900536D02*
X17825280Y-13900536D01*
X17696708Y-14200536D01*
X17925280Y-13900536D02*
X17925280Y-13957679D01*
X18039566Y-13900536D02*
X18039566Y-13957679D01*
X18482423Y-14314822D02*
X18468137Y-14300536D01*
X18439566Y-14257679D01*
X18425280Y-14229107D01*
X18410994Y-14186250D01*
X18396708Y-14114822D01*
X18396708Y-14057679D01*
X18410994Y-13986250D01*
X18425280Y-13943393D01*
X18439566Y-13914822D01*
X18468137Y-13871964D01*
X18482423Y-13857679D01*
X18725280Y-14000536D02*
X18725280Y-14200536D01*
X18653851Y-13886250D02*
X18582423Y-14100536D01*
X18768137Y-14100536D01*
X19110994Y-14200536D02*
X19110994Y-13900536D01*
X19239566Y-14200536D02*
X19239566Y-14043393D01*
X19225280Y-14014822D01*
X19196708Y-14000536D01*
X19153851Y-14000536D01*
X19125280Y-14014822D01*
X19110994Y-14029107D01*
X19425280Y-14200536D02*
X19396708Y-14186250D01*
X19382423Y-14171964D01*
X19368137Y-14143393D01*
X19368137Y-14057679D01*
X19382423Y-14029107D01*
X19396708Y-14014822D01*
X19425280Y-14000536D01*
X19468137Y-14000536D01*
X19496708Y-14014822D01*
X19510994Y-14029107D01*
X19525280Y-14057679D01*
X19525280Y-14143393D01*
X19510994Y-14171964D01*
X19496708Y-14186250D01*
X19468137Y-14200536D01*
X19425280Y-14200536D01*
X19696708Y-14200536D02*
X19668137Y-14186250D01*
X19653851Y-14157679D01*
X19653851Y-13900536D01*
X19925280Y-14186250D02*
X19896708Y-14200536D01*
X19839566Y-14200536D01*
X19810994Y-14186250D01*
X19796708Y-14157679D01*
X19796708Y-14043393D01*
X19810994Y-14014822D01*
X19839566Y-14000536D01*
X19896708Y-14000536D01*
X19925280Y-14014822D01*
X19939566Y-14043393D01*
X19939566Y-14071964D01*
X19796708Y-14100536D01*
X20053851Y-14186250D02*
X20082423Y-14200536D01*
X20139566Y-14200536D01*
X20168137Y-14186250D01*
X20182423Y-14157679D01*
X20182423Y-14143393D01*
X20168137Y-14114822D01*
X20139566Y-14100536D01*
X20096708Y-14100536D01*
X20068137Y-14086250D01*
X20053851Y-14057679D01*
X20053851Y-14043393D01*
X20068137Y-14014822D01*
X20096708Y-14000536D01*
X20139566Y-14000536D01*
X20168137Y-14014822D01*
X20282423Y-14314822D02*
X20296708Y-14300536D01*
X20325280Y-14257679D01*
X20339566Y-14229107D01*
X20353851Y-14186250D01*
X20368137Y-14114822D01*
X20368137Y-14057679D01*
X20353851Y-13986250D01*
X20339566Y-13943393D01*
X20325280Y-13914822D01*
X20296708Y-13871964D01*
X20282423Y-13857679D01*
X12904565Y-14300822D02*
X13224565Y-14620822D01*
X13224565Y-14300822D02*
X12904565Y-14620822D01*
X13064565Y-14300822D02*
X13064565Y-14620822D01*
X12904565Y-14460822D02*
X13224565Y-14460822D01*
X13482423Y-14296536D02*
X13668137Y-14296536D01*
X13568137Y-14410822D01*
X13610994Y-14410822D01*
X13639565Y-14425107D01*
X13653851Y-14439393D01*
X13668137Y-14467964D01*
X13668137Y-14539393D01*
X13653851Y-14567964D01*
X13639565Y-14582250D01*
X13610994Y-14596536D01*
X13525280Y-14596536D01*
X13496708Y-14582250D01*
X13482423Y-14567964D01*
X13796708Y-14567964D02*
X13810994Y-14582250D01*
X13796708Y-14596536D01*
X13782423Y-14582250D01*
X13796708Y-14567964D01*
X13796708Y-14596536D01*
X13925280Y-14325107D02*
X13939565Y-14310822D01*
X13968137Y-14296536D01*
X14039565Y-14296536D01*
X14068137Y-14310822D01*
X14082423Y-14325107D01*
X14096708Y-14353679D01*
X14096708Y-14382250D01*
X14082423Y-14425107D01*
X13910994Y-14596536D01*
X14096708Y-14596536D01*
X14282423Y-14296536D02*
X14310994Y-14296536D01*
X14339565Y-14310822D01*
X14353851Y-14325107D01*
X14368137Y-14353679D01*
X14382423Y-14410822D01*
X14382423Y-14482250D01*
X14368137Y-14539393D01*
X14353851Y-14567964D01*
X14339565Y-14582250D01*
X14310994Y-14596536D01*
X14282423Y-14596536D01*
X14253851Y-14582250D01*
X14239565Y-14567964D01*
X14225280Y-14539393D01*
X14210994Y-14482250D01*
X14210994Y-14410822D01*
X14225280Y-14353679D01*
X14239565Y-14325107D01*
X14253851Y-14310822D01*
X14282423Y-14296536D01*
X14568137Y-14296536D02*
X14596708Y-14296536D01*
X14625280Y-14310822D01*
X14639565Y-14325107D01*
X14653851Y-14353679D01*
X14668137Y-14410822D01*
X14668137Y-14482250D01*
X14653851Y-14539393D01*
X14639565Y-14567964D01*
X14625280Y-14582250D01*
X14596708Y-14596536D01*
X14568137Y-14596536D01*
X14539565Y-14582250D01*
X14525280Y-14567964D01*
X14510994Y-14539393D01*
X14496708Y-14482250D01*
X14496708Y-14410822D01*
X14510994Y-14353679D01*
X14525280Y-14325107D01*
X14539565Y-14310822D01*
X14568137Y-14296536D01*
X14796708Y-14596536D02*
X14796708Y-14396536D01*
X14796708Y-14425107D02*
X14810994Y-14410822D01*
X14839565Y-14396536D01*
X14882423Y-14396536D01*
X14910994Y-14410822D01*
X14925280Y-14439393D01*
X14925280Y-14596536D01*
X14925280Y-14439393D02*
X14939565Y-14410822D01*
X14968137Y-14396536D01*
X15010994Y-14396536D01*
X15039565Y-14410822D01*
X15053851Y-14439393D01*
X15053851Y-14596536D01*
X15196708Y-14596536D02*
X15196708Y-14396536D01*
X15196708Y-14425107D02*
X15210994Y-14410822D01*
X15239565Y-14396536D01*
X15282423Y-14396536D01*
X15310994Y-14410822D01*
X15325280Y-14439393D01*
X15325280Y-14596536D01*
X15325280Y-14439393D02*
X15339565Y-14410822D01*
X15368137Y-14396536D01*
X15410994Y-14396536D01*
X15439565Y-14410822D01*
X15453851Y-14439393D01*
X15453851Y-14596536D01*
X16039565Y-14282250D02*
X15782423Y-14667964D01*
X16425280Y-14296536D02*
X16453851Y-14296536D01*
X16482423Y-14310822D01*
X16496708Y-14325107D01*
X16510994Y-14353679D01*
X16525280Y-14410822D01*
X16525280Y-14482250D01*
X16510994Y-14539393D01*
X16496708Y-14567964D01*
X16482423Y-14582250D01*
X16453851Y-14596536D01*
X16425280Y-14596536D01*
X16396708Y-14582250D01*
X16382423Y-14567964D01*
X16368137Y-14539393D01*
X16353851Y-14482250D01*
X16353851Y-14410822D01*
X16368137Y-14353679D01*
X16382423Y-14325107D01*
X16396708Y-14310822D01*
X16425280Y-14296536D01*
X16653851Y-14567964D02*
X16668137Y-14582250D01*
X16653851Y-14596536D01*
X16639565Y-14582250D01*
X16653851Y-14567964D01*
X16653851Y-14596536D01*
X16953851Y-14596536D02*
X16782423Y-14596536D01*
X16868137Y-14596536D02*
X16868137Y-14296536D01*
X16839566Y-14339393D01*
X16810994Y-14367964D01*
X16782423Y-14382250D01*
X17068137Y-14325107D02*
X17082423Y-14310822D01*
X17110994Y-14296536D01*
X17182423Y-14296536D01*
X17210994Y-14310822D01*
X17225280Y-14325107D01*
X17239566Y-14353679D01*
X17239566Y-14382250D01*
X17225280Y-14425107D01*
X17053851Y-14596536D01*
X17239566Y-14596536D01*
X17496708Y-14296536D02*
X17439566Y-14296536D01*
X17410994Y-14310822D01*
X17396708Y-14325107D01*
X17368137Y-14367964D01*
X17353851Y-14425107D01*
X17353851Y-14539393D01*
X17368137Y-14567964D01*
X17382423Y-14582250D01*
X17410994Y-14596536D01*
X17468137Y-14596536D01*
X17496708Y-14582250D01*
X17510994Y-14567964D01*
X17525280Y-14539393D01*
X17525280Y-14467964D01*
X17510994Y-14439393D01*
X17496708Y-14425107D01*
X17468137Y-14410822D01*
X17410994Y-14410822D01*
X17382423Y-14425107D01*
X17368137Y-14439393D01*
X17353851Y-14467964D01*
X17710994Y-14296536D02*
X17739566Y-14296536D01*
X17768137Y-14310822D01*
X17782423Y-14325107D01*
X17796708Y-14353679D01*
X17810994Y-14410822D01*
X17810994Y-14482250D01*
X17796708Y-14539393D01*
X17782423Y-14567964D01*
X17768137Y-14582250D01*
X17739566Y-14596536D01*
X17710994Y-14596536D01*
X17682423Y-14582250D01*
X17668137Y-14567964D01*
X17653851Y-14539393D01*
X17639566Y-14482250D01*
X17639566Y-14410822D01*
X17653851Y-14353679D01*
X17668137Y-14325107D01*
X17682423Y-14310822D01*
X17710994Y-14296536D01*
X17925280Y-14296536D02*
X17925280Y-14353679D01*
X18039566Y-14296536D02*
X18039566Y-14353679D01*
X18482423Y-14710822D02*
X18468137Y-14696536D01*
X18439566Y-14653679D01*
X18425280Y-14625107D01*
X18410994Y-14582250D01*
X18396708Y-14510822D01*
X18396708Y-14453679D01*
X18410994Y-14382250D01*
X18425280Y-14339393D01*
X18439566Y-14310822D01*
X18468137Y-14267964D01*
X18482423Y-14253679D01*
X18582423Y-14325107D02*
X18596708Y-14310822D01*
X18625280Y-14296536D01*
X18696708Y-14296536D01*
X18725280Y-14310822D01*
X18739566Y-14325107D01*
X18753851Y-14353679D01*
X18753851Y-14382250D01*
X18739566Y-14425107D01*
X18568137Y-14596536D01*
X18753851Y-14596536D01*
X19110994Y-14596536D02*
X19110994Y-14296536D01*
X19239566Y-14596536D02*
X19239566Y-14439393D01*
X19225280Y-14410822D01*
X19196708Y-14396536D01*
X19153851Y-14396536D01*
X19125280Y-14410822D01*
X19110994Y-14425107D01*
X19425280Y-14596536D02*
X19396708Y-14582250D01*
X19382423Y-14567964D01*
X19368137Y-14539393D01*
X19368137Y-14453679D01*
X19382423Y-14425107D01*
X19396708Y-14410822D01*
X19425280Y-14396536D01*
X19468137Y-14396536D01*
X19496708Y-14410822D01*
X19510994Y-14425107D01*
X19525280Y-14453679D01*
X19525280Y-14539393D01*
X19510994Y-14567964D01*
X19496708Y-14582250D01*
X19468137Y-14596536D01*
X19425280Y-14596536D01*
X19696708Y-14596536D02*
X19668137Y-14582250D01*
X19653851Y-14553679D01*
X19653851Y-14296536D01*
X19925280Y-14582250D02*
X19896708Y-14596536D01*
X19839566Y-14596536D01*
X19810994Y-14582250D01*
X19796708Y-14553679D01*
X19796708Y-14439393D01*
X19810994Y-14410822D01*
X19839566Y-14396536D01*
X19896708Y-14396536D01*
X19925280Y-14410822D01*
X19939566Y-14439393D01*
X19939566Y-14467964D01*
X19796708Y-14496536D01*
X20053851Y-14582250D02*
X20082423Y-14596536D01*
X20139566Y-14596536D01*
X20168137Y-14582250D01*
X20182423Y-14553679D01*
X20182423Y-14539393D01*
X20168137Y-14510822D01*
X20139566Y-14496536D01*
X20096708Y-14496536D01*
X20068137Y-14482250D01*
X20053851Y-14453679D01*
X20053851Y-14439393D01*
X20068137Y-14410822D01*
X20096708Y-14396536D01*
X20139566Y-14396536D01*
X20168137Y-14410822D01*
X20282423Y-14710822D02*
X20296708Y-14696536D01*
X20325280Y-14653679D01*
X20339566Y-14625107D01*
X20353851Y-14582250D01*
X20368137Y-14510822D01*
X20368137Y-14453679D01*
X20353851Y-14382250D01*
X20339566Y-14339393D01*
X20325280Y-14310822D01*
X20296708Y-14267964D01*
X20282423Y-14253679D01*
M02*
