G04 #@! TF.GenerationSoftware,KiCad,Pcbnew,(5.1.10-1-10_14)*
G04 #@! TF.CreationDate,2021-12-02T22:50:33+01:00*
G04 #@! TF.ProjectId,Power-Zauberling,506f7765-722d-45a6-9175-6265726c696e,rev?*
G04 #@! TF.SameCoordinates,Original*
G04 #@! TF.FileFunction,Copper,L1,Top*
G04 #@! TF.FilePolarity,Positive*
%FSLAX46Y46*%
G04 Gerber Fmt 4.6, Leading zero omitted, Abs format (unit mm)*
G04 Created by KiCad (PCBNEW (5.1.10-1-10_14)) date 2021-12-02 22:50:33*
%MOMM*%
%LPD*%
G01*
G04 APERTURE LIST*
G04 #@! TA.AperFunction,ComponentPad*
%ADD10C,0.800000*%
G04 #@! TD*
G04 #@! TA.AperFunction,ComponentPad*
%ADD11C,6.400000*%
G04 #@! TD*
G04 #@! TA.AperFunction,ComponentPad*
%ADD12C,2.000000*%
G04 #@! TD*
G04 #@! TA.AperFunction,ComponentPad*
%ADD13R,4.000000X4.000000*%
G04 #@! TD*
G04 #@! TA.AperFunction,ComponentPad*
%ADD14O,1.905000X2.000000*%
G04 #@! TD*
G04 #@! TA.AperFunction,ComponentPad*
%ADD15R,1.905000X2.000000*%
G04 #@! TD*
G04 #@! TA.AperFunction,ComponentPad*
%ADD16O,1.700000X1.700000*%
G04 #@! TD*
G04 #@! TA.AperFunction,ComponentPad*
%ADD17R,1.700000X1.700000*%
G04 #@! TD*
G04 #@! TA.AperFunction,SMDPad,CuDef*
%ADD18C,0.100000*%
G04 #@! TD*
G04 #@! TA.AperFunction,SMDPad,CuDef*
%ADD19R,0.900000X1.300000*%
G04 #@! TD*
G04 #@! TA.AperFunction,SMDPad,CuDef*
%ADD20R,2.500000X1.800000*%
G04 #@! TD*
G04 #@! TA.AperFunction,ComponentPad*
%ADD21O,1.200000X1.750000*%
G04 #@! TD*
G04 #@! TA.AperFunction,ComponentPad*
%ADD22O,1.700000X2.000000*%
G04 #@! TD*
G04 #@! TA.AperFunction,ViaPad*
%ADD23C,0.800000*%
G04 #@! TD*
G04 #@! TA.AperFunction,Conductor*
%ADD24C,2.000000*%
G04 #@! TD*
G04 #@! TA.AperFunction,Conductor*
%ADD25C,1.000000*%
G04 #@! TD*
G04 #@! TA.AperFunction,Conductor*
%ADD26C,0.500000*%
G04 #@! TD*
G04 #@! TA.AperFunction,Conductor*
%ADD27C,0.750000*%
G04 #@! TD*
G04 #@! TA.AperFunction,Conductor*
%ADD28C,1.500000*%
G04 #@! TD*
G04 APERTURE END LIST*
D10*
X154097056Y-86186944D03*
X152400000Y-85484000D03*
X150702944Y-86186944D03*
X150000000Y-87884000D03*
X150702944Y-89581056D03*
X152400000Y-90284000D03*
X154097056Y-89581056D03*
X154800000Y-87884000D03*
D11*
X152400000Y-87884000D03*
D10*
X154097056Y-62564944D03*
X152400000Y-61862000D03*
X150702944Y-62564944D03*
X150000000Y-64262000D03*
X150702944Y-65959056D03*
X152400000Y-66662000D03*
X154097056Y-65959056D03*
X154800000Y-64262000D03*
D11*
X152400000Y-64262000D03*
D12*
X169545000Y-70612000D03*
X135382000Y-81661000D03*
D13*
X145542000Y-107569000D03*
X159258000Y-107569000D03*
X145415000Y-44958000D03*
X159385000Y-44958000D03*
D14*
X149860000Y-71120000D03*
X152400000Y-71120000D03*
D15*
X154940000Y-71120000D03*
D16*
X134620000Y-91440000D03*
X134620000Y-93980000D03*
X134620000Y-96520000D03*
D17*
X134620000Y-99060000D03*
G04 #@! TA.AperFunction,SMDPad,CuDef*
G36*
G01*
X161090000Y-65997000D02*
X161090000Y-66337000D01*
G75*
G02*
X160950000Y-66477000I-140000J0D01*
G01*
X160670000Y-66477000D01*
G75*
G02*
X160530000Y-66337000I0J140000D01*
G01*
X160530000Y-65997000D01*
G75*
G02*
X160670000Y-65857000I140000J0D01*
G01*
X160950000Y-65857000D01*
G75*
G02*
X161090000Y-65997000I0J-140000D01*
G01*
G37*
G04 #@! TD.AperFunction*
G04 #@! TA.AperFunction,SMDPad,CuDef*
G36*
G01*
X162050000Y-65997000D02*
X162050000Y-66337000D01*
G75*
G02*
X161910000Y-66477000I-140000J0D01*
G01*
X161630000Y-66477000D01*
G75*
G02*
X161490000Y-66337000I0J140000D01*
G01*
X161490000Y-65997000D01*
G75*
G02*
X161630000Y-65857000I140000J0D01*
G01*
X161910000Y-65857000D01*
G75*
G02*
X162050000Y-65997000I0J-140000D01*
G01*
G37*
G04 #@! TD.AperFunction*
G04 #@! TA.AperFunction,SMDPad,CuDef*
D18*
G36*
X141373500Y-68340000D02*
G01*
X141373500Y-65215000D01*
X141790000Y-65215000D01*
X141790000Y-63740000D01*
X142690000Y-63740000D01*
X142690000Y-65215000D01*
X143106500Y-65215000D01*
X143106500Y-68340000D01*
X141373500Y-68340000D01*
G37*
G04 #@! TD.AperFunction*
D19*
X140740000Y-64390000D03*
X143740000Y-64390000D03*
G04 #@! TA.AperFunction,SMDPad,CuDef*
D18*
G36*
X141373500Y-88152000D02*
G01*
X141373500Y-85027000D01*
X141790000Y-85027000D01*
X141790000Y-83552000D01*
X142690000Y-83552000D01*
X142690000Y-85027000D01*
X143106500Y-85027000D01*
X143106500Y-88152000D01*
X141373500Y-88152000D01*
G37*
G04 #@! TD.AperFunction*
D19*
X140740000Y-84202000D03*
X143740000Y-84202000D03*
D20*
X161004000Y-101600000D03*
X157004000Y-101600000D03*
X147796000Y-101600000D03*
X143796000Y-101600000D03*
G04 #@! TA.AperFunction,SMDPad,CuDef*
G36*
G01*
X141170000Y-62527000D02*
X141170000Y-62187000D01*
G75*
G02*
X141310000Y-62047000I140000J0D01*
G01*
X141590000Y-62047000D01*
G75*
G02*
X141730000Y-62187000I0J-140000D01*
G01*
X141730000Y-62527000D01*
G75*
G02*
X141590000Y-62667000I-140000J0D01*
G01*
X141310000Y-62667000D01*
G75*
G02*
X141170000Y-62527000I0J140000D01*
G01*
G37*
G04 #@! TD.AperFunction*
G04 #@! TA.AperFunction,SMDPad,CuDef*
G36*
G01*
X140210000Y-62527000D02*
X140210000Y-62187000D01*
G75*
G02*
X140350000Y-62047000I140000J0D01*
G01*
X140630000Y-62047000D01*
G75*
G02*
X140770000Y-62187000I0J-140000D01*
G01*
X140770000Y-62527000D01*
G75*
G02*
X140630000Y-62667000I-140000J0D01*
G01*
X140350000Y-62667000D01*
G75*
G02*
X140210000Y-62527000I0J140000D01*
G01*
G37*
G04 #@! TD.AperFunction*
G04 #@! TA.AperFunction,SMDPad,CuDef*
G36*
G01*
X136736000Y-85798000D02*
X137076000Y-85798000D01*
G75*
G02*
X137216000Y-85938000I0J-140000D01*
G01*
X137216000Y-86218000D01*
G75*
G02*
X137076000Y-86358000I-140000J0D01*
G01*
X136736000Y-86358000D01*
G75*
G02*
X136596000Y-86218000I0J140000D01*
G01*
X136596000Y-85938000D01*
G75*
G02*
X136736000Y-85798000I140000J0D01*
G01*
G37*
G04 #@! TD.AperFunction*
G04 #@! TA.AperFunction,SMDPad,CuDef*
G36*
G01*
X136736000Y-84838000D02*
X137076000Y-84838000D01*
G75*
G02*
X137216000Y-84978000I0J-140000D01*
G01*
X137216000Y-85258000D01*
G75*
G02*
X137076000Y-85398000I-140000J0D01*
G01*
X136736000Y-85398000D01*
G75*
G02*
X136596000Y-85258000I0J140000D01*
G01*
X136596000Y-84978000D01*
G75*
G02*
X136736000Y-84838000I140000J0D01*
G01*
G37*
G04 #@! TD.AperFunction*
G04 #@! TA.AperFunction,SMDPad,CuDef*
G36*
G01*
X153450000Y-51731000D02*
X153450000Y-50631000D01*
G75*
G02*
X153700000Y-50381000I250000J0D01*
G01*
X156700000Y-50381000D01*
G75*
G02*
X156950000Y-50631000I0J-250000D01*
G01*
X156950000Y-51731000D01*
G75*
G02*
X156700000Y-51981000I-250000J0D01*
G01*
X153700000Y-51981000D01*
G75*
G02*
X153450000Y-51731000I0J250000D01*
G01*
G37*
G04 #@! TD.AperFunction*
G04 #@! TA.AperFunction,SMDPad,CuDef*
G36*
G01*
X147850000Y-51731000D02*
X147850000Y-50631000D01*
G75*
G02*
X148100000Y-50381000I250000J0D01*
G01*
X151100000Y-50381000D01*
G75*
G02*
X151350000Y-50631000I0J-250000D01*
G01*
X151350000Y-51731000D01*
G75*
G02*
X151100000Y-51981000I-250000J0D01*
G01*
X148100000Y-51981000D01*
G75*
G02*
X147850000Y-51731000I0J250000D01*
G01*
G37*
G04 #@! TD.AperFunction*
G04 #@! TA.AperFunction,SMDPad,CuDef*
G36*
G01*
X162010000Y-75726000D02*
X163110000Y-75726000D01*
G75*
G02*
X163360000Y-75976000I0J-250000D01*
G01*
X163360000Y-78976000D01*
G75*
G02*
X163110000Y-79226000I-250000J0D01*
G01*
X162010000Y-79226000D01*
G75*
G02*
X161760000Y-78976000I0J250000D01*
G01*
X161760000Y-75976000D01*
G75*
G02*
X162010000Y-75726000I250000J0D01*
G01*
G37*
G04 #@! TD.AperFunction*
G04 #@! TA.AperFunction,SMDPad,CuDef*
G36*
G01*
X162010000Y-70126000D02*
X163110000Y-70126000D01*
G75*
G02*
X163360000Y-70376000I0J-250000D01*
G01*
X163360000Y-73376000D01*
G75*
G02*
X163110000Y-73626000I-250000J0D01*
G01*
X162010000Y-73626000D01*
G75*
G02*
X161760000Y-73376000I0J250000D01*
G01*
X161760000Y-70376000D01*
G75*
G02*
X162010000Y-70126000I250000J0D01*
G01*
G37*
G04 #@! TD.AperFunction*
G04 #@! TA.AperFunction,SMDPad,CuDef*
G36*
G01*
X143310000Y-62187000D02*
X143310000Y-62527000D01*
G75*
G02*
X143170000Y-62667000I-140000J0D01*
G01*
X142890000Y-62667000D01*
G75*
G02*
X142750000Y-62527000I0J140000D01*
G01*
X142750000Y-62187000D01*
G75*
G02*
X142890000Y-62047000I140000J0D01*
G01*
X143170000Y-62047000D01*
G75*
G02*
X143310000Y-62187000I0J-140000D01*
G01*
G37*
G04 #@! TD.AperFunction*
G04 #@! TA.AperFunction,SMDPad,CuDef*
G36*
G01*
X144270000Y-62187000D02*
X144270000Y-62527000D01*
G75*
G02*
X144130000Y-62667000I-140000J0D01*
G01*
X143850000Y-62667000D01*
G75*
G02*
X143710000Y-62527000I0J140000D01*
G01*
X143710000Y-62187000D01*
G75*
G02*
X143850000Y-62047000I140000J0D01*
G01*
X144130000Y-62047000D01*
G75*
G02*
X144270000Y-62187000I0J-140000D01*
G01*
G37*
G04 #@! TD.AperFunction*
G04 #@! TA.AperFunction,SMDPad,CuDef*
G36*
G01*
X141690000Y-75726000D02*
X142790000Y-75726000D01*
G75*
G02*
X143040000Y-75976000I0J-250000D01*
G01*
X143040000Y-78976000D01*
G75*
G02*
X142790000Y-79226000I-250000J0D01*
G01*
X141690000Y-79226000D01*
G75*
G02*
X141440000Y-78976000I0J250000D01*
G01*
X141440000Y-75976000D01*
G75*
G02*
X141690000Y-75726000I250000J0D01*
G01*
G37*
G04 #@! TD.AperFunction*
G04 #@! TA.AperFunction,SMDPad,CuDef*
G36*
G01*
X141690000Y-70126000D02*
X142790000Y-70126000D01*
G75*
G02*
X143040000Y-70376000I0J-250000D01*
G01*
X143040000Y-73376000D01*
G75*
G02*
X142790000Y-73626000I-250000J0D01*
G01*
X141690000Y-73626000D01*
G75*
G02*
X141440000Y-73376000I0J250000D01*
G01*
X141440000Y-70376000D01*
G75*
G02*
X141690000Y-70126000I250000J0D01*
G01*
G37*
G04 #@! TD.AperFunction*
G04 #@! TA.AperFunction,SMDPad,CuDef*
G36*
G01*
X143554000Y-50313000D02*
X143554000Y-49763000D01*
G75*
G02*
X143754000Y-49563000I200000J0D01*
G01*
X144154000Y-49563000D01*
G75*
G02*
X144354000Y-49763000I0J-200000D01*
G01*
X144354000Y-50313000D01*
G75*
G02*
X144154000Y-50513000I-200000J0D01*
G01*
X143754000Y-50513000D01*
G75*
G02*
X143554000Y-50313000I0J200000D01*
G01*
G37*
G04 #@! TD.AperFunction*
G04 #@! TA.AperFunction,SMDPad,CuDef*
G36*
G01*
X141904000Y-50313000D02*
X141904000Y-49763000D01*
G75*
G02*
X142104000Y-49563000I200000J0D01*
G01*
X142504000Y-49563000D01*
G75*
G02*
X142704000Y-49763000I0J-200000D01*
G01*
X142704000Y-50313000D01*
G75*
G02*
X142504000Y-50513000I-200000J0D01*
G01*
X142104000Y-50513000D01*
G75*
G02*
X141904000Y-50313000I0J200000D01*
G01*
G37*
G04 #@! TD.AperFunction*
G04 #@! TA.AperFunction,SMDPad,CuDef*
G36*
G01*
X143554000Y-53361000D02*
X143554000Y-52811000D01*
G75*
G02*
X143754000Y-52611000I200000J0D01*
G01*
X144154000Y-52611000D01*
G75*
G02*
X144354000Y-52811000I0J-200000D01*
G01*
X144354000Y-53361000D01*
G75*
G02*
X144154000Y-53561000I-200000J0D01*
G01*
X143754000Y-53561000D01*
G75*
G02*
X143554000Y-53361000I0J200000D01*
G01*
G37*
G04 #@! TD.AperFunction*
G04 #@! TA.AperFunction,SMDPad,CuDef*
G36*
G01*
X141904000Y-53361000D02*
X141904000Y-52811000D01*
G75*
G02*
X142104000Y-52611000I200000J0D01*
G01*
X142504000Y-52611000D01*
G75*
G02*
X142704000Y-52811000I0J-200000D01*
G01*
X142704000Y-53361000D01*
G75*
G02*
X142504000Y-53561000I-200000J0D01*
G01*
X142104000Y-53561000D01*
G75*
G02*
X141904000Y-53361000I0J200000D01*
G01*
G37*
G04 #@! TD.AperFunction*
D21*
X146208000Y-58420000D03*
X144208000Y-58420000D03*
X142208000Y-58420000D03*
G04 #@! TA.AperFunction,ComponentPad*
G36*
G01*
X139608000Y-59045001D02*
X139608000Y-57794999D01*
G75*
G02*
X139857999Y-57545000I249999J0D01*
G01*
X140558001Y-57545000D01*
G75*
G02*
X140808000Y-57794999I0J-249999D01*
G01*
X140808000Y-59045001D01*
G75*
G02*
X140558001Y-59295000I-249999J0D01*
G01*
X139857999Y-59295000D01*
G75*
G02*
X139608000Y-59045001I0J249999D01*
G01*
G37*
G04 #@! TD.AperFunction*
X164718000Y-58420000D03*
X162718000Y-58420000D03*
X160718000Y-58420000D03*
X158718000Y-58420000D03*
G04 #@! TA.AperFunction,ComponentPad*
G36*
G01*
X156118000Y-59045001D02*
X156118000Y-57794999D01*
G75*
G02*
X156367999Y-57545000I249999J0D01*
G01*
X157068001Y-57545000D01*
G75*
G02*
X157318000Y-57794999I0J-249999D01*
G01*
X157318000Y-59045001D01*
G75*
G02*
X157068001Y-59295000I-249999J0D01*
G01*
X156367999Y-59295000D01*
G75*
G02*
X156118000Y-59045001I0J249999D01*
G01*
G37*
G04 #@! TD.AperFunction*
D22*
X158028000Y-93980000D03*
G04 #@! TA.AperFunction,ComponentPad*
G36*
G01*
X161378000Y-93230000D02*
X161378000Y-94730000D01*
G75*
G02*
X161128000Y-94980000I-250000J0D01*
G01*
X159928000Y-94980000D01*
G75*
G02*
X159678000Y-94730000I0J250000D01*
G01*
X159678000Y-93230000D01*
G75*
G02*
X159928000Y-92980000I250000J0D01*
G01*
X161128000Y-92980000D01*
G75*
G02*
X161378000Y-93230000I0J-250000D01*
G01*
G37*
G04 #@! TD.AperFunction*
D16*
X170180000Y-89154000D03*
X170180000Y-91694000D03*
X170180000Y-94234000D03*
X170180000Y-96774000D03*
X170180000Y-99314000D03*
D17*
X170180000Y-101854000D03*
D22*
X144312000Y-93980000D03*
G04 #@! TA.AperFunction,ComponentPad*
G36*
G01*
X147662000Y-93230000D02*
X147662000Y-94730000D01*
G75*
G02*
X147412000Y-94980000I-250000J0D01*
G01*
X146212000Y-94980000D01*
G75*
G02*
X145962000Y-94730000I0J250000D01*
G01*
X145962000Y-93230000D01*
G75*
G02*
X146212000Y-92980000I250000J0D01*
G01*
X147412000Y-92980000D01*
G75*
G02*
X147662000Y-93230000I0J-250000D01*
G01*
G37*
G04 #@! TD.AperFunction*
D23*
X145669000Y-84201000D03*
X161798000Y-68580000D03*
X164338000Y-98044000D03*
X146050000Y-69088000D03*
X146050000Y-81534000D03*
X162052000Y-84836000D03*
X144272000Y-69596000D03*
X144272000Y-79756000D03*
X162052000Y-82804000D03*
X162052000Y-82804000D03*
X163068000Y-99314000D03*
X157607000Y-77470000D03*
X140208000Y-77470000D03*
X158623000Y-55753000D03*
D24*
X143764000Y-101632000D02*
X143796000Y-101600000D01*
X155448000Y-104140000D02*
X143764000Y-104140000D01*
X157004000Y-102584000D02*
X155448000Y-104140000D01*
X143764000Y-104140000D02*
X143764000Y-101632000D01*
D25*
X143796000Y-100616000D02*
X143796000Y-101600000D01*
X157004000Y-101600000D02*
X157004000Y-101060000D01*
D26*
X143994000Y-62361000D02*
X143990000Y-62357000D01*
D24*
X135128000Y-99060000D02*
X142240000Y-99060000D01*
X142240000Y-99060000D02*
X143796000Y-100616000D01*
D25*
X143741000Y-84201000D02*
X143740000Y-84202000D01*
X145669000Y-84201000D02*
X143741000Y-84201000D01*
X147574000Y-68834000D02*
X147574000Y-65659000D01*
X146305000Y-64390000D02*
X143740000Y-64390000D01*
X147574000Y-65659000D02*
X146305000Y-64390000D01*
D24*
X154940000Y-71247000D02*
X154940000Y-71120000D01*
D25*
X154940000Y-71120000D02*
X154940000Y-69850000D01*
X153924000Y-68834000D02*
X147574000Y-68834000D01*
X154940000Y-69850000D02*
X153924000Y-68834000D01*
X147574000Y-68834000D02*
X147574000Y-82804000D01*
X146177000Y-84201000D02*
X145669000Y-84201000D01*
X147574000Y-82804000D02*
X146177000Y-84201000D01*
D26*
X143990000Y-64140000D02*
X143740000Y-64390000D01*
X143990000Y-62357000D02*
X143990000Y-64140000D01*
D24*
X154940000Y-82423000D02*
X154940000Y-71120000D01*
X158496000Y-87376000D02*
X158496000Y-85979000D01*
X163068000Y-91948000D02*
X158496000Y-87376000D01*
X163068000Y-96012000D02*
X163068000Y-91948000D01*
X158496000Y-85979000D02*
X154940000Y-82423000D01*
X160519176Y-98679000D02*
X160519176Y-98560824D01*
X157004000Y-99917000D02*
X158242000Y-98679000D01*
X160519176Y-98560824D02*
X163068000Y-96012000D01*
X158242000Y-98679000D02*
X160519176Y-98679000D01*
X157004000Y-101600000D02*
X157004000Y-99917000D01*
D25*
X140208000Y-84734000D02*
X140740000Y-84202000D01*
X140208000Y-92710000D02*
X140208000Y-84734000D01*
X138938000Y-93980000D02*
X140208000Y-92710000D01*
X135128000Y-93980000D02*
X138938000Y-93980000D01*
D26*
X139824000Y-85118000D02*
X140208000Y-84734000D01*
X136906000Y-85118000D02*
X139824000Y-85118000D01*
D25*
X140722000Y-71876000D02*
X142240000Y-71876000D01*
X140722000Y-71876000D02*
X140468000Y-71876000D01*
X140722000Y-71876000D02*
X140214000Y-71876000D01*
X140214000Y-71876000D02*
X138176000Y-73914000D01*
X138176000Y-82702000D02*
X140208000Y-84734000D01*
X138176000Y-73914000D02*
X138176000Y-82702000D01*
D27*
X140490000Y-64140000D02*
X140490000Y-62357000D01*
X140740000Y-64390000D02*
X140490000Y-64140000D01*
X140490000Y-62357000D02*
X140490000Y-60805000D01*
X140490000Y-60805000D02*
X140970000Y-60325000D01*
X140970000Y-60325000D02*
X143637000Y-60325000D01*
X143637000Y-60325000D02*
X144208500Y-59753500D01*
X144208000Y-59753000D02*
X144208000Y-58420000D01*
X144208500Y-59753500D02*
X144208000Y-59753000D01*
D25*
X144208000Y-53340000D02*
X143954000Y-53086000D01*
X143954000Y-50038000D02*
X144780000Y-50038000D01*
X145923000Y-51181000D02*
X149600000Y-51181000D01*
X144780000Y-50038000D02*
X145923000Y-51181000D01*
X145923000Y-51181000D02*
X145923000Y-52705000D01*
X145923000Y-52705000D02*
X144208000Y-54420000D01*
X144208000Y-54420000D02*
X144208000Y-53340000D01*
X144208000Y-58420000D02*
X144208000Y-54420000D01*
X162560000Y-71876000D02*
X162560000Y-69342000D01*
X162560000Y-69342000D02*
X161798000Y-68580000D01*
X161798000Y-68580000D02*
X161798000Y-68580000D01*
D28*
X142748000Y-90424000D02*
X146050000Y-90424000D01*
X141986000Y-91186000D02*
X142748000Y-90424000D01*
X146050000Y-90424000D02*
X147320000Y-89154000D01*
X135128000Y-96520000D02*
X138938000Y-96520000D01*
X141986000Y-93472000D02*
X141986000Y-91186000D01*
X138938000Y-96520000D02*
X141986000Y-93472000D01*
X149860000Y-71120000D02*
X149860000Y-83185000D01*
X147320000Y-85725000D02*
X147320000Y-89154000D01*
X149860000Y-83185000D02*
X147320000Y-85725000D01*
D26*
X161798000Y-66195000D02*
X161770000Y-66167000D01*
X161798000Y-68580000D02*
X161798000Y-66195000D01*
D27*
X170180000Y-99314000D02*
X165608000Y-99314000D01*
X165608000Y-99314000D02*
X164338000Y-98044000D01*
X164338000Y-98044000D02*
X164338000Y-98044000D01*
D25*
X142208000Y-53182000D02*
X142304000Y-53086000D01*
X142208000Y-58420000D02*
X142208000Y-53182000D01*
D27*
X146050000Y-69088000D02*
X146050000Y-81534000D01*
X146050000Y-81534000D02*
X146050000Y-81534000D01*
X162052000Y-84836000D02*
X168910000Y-91694000D01*
X168910000Y-91694000D02*
X170180000Y-91694000D01*
D25*
X140208000Y-58420000D02*
X140208000Y-50800000D01*
X140970000Y-50038000D02*
X142304000Y-50038000D01*
X140208000Y-50800000D02*
X140970000Y-50038000D01*
D27*
X144272000Y-69596000D02*
X144272000Y-79756000D01*
X144272000Y-79756000D02*
X144272000Y-79756000D01*
X162052000Y-82804000D02*
X168402000Y-89154000D01*
X168402000Y-89154000D02*
X170180000Y-89154000D01*
D24*
X147796000Y-101600000D02*
X147796000Y-97568000D01*
X147796000Y-97568000D02*
X147828000Y-97536000D01*
X146812000Y-93980000D02*
X146812000Y-96520000D01*
X146812000Y-96520000D02*
X147828000Y-97536000D01*
D28*
X159385000Y-96393000D02*
X146939000Y-96393000D01*
X146939000Y-96393000D02*
X146812000Y-96520000D01*
X160528000Y-95250000D02*
X159385000Y-96393000D01*
X160528000Y-93980000D02*
X160528000Y-95250000D01*
D24*
X161004000Y-105823000D02*
X159258000Y-107569000D01*
X161004000Y-101600000D02*
X161004000Y-105823000D01*
D27*
X168983516Y-94234000D02*
X170180000Y-94234000D01*
X165593020Y-90902103D02*
X165593020Y-93203020D01*
X161036000Y-86345084D02*
X165593020Y-90902103D01*
X161036000Y-81861516D02*
X161036000Y-86345084D01*
X165593020Y-93203020D02*
X166624000Y-94234000D01*
X161683506Y-81214010D02*
X161036000Y-81861516D01*
X165085019Y-67041019D02*
X165100000Y-67056000D01*
X164477507Y-81214010D02*
X161683506Y-81214010D01*
X165100000Y-80591517D02*
X164477507Y-81214010D01*
X165085019Y-65771019D02*
X165085019Y-67041019D01*
X166624000Y-94234000D02*
X168983516Y-94234000D01*
X162814000Y-63500000D02*
X165085019Y-65771019D01*
X165100000Y-67056000D02*
X165100000Y-80591517D01*
X162814000Y-58516000D02*
X162814000Y-63500000D01*
X162718000Y-58420000D02*
X162814000Y-58516000D01*
X166878000Y-96774000D02*
X170180000Y-96774000D01*
X164643010Y-94539010D02*
X166878000Y-96774000D01*
X164643010Y-91295610D02*
X164643010Y-94539010D01*
X160071010Y-81482990D02*
X160071010Y-86723610D01*
X161290000Y-80264000D02*
X160071010Y-81482990D01*
X160071010Y-86723610D02*
X164643010Y-91295610D01*
X160718000Y-58420000D02*
X160718000Y-62928000D01*
X164084000Y-80264000D02*
X161290000Y-80264000D01*
X160718000Y-62928000D02*
X164135009Y-66345009D01*
X164135009Y-66345009D02*
X164135009Y-80212991D01*
X164135009Y-80212991D02*
X164084000Y-80264000D01*
X170180000Y-101854000D02*
X165608000Y-101854000D01*
X165608000Y-101854000D02*
X163068000Y-99314000D01*
X163068000Y-99314000D02*
X163068000Y-99314000D01*
D26*
X142240000Y-84668002D02*
X142240000Y-84289500D01*
D25*
X142240000Y-84289500D02*
X142240000Y-77476000D01*
D28*
X155200000Y-51181000D02*
X158623000Y-51181000D01*
X158623000Y-51181000D02*
X158623000Y-55753000D01*
X158623000Y-55753000D02*
X158623000Y-55753000D01*
D26*
X160810000Y-66167000D02*
X160782000Y-66167000D01*
X157607000Y-69342000D02*
X157607000Y-77470000D01*
X160782000Y-66167000D02*
X157607000Y-69342000D01*
X143030000Y-62357000D02*
X143030000Y-61630500D01*
X143030000Y-61630500D02*
X143319500Y-61341000D01*
X143319500Y-61341000D02*
X144462500Y-61341000D01*
X146208000Y-59595500D02*
X146208000Y-58420000D01*
X144462500Y-61341000D02*
X146208000Y-59595500D01*
X143030000Y-62357000D02*
X142240000Y-62357000D01*
X141450000Y-62357000D02*
X142240000Y-62357000D01*
X142240000Y-62357000D02*
X142240000Y-64477500D01*
D28*
X142234000Y-77470000D02*
X142240000Y-77476000D01*
X140208000Y-77470000D02*
X142234000Y-77470000D01*
X162554000Y-77470000D02*
X162560000Y-77476000D01*
X157607000Y-77470000D02*
X162554000Y-77470000D01*
D26*
X136906000Y-86078000D02*
X135989000Y-86078000D01*
X135382000Y-85471000D02*
X135382000Y-81661000D01*
X135989000Y-86078000D02*
X135382000Y-85471000D01*
M02*
