G04 #@! TF.GenerationSoftware,KiCad,Pcbnew,(5.1.10-1-10_14)*
G04 #@! TF.CreationDate,2021-12-02T22:50:33+01:00*
G04 #@! TF.ProjectId,Power-Zauberling,506f7765-722d-45a6-9175-6265726c696e,rev?*
G04 #@! TF.SameCoordinates,Original*
G04 #@! TF.FileFunction,Copper,L2,Bot*
G04 #@! TF.FilePolarity,Positive*
%FSLAX46Y46*%
G04 Gerber Fmt 4.6, Leading zero omitted, Abs format (unit mm)*
G04 Created by KiCad (PCBNEW (5.1.10-1-10_14)) date 2021-12-02 22:50:33*
%MOMM*%
%LPD*%
G01*
G04 APERTURE LIST*
G04 #@! TA.AperFunction,ComponentPad*
%ADD10C,0.800000*%
G04 #@! TD*
G04 #@! TA.AperFunction,ComponentPad*
%ADD11C,6.400000*%
G04 #@! TD*
G04 #@! TA.AperFunction,ComponentPad*
%ADD12C,2.000000*%
G04 #@! TD*
G04 #@! TA.AperFunction,ComponentPad*
%ADD13R,4.000000X4.000000*%
G04 #@! TD*
G04 #@! TA.AperFunction,ComponentPad*
%ADD14O,1.905000X2.000000*%
G04 #@! TD*
G04 #@! TA.AperFunction,ComponentPad*
%ADD15R,1.905000X2.000000*%
G04 #@! TD*
G04 #@! TA.AperFunction,ComponentPad*
%ADD16O,1.700000X1.700000*%
G04 #@! TD*
G04 #@! TA.AperFunction,ComponentPad*
%ADD17R,1.700000X1.700000*%
G04 #@! TD*
G04 #@! TA.AperFunction,ComponentPad*
%ADD18O,1.200000X1.750000*%
G04 #@! TD*
G04 #@! TA.AperFunction,ComponentPad*
%ADD19O,1.700000X2.000000*%
G04 #@! TD*
G04 #@! TA.AperFunction,ViaPad*
%ADD20C,0.800000*%
G04 #@! TD*
G04 #@! TA.AperFunction,Conductor*
%ADD21C,1.000000*%
G04 #@! TD*
G04 #@! TA.AperFunction,Conductor*
%ADD22C,0.750000*%
G04 #@! TD*
G04 #@! TA.AperFunction,Conductor*
%ADD23C,2.000000*%
G04 #@! TD*
G04 #@! TA.AperFunction,Conductor*
%ADD24C,1.500000*%
G04 #@! TD*
G04 #@! TA.AperFunction,Conductor*
%ADD25C,0.254000*%
G04 #@! TD*
G04 #@! TA.AperFunction,Conductor*
%ADD26C,0.100000*%
G04 #@! TD*
G04 APERTURE END LIST*
D10*
X154097056Y-86186944D03*
X152400000Y-85484000D03*
X150702944Y-86186944D03*
X150000000Y-87884000D03*
X150702944Y-89581056D03*
X152400000Y-90284000D03*
X154097056Y-89581056D03*
X154800000Y-87884000D03*
D11*
X152400000Y-87884000D03*
D10*
X154097056Y-62564944D03*
X152400000Y-61862000D03*
X150702944Y-62564944D03*
X150000000Y-64262000D03*
X150702944Y-65959056D03*
X152400000Y-66662000D03*
X154097056Y-65959056D03*
X154800000Y-64262000D03*
D11*
X152400000Y-64262000D03*
D12*
X169545000Y-70612000D03*
X135382000Y-81661000D03*
D13*
X145542000Y-107569000D03*
X159258000Y-107569000D03*
X145415000Y-44958000D03*
X159385000Y-44958000D03*
D14*
X149860000Y-71120000D03*
X152400000Y-71120000D03*
D15*
X154940000Y-71120000D03*
D16*
X134620000Y-91440000D03*
X134620000Y-93980000D03*
X134620000Y-96520000D03*
D17*
X134620000Y-99060000D03*
D18*
X146208000Y-58420000D03*
X144208000Y-58420000D03*
X142208000Y-58420000D03*
G04 #@! TA.AperFunction,ComponentPad*
G36*
G01*
X139608000Y-59045001D02*
X139608000Y-57794999D01*
G75*
G02*
X139857999Y-57545000I249999J0D01*
G01*
X140558001Y-57545000D01*
G75*
G02*
X140808000Y-57794999I0J-249999D01*
G01*
X140808000Y-59045001D01*
G75*
G02*
X140558001Y-59295000I-249999J0D01*
G01*
X139857999Y-59295000D01*
G75*
G02*
X139608000Y-59045001I0J249999D01*
G01*
G37*
G04 #@! TD.AperFunction*
X164718000Y-58420000D03*
X162718000Y-58420000D03*
X160718000Y-58420000D03*
X158718000Y-58420000D03*
G04 #@! TA.AperFunction,ComponentPad*
G36*
G01*
X156118000Y-59045001D02*
X156118000Y-57794999D01*
G75*
G02*
X156367999Y-57545000I249999J0D01*
G01*
X157068001Y-57545000D01*
G75*
G02*
X157318000Y-57794999I0J-249999D01*
G01*
X157318000Y-59045001D01*
G75*
G02*
X157068001Y-59295000I-249999J0D01*
G01*
X156367999Y-59295000D01*
G75*
G02*
X156118000Y-59045001I0J249999D01*
G01*
G37*
G04 #@! TD.AperFunction*
D19*
X158028000Y-93980000D03*
G04 #@! TA.AperFunction,ComponentPad*
G36*
G01*
X161378000Y-93230000D02*
X161378000Y-94730000D01*
G75*
G02*
X161128000Y-94980000I-250000J0D01*
G01*
X159928000Y-94980000D01*
G75*
G02*
X159678000Y-94730000I0J250000D01*
G01*
X159678000Y-93230000D01*
G75*
G02*
X159928000Y-92980000I250000J0D01*
G01*
X161128000Y-92980000D01*
G75*
G02*
X161378000Y-93230000I0J-250000D01*
G01*
G37*
G04 #@! TD.AperFunction*
D16*
X170180000Y-89154000D03*
X170180000Y-91694000D03*
X170180000Y-94234000D03*
X170180000Y-96774000D03*
X170180000Y-99314000D03*
D17*
X170180000Y-101854000D03*
D19*
X144312000Y-93980000D03*
G04 #@! TA.AperFunction,ComponentPad*
G36*
G01*
X147662000Y-93230000D02*
X147662000Y-94730000D01*
G75*
G02*
X147412000Y-94980000I-250000J0D01*
G01*
X146212000Y-94980000D01*
G75*
G02*
X145962000Y-94730000I0J250000D01*
G01*
X145962000Y-93230000D01*
G75*
G02*
X146212000Y-92980000I250000J0D01*
G01*
X147412000Y-92980000D01*
G75*
G02*
X147662000Y-93230000I0J-250000D01*
G01*
G37*
G04 #@! TD.AperFunction*
D20*
X145669000Y-84201000D03*
X161798000Y-68580000D03*
X164338000Y-98044000D03*
X146050000Y-69088000D03*
X146050000Y-81534000D03*
X162052000Y-84836000D03*
X144272000Y-69596000D03*
X144272000Y-79756000D03*
X162052000Y-82804000D03*
X162052000Y-82804000D03*
X163068000Y-99314000D03*
X157607000Y-77470000D03*
X140208000Y-77470000D03*
X158623000Y-55753000D03*
D21*
X145669000Y-84201000D02*
X145669000Y-84201000D01*
X149860000Y-71120000D02*
X149860000Y-69596000D01*
X150876000Y-68580000D02*
X161798000Y-68580000D01*
X149860000Y-69596000D02*
X150876000Y-68580000D01*
D22*
X164338000Y-98044000D02*
X164338000Y-66548000D01*
X164338000Y-66548000D02*
X158750000Y-60960000D01*
X158750000Y-58452000D02*
X158718000Y-58420000D01*
X158750000Y-60960000D02*
X158750000Y-58452000D01*
X142208000Y-58420000D02*
X142208000Y-65246000D01*
X142208000Y-65246000D02*
X146050000Y-69088000D01*
X146050000Y-69088000D02*
X146050000Y-69088000D01*
X146050000Y-81534000D02*
X158750000Y-81534000D01*
X158750000Y-81534000D02*
X162052000Y-84836000D01*
X162052000Y-84836000D02*
X162052000Y-84836000D01*
X140208000Y-58420000D02*
X140208000Y-65532000D01*
X140208000Y-65532000D02*
X144272000Y-69596000D01*
X144272000Y-69596000D02*
X144272000Y-69596000D01*
X144272000Y-79756000D02*
X159004000Y-79756000D01*
X159004000Y-79756000D02*
X162052000Y-82804000D01*
X162052000Y-82804000D02*
X162052000Y-82804000D01*
X162052000Y-82804000D02*
X162052000Y-82804000D01*
D23*
X159385000Y-44958000D02*
X167005000Y-52578000D01*
X167005000Y-68072000D02*
X169545000Y-70612000D01*
X167005000Y-52578000D02*
X167005000Y-68072000D01*
X166624000Y-100203000D02*
X159258000Y-107569000D01*
X167005000Y-99822000D02*
X166624000Y-100203000D01*
X167005000Y-68072000D02*
X167005000Y-99822000D01*
D22*
X156718000Y-60706000D02*
X156718000Y-58420000D01*
X163068000Y-67056000D02*
X156718000Y-60706000D01*
X163068000Y-99314000D02*
X163068000Y-67056000D01*
D23*
X145415000Y-44958000D02*
X145288000Y-44958000D01*
X135636000Y-81407000D02*
X135382000Y-81661000D01*
X138811000Y-81407000D02*
X135636000Y-81407000D01*
X145542000Y-107569000D02*
X144399000Y-107569000D01*
X143383000Y-44958000D02*
X145415000Y-44958000D01*
X137033000Y-51308000D02*
X143383000Y-44958000D01*
X138811000Y-68199000D02*
X137033000Y-66421000D01*
X137033000Y-66421000D02*
X137033000Y-59436000D01*
X152400000Y-77422000D02*
X152400000Y-71120000D01*
D24*
X139041000Y-77700000D02*
X138811000Y-77470000D01*
D23*
X138811000Y-77470000D02*
X138811000Y-68199000D01*
X138811000Y-81407000D02*
X138811000Y-77470000D01*
X138811000Y-77470000D02*
X145288000Y-77470000D01*
X157607000Y-77470000D02*
X157607000Y-77470000D01*
X145288000Y-77470000D02*
X157607000Y-77470000D01*
D24*
X146208000Y-58420000D02*
X146208000Y-55784000D01*
X146177000Y-55753000D02*
X137033000Y-55753000D01*
X146208000Y-55784000D02*
X146177000Y-55753000D01*
D23*
X137033000Y-55753000D02*
X137033000Y-51308000D01*
X137033000Y-59436000D02*
X137033000Y-55753000D01*
D24*
X146177000Y-55753000D02*
X164719000Y-55753000D01*
X164719000Y-58419000D02*
X164718000Y-58420000D01*
X164719000Y-55753000D02*
X164719000Y-58419000D01*
D23*
X144312000Y-93980000D02*
X144312000Y-91480000D01*
X144312000Y-91480000D02*
X144272000Y-91440000D01*
X144312000Y-91480000D02*
X148757000Y-91480000D01*
X148757000Y-91480000D02*
X151257000Y-93980000D01*
X151257000Y-93980000D02*
X158028000Y-93980000D01*
X134660000Y-91480000D02*
X134620000Y-91440000D01*
X138811000Y-91059000D02*
X139232000Y-91480000D01*
X138811000Y-81407000D02*
X138811000Y-91059000D01*
X139232000Y-91480000D02*
X134660000Y-91480000D01*
X144312000Y-91480000D02*
X139232000Y-91480000D01*
X138811000Y-91901000D02*
X139232000Y-91480000D01*
X138811000Y-100838000D02*
X138811000Y-91901000D01*
X145542000Y-107569000D02*
X138811000Y-100838000D01*
D25*
X165085299Y-43310801D02*
X165085298Y-43310811D01*
X165085298Y-43502357D01*
X165083033Y-43516270D01*
X165085298Y-43581015D01*
X165085298Y-43606353D01*
X165086673Y-43620310D01*
X165087162Y-43634297D01*
X165090519Y-43659362D01*
X165096874Y-43723885D01*
X165100968Y-43737382D01*
X165172943Y-44274778D01*
X165173145Y-44303106D01*
X165183378Y-44352697D01*
X165184859Y-44363752D01*
X165191322Y-44391192D01*
X165197013Y-44418770D01*
X165200324Y-44429410D01*
X165211935Y-44478707D01*
X165223686Y-44504488D01*
X165448669Y-45227515D01*
X165456592Y-45266005D01*
X165472022Y-45302565D01*
X165472080Y-45302752D01*
X165487385Y-45338968D01*
X165502513Y-45374812D01*
X165502605Y-45374982D01*
X165518054Y-45411537D01*
X165540120Y-45444056D01*
X165899334Y-46105451D01*
X165913875Y-46140321D01*
X165936849Y-46174525D01*
X165937667Y-46176032D01*
X165958799Y-46207206D01*
X165979724Y-46238360D01*
X165980811Y-46239678D01*
X166003934Y-46273789D01*
X166030827Y-46300326D01*
X166504721Y-46874956D01*
X166525405Y-46906103D01*
X166554734Y-46935599D01*
X166556073Y-46937223D01*
X166582504Y-46963527D01*
X166608677Y-46989850D01*
X166610293Y-46991184D01*
X166639782Y-47020532D01*
X166670925Y-47041234D01*
X167245736Y-47515719D01*
X167272409Y-47542747D01*
X167306342Y-47565747D01*
X167307516Y-47566716D01*
X167339075Y-47587933D01*
X167370169Y-47609009D01*
X167371491Y-47609727D01*
X167405526Y-47632609D01*
X167440580Y-47647246D01*
X168102235Y-48006560D01*
X168134758Y-48028626D01*
X168171302Y-48044067D01*
X168171471Y-48044159D01*
X168209144Y-48060057D01*
X168243546Y-48074593D01*
X168243714Y-48074645D01*
X168280280Y-48090076D01*
X168318789Y-48098001D01*
X169041483Y-48322832D01*
X169067009Y-48334485D01*
X169116541Y-48346183D01*
X169127446Y-48349575D01*
X169154798Y-48355217D01*
X169181948Y-48361629D01*
X169193254Y-48363150D01*
X169243112Y-48373435D01*
X169271177Y-48373634D01*
X169808640Y-48445944D01*
X169822365Y-48450107D01*
X169886640Y-48456438D01*
X169911476Y-48459779D01*
X169925705Y-48460285D01*
X169939897Y-48461683D01*
X169964994Y-48461683D01*
X170029502Y-48463978D01*
X170043652Y-48461683D01*
X171605367Y-48461683D01*
X171605368Y-64811436D01*
X171544945Y-64811436D01*
X171505643Y-64807565D01*
X171466340Y-64811436D01*
X171348808Y-64823012D01*
X171198000Y-64868759D01*
X171059015Y-64943048D01*
X170937193Y-65043025D01*
X170837216Y-65164847D01*
X170762927Y-65303832D01*
X170717180Y-65454640D01*
X170701733Y-65611475D01*
X170705604Y-65650778D01*
X170705605Y-69450047D01*
X170616475Y-69360917D01*
X170500807Y-69476585D01*
X170405044Y-69212186D01*
X170115429Y-69071296D01*
X169803892Y-68989616D01*
X169482405Y-68970282D01*
X169163325Y-69014039D01*
X168858912Y-69119205D01*
X168684956Y-69212186D01*
X168589192Y-69476587D01*
X169545000Y-70432395D01*
X169559143Y-70418253D01*
X169738748Y-70597858D01*
X169724605Y-70612000D01*
X169738748Y-70626143D01*
X169559143Y-70805748D01*
X169545000Y-70791605D01*
X168589192Y-71747413D01*
X168684956Y-72011814D01*
X168974571Y-72152704D01*
X169286108Y-72234384D01*
X169358080Y-72238712D01*
X168769542Y-72823547D01*
X168764671Y-72826883D01*
X168713628Y-72879109D01*
X168689948Y-72902640D01*
X168686226Y-72907146D01*
X168654519Y-72939588D01*
X168636153Y-72967768D01*
X168614737Y-72993696D01*
X168593235Y-73033620D01*
X168590035Y-73038530D01*
X168574587Y-73068245D01*
X168540010Y-73132446D01*
X168538282Y-73138080D01*
X167933040Y-74302286D01*
X167900166Y-74361446D01*
X167884681Y-74409646D01*
X167865846Y-74456633D01*
X167853406Y-74523149D01*
X167631670Y-75550016D01*
X167618305Y-75594073D01*
X167611218Y-75666031D01*
X167602966Y-75737788D01*
X167606729Y-75783658D01*
X167606729Y-76431434D01*
X167602965Y-76477306D01*
X167611218Y-76549082D01*
X167618305Y-76621035D01*
X167631668Y-76665088D01*
X167853420Y-77692102D01*
X167865883Y-77758680D01*
X167884698Y-77805594D01*
X167900161Y-77853730D01*
X167933077Y-77912969D01*
X168538260Y-79076605D01*
X168539945Y-79082101D01*
X168574588Y-79146456D01*
X168590100Y-79176282D01*
X168593220Y-79181067D01*
X168614644Y-79220866D01*
X168636148Y-79246912D01*
X168654600Y-79275214D01*
X168686204Y-79307540D01*
X168689835Y-79311938D01*
X168713646Y-79335609D01*
X168764770Y-79387901D01*
X168769515Y-79391150D01*
X169688221Y-80304453D01*
X169732153Y-80351407D01*
X169776014Y-80382872D01*
X169817862Y-80417010D01*
X169874689Y-80447170D01*
X170705604Y-80927469D01*
X170705605Y-86564400D01*
X170701733Y-86603713D01*
X170717180Y-86760548D01*
X170762927Y-86911356D01*
X170837216Y-87050341D01*
X170937193Y-87172163D01*
X171059015Y-87272140D01*
X171198000Y-87346429D01*
X171348808Y-87392176D01*
X171466340Y-87403752D01*
X171466341Y-87403752D01*
X171505643Y-87407623D01*
X171544946Y-87403752D01*
X171605367Y-87403752D01*
X171605367Y-88714650D01*
X171495990Y-88450589D01*
X171333475Y-88207368D01*
X171126632Y-88000525D01*
X170883411Y-87838010D01*
X170613158Y-87726068D01*
X170326260Y-87669000D01*
X170033740Y-87669000D01*
X169746842Y-87726068D01*
X169476589Y-87838010D01*
X169233368Y-88000525D01*
X169026525Y-88207368D01*
X168864010Y-88450589D01*
X168752068Y-88720842D01*
X168695000Y-89007740D01*
X168695000Y-89300260D01*
X168752068Y-89587158D01*
X168864010Y-89857411D01*
X169026525Y-90100632D01*
X169233368Y-90307475D01*
X169407760Y-90424000D01*
X169233368Y-90540525D01*
X169026525Y-90747368D01*
X168864010Y-90990589D01*
X168752068Y-91260842D01*
X168695000Y-91547740D01*
X168695000Y-91840260D01*
X168752068Y-92127158D01*
X168864010Y-92397411D01*
X169026525Y-92640632D01*
X169233368Y-92847475D01*
X169407760Y-92964000D01*
X169233368Y-93080525D01*
X169026525Y-93287368D01*
X168864010Y-93530589D01*
X168752068Y-93800842D01*
X168695000Y-94087740D01*
X168695000Y-94380260D01*
X168752068Y-94667158D01*
X168864010Y-94937411D01*
X169026525Y-95180632D01*
X169233368Y-95387475D01*
X169407760Y-95504000D01*
X169233368Y-95620525D01*
X169026525Y-95827368D01*
X168864010Y-96070589D01*
X168752068Y-96340842D01*
X168695000Y-96627740D01*
X168695000Y-96920260D01*
X168752068Y-97207158D01*
X168864010Y-97477411D01*
X169026525Y-97720632D01*
X169233368Y-97927475D01*
X169407760Y-98044000D01*
X169233368Y-98160525D01*
X169026525Y-98367368D01*
X168864010Y-98610589D01*
X168752068Y-98880842D01*
X168695000Y-99167740D01*
X168695000Y-99460260D01*
X168752068Y-99747158D01*
X168864010Y-100017411D01*
X169026525Y-100260632D01*
X169158380Y-100392487D01*
X169085820Y-100414498D01*
X168975506Y-100473463D01*
X168878815Y-100552815D01*
X168799463Y-100649506D01*
X168740498Y-100759820D01*
X168704188Y-100879518D01*
X168691928Y-101004000D01*
X168691928Y-102704000D01*
X168704188Y-102828482D01*
X168740498Y-102948180D01*
X168799463Y-103058494D01*
X168878815Y-103155185D01*
X168975506Y-103234537D01*
X169085820Y-103293502D01*
X169205518Y-103329812D01*
X169330000Y-103342072D01*
X171030000Y-103342072D01*
X171154482Y-103329812D01*
X171274180Y-103293502D01*
X171384494Y-103234537D01*
X171481185Y-103155185D01*
X171560537Y-103058494D01*
X171605368Y-102974623D01*
X171605368Y-103753830D01*
X170043849Y-103753830D01*
X170029896Y-103751560D01*
X169965195Y-103753830D01*
X169939897Y-103753830D01*
X169925899Y-103755209D01*
X169911867Y-103755701D01*
X169886838Y-103759056D01*
X169822365Y-103765406D01*
X169808828Y-103769512D01*
X169271338Y-103841558D01*
X169243039Y-103841761D01*
X169193412Y-103852003D01*
X169182334Y-103853488D01*
X169154939Y-103859943D01*
X169127375Y-103865632D01*
X169116703Y-103868953D01*
X169067382Y-103880575D01*
X169041631Y-103892315D01*
X168318784Y-104117265D01*
X168280345Y-104125173D01*
X168243714Y-104140627D01*
X168243477Y-104140701D01*
X168208994Y-104155275D01*
X168171532Y-104171080D01*
X168171295Y-104171208D01*
X168134694Y-104186678D01*
X168102238Y-104208703D01*
X167440620Y-104567925D01*
X167405552Y-104582566D01*
X167371537Y-104605433D01*
X167370227Y-104606144D01*
X167339003Y-104627304D01*
X167307540Y-104648455D01*
X167306385Y-104649409D01*
X167272461Y-104672398D01*
X167245772Y-104699438D01*
X166670913Y-105173926D01*
X166639743Y-105194648D01*
X166610290Y-105223964D01*
X166608699Y-105225277D01*
X166582459Y-105251665D01*
X166556039Y-105277962D01*
X166554724Y-105279556D01*
X166525425Y-105309021D01*
X166504720Y-105340198D01*
X166030803Y-105914928D01*
X166003922Y-105941454D01*
X165980793Y-105975577D01*
X165979694Y-105976909D01*
X165958743Y-106008106D01*
X165937658Y-106039213D01*
X165936834Y-106040731D01*
X165913852Y-106074952D01*
X165899318Y-106109810D01*
X165540117Y-106771217D01*
X165518060Y-106803721D01*
X165502607Y-106840285D01*
X165502505Y-106840473D01*
X165486794Y-106877702D01*
X165472085Y-106912505D01*
X165472026Y-106912696D01*
X165456586Y-106949281D01*
X165448665Y-106987766D01*
X165223688Y-107710728D01*
X165211936Y-107736511D01*
X165200328Y-107785796D01*
X165197016Y-107796438D01*
X165191320Y-107824038D01*
X165184860Y-107851466D01*
X165183381Y-107862512D01*
X165173147Y-107912101D01*
X165172944Y-107940434D01*
X165100968Y-108477823D01*
X165096874Y-108491320D01*
X165090520Y-108555831D01*
X165087162Y-108580904D01*
X165086672Y-108594897D01*
X165085298Y-108608852D01*
X165085298Y-108634186D01*
X165083033Y-108698931D01*
X165085298Y-108712844D01*
X165085298Y-108826163D01*
X165085299Y-110283137D01*
X163709026Y-110283137D01*
X163709026Y-110223228D01*
X163712897Y-110183925D01*
X163697450Y-110027090D01*
X163651703Y-109876282D01*
X163577414Y-109737297D01*
X163477437Y-109615475D01*
X163355615Y-109515498D01*
X163216630Y-109441209D01*
X163065822Y-109395462D01*
X162948290Y-109383886D01*
X162908987Y-109380015D01*
X162869685Y-109383886D01*
X161895740Y-109383886D01*
X161893000Y-107854750D01*
X161734250Y-107696000D01*
X159385000Y-107696000D01*
X159385000Y-107716000D01*
X159131000Y-107716000D01*
X159131000Y-107696000D01*
X159111000Y-107696000D01*
X159111000Y-107442000D01*
X159131000Y-107442000D01*
X159131000Y-107422000D01*
X159385000Y-107422000D01*
X159385000Y-107442000D01*
X161734250Y-107442000D01*
X161893000Y-107283250D01*
X161896072Y-105569000D01*
X161887467Y-105481634D01*
X167095724Y-100164872D01*
X167111318Y-100145465D01*
X167122827Y-100123389D01*
X167129809Y-100099491D01*
X167131998Y-100076677D01*
X167288809Y-70674595D01*
X167903282Y-70674595D01*
X167947039Y-70993675D01*
X168052205Y-71298088D01*
X168145186Y-71472044D01*
X168409587Y-71567808D01*
X169365395Y-70612000D01*
X168409587Y-69656192D01*
X168145186Y-69751956D01*
X168004296Y-70041571D01*
X167922616Y-70353108D01*
X167903282Y-70674595D01*
X167288809Y-70674595D01*
X167385998Y-52451677D01*
X167383690Y-52426888D01*
X167376590Y-52403026D01*
X167364971Y-52381007D01*
X167345142Y-52357680D01*
X162525294Y-47908589D01*
X161936698Y-47272905D01*
X161974502Y-47202180D01*
X162010812Y-47082482D01*
X162023072Y-46958000D01*
X162020000Y-45243750D01*
X161861250Y-45085000D01*
X159910859Y-45085000D01*
X159675674Y-44831000D01*
X161861250Y-44831000D01*
X162020000Y-44672250D01*
X162023072Y-42958000D01*
X162010812Y-42833518D01*
X162010288Y-42831789D01*
X162869684Y-42831789D01*
X162908987Y-42835660D01*
X162948289Y-42831789D01*
X162948290Y-42831789D01*
X163065822Y-42820213D01*
X163216630Y-42774466D01*
X163355615Y-42700177D01*
X163477437Y-42600200D01*
X163577414Y-42478378D01*
X163651703Y-42339393D01*
X163697450Y-42188585D01*
X163712897Y-42031750D01*
X163709026Y-41992447D01*
X163709026Y-41932027D01*
X165085298Y-41932027D01*
X165085299Y-43310801D01*
G04 #@! TA.AperFunction,Conductor*
D26*
G36*
X165085299Y-43310801D02*
G01*
X165085298Y-43310811D01*
X165085298Y-43502357D01*
X165083033Y-43516270D01*
X165085298Y-43581015D01*
X165085298Y-43606353D01*
X165086673Y-43620310D01*
X165087162Y-43634297D01*
X165090519Y-43659362D01*
X165096874Y-43723885D01*
X165100968Y-43737382D01*
X165172943Y-44274778D01*
X165173145Y-44303106D01*
X165183378Y-44352697D01*
X165184859Y-44363752D01*
X165191322Y-44391192D01*
X165197013Y-44418770D01*
X165200324Y-44429410D01*
X165211935Y-44478707D01*
X165223686Y-44504488D01*
X165448669Y-45227515D01*
X165456592Y-45266005D01*
X165472022Y-45302565D01*
X165472080Y-45302752D01*
X165487385Y-45338968D01*
X165502513Y-45374812D01*
X165502605Y-45374982D01*
X165518054Y-45411537D01*
X165540120Y-45444056D01*
X165899334Y-46105451D01*
X165913875Y-46140321D01*
X165936849Y-46174525D01*
X165937667Y-46176032D01*
X165958799Y-46207206D01*
X165979724Y-46238360D01*
X165980811Y-46239678D01*
X166003934Y-46273789D01*
X166030827Y-46300326D01*
X166504721Y-46874956D01*
X166525405Y-46906103D01*
X166554734Y-46935599D01*
X166556073Y-46937223D01*
X166582504Y-46963527D01*
X166608677Y-46989850D01*
X166610293Y-46991184D01*
X166639782Y-47020532D01*
X166670925Y-47041234D01*
X167245736Y-47515719D01*
X167272409Y-47542747D01*
X167306342Y-47565747D01*
X167307516Y-47566716D01*
X167339075Y-47587933D01*
X167370169Y-47609009D01*
X167371491Y-47609727D01*
X167405526Y-47632609D01*
X167440580Y-47647246D01*
X168102235Y-48006560D01*
X168134758Y-48028626D01*
X168171302Y-48044067D01*
X168171471Y-48044159D01*
X168209144Y-48060057D01*
X168243546Y-48074593D01*
X168243714Y-48074645D01*
X168280280Y-48090076D01*
X168318789Y-48098001D01*
X169041483Y-48322832D01*
X169067009Y-48334485D01*
X169116541Y-48346183D01*
X169127446Y-48349575D01*
X169154798Y-48355217D01*
X169181948Y-48361629D01*
X169193254Y-48363150D01*
X169243112Y-48373435D01*
X169271177Y-48373634D01*
X169808640Y-48445944D01*
X169822365Y-48450107D01*
X169886640Y-48456438D01*
X169911476Y-48459779D01*
X169925705Y-48460285D01*
X169939897Y-48461683D01*
X169964994Y-48461683D01*
X170029502Y-48463978D01*
X170043652Y-48461683D01*
X171605367Y-48461683D01*
X171605368Y-64811436D01*
X171544945Y-64811436D01*
X171505643Y-64807565D01*
X171466340Y-64811436D01*
X171348808Y-64823012D01*
X171198000Y-64868759D01*
X171059015Y-64943048D01*
X170937193Y-65043025D01*
X170837216Y-65164847D01*
X170762927Y-65303832D01*
X170717180Y-65454640D01*
X170701733Y-65611475D01*
X170705604Y-65650778D01*
X170705605Y-69450047D01*
X170616475Y-69360917D01*
X170500807Y-69476585D01*
X170405044Y-69212186D01*
X170115429Y-69071296D01*
X169803892Y-68989616D01*
X169482405Y-68970282D01*
X169163325Y-69014039D01*
X168858912Y-69119205D01*
X168684956Y-69212186D01*
X168589192Y-69476587D01*
X169545000Y-70432395D01*
X169559143Y-70418253D01*
X169738748Y-70597858D01*
X169724605Y-70612000D01*
X169738748Y-70626143D01*
X169559143Y-70805748D01*
X169545000Y-70791605D01*
X168589192Y-71747413D01*
X168684956Y-72011814D01*
X168974571Y-72152704D01*
X169286108Y-72234384D01*
X169358080Y-72238712D01*
X168769542Y-72823547D01*
X168764671Y-72826883D01*
X168713628Y-72879109D01*
X168689948Y-72902640D01*
X168686226Y-72907146D01*
X168654519Y-72939588D01*
X168636153Y-72967768D01*
X168614737Y-72993696D01*
X168593235Y-73033620D01*
X168590035Y-73038530D01*
X168574587Y-73068245D01*
X168540010Y-73132446D01*
X168538282Y-73138080D01*
X167933040Y-74302286D01*
X167900166Y-74361446D01*
X167884681Y-74409646D01*
X167865846Y-74456633D01*
X167853406Y-74523149D01*
X167631670Y-75550016D01*
X167618305Y-75594073D01*
X167611218Y-75666031D01*
X167602966Y-75737788D01*
X167606729Y-75783658D01*
X167606729Y-76431434D01*
X167602965Y-76477306D01*
X167611218Y-76549082D01*
X167618305Y-76621035D01*
X167631668Y-76665088D01*
X167853420Y-77692102D01*
X167865883Y-77758680D01*
X167884698Y-77805594D01*
X167900161Y-77853730D01*
X167933077Y-77912969D01*
X168538260Y-79076605D01*
X168539945Y-79082101D01*
X168574588Y-79146456D01*
X168590100Y-79176282D01*
X168593220Y-79181067D01*
X168614644Y-79220866D01*
X168636148Y-79246912D01*
X168654600Y-79275214D01*
X168686204Y-79307540D01*
X168689835Y-79311938D01*
X168713646Y-79335609D01*
X168764770Y-79387901D01*
X168769515Y-79391150D01*
X169688221Y-80304453D01*
X169732153Y-80351407D01*
X169776014Y-80382872D01*
X169817862Y-80417010D01*
X169874689Y-80447170D01*
X170705604Y-80927469D01*
X170705605Y-86564400D01*
X170701733Y-86603713D01*
X170717180Y-86760548D01*
X170762927Y-86911356D01*
X170837216Y-87050341D01*
X170937193Y-87172163D01*
X171059015Y-87272140D01*
X171198000Y-87346429D01*
X171348808Y-87392176D01*
X171466340Y-87403752D01*
X171466341Y-87403752D01*
X171505643Y-87407623D01*
X171544946Y-87403752D01*
X171605367Y-87403752D01*
X171605367Y-88714650D01*
X171495990Y-88450589D01*
X171333475Y-88207368D01*
X171126632Y-88000525D01*
X170883411Y-87838010D01*
X170613158Y-87726068D01*
X170326260Y-87669000D01*
X170033740Y-87669000D01*
X169746842Y-87726068D01*
X169476589Y-87838010D01*
X169233368Y-88000525D01*
X169026525Y-88207368D01*
X168864010Y-88450589D01*
X168752068Y-88720842D01*
X168695000Y-89007740D01*
X168695000Y-89300260D01*
X168752068Y-89587158D01*
X168864010Y-89857411D01*
X169026525Y-90100632D01*
X169233368Y-90307475D01*
X169407760Y-90424000D01*
X169233368Y-90540525D01*
X169026525Y-90747368D01*
X168864010Y-90990589D01*
X168752068Y-91260842D01*
X168695000Y-91547740D01*
X168695000Y-91840260D01*
X168752068Y-92127158D01*
X168864010Y-92397411D01*
X169026525Y-92640632D01*
X169233368Y-92847475D01*
X169407760Y-92964000D01*
X169233368Y-93080525D01*
X169026525Y-93287368D01*
X168864010Y-93530589D01*
X168752068Y-93800842D01*
X168695000Y-94087740D01*
X168695000Y-94380260D01*
X168752068Y-94667158D01*
X168864010Y-94937411D01*
X169026525Y-95180632D01*
X169233368Y-95387475D01*
X169407760Y-95504000D01*
X169233368Y-95620525D01*
X169026525Y-95827368D01*
X168864010Y-96070589D01*
X168752068Y-96340842D01*
X168695000Y-96627740D01*
X168695000Y-96920260D01*
X168752068Y-97207158D01*
X168864010Y-97477411D01*
X169026525Y-97720632D01*
X169233368Y-97927475D01*
X169407760Y-98044000D01*
X169233368Y-98160525D01*
X169026525Y-98367368D01*
X168864010Y-98610589D01*
X168752068Y-98880842D01*
X168695000Y-99167740D01*
X168695000Y-99460260D01*
X168752068Y-99747158D01*
X168864010Y-100017411D01*
X169026525Y-100260632D01*
X169158380Y-100392487D01*
X169085820Y-100414498D01*
X168975506Y-100473463D01*
X168878815Y-100552815D01*
X168799463Y-100649506D01*
X168740498Y-100759820D01*
X168704188Y-100879518D01*
X168691928Y-101004000D01*
X168691928Y-102704000D01*
X168704188Y-102828482D01*
X168740498Y-102948180D01*
X168799463Y-103058494D01*
X168878815Y-103155185D01*
X168975506Y-103234537D01*
X169085820Y-103293502D01*
X169205518Y-103329812D01*
X169330000Y-103342072D01*
X171030000Y-103342072D01*
X171154482Y-103329812D01*
X171274180Y-103293502D01*
X171384494Y-103234537D01*
X171481185Y-103155185D01*
X171560537Y-103058494D01*
X171605368Y-102974623D01*
X171605368Y-103753830D01*
X170043849Y-103753830D01*
X170029896Y-103751560D01*
X169965195Y-103753830D01*
X169939897Y-103753830D01*
X169925899Y-103755209D01*
X169911867Y-103755701D01*
X169886838Y-103759056D01*
X169822365Y-103765406D01*
X169808828Y-103769512D01*
X169271338Y-103841558D01*
X169243039Y-103841761D01*
X169193412Y-103852003D01*
X169182334Y-103853488D01*
X169154939Y-103859943D01*
X169127375Y-103865632D01*
X169116703Y-103868953D01*
X169067382Y-103880575D01*
X169041631Y-103892315D01*
X168318784Y-104117265D01*
X168280345Y-104125173D01*
X168243714Y-104140627D01*
X168243477Y-104140701D01*
X168208994Y-104155275D01*
X168171532Y-104171080D01*
X168171295Y-104171208D01*
X168134694Y-104186678D01*
X168102238Y-104208703D01*
X167440620Y-104567925D01*
X167405552Y-104582566D01*
X167371537Y-104605433D01*
X167370227Y-104606144D01*
X167339003Y-104627304D01*
X167307540Y-104648455D01*
X167306385Y-104649409D01*
X167272461Y-104672398D01*
X167245772Y-104699438D01*
X166670913Y-105173926D01*
X166639743Y-105194648D01*
X166610290Y-105223964D01*
X166608699Y-105225277D01*
X166582459Y-105251665D01*
X166556039Y-105277962D01*
X166554724Y-105279556D01*
X166525425Y-105309021D01*
X166504720Y-105340198D01*
X166030803Y-105914928D01*
X166003922Y-105941454D01*
X165980793Y-105975577D01*
X165979694Y-105976909D01*
X165958743Y-106008106D01*
X165937658Y-106039213D01*
X165936834Y-106040731D01*
X165913852Y-106074952D01*
X165899318Y-106109810D01*
X165540117Y-106771217D01*
X165518060Y-106803721D01*
X165502607Y-106840285D01*
X165502505Y-106840473D01*
X165486794Y-106877702D01*
X165472085Y-106912505D01*
X165472026Y-106912696D01*
X165456586Y-106949281D01*
X165448665Y-106987766D01*
X165223688Y-107710728D01*
X165211936Y-107736511D01*
X165200328Y-107785796D01*
X165197016Y-107796438D01*
X165191320Y-107824038D01*
X165184860Y-107851466D01*
X165183381Y-107862512D01*
X165173147Y-107912101D01*
X165172944Y-107940434D01*
X165100968Y-108477823D01*
X165096874Y-108491320D01*
X165090520Y-108555831D01*
X165087162Y-108580904D01*
X165086672Y-108594897D01*
X165085298Y-108608852D01*
X165085298Y-108634186D01*
X165083033Y-108698931D01*
X165085298Y-108712844D01*
X165085298Y-108826163D01*
X165085299Y-110283137D01*
X163709026Y-110283137D01*
X163709026Y-110223228D01*
X163712897Y-110183925D01*
X163697450Y-110027090D01*
X163651703Y-109876282D01*
X163577414Y-109737297D01*
X163477437Y-109615475D01*
X163355615Y-109515498D01*
X163216630Y-109441209D01*
X163065822Y-109395462D01*
X162948290Y-109383886D01*
X162908987Y-109380015D01*
X162869685Y-109383886D01*
X161895740Y-109383886D01*
X161893000Y-107854750D01*
X161734250Y-107696000D01*
X159385000Y-107696000D01*
X159385000Y-107716000D01*
X159131000Y-107716000D01*
X159131000Y-107696000D01*
X159111000Y-107696000D01*
X159111000Y-107442000D01*
X159131000Y-107442000D01*
X159131000Y-107422000D01*
X159385000Y-107422000D01*
X159385000Y-107442000D01*
X161734250Y-107442000D01*
X161893000Y-107283250D01*
X161896072Y-105569000D01*
X161887467Y-105481634D01*
X167095724Y-100164872D01*
X167111318Y-100145465D01*
X167122827Y-100123389D01*
X167129809Y-100099491D01*
X167131998Y-100076677D01*
X167288809Y-70674595D01*
X167903282Y-70674595D01*
X167947039Y-70993675D01*
X168052205Y-71298088D01*
X168145186Y-71472044D01*
X168409587Y-71567808D01*
X169365395Y-70612000D01*
X168409587Y-69656192D01*
X168145186Y-69751956D01*
X168004296Y-70041571D01*
X167922616Y-70353108D01*
X167903282Y-70674595D01*
X167288809Y-70674595D01*
X167385998Y-52451677D01*
X167383690Y-52426888D01*
X167376590Y-52403026D01*
X167364971Y-52381007D01*
X167345142Y-52357680D01*
X162525294Y-47908589D01*
X161936698Y-47272905D01*
X161974502Y-47202180D01*
X162010812Y-47082482D01*
X162023072Y-46958000D01*
X162020000Y-45243750D01*
X161861250Y-45085000D01*
X159910859Y-45085000D01*
X159675674Y-44831000D01*
X161861250Y-44831000D01*
X162020000Y-44672250D01*
X162023072Y-42958000D01*
X162010812Y-42833518D01*
X162010288Y-42831789D01*
X162869684Y-42831789D01*
X162908987Y-42835660D01*
X162948289Y-42831789D01*
X162948290Y-42831789D01*
X163065822Y-42820213D01*
X163216630Y-42774466D01*
X163355615Y-42700177D01*
X163477437Y-42600200D01*
X163577414Y-42478378D01*
X163651703Y-42339393D01*
X163697450Y-42188585D01*
X163712897Y-42031750D01*
X163709026Y-41992447D01*
X163709026Y-41932027D01*
X165085298Y-41932027D01*
X165085299Y-43310801D01*
G37*
G04 #@! TD.AperFunction*
D25*
X141116711Y-41992447D02*
X141112840Y-42031750D01*
X141128287Y-42188585D01*
X141174034Y-42339393D01*
X141248323Y-42478378D01*
X141348300Y-42600200D01*
X141470122Y-42700177D01*
X141609107Y-42774466D01*
X141759915Y-42820213D01*
X141877447Y-42831789D01*
X141877448Y-42831789D01*
X141916750Y-42835660D01*
X141956053Y-42831789D01*
X142789712Y-42831789D01*
X142789188Y-42833518D01*
X142776928Y-42958000D01*
X142780000Y-44672250D01*
X142938750Y-44831000D01*
X145288000Y-44831000D01*
X145288000Y-44811000D01*
X145542000Y-44811000D01*
X145542000Y-44831000D01*
X147891250Y-44831000D01*
X148050000Y-44672250D01*
X148051835Y-43648203D01*
X148061825Y-43665421D01*
X148091966Y-43722046D01*
X148126256Y-43763977D01*
X148157905Y-43807943D01*
X148204822Y-43851696D01*
X149121502Y-44771572D01*
X149124699Y-44776231D01*
X149177054Y-44827317D01*
X149200871Y-44851217D01*
X149205210Y-44854791D01*
X149237493Y-44886291D01*
X149265885Y-44904762D01*
X149292034Y-44926298D01*
X149331785Y-44947634D01*
X149336488Y-44950694D01*
X149366374Y-44966200D01*
X149430890Y-45000829D01*
X149436300Y-45002480D01*
X150603324Y-45607978D01*
X150662126Y-45640666D01*
X150710698Y-45656279D01*
X150758068Y-45675223D01*
X150824218Y-45687540D01*
X151854009Y-45910093D01*
X151898127Y-45923476D01*
X151969994Y-45930554D01*
X152041704Y-45938813D01*
X152087647Y-45935052D01*
X152737638Y-45935052D01*
X152783619Y-45938812D01*
X152855263Y-45930554D01*
X152927122Y-45923476D01*
X152971286Y-45910079D01*
X154000563Y-45687537D01*
X154066673Y-45675230D01*
X154114091Y-45656268D01*
X154162705Y-45640636D01*
X154221478Y-45607956D01*
X155388534Y-45002483D01*
X155393952Y-45000829D01*
X155458433Y-44966219D01*
X155488336Y-44950705D01*
X155493053Y-44947637D01*
X155532808Y-44926298D01*
X155558943Y-44904773D01*
X155587333Y-44886305D01*
X155619632Y-44854790D01*
X155623971Y-44851217D01*
X155647735Y-44827370D01*
X155700130Y-44776248D01*
X155703336Y-44771576D01*
X156620039Y-43851678D01*
X156666938Y-43807943D01*
X156698581Y-43763986D01*
X156732877Y-43722047D01*
X156746928Y-43695649D01*
X156746928Y-46958000D01*
X156759188Y-47082482D01*
X156795498Y-47202180D01*
X156854463Y-47312494D01*
X156933815Y-47409185D01*
X157030506Y-47488537D01*
X157140820Y-47547502D01*
X157260518Y-47583812D01*
X157385000Y-47596072D01*
X159710834Y-47596072D01*
X165370000Y-53255239D01*
X165370000Y-57094889D01*
X165298533Y-57047579D01*
X165073282Y-56955409D01*
X165035609Y-56951538D01*
X164845000Y-57076269D01*
X164845000Y-58293000D01*
X164865000Y-58293000D01*
X164865000Y-58547000D01*
X164845000Y-58547000D01*
X164845000Y-59763731D01*
X165035609Y-59888462D01*
X165073282Y-59884591D01*
X165298533Y-59792421D01*
X165370000Y-59745111D01*
X165370001Y-67991671D01*
X165362089Y-68072000D01*
X165370000Y-68152319D01*
X165370001Y-97926984D01*
X165348000Y-97816377D01*
X165348000Y-66597604D01*
X165352886Y-66547999D01*
X165339443Y-66411514D01*
X165333385Y-66350006D01*
X165275632Y-66159620D01*
X165181847Y-65984160D01*
X165055633Y-65830367D01*
X165017094Y-65798739D01*
X159760000Y-60541645D01*
X159760000Y-59474414D01*
X159840499Y-59572502D01*
X160028552Y-59726833D01*
X160243100Y-59841511D01*
X160475899Y-59912130D01*
X160718000Y-59935975D01*
X160960102Y-59912130D01*
X161192901Y-59841511D01*
X161407449Y-59726833D01*
X161595502Y-59572502D01*
X161718001Y-59423237D01*
X161840499Y-59572502D01*
X162028552Y-59726833D01*
X162243100Y-59841511D01*
X162475899Y-59912130D01*
X162718000Y-59935975D01*
X162960102Y-59912130D01*
X163192901Y-59841511D01*
X163407449Y-59726833D01*
X163595502Y-59572502D01*
X163718481Y-59422652D01*
X163761693Y-59486725D01*
X163934526Y-59658078D01*
X164137467Y-59792421D01*
X164362718Y-59884591D01*
X164400391Y-59888462D01*
X164591000Y-59763731D01*
X164591000Y-58547000D01*
X164571000Y-58547000D01*
X164571000Y-58293000D01*
X164591000Y-58293000D01*
X164591000Y-57076269D01*
X164400391Y-56951538D01*
X164362718Y-56955409D01*
X164137467Y-57047579D01*
X163934526Y-57181922D01*
X163761693Y-57353275D01*
X163718481Y-57417348D01*
X163595502Y-57267498D01*
X163407448Y-57113167D01*
X163192900Y-56998489D01*
X162960101Y-56927870D01*
X162718000Y-56904025D01*
X162475898Y-56927870D01*
X162243099Y-56998489D01*
X162028551Y-57113167D01*
X161840498Y-57267498D01*
X161718000Y-57416763D01*
X161595502Y-57267498D01*
X161407448Y-57113167D01*
X161192900Y-56998489D01*
X160960101Y-56927870D01*
X160718000Y-56904025D01*
X160475898Y-56927870D01*
X160243099Y-56998489D01*
X160028551Y-57113167D01*
X159840498Y-57267498D01*
X159718000Y-57416763D01*
X159595502Y-57267498D01*
X159407448Y-57113167D01*
X159192900Y-56998489D01*
X158960101Y-56927870D01*
X158718000Y-56904025D01*
X158475898Y-56927870D01*
X158243099Y-56998489D01*
X158028551Y-57113167D01*
X157840498Y-57267498D01*
X157808809Y-57306111D01*
X157806405Y-57301613D01*
X157695962Y-57167038D01*
X157561387Y-57056595D01*
X157407851Y-56974528D01*
X157241255Y-56923992D01*
X157068001Y-56906928D01*
X156367999Y-56906928D01*
X156194745Y-56923992D01*
X156028149Y-56974528D01*
X155874613Y-57056595D01*
X155740038Y-57167038D01*
X155629595Y-57301613D01*
X155547528Y-57455149D01*
X155496992Y-57621745D01*
X155479928Y-57794999D01*
X155479928Y-59045001D01*
X155496992Y-59218255D01*
X155547528Y-59384851D01*
X155629595Y-59538387D01*
X155708000Y-59633924D01*
X155708000Y-60656392D01*
X155703114Y-60706000D01*
X155722615Y-60903994D01*
X155754653Y-61009607D01*
X155780368Y-61094379D01*
X155874153Y-61269840D01*
X156000367Y-61423633D01*
X156038906Y-61455261D01*
X162055766Y-67472121D01*
X162020499Y-67461423D01*
X161853752Y-67445000D01*
X154539122Y-67445000D01*
X154844670Y-67240839D01*
X155378839Y-66706670D01*
X155798533Y-66078554D01*
X156087623Y-65380628D01*
X156235000Y-64639715D01*
X156235000Y-63884285D01*
X156087623Y-63143372D01*
X155798533Y-62445446D01*
X155378839Y-61817330D01*
X154844670Y-61283161D01*
X154216554Y-60863467D01*
X153518628Y-60574377D01*
X152777715Y-60427000D01*
X152022285Y-60427000D01*
X151281372Y-60574377D01*
X150583446Y-60863467D01*
X149955330Y-61283161D01*
X149421161Y-61817330D01*
X149001467Y-62445446D01*
X148712377Y-63143372D01*
X148565000Y-63884285D01*
X148565000Y-64639715D01*
X148712377Y-65380628D01*
X149001467Y-66078554D01*
X149421161Y-66706670D01*
X149955330Y-67240839D01*
X150407905Y-67543240D01*
X150242377Y-67631716D01*
X150069551Y-67773551D01*
X150034008Y-67816860D01*
X149096860Y-68754009D01*
X149053552Y-68789551D01*
X148911717Y-68962377D01*
X148870317Y-69039832D01*
X148806324Y-69159554D01*
X148767969Y-69285994D01*
X148741423Y-69373501D01*
X148729239Y-69497205D01*
X148719509Y-69596000D01*
X148725000Y-69651751D01*
X148725000Y-69953112D01*
X148533655Y-70186265D01*
X148386245Y-70462051D01*
X148295470Y-70761296D01*
X148272500Y-70994514D01*
X148272500Y-71245485D01*
X148295470Y-71478703D01*
X148386245Y-71777948D01*
X148533655Y-72053734D01*
X148732037Y-72295463D01*
X148973765Y-72493845D01*
X149249551Y-72641255D01*
X149548796Y-72732030D01*
X149860000Y-72762681D01*
X150171203Y-72732030D01*
X150470448Y-72641255D01*
X150746234Y-72493845D01*
X150987963Y-72295463D01*
X151135163Y-72116101D01*
X151290563Y-72301315D01*
X151533077Y-72495969D01*
X151808906Y-72639571D01*
X152027020Y-72710563D01*
X152273000Y-72590594D01*
X152273000Y-71247000D01*
X152253000Y-71247000D01*
X152253000Y-70993000D01*
X152273000Y-70993000D01*
X152273000Y-70973000D01*
X152527000Y-70973000D01*
X152527000Y-70993000D01*
X152547000Y-70993000D01*
X152547000Y-71247000D01*
X152527000Y-71247000D01*
X152527000Y-72590594D01*
X152772980Y-72710563D01*
X152991094Y-72639571D01*
X153266923Y-72495969D01*
X153407941Y-72382781D01*
X153456963Y-72474494D01*
X153536315Y-72571185D01*
X153633006Y-72650537D01*
X153743320Y-72709502D01*
X153863018Y-72745812D01*
X153987500Y-72758072D01*
X155892500Y-72758072D01*
X156016982Y-72745812D01*
X156136680Y-72709502D01*
X156246994Y-72650537D01*
X156343685Y-72571185D01*
X156423037Y-72474494D01*
X156482002Y-72364180D01*
X156518312Y-72244482D01*
X156530572Y-72120000D01*
X156530572Y-70120000D01*
X156518312Y-69995518D01*
X156482002Y-69875820D01*
X156423037Y-69765506D01*
X156381588Y-69715000D01*
X161853752Y-69715000D01*
X162020499Y-69698577D01*
X162058001Y-69687201D01*
X162058001Y-81381645D01*
X159753261Y-79076906D01*
X159721633Y-79038367D01*
X159567840Y-78912153D01*
X159392380Y-78818368D01*
X159201994Y-78760615D01*
X159053608Y-78746000D01*
X159004000Y-78741114D01*
X158954392Y-78746000D01*
X144499623Y-78746000D01*
X144373939Y-78721000D01*
X144170061Y-78721000D01*
X143970102Y-78760774D01*
X143781744Y-78838795D01*
X143612226Y-78952063D01*
X143468063Y-79096226D01*
X143354795Y-79265744D01*
X143276774Y-79454102D01*
X143237000Y-79654061D01*
X143237000Y-79857939D01*
X143276774Y-80057898D01*
X143354795Y-80246256D01*
X143468063Y-80415774D01*
X143612226Y-80559937D01*
X143781744Y-80673205D01*
X143970102Y-80751226D01*
X144170061Y-80791000D01*
X144373939Y-80791000D01*
X144499623Y-80766000D01*
X145354289Y-80766000D01*
X145246063Y-80874226D01*
X145132795Y-81043744D01*
X145054774Y-81232102D01*
X145015000Y-81432061D01*
X145015000Y-81635939D01*
X145054774Y-81835898D01*
X145132795Y-82024256D01*
X145246063Y-82193774D01*
X145390226Y-82337937D01*
X145559744Y-82451205D01*
X145748102Y-82529226D01*
X145948061Y-82569000D01*
X146151939Y-82569000D01*
X146277623Y-82544000D01*
X158331645Y-82544000D01*
X161176868Y-85389223D01*
X161248063Y-85495774D01*
X161392226Y-85639937D01*
X161561744Y-85753205D01*
X161750102Y-85831226D01*
X161950061Y-85871000D01*
X162058000Y-85871000D01*
X162058000Y-99086376D01*
X162033000Y-99212061D01*
X162033000Y-99415939D01*
X162072774Y-99615898D01*
X162150795Y-99804256D01*
X162264063Y-99973774D01*
X162408226Y-100117937D01*
X162577744Y-100231205D01*
X162766102Y-100309226D01*
X162966061Y-100349000D01*
X163169939Y-100349000D01*
X163369898Y-100309226D01*
X163558256Y-100231205D01*
X163727774Y-100117937D01*
X163871937Y-99973774D01*
X163985205Y-99804256D01*
X164063226Y-99615898D01*
X164103000Y-99415939D01*
X164103000Y-99212061D01*
X164078000Y-99086377D01*
X164078000Y-99047560D01*
X164236061Y-99079000D01*
X164439939Y-99079000D01*
X164639898Y-99039226D01*
X164828256Y-98961205D01*
X164997774Y-98847937D01*
X165141937Y-98703774D01*
X165255205Y-98534256D01*
X165333226Y-98345898D01*
X165370001Y-98161016D01*
X165370001Y-99144760D01*
X159583834Y-104930928D01*
X157258000Y-104930928D01*
X157133518Y-104943188D01*
X157013820Y-104979498D01*
X156903506Y-105038463D01*
X156806815Y-105117815D01*
X156727463Y-105214506D01*
X156668498Y-105324820D01*
X156632188Y-105444518D01*
X156619928Y-105569000D01*
X156619928Y-108379493D01*
X156609277Y-108369635D01*
X155693840Y-107456274D01*
X155690902Y-107452008D01*
X155638054Y-107400616D01*
X155613897Y-107376513D01*
X155609925Y-107373261D01*
X155577922Y-107342139D01*
X155549095Y-107323454D01*
X155522519Y-107301694D01*
X155483134Y-107280700D01*
X155478819Y-107277903D01*
X155448433Y-107262202D01*
X155383449Y-107227563D01*
X155378498Y-107226067D01*
X154215574Y-106625186D01*
X154156888Y-106592653D01*
X154108101Y-106577034D01*
X154060515Y-106558097D01*
X153994554Y-106545931D01*
X152969569Y-106325685D01*
X152925903Y-106312439D01*
X152853557Y-106305313D01*
X152781374Y-106297087D01*
X152735910Y-106300863D01*
X152089338Y-106300863D01*
X152043874Y-106297087D01*
X151971685Y-106305314D01*
X151899346Y-106312439D01*
X151855682Y-106325684D01*
X150830770Y-106545915D01*
X150764857Y-106558061D01*
X150717199Y-106577018D01*
X150668361Y-106592653D01*
X150609761Y-106625138D01*
X149446243Y-107226092D01*
X149441126Y-107227639D01*
X149376232Y-107262252D01*
X149346054Y-107277839D01*
X149341607Y-107280720D01*
X149302075Y-107301806D01*
X149275626Y-107323473D01*
X149246940Y-107342060D01*
X149214825Y-107373281D01*
X149210716Y-107376647D01*
X149186610Y-107400710D01*
X149133943Y-107451911D01*
X149130916Y-107456306D01*
X148215987Y-108369616D01*
X148177986Y-108404770D01*
X148177000Y-107854750D01*
X148018250Y-107696000D01*
X145669000Y-107696000D01*
X145669000Y-107716000D01*
X145415000Y-107716000D01*
X145415000Y-107696000D01*
X143065750Y-107696000D01*
X142907000Y-107854750D01*
X142904260Y-109383886D01*
X141956052Y-109383886D01*
X141916750Y-109380015D01*
X141877447Y-109383886D01*
X141759915Y-109395462D01*
X141609107Y-109441209D01*
X141470122Y-109515498D01*
X141348300Y-109615475D01*
X141248323Y-109737297D01*
X141174034Y-109876282D01*
X141128287Y-110027090D01*
X141112840Y-110183925D01*
X141116711Y-110223228D01*
X141116711Y-110283137D01*
X139740439Y-110283137D01*
X139740439Y-108712549D01*
X139742741Y-108698343D01*
X139740439Y-108633884D01*
X139740439Y-108608852D01*
X139739037Y-108594613D01*
X139738526Y-108580317D01*
X139735186Y-108555520D01*
X139728863Y-108491320D01*
X139724684Y-108477543D01*
X139652309Y-107940179D01*
X139652111Y-107912172D01*
X139641813Y-107862251D01*
X139640283Y-107850888D01*
X139633882Y-107823800D01*
X139628252Y-107796507D01*
X139624842Y-107785547D01*
X139613123Y-107735953D01*
X139601490Y-107710481D01*
X139376672Y-106987800D01*
X139368744Y-106949281D01*
X139353319Y-106912730D01*
X139353270Y-106912573D01*
X139338684Y-106878051D01*
X139322825Y-106840473D01*
X139322739Y-106840315D01*
X139307304Y-106803784D01*
X139285231Y-106771251D01*
X138925935Y-106109664D01*
X138911324Y-106074662D01*
X138888420Y-106040587D01*
X138887674Y-106039213D01*
X138866514Y-106007996D01*
X138845441Y-105976645D01*
X138844444Y-105975437D01*
X138821409Y-105941454D01*
X138794414Y-105914815D01*
X138509020Y-105569000D01*
X142903928Y-105569000D01*
X142907000Y-107283250D01*
X143065750Y-107442000D01*
X145415000Y-107442000D01*
X145415000Y-105092750D01*
X145669000Y-105092750D01*
X145669000Y-107442000D01*
X148018250Y-107442000D01*
X148177000Y-107283250D01*
X148180072Y-105569000D01*
X148167812Y-105444518D01*
X148131502Y-105324820D01*
X148072537Y-105214506D01*
X147993185Y-105117815D01*
X147896494Y-105038463D01*
X147786180Y-104979498D01*
X147666482Y-104943188D01*
X147542000Y-104930928D01*
X145827750Y-104934000D01*
X145669000Y-105092750D01*
X145415000Y-105092750D01*
X145256250Y-104934000D01*
X143542000Y-104930928D01*
X143417518Y-104943188D01*
X143297820Y-104979498D01*
X143187506Y-105038463D01*
X143090815Y-105117815D01*
X143011463Y-105214506D01*
X142952498Y-105324820D01*
X142916188Y-105444518D01*
X142903928Y-105569000D01*
X138509020Y-105569000D01*
X138320071Y-105340049D01*
X138299436Y-105308982D01*
X138270030Y-105279414D01*
X138268632Y-105277720D01*
X138242384Y-105251616D01*
X138216156Y-105225243D01*
X138214454Y-105223839D01*
X138184893Y-105194439D01*
X138153833Y-105173808D01*
X137579035Y-104699432D01*
X137552365Y-104672410D01*
X137518407Y-104649397D01*
X137517230Y-104648425D01*
X137485868Y-104627345D01*
X137454600Y-104606154D01*
X137453259Y-104605426D01*
X137419214Y-104582542D01*
X137384177Y-104567916D01*
X136722635Y-104208717D01*
X136690150Y-104186673D01*
X136653544Y-104171202D01*
X136653335Y-104171089D01*
X136617522Y-104155979D01*
X136581365Y-104140698D01*
X136581136Y-104140627D01*
X136544523Y-104125179D01*
X136506076Y-104117269D01*
X135783187Y-103892314D01*
X135757453Y-103880581D01*
X135708129Y-103868957D01*
X135697434Y-103865629D01*
X135669866Y-103859940D01*
X135642501Y-103853491D01*
X135631412Y-103852004D01*
X135581770Y-103841760D01*
X135553484Y-103841557D01*
X135016095Y-103769515D01*
X135002551Y-103765406D01*
X134938089Y-103759057D01*
X134913063Y-103755702D01*
X134899021Y-103755209D01*
X134885019Y-103753830D01*
X134859733Y-103753830D01*
X134795036Y-103751559D01*
X134781075Y-103753830D01*
X133210734Y-103753830D01*
X133210734Y-100210747D01*
X133239463Y-100264494D01*
X133318815Y-100361185D01*
X133415506Y-100440537D01*
X133525820Y-100499502D01*
X133645518Y-100535812D01*
X133770000Y-100548072D01*
X135470000Y-100548072D01*
X135594482Y-100535812D01*
X135714180Y-100499502D01*
X135824494Y-100440537D01*
X135921185Y-100361185D01*
X136000537Y-100264494D01*
X136059502Y-100154180D01*
X136095812Y-100034482D01*
X136108072Y-99910000D01*
X136108072Y-98210000D01*
X136095812Y-98085518D01*
X136059502Y-97965820D01*
X136000537Y-97855506D01*
X135921185Y-97758815D01*
X135824494Y-97679463D01*
X135714180Y-97620498D01*
X135641620Y-97598487D01*
X135773475Y-97466632D01*
X135935990Y-97223411D01*
X136047932Y-96953158D01*
X136105000Y-96666260D01*
X136105000Y-96373740D01*
X136047932Y-96086842D01*
X135935990Y-95816589D01*
X135773475Y-95573368D01*
X135566632Y-95366525D01*
X135392240Y-95250000D01*
X135566632Y-95133475D01*
X135773475Y-94926632D01*
X135935990Y-94683411D01*
X136047932Y-94413158D01*
X136062535Y-94339742D01*
X142840715Y-94339742D01*
X142909904Y-94622745D01*
X143032975Y-94886812D01*
X143205198Y-95121795D01*
X143419954Y-95318664D01*
X143668991Y-95469854D01*
X143942739Y-95569554D01*
X143955110Y-95571476D01*
X144185000Y-95450155D01*
X144185000Y-94107000D01*
X142984768Y-94107000D01*
X142840715Y-94339742D01*
X136062535Y-94339742D01*
X136105000Y-94126260D01*
X136105000Y-93833740D01*
X136062536Y-93620258D01*
X142840715Y-93620258D01*
X142984768Y-93853000D01*
X144185000Y-93853000D01*
X144185000Y-92509845D01*
X144439000Y-92509845D01*
X144439000Y-93853000D01*
X144459000Y-93853000D01*
X144459000Y-94107000D01*
X144439000Y-94107000D01*
X144439000Y-95450155D01*
X144668890Y-95571476D01*
X144681261Y-95569554D01*
X144955009Y-95469854D01*
X145204046Y-95318664D01*
X145418802Y-95121795D01*
X145419086Y-95121407D01*
X145473595Y-95223386D01*
X145584038Y-95357962D01*
X145718614Y-95468405D01*
X145872150Y-95550472D01*
X146038746Y-95601008D01*
X146212000Y-95618072D01*
X147412000Y-95618072D01*
X147585254Y-95601008D01*
X147751850Y-95550472D01*
X147905386Y-95468405D01*
X148039962Y-95357962D01*
X148150405Y-95223386D01*
X148232472Y-95069850D01*
X148283008Y-94903254D01*
X148300072Y-94730000D01*
X148300072Y-94339742D01*
X156556715Y-94339742D01*
X156625904Y-94622745D01*
X156748975Y-94886812D01*
X156921198Y-95121795D01*
X157135954Y-95318664D01*
X157384991Y-95469854D01*
X157658739Y-95569554D01*
X157671110Y-95571476D01*
X157901000Y-95450155D01*
X157901000Y-94107000D01*
X156700768Y-94107000D01*
X156556715Y-94339742D01*
X148300072Y-94339742D01*
X148300072Y-93620258D01*
X156556715Y-93620258D01*
X156700768Y-93853000D01*
X157901000Y-93853000D01*
X157901000Y-92509845D01*
X158155000Y-92509845D01*
X158155000Y-93853000D01*
X158175000Y-93853000D01*
X158175000Y-94107000D01*
X158155000Y-94107000D01*
X158155000Y-95450155D01*
X158384890Y-95571476D01*
X158397261Y-95569554D01*
X158671009Y-95469854D01*
X158920046Y-95318664D01*
X159134802Y-95121795D01*
X159135086Y-95121407D01*
X159189595Y-95223386D01*
X159300038Y-95357962D01*
X159434614Y-95468405D01*
X159588150Y-95550472D01*
X159754746Y-95601008D01*
X159928000Y-95618072D01*
X161128000Y-95618072D01*
X161301254Y-95601008D01*
X161467850Y-95550472D01*
X161621386Y-95468405D01*
X161755962Y-95357962D01*
X161866405Y-95223386D01*
X161948472Y-95069850D01*
X161999008Y-94903254D01*
X162016072Y-94730000D01*
X162016072Y-93230000D01*
X161999008Y-93056746D01*
X161948472Y-92890150D01*
X161866405Y-92736614D01*
X161755962Y-92602038D01*
X161621386Y-92491595D01*
X161467850Y-92409528D01*
X161301254Y-92358992D01*
X161128000Y-92341928D01*
X159928000Y-92341928D01*
X159754746Y-92358992D01*
X159588150Y-92409528D01*
X159434614Y-92491595D01*
X159300038Y-92602038D01*
X159189595Y-92736614D01*
X159135086Y-92838593D01*
X159134802Y-92838205D01*
X158920046Y-92641336D01*
X158671009Y-92490146D01*
X158397261Y-92390446D01*
X158384890Y-92388524D01*
X158155000Y-92509845D01*
X157901000Y-92509845D01*
X157671110Y-92388524D01*
X157658739Y-92390446D01*
X157384991Y-92490146D01*
X157135954Y-92641336D01*
X156921198Y-92838205D01*
X156748975Y-93073188D01*
X156625904Y-93337255D01*
X156556715Y-93620258D01*
X148300072Y-93620258D01*
X148300072Y-93230000D01*
X148283008Y-93056746D01*
X148232472Y-92890150D01*
X148150405Y-92736614D01*
X148039962Y-92602038D01*
X147905386Y-92491595D01*
X147751850Y-92409528D01*
X147585254Y-92358992D01*
X147412000Y-92341928D01*
X146212000Y-92341928D01*
X146038746Y-92358992D01*
X145872150Y-92409528D01*
X145718614Y-92491595D01*
X145584038Y-92602038D01*
X145473595Y-92736614D01*
X145419086Y-92838593D01*
X145418802Y-92838205D01*
X145204046Y-92641336D01*
X144955009Y-92490146D01*
X144681261Y-92390446D01*
X144668890Y-92388524D01*
X144439000Y-92509845D01*
X144185000Y-92509845D01*
X143955110Y-92388524D01*
X143942739Y-92390446D01*
X143668991Y-92490146D01*
X143419954Y-92641336D01*
X143205198Y-92838205D01*
X143032975Y-93073188D01*
X142909904Y-93337255D01*
X142840715Y-93620258D01*
X136062536Y-93620258D01*
X136047932Y-93546842D01*
X135935990Y-93276589D01*
X135773475Y-93033368D01*
X135566632Y-92826525D01*
X135384466Y-92704805D01*
X135501355Y-92635178D01*
X135717588Y-92440269D01*
X135891641Y-92206920D01*
X136016825Y-91944099D01*
X136061476Y-91796890D01*
X135940155Y-91567000D01*
X134747000Y-91567000D01*
X134747000Y-91587000D01*
X134493000Y-91587000D01*
X134493000Y-91567000D01*
X134473000Y-91567000D01*
X134473000Y-91313000D01*
X134493000Y-91313000D01*
X134493000Y-90119186D01*
X134747000Y-90119186D01*
X134747000Y-91313000D01*
X135940155Y-91313000D01*
X136061476Y-91083110D01*
X136016825Y-90935901D01*
X135891641Y-90673080D01*
X135717588Y-90439731D01*
X135501355Y-90244822D01*
X135251252Y-90095843D01*
X134976891Y-89998519D01*
X134747000Y-90119186D01*
X134493000Y-90119186D01*
X134263109Y-89998519D01*
X133988748Y-90095843D01*
X133738645Y-90244822D01*
X133522412Y-90439731D01*
X133348359Y-90673080D01*
X133223175Y-90935901D01*
X133210734Y-90976917D01*
X133210734Y-87506285D01*
X148565000Y-87506285D01*
X148565000Y-88261715D01*
X148712377Y-89002628D01*
X149001467Y-89700554D01*
X149421161Y-90328670D01*
X149955330Y-90862839D01*
X150583446Y-91282533D01*
X151281372Y-91571623D01*
X152022285Y-91719000D01*
X152777715Y-91719000D01*
X153518628Y-91571623D01*
X154216554Y-91282533D01*
X154844670Y-90862839D01*
X155378839Y-90328670D01*
X155798533Y-89700554D01*
X156087623Y-89002628D01*
X156235000Y-88261715D01*
X156235000Y-87506285D01*
X156087623Y-86765372D01*
X155798533Y-86067446D01*
X155378839Y-85439330D01*
X154844670Y-84905161D01*
X154216554Y-84485467D01*
X153518628Y-84196377D01*
X152777715Y-84049000D01*
X152022285Y-84049000D01*
X151281372Y-84196377D01*
X150583446Y-84485467D01*
X149955330Y-84905161D01*
X149421161Y-85439330D01*
X149001467Y-86067446D01*
X148712377Y-86765372D01*
X148565000Y-87506285D01*
X133210734Y-87506285D01*
X133210734Y-87403752D01*
X133271089Y-87403752D01*
X133310392Y-87407623D01*
X133349694Y-87403752D01*
X133349695Y-87403752D01*
X133467227Y-87392176D01*
X133618035Y-87346429D01*
X133757020Y-87272140D01*
X133878842Y-87172163D01*
X133978819Y-87050341D01*
X134053108Y-86911356D01*
X134098855Y-86760548D01*
X134114302Y-86603713D01*
X134110431Y-86564410D01*
X134110431Y-84201000D01*
X144528509Y-84201000D01*
X144550423Y-84423499D01*
X144615324Y-84637447D01*
X144720716Y-84834623D01*
X144862551Y-85007449D01*
X145035377Y-85149284D01*
X145232553Y-85254676D01*
X145446501Y-85319577D01*
X145613248Y-85336000D01*
X145724752Y-85336000D01*
X145891499Y-85319577D01*
X146105447Y-85254676D01*
X146302623Y-85149284D01*
X146475449Y-85007449D01*
X146617284Y-84834623D01*
X146722676Y-84637447D01*
X146787577Y-84423499D01*
X146809491Y-84201000D01*
X146787577Y-83978501D01*
X146722676Y-83764553D01*
X146617284Y-83567377D01*
X146475449Y-83394551D01*
X146302623Y-83252716D01*
X146105447Y-83147324D01*
X145891499Y-83082423D01*
X145724752Y-83066000D01*
X145613248Y-83066000D01*
X145446501Y-83082423D01*
X145232553Y-83147324D01*
X145035377Y-83252716D01*
X144862551Y-83394551D01*
X144720716Y-83567377D01*
X144615324Y-83764553D01*
X144550423Y-83978501D01*
X144528509Y-84201000D01*
X134110431Y-84201000D01*
X134110431Y-82796413D01*
X134426192Y-82796413D01*
X134521956Y-83060814D01*
X134811571Y-83201704D01*
X135123108Y-83283384D01*
X135444595Y-83302718D01*
X135763675Y-83258961D01*
X136068088Y-83153795D01*
X136242044Y-83060814D01*
X136337808Y-82796413D01*
X135382000Y-81840605D01*
X134426192Y-82796413D01*
X134110431Y-82796413D01*
X134110431Y-82567493D01*
X134246587Y-82616808D01*
X135202395Y-81661000D01*
X135561605Y-81661000D01*
X136517413Y-82616808D01*
X136781814Y-82521044D01*
X136922704Y-82231429D01*
X137004384Y-81919892D01*
X137023718Y-81598405D01*
X136979961Y-81279325D01*
X136874795Y-80974912D01*
X136781814Y-80800956D01*
X136517413Y-80705192D01*
X135561605Y-81661000D01*
X135202395Y-81661000D01*
X135188253Y-81646858D01*
X135367858Y-81467253D01*
X135382000Y-81481395D01*
X136337808Y-80525587D01*
X136242044Y-80261186D01*
X135952429Y-80120296D01*
X135640892Y-80038616D01*
X135411487Y-80024820D01*
X136043158Y-79393427D01*
X136047676Y-79390320D01*
X136098828Y-79337782D01*
X136122805Y-79313815D01*
X136126266Y-79309600D01*
X136157612Y-79277404D01*
X136176141Y-79248854D01*
X136197747Y-79222539D01*
X136218945Y-79182901D01*
X136221906Y-79178339D01*
X136237445Y-79148310D01*
X136272067Y-79083570D01*
X136273662Y-79078318D01*
X136876397Y-77913488D01*
X136908925Y-77854909D01*
X136924591Y-77806097D01*
X136943581Y-77758458D01*
X136955780Y-77692535D01*
X137177356Y-76664978D01*
X137190686Y-76621035D01*
X137197783Y-76548983D01*
X137206029Y-76477088D01*
X137202262Y-76431333D01*
X137202262Y-75783420D01*
X137206028Y-75737631D01*
X137197782Y-75665791D01*
X137190686Y-75593748D01*
X137177345Y-75549769D01*
X136955777Y-74522631D01*
X136943587Y-74456750D01*
X136924583Y-74409073D01*
X136908900Y-74360221D01*
X136876384Y-74301676D01*
X136273665Y-73136800D01*
X136272067Y-73131537D01*
X136237449Y-73066806D01*
X136221917Y-73036787D01*
X136218951Y-73032216D01*
X136197747Y-72992568D01*
X136176149Y-72966262D01*
X136157625Y-72937719D01*
X136126272Y-72905515D01*
X136122805Y-72901292D01*
X136098830Y-72877328D01*
X136047692Y-72824801D01*
X136043167Y-72821689D01*
X135126931Y-71905856D01*
X135083437Y-71859021D01*
X135039356Y-71827149D01*
X134997301Y-71792651D01*
X134940926Y-71762534D01*
X134110431Y-71278332D01*
X134110431Y-65650777D01*
X134114302Y-65611475D01*
X134098855Y-65454640D01*
X134053108Y-65303832D01*
X133978819Y-65164847D01*
X133878842Y-65043025D01*
X133757020Y-64943048D01*
X133618035Y-64868759D01*
X133467227Y-64823012D01*
X133349695Y-64811436D01*
X133310392Y-64807565D01*
X133271090Y-64811436D01*
X133210734Y-64811436D01*
X133210734Y-57794999D01*
X138969928Y-57794999D01*
X138969928Y-59045001D01*
X138986992Y-59218255D01*
X139037528Y-59384851D01*
X139119595Y-59538387D01*
X139198000Y-59633924D01*
X139198001Y-65482382D01*
X139193114Y-65532000D01*
X139212615Y-65729994D01*
X139270368Y-65920379D01*
X139270369Y-65920380D01*
X139364154Y-66095840D01*
X139490368Y-66249633D01*
X139528901Y-66281256D01*
X143396870Y-70149226D01*
X143468063Y-70255774D01*
X143612226Y-70399937D01*
X143781744Y-70513205D01*
X143970102Y-70591226D01*
X144170061Y-70631000D01*
X144373939Y-70631000D01*
X144573898Y-70591226D01*
X144762256Y-70513205D01*
X144931774Y-70399937D01*
X145075937Y-70255774D01*
X145189205Y-70086256D01*
X145267226Y-69897898D01*
X145288622Y-69790333D01*
X145390226Y-69891937D01*
X145559744Y-70005205D01*
X145748102Y-70083226D01*
X145948061Y-70123000D01*
X146151939Y-70123000D01*
X146351898Y-70083226D01*
X146540256Y-70005205D01*
X146709774Y-69891937D01*
X146853937Y-69747774D01*
X146967205Y-69578256D01*
X147045226Y-69389898D01*
X147085000Y-69189939D01*
X147085000Y-68986061D01*
X147045226Y-68786102D01*
X146967205Y-68597744D01*
X146853937Y-68428226D01*
X146709774Y-68284063D01*
X146603226Y-68212870D01*
X143218000Y-64827645D01*
X143218000Y-59435421D01*
X143330499Y-59572502D01*
X143518552Y-59726833D01*
X143733100Y-59841511D01*
X143965899Y-59912130D01*
X144208000Y-59935975D01*
X144450102Y-59912130D01*
X144682901Y-59841511D01*
X144897449Y-59726833D01*
X145085502Y-59572502D01*
X145208481Y-59422652D01*
X145251693Y-59486725D01*
X145424526Y-59658078D01*
X145627467Y-59792421D01*
X145852718Y-59884591D01*
X145890391Y-59888462D01*
X146081000Y-59763731D01*
X146081000Y-58547000D01*
X146335000Y-58547000D01*
X146335000Y-59763731D01*
X146525609Y-59888462D01*
X146563282Y-59884591D01*
X146788533Y-59792421D01*
X146991474Y-59658078D01*
X147164307Y-59486725D01*
X147300390Y-59284946D01*
X147394493Y-59060496D01*
X147443000Y-58822000D01*
X147443000Y-58547000D01*
X146335000Y-58547000D01*
X146081000Y-58547000D01*
X146061000Y-58547000D01*
X146061000Y-58293000D01*
X146081000Y-58293000D01*
X146081000Y-57076269D01*
X146335000Y-57076269D01*
X146335000Y-58293000D01*
X147443000Y-58293000D01*
X147443000Y-58018000D01*
X147394493Y-57779504D01*
X147300390Y-57555054D01*
X147164307Y-57353275D01*
X146991474Y-57181922D01*
X146788533Y-57047579D01*
X146563282Y-56955409D01*
X146525609Y-56951538D01*
X146335000Y-57076269D01*
X146081000Y-57076269D01*
X145890391Y-56951538D01*
X145852718Y-56955409D01*
X145627467Y-57047579D01*
X145424526Y-57181922D01*
X145251693Y-57353275D01*
X145208481Y-57417348D01*
X145085502Y-57267498D01*
X144897448Y-57113167D01*
X144682900Y-56998489D01*
X144450101Y-56927870D01*
X144208000Y-56904025D01*
X143965898Y-56927870D01*
X143733099Y-56998489D01*
X143518551Y-57113167D01*
X143330498Y-57267498D01*
X143208000Y-57416763D01*
X143085502Y-57267498D01*
X142897448Y-57113167D01*
X142682900Y-56998489D01*
X142450101Y-56927870D01*
X142208000Y-56904025D01*
X141965898Y-56927870D01*
X141733099Y-56998489D01*
X141518551Y-57113167D01*
X141330498Y-57267498D01*
X141298809Y-57306111D01*
X141296405Y-57301613D01*
X141185962Y-57167038D01*
X141051387Y-57056595D01*
X140897851Y-56974528D01*
X140731255Y-56923992D01*
X140558001Y-56906928D01*
X139857999Y-56906928D01*
X139684745Y-56923992D01*
X139518149Y-56974528D01*
X139364613Y-57056595D01*
X139230038Y-57167038D01*
X139119595Y-57301613D01*
X139037528Y-57455149D01*
X138986992Y-57621745D01*
X138969928Y-57794999D01*
X133210734Y-57794999D01*
X133210734Y-48461683D01*
X134781272Y-48461683D01*
X134795430Y-48463979D01*
X134859935Y-48461683D01*
X134885019Y-48461683D01*
X134899214Y-48460285D01*
X134913455Y-48459778D01*
X134938290Y-48456436D01*
X135002551Y-48450107D01*
X135016283Y-48445942D01*
X135553644Y-48373634D01*
X135581697Y-48373436D01*
X135631565Y-48363149D01*
X135642887Y-48361626D01*
X135670039Y-48355213D01*
X135697363Y-48349577D01*
X135708271Y-48346184D01*
X135757825Y-48334480D01*
X135783344Y-48322829D01*
X136506081Y-48097996D01*
X136544588Y-48090070D01*
X136581127Y-48074650D01*
X136581297Y-48074597D01*
X136618346Y-48058943D01*
X136653396Y-48044151D01*
X136653544Y-48044071D01*
X136690085Y-48028631D01*
X136722625Y-48006554D01*
X137384226Y-47647250D01*
X137419241Y-47632632D01*
X137453295Y-47609740D01*
X137454658Y-47609000D01*
X137486036Y-47587731D01*
X137517255Y-47566745D01*
X137518442Y-47565765D01*
X137552417Y-47542736D01*
X137579074Y-47515722D01*
X138153825Y-47041347D01*
X138184854Y-47020740D01*
X138214447Y-46991312D01*
X138216178Y-46989884D01*
X138242366Y-46963550D01*
X138247947Y-46958000D01*
X142776928Y-46958000D01*
X142789188Y-47082482D01*
X142825498Y-47202180D01*
X142884463Y-47312494D01*
X142963815Y-47409185D01*
X143060506Y-47488537D01*
X143170820Y-47547502D01*
X143290518Y-47583812D01*
X143415000Y-47596072D01*
X145129250Y-47593000D01*
X145288000Y-47434250D01*
X145288000Y-45085000D01*
X145542000Y-45085000D01*
X145542000Y-47434250D01*
X145700750Y-47593000D01*
X147415000Y-47596072D01*
X147539482Y-47583812D01*
X147659180Y-47547502D01*
X147769494Y-47488537D01*
X147866185Y-47409185D01*
X147945537Y-47312494D01*
X148004502Y-47202180D01*
X148040812Y-47082482D01*
X148053072Y-46958000D01*
X148050000Y-45243750D01*
X147891250Y-45085000D01*
X145542000Y-45085000D01*
X145288000Y-45085000D01*
X142938750Y-45085000D01*
X142780000Y-45243750D01*
X142776928Y-46958000D01*
X138247947Y-46958000D01*
X138268598Y-46937465D01*
X138270021Y-46935741D01*
X138299455Y-46906143D01*
X138320068Y-46875106D01*
X138794392Y-46300437D01*
X138821398Y-46273789D01*
X138844422Y-46239824D01*
X138845411Y-46238625D01*
X138866599Y-46207107D01*
X138887664Y-46176031D01*
X138888397Y-46174681D01*
X138911300Y-46140612D01*
X138925922Y-46105589D01*
X139285226Y-45444025D01*
X139307311Y-45411473D01*
X139322743Y-45374949D01*
X139322817Y-45374812D01*
X139338101Y-45338599D01*
X139353275Y-45302684D01*
X139353321Y-45302536D01*
X139368739Y-45266005D01*
X139376671Y-45227472D01*
X139601493Y-44504734D01*
X139613124Y-44479265D01*
X139624846Y-44429659D01*
X139628255Y-44418701D01*
X139633878Y-44391437D01*
X139640284Y-44364330D01*
X139641817Y-44352950D01*
X139652112Y-44303035D01*
X139652310Y-44275039D01*
X139724684Y-43737662D01*
X139728863Y-43723885D01*
X139735187Y-43659674D01*
X139738526Y-43634884D01*
X139739036Y-43620595D01*
X139740439Y-43606353D01*
X139740439Y-43581317D01*
X139742741Y-43516858D01*
X139740439Y-43502652D01*
X139740439Y-41932027D01*
X141116711Y-41932027D01*
X141116711Y-41992447D01*
G04 #@! TA.AperFunction,Conductor*
D26*
G36*
X141116711Y-41992447D02*
G01*
X141112840Y-42031750D01*
X141128287Y-42188585D01*
X141174034Y-42339393D01*
X141248323Y-42478378D01*
X141348300Y-42600200D01*
X141470122Y-42700177D01*
X141609107Y-42774466D01*
X141759915Y-42820213D01*
X141877447Y-42831789D01*
X141877448Y-42831789D01*
X141916750Y-42835660D01*
X141956053Y-42831789D01*
X142789712Y-42831789D01*
X142789188Y-42833518D01*
X142776928Y-42958000D01*
X142780000Y-44672250D01*
X142938750Y-44831000D01*
X145288000Y-44831000D01*
X145288000Y-44811000D01*
X145542000Y-44811000D01*
X145542000Y-44831000D01*
X147891250Y-44831000D01*
X148050000Y-44672250D01*
X148051835Y-43648203D01*
X148061825Y-43665421D01*
X148091966Y-43722046D01*
X148126256Y-43763977D01*
X148157905Y-43807943D01*
X148204822Y-43851696D01*
X149121502Y-44771572D01*
X149124699Y-44776231D01*
X149177054Y-44827317D01*
X149200871Y-44851217D01*
X149205210Y-44854791D01*
X149237493Y-44886291D01*
X149265885Y-44904762D01*
X149292034Y-44926298D01*
X149331785Y-44947634D01*
X149336488Y-44950694D01*
X149366374Y-44966200D01*
X149430890Y-45000829D01*
X149436300Y-45002480D01*
X150603324Y-45607978D01*
X150662126Y-45640666D01*
X150710698Y-45656279D01*
X150758068Y-45675223D01*
X150824218Y-45687540D01*
X151854009Y-45910093D01*
X151898127Y-45923476D01*
X151969994Y-45930554D01*
X152041704Y-45938813D01*
X152087647Y-45935052D01*
X152737638Y-45935052D01*
X152783619Y-45938812D01*
X152855263Y-45930554D01*
X152927122Y-45923476D01*
X152971286Y-45910079D01*
X154000563Y-45687537D01*
X154066673Y-45675230D01*
X154114091Y-45656268D01*
X154162705Y-45640636D01*
X154221478Y-45607956D01*
X155388534Y-45002483D01*
X155393952Y-45000829D01*
X155458433Y-44966219D01*
X155488336Y-44950705D01*
X155493053Y-44947637D01*
X155532808Y-44926298D01*
X155558943Y-44904773D01*
X155587333Y-44886305D01*
X155619632Y-44854790D01*
X155623971Y-44851217D01*
X155647735Y-44827370D01*
X155700130Y-44776248D01*
X155703336Y-44771576D01*
X156620039Y-43851678D01*
X156666938Y-43807943D01*
X156698581Y-43763986D01*
X156732877Y-43722047D01*
X156746928Y-43695649D01*
X156746928Y-46958000D01*
X156759188Y-47082482D01*
X156795498Y-47202180D01*
X156854463Y-47312494D01*
X156933815Y-47409185D01*
X157030506Y-47488537D01*
X157140820Y-47547502D01*
X157260518Y-47583812D01*
X157385000Y-47596072D01*
X159710834Y-47596072D01*
X165370000Y-53255239D01*
X165370000Y-57094889D01*
X165298533Y-57047579D01*
X165073282Y-56955409D01*
X165035609Y-56951538D01*
X164845000Y-57076269D01*
X164845000Y-58293000D01*
X164865000Y-58293000D01*
X164865000Y-58547000D01*
X164845000Y-58547000D01*
X164845000Y-59763731D01*
X165035609Y-59888462D01*
X165073282Y-59884591D01*
X165298533Y-59792421D01*
X165370000Y-59745111D01*
X165370001Y-67991671D01*
X165362089Y-68072000D01*
X165370000Y-68152319D01*
X165370001Y-97926984D01*
X165348000Y-97816377D01*
X165348000Y-66597604D01*
X165352886Y-66547999D01*
X165339443Y-66411514D01*
X165333385Y-66350006D01*
X165275632Y-66159620D01*
X165181847Y-65984160D01*
X165055633Y-65830367D01*
X165017094Y-65798739D01*
X159760000Y-60541645D01*
X159760000Y-59474414D01*
X159840499Y-59572502D01*
X160028552Y-59726833D01*
X160243100Y-59841511D01*
X160475899Y-59912130D01*
X160718000Y-59935975D01*
X160960102Y-59912130D01*
X161192901Y-59841511D01*
X161407449Y-59726833D01*
X161595502Y-59572502D01*
X161718001Y-59423237D01*
X161840499Y-59572502D01*
X162028552Y-59726833D01*
X162243100Y-59841511D01*
X162475899Y-59912130D01*
X162718000Y-59935975D01*
X162960102Y-59912130D01*
X163192901Y-59841511D01*
X163407449Y-59726833D01*
X163595502Y-59572502D01*
X163718481Y-59422652D01*
X163761693Y-59486725D01*
X163934526Y-59658078D01*
X164137467Y-59792421D01*
X164362718Y-59884591D01*
X164400391Y-59888462D01*
X164591000Y-59763731D01*
X164591000Y-58547000D01*
X164571000Y-58547000D01*
X164571000Y-58293000D01*
X164591000Y-58293000D01*
X164591000Y-57076269D01*
X164400391Y-56951538D01*
X164362718Y-56955409D01*
X164137467Y-57047579D01*
X163934526Y-57181922D01*
X163761693Y-57353275D01*
X163718481Y-57417348D01*
X163595502Y-57267498D01*
X163407448Y-57113167D01*
X163192900Y-56998489D01*
X162960101Y-56927870D01*
X162718000Y-56904025D01*
X162475898Y-56927870D01*
X162243099Y-56998489D01*
X162028551Y-57113167D01*
X161840498Y-57267498D01*
X161718000Y-57416763D01*
X161595502Y-57267498D01*
X161407448Y-57113167D01*
X161192900Y-56998489D01*
X160960101Y-56927870D01*
X160718000Y-56904025D01*
X160475898Y-56927870D01*
X160243099Y-56998489D01*
X160028551Y-57113167D01*
X159840498Y-57267498D01*
X159718000Y-57416763D01*
X159595502Y-57267498D01*
X159407448Y-57113167D01*
X159192900Y-56998489D01*
X158960101Y-56927870D01*
X158718000Y-56904025D01*
X158475898Y-56927870D01*
X158243099Y-56998489D01*
X158028551Y-57113167D01*
X157840498Y-57267498D01*
X157808809Y-57306111D01*
X157806405Y-57301613D01*
X157695962Y-57167038D01*
X157561387Y-57056595D01*
X157407851Y-56974528D01*
X157241255Y-56923992D01*
X157068001Y-56906928D01*
X156367999Y-56906928D01*
X156194745Y-56923992D01*
X156028149Y-56974528D01*
X155874613Y-57056595D01*
X155740038Y-57167038D01*
X155629595Y-57301613D01*
X155547528Y-57455149D01*
X155496992Y-57621745D01*
X155479928Y-57794999D01*
X155479928Y-59045001D01*
X155496992Y-59218255D01*
X155547528Y-59384851D01*
X155629595Y-59538387D01*
X155708000Y-59633924D01*
X155708000Y-60656392D01*
X155703114Y-60706000D01*
X155722615Y-60903994D01*
X155754653Y-61009607D01*
X155780368Y-61094379D01*
X155874153Y-61269840D01*
X156000367Y-61423633D01*
X156038906Y-61455261D01*
X162055766Y-67472121D01*
X162020499Y-67461423D01*
X161853752Y-67445000D01*
X154539122Y-67445000D01*
X154844670Y-67240839D01*
X155378839Y-66706670D01*
X155798533Y-66078554D01*
X156087623Y-65380628D01*
X156235000Y-64639715D01*
X156235000Y-63884285D01*
X156087623Y-63143372D01*
X155798533Y-62445446D01*
X155378839Y-61817330D01*
X154844670Y-61283161D01*
X154216554Y-60863467D01*
X153518628Y-60574377D01*
X152777715Y-60427000D01*
X152022285Y-60427000D01*
X151281372Y-60574377D01*
X150583446Y-60863467D01*
X149955330Y-61283161D01*
X149421161Y-61817330D01*
X149001467Y-62445446D01*
X148712377Y-63143372D01*
X148565000Y-63884285D01*
X148565000Y-64639715D01*
X148712377Y-65380628D01*
X149001467Y-66078554D01*
X149421161Y-66706670D01*
X149955330Y-67240839D01*
X150407905Y-67543240D01*
X150242377Y-67631716D01*
X150069551Y-67773551D01*
X150034008Y-67816860D01*
X149096860Y-68754009D01*
X149053552Y-68789551D01*
X148911717Y-68962377D01*
X148870317Y-69039832D01*
X148806324Y-69159554D01*
X148767969Y-69285994D01*
X148741423Y-69373501D01*
X148729239Y-69497205D01*
X148719509Y-69596000D01*
X148725000Y-69651751D01*
X148725000Y-69953112D01*
X148533655Y-70186265D01*
X148386245Y-70462051D01*
X148295470Y-70761296D01*
X148272500Y-70994514D01*
X148272500Y-71245485D01*
X148295470Y-71478703D01*
X148386245Y-71777948D01*
X148533655Y-72053734D01*
X148732037Y-72295463D01*
X148973765Y-72493845D01*
X149249551Y-72641255D01*
X149548796Y-72732030D01*
X149860000Y-72762681D01*
X150171203Y-72732030D01*
X150470448Y-72641255D01*
X150746234Y-72493845D01*
X150987963Y-72295463D01*
X151135163Y-72116101D01*
X151290563Y-72301315D01*
X151533077Y-72495969D01*
X151808906Y-72639571D01*
X152027020Y-72710563D01*
X152273000Y-72590594D01*
X152273000Y-71247000D01*
X152253000Y-71247000D01*
X152253000Y-70993000D01*
X152273000Y-70993000D01*
X152273000Y-70973000D01*
X152527000Y-70973000D01*
X152527000Y-70993000D01*
X152547000Y-70993000D01*
X152547000Y-71247000D01*
X152527000Y-71247000D01*
X152527000Y-72590594D01*
X152772980Y-72710563D01*
X152991094Y-72639571D01*
X153266923Y-72495969D01*
X153407941Y-72382781D01*
X153456963Y-72474494D01*
X153536315Y-72571185D01*
X153633006Y-72650537D01*
X153743320Y-72709502D01*
X153863018Y-72745812D01*
X153987500Y-72758072D01*
X155892500Y-72758072D01*
X156016982Y-72745812D01*
X156136680Y-72709502D01*
X156246994Y-72650537D01*
X156343685Y-72571185D01*
X156423037Y-72474494D01*
X156482002Y-72364180D01*
X156518312Y-72244482D01*
X156530572Y-72120000D01*
X156530572Y-70120000D01*
X156518312Y-69995518D01*
X156482002Y-69875820D01*
X156423037Y-69765506D01*
X156381588Y-69715000D01*
X161853752Y-69715000D01*
X162020499Y-69698577D01*
X162058001Y-69687201D01*
X162058001Y-81381645D01*
X159753261Y-79076906D01*
X159721633Y-79038367D01*
X159567840Y-78912153D01*
X159392380Y-78818368D01*
X159201994Y-78760615D01*
X159053608Y-78746000D01*
X159004000Y-78741114D01*
X158954392Y-78746000D01*
X144499623Y-78746000D01*
X144373939Y-78721000D01*
X144170061Y-78721000D01*
X143970102Y-78760774D01*
X143781744Y-78838795D01*
X143612226Y-78952063D01*
X143468063Y-79096226D01*
X143354795Y-79265744D01*
X143276774Y-79454102D01*
X143237000Y-79654061D01*
X143237000Y-79857939D01*
X143276774Y-80057898D01*
X143354795Y-80246256D01*
X143468063Y-80415774D01*
X143612226Y-80559937D01*
X143781744Y-80673205D01*
X143970102Y-80751226D01*
X144170061Y-80791000D01*
X144373939Y-80791000D01*
X144499623Y-80766000D01*
X145354289Y-80766000D01*
X145246063Y-80874226D01*
X145132795Y-81043744D01*
X145054774Y-81232102D01*
X145015000Y-81432061D01*
X145015000Y-81635939D01*
X145054774Y-81835898D01*
X145132795Y-82024256D01*
X145246063Y-82193774D01*
X145390226Y-82337937D01*
X145559744Y-82451205D01*
X145748102Y-82529226D01*
X145948061Y-82569000D01*
X146151939Y-82569000D01*
X146277623Y-82544000D01*
X158331645Y-82544000D01*
X161176868Y-85389223D01*
X161248063Y-85495774D01*
X161392226Y-85639937D01*
X161561744Y-85753205D01*
X161750102Y-85831226D01*
X161950061Y-85871000D01*
X162058000Y-85871000D01*
X162058000Y-99086376D01*
X162033000Y-99212061D01*
X162033000Y-99415939D01*
X162072774Y-99615898D01*
X162150795Y-99804256D01*
X162264063Y-99973774D01*
X162408226Y-100117937D01*
X162577744Y-100231205D01*
X162766102Y-100309226D01*
X162966061Y-100349000D01*
X163169939Y-100349000D01*
X163369898Y-100309226D01*
X163558256Y-100231205D01*
X163727774Y-100117937D01*
X163871937Y-99973774D01*
X163985205Y-99804256D01*
X164063226Y-99615898D01*
X164103000Y-99415939D01*
X164103000Y-99212061D01*
X164078000Y-99086377D01*
X164078000Y-99047560D01*
X164236061Y-99079000D01*
X164439939Y-99079000D01*
X164639898Y-99039226D01*
X164828256Y-98961205D01*
X164997774Y-98847937D01*
X165141937Y-98703774D01*
X165255205Y-98534256D01*
X165333226Y-98345898D01*
X165370001Y-98161016D01*
X165370001Y-99144760D01*
X159583834Y-104930928D01*
X157258000Y-104930928D01*
X157133518Y-104943188D01*
X157013820Y-104979498D01*
X156903506Y-105038463D01*
X156806815Y-105117815D01*
X156727463Y-105214506D01*
X156668498Y-105324820D01*
X156632188Y-105444518D01*
X156619928Y-105569000D01*
X156619928Y-108379493D01*
X156609277Y-108369635D01*
X155693840Y-107456274D01*
X155690902Y-107452008D01*
X155638054Y-107400616D01*
X155613897Y-107376513D01*
X155609925Y-107373261D01*
X155577922Y-107342139D01*
X155549095Y-107323454D01*
X155522519Y-107301694D01*
X155483134Y-107280700D01*
X155478819Y-107277903D01*
X155448433Y-107262202D01*
X155383449Y-107227563D01*
X155378498Y-107226067D01*
X154215574Y-106625186D01*
X154156888Y-106592653D01*
X154108101Y-106577034D01*
X154060515Y-106558097D01*
X153994554Y-106545931D01*
X152969569Y-106325685D01*
X152925903Y-106312439D01*
X152853557Y-106305313D01*
X152781374Y-106297087D01*
X152735910Y-106300863D01*
X152089338Y-106300863D01*
X152043874Y-106297087D01*
X151971685Y-106305314D01*
X151899346Y-106312439D01*
X151855682Y-106325684D01*
X150830770Y-106545915D01*
X150764857Y-106558061D01*
X150717199Y-106577018D01*
X150668361Y-106592653D01*
X150609761Y-106625138D01*
X149446243Y-107226092D01*
X149441126Y-107227639D01*
X149376232Y-107262252D01*
X149346054Y-107277839D01*
X149341607Y-107280720D01*
X149302075Y-107301806D01*
X149275626Y-107323473D01*
X149246940Y-107342060D01*
X149214825Y-107373281D01*
X149210716Y-107376647D01*
X149186610Y-107400710D01*
X149133943Y-107451911D01*
X149130916Y-107456306D01*
X148215987Y-108369616D01*
X148177986Y-108404770D01*
X148177000Y-107854750D01*
X148018250Y-107696000D01*
X145669000Y-107696000D01*
X145669000Y-107716000D01*
X145415000Y-107716000D01*
X145415000Y-107696000D01*
X143065750Y-107696000D01*
X142907000Y-107854750D01*
X142904260Y-109383886D01*
X141956052Y-109383886D01*
X141916750Y-109380015D01*
X141877447Y-109383886D01*
X141759915Y-109395462D01*
X141609107Y-109441209D01*
X141470122Y-109515498D01*
X141348300Y-109615475D01*
X141248323Y-109737297D01*
X141174034Y-109876282D01*
X141128287Y-110027090D01*
X141112840Y-110183925D01*
X141116711Y-110223228D01*
X141116711Y-110283137D01*
X139740439Y-110283137D01*
X139740439Y-108712549D01*
X139742741Y-108698343D01*
X139740439Y-108633884D01*
X139740439Y-108608852D01*
X139739037Y-108594613D01*
X139738526Y-108580317D01*
X139735186Y-108555520D01*
X139728863Y-108491320D01*
X139724684Y-108477543D01*
X139652309Y-107940179D01*
X139652111Y-107912172D01*
X139641813Y-107862251D01*
X139640283Y-107850888D01*
X139633882Y-107823800D01*
X139628252Y-107796507D01*
X139624842Y-107785547D01*
X139613123Y-107735953D01*
X139601490Y-107710481D01*
X139376672Y-106987800D01*
X139368744Y-106949281D01*
X139353319Y-106912730D01*
X139353270Y-106912573D01*
X139338684Y-106878051D01*
X139322825Y-106840473D01*
X139322739Y-106840315D01*
X139307304Y-106803784D01*
X139285231Y-106771251D01*
X138925935Y-106109664D01*
X138911324Y-106074662D01*
X138888420Y-106040587D01*
X138887674Y-106039213D01*
X138866514Y-106007996D01*
X138845441Y-105976645D01*
X138844444Y-105975437D01*
X138821409Y-105941454D01*
X138794414Y-105914815D01*
X138509020Y-105569000D01*
X142903928Y-105569000D01*
X142907000Y-107283250D01*
X143065750Y-107442000D01*
X145415000Y-107442000D01*
X145415000Y-105092750D01*
X145669000Y-105092750D01*
X145669000Y-107442000D01*
X148018250Y-107442000D01*
X148177000Y-107283250D01*
X148180072Y-105569000D01*
X148167812Y-105444518D01*
X148131502Y-105324820D01*
X148072537Y-105214506D01*
X147993185Y-105117815D01*
X147896494Y-105038463D01*
X147786180Y-104979498D01*
X147666482Y-104943188D01*
X147542000Y-104930928D01*
X145827750Y-104934000D01*
X145669000Y-105092750D01*
X145415000Y-105092750D01*
X145256250Y-104934000D01*
X143542000Y-104930928D01*
X143417518Y-104943188D01*
X143297820Y-104979498D01*
X143187506Y-105038463D01*
X143090815Y-105117815D01*
X143011463Y-105214506D01*
X142952498Y-105324820D01*
X142916188Y-105444518D01*
X142903928Y-105569000D01*
X138509020Y-105569000D01*
X138320071Y-105340049D01*
X138299436Y-105308982D01*
X138270030Y-105279414D01*
X138268632Y-105277720D01*
X138242384Y-105251616D01*
X138216156Y-105225243D01*
X138214454Y-105223839D01*
X138184893Y-105194439D01*
X138153833Y-105173808D01*
X137579035Y-104699432D01*
X137552365Y-104672410D01*
X137518407Y-104649397D01*
X137517230Y-104648425D01*
X137485868Y-104627345D01*
X137454600Y-104606154D01*
X137453259Y-104605426D01*
X137419214Y-104582542D01*
X137384177Y-104567916D01*
X136722635Y-104208717D01*
X136690150Y-104186673D01*
X136653544Y-104171202D01*
X136653335Y-104171089D01*
X136617522Y-104155979D01*
X136581365Y-104140698D01*
X136581136Y-104140627D01*
X136544523Y-104125179D01*
X136506076Y-104117269D01*
X135783187Y-103892314D01*
X135757453Y-103880581D01*
X135708129Y-103868957D01*
X135697434Y-103865629D01*
X135669866Y-103859940D01*
X135642501Y-103853491D01*
X135631412Y-103852004D01*
X135581770Y-103841760D01*
X135553484Y-103841557D01*
X135016095Y-103769515D01*
X135002551Y-103765406D01*
X134938089Y-103759057D01*
X134913063Y-103755702D01*
X134899021Y-103755209D01*
X134885019Y-103753830D01*
X134859733Y-103753830D01*
X134795036Y-103751559D01*
X134781075Y-103753830D01*
X133210734Y-103753830D01*
X133210734Y-100210747D01*
X133239463Y-100264494D01*
X133318815Y-100361185D01*
X133415506Y-100440537D01*
X133525820Y-100499502D01*
X133645518Y-100535812D01*
X133770000Y-100548072D01*
X135470000Y-100548072D01*
X135594482Y-100535812D01*
X135714180Y-100499502D01*
X135824494Y-100440537D01*
X135921185Y-100361185D01*
X136000537Y-100264494D01*
X136059502Y-100154180D01*
X136095812Y-100034482D01*
X136108072Y-99910000D01*
X136108072Y-98210000D01*
X136095812Y-98085518D01*
X136059502Y-97965820D01*
X136000537Y-97855506D01*
X135921185Y-97758815D01*
X135824494Y-97679463D01*
X135714180Y-97620498D01*
X135641620Y-97598487D01*
X135773475Y-97466632D01*
X135935990Y-97223411D01*
X136047932Y-96953158D01*
X136105000Y-96666260D01*
X136105000Y-96373740D01*
X136047932Y-96086842D01*
X135935990Y-95816589D01*
X135773475Y-95573368D01*
X135566632Y-95366525D01*
X135392240Y-95250000D01*
X135566632Y-95133475D01*
X135773475Y-94926632D01*
X135935990Y-94683411D01*
X136047932Y-94413158D01*
X136062535Y-94339742D01*
X142840715Y-94339742D01*
X142909904Y-94622745D01*
X143032975Y-94886812D01*
X143205198Y-95121795D01*
X143419954Y-95318664D01*
X143668991Y-95469854D01*
X143942739Y-95569554D01*
X143955110Y-95571476D01*
X144185000Y-95450155D01*
X144185000Y-94107000D01*
X142984768Y-94107000D01*
X142840715Y-94339742D01*
X136062535Y-94339742D01*
X136105000Y-94126260D01*
X136105000Y-93833740D01*
X136062536Y-93620258D01*
X142840715Y-93620258D01*
X142984768Y-93853000D01*
X144185000Y-93853000D01*
X144185000Y-92509845D01*
X144439000Y-92509845D01*
X144439000Y-93853000D01*
X144459000Y-93853000D01*
X144459000Y-94107000D01*
X144439000Y-94107000D01*
X144439000Y-95450155D01*
X144668890Y-95571476D01*
X144681261Y-95569554D01*
X144955009Y-95469854D01*
X145204046Y-95318664D01*
X145418802Y-95121795D01*
X145419086Y-95121407D01*
X145473595Y-95223386D01*
X145584038Y-95357962D01*
X145718614Y-95468405D01*
X145872150Y-95550472D01*
X146038746Y-95601008D01*
X146212000Y-95618072D01*
X147412000Y-95618072D01*
X147585254Y-95601008D01*
X147751850Y-95550472D01*
X147905386Y-95468405D01*
X148039962Y-95357962D01*
X148150405Y-95223386D01*
X148232472Y-95069850D01*
X148283008Y-94903254D01*
X148300072Y-94730000D01*
X148300072Y-94339742D01*
X156556715Y-94339742D01*
X156625904Y-94622745D01*
X156748975Y-94886812D01*
X156921198Y-95121795D01*
X157135954Y-95318664D01*
X157384991Y-95469854D01*
X157658739Y-95569554D01*
X157671110Y-95571476D01*
X157901000Y-95450155D01*
X157901000Y-94107000D01*
X156700768Y-94107000D01*
X156556715Y-94339742D01*
X148300072Y-94339742D01*
X148300072Y-93620258D01*
X156556715Y-93620258D01*
X156700768Y-93853000D01*
X157901000Y-93853000D01*
X157901000Y-92509845D01*
X158155000Y-92509845D01*
X158155000Y-93853000D01*
X158175000Y-93853000D01*
X158175000Y-94107000D01*
X158155000Y-94107000D01*
X158155000Y-95450155D01*
X158384890Y-95571476D01*
X158397261Y-95569554D01*
X158671009Y-95469854D01*
X158920046Y-95318664D01*
X159134802Y-95121795D01*
X159135086Y-95121407D01*
X159189595Y-95223386D01*
X159300038Y-95357962D01*
X159434614Y-95468405D01*
X159588150Y-95550472D01*
X159754746Y-95601008D01*
X159928000Y-95618072D01*
X161128000Y-95618072D01*
X161301254Y-95601008D01*
X161467850Y-95550472D01*
X161621386Y-95468405D01*
X161755962Y-95357962D01*
X161866405Y-95223386D01*
X161948472Y-95069850D01*
X161999008Y-94903254D01*
X162016072Y-94730000D01*
X162016072Y-93230000D01*
X161999008Y-93056746D01*
X161948472Y-92890150D01*
X161866405Y-92736614D01*
X161755962Y-92602038D01*
X161621386Y-92491595D01*
X161467850Y-92409528D01*
X161301254Y-92358992D01*
X161128000Y-92341928D01*
X159928000Y-92341928D01*
X159754746Y-92358992D01*
X159588150Y-92409528D01*
X159434614Y-92491595D01*
X159300038Y-92602038D01*
X159189595Y-92736614D01*
X159135086Y-92838593D01*
X159134802Y-92838205D01*
X158920046Y-92641336D01*
X158671009Y-92490146D01*
X158397261Y-92390446D01*
X158384890Y-92388524D01*
X158155000Y-92509845D01*
X157901000Y-92509845D01*
X157671110Y-92388524D01*
X157658739Y-92390446D01*
X157384991Y-92490146D01*
X157135954Y-92641336D01*
X156921198Y-92838205D01*
X156748975Y-93073188D01*
X156625904Y-93337255D01*
X156556715Y-93620258D01*
X148300072Y-93620258D01*
X148300072Y-93230000D01*
X148283008Y-93056746D01*
X148232472Y-92890150D01*
X148150405Y-92736614D01*
X148039962Y-92602038D01*
X147905386Y-92491595D01*
X147751850Y-92409528D01*
X147585254Y-92358992D01*
X147412000Y-92341928D01*
X146212000Y-92341928D01*
X146038746Y-92358992D01*
X145872150Y-92409528D01*
X145718614Y-92491595D01*
X145584038Y-92602038D01*
X145473595Y-92736614D01*
X145419086Y-92838593D01*
X145418802Y-92838205D01*
X145204046Y-92641336D01*
X144955009Y-92490146D01*
X144681261Y-92390446D01*
X144668890Y-92388524D01*
X144439000Y-92509845D01*
X144185000Y-92509845D01*
X143955110Y-92388524D01*
X143942739Y-92390446D01*
X143668991Y-92490146D01*
X143419954Y-92641336D01*
X143205198Y-92838205D01*
X143032975Y-93073188D01*
X142909904Y-93337255D01*
X142840715Y-93620258D01*
X136062536Y-93620258D01*
X136047932Y-93546842D01*
X135935990Y-93276589D01*
X135773475Y-93033368D01*
X135566632Y-92826525D01*
X135384466Y-92704805D01*
X135501355Y-92635178D01*
X135717588Y-92440269D01*
X135891641Y-92206920D01*
X136016825Y-91944099D01*
X136061476Y-91796890D01*
X135940155Y-91567000D01*
X134747000Y-91567000D01*
X134747000Y-91587000D01*
X134493000Y-91587000D01*
X134493000Y-91567000D01*
X134473000Y-91567000D01*
X134473000Y-91313000D01*
X134493000Y-91313000D01*
X134493000Y-90119186D01*
X134747000Y-90119186D01*
X134747000Y-91313000D01*
X135940155Y-91313000D01*
X136061476Y-91083110D01*
X136016825Y-90935901D01*
X135891641Y-90673080D01*
X135717588Y-90439731D01*
X135501355Y-90244822D01*
X135251252Y-90095843D01*
X134976891Y-89998519D01*
X134747000Y-90119186D01*
X134493000Y-90119186D01*
X134263109Y-89998519D01*
X133988748Y-90095843D01*
X133738645Y-90244822D01*
X133522412Y-90439731D01*
X133348359Y-90673080D01*
X133223175Y-90935901D01*
X133210734Y-90976917D01*
X133210734Y-87506285D01*
X148565000Y-87506285D01*
X148565000Y-88261715D01*
X148712377Y-89002628D01*
X149001467Y-89700554D01*
X149421161Y-90328670D01*
X149955330Y-90862839D01*
X150583446Y-91282533D01*
X151281372Y-91571623D01*
X152022285Y-91719000D01*
X152777715Y-91719000D01*
X153518628Y-91571623D01*
X154216554Y-91282533D01*
X154844670Y-90862839D01*
X155378839Y-90328670D01*
X155798533Y-89700554D01*
X156087623Y-89002628D01*
X156235000Y-88261715D01*
X156235000Y-87506285D01*
X156087623Y-86765372D01*
X155798533Y-86067446D01*
X155378839Y-85439330D01*
X154844670Y-84905161D01*
X154216554Y-84485467D01*
X153518628Y-84196377D01*
X152777715Y-84049000D01*
X152022285Y-84049000D01*
X151281372Y-84196377D01*
X150583446Y-84485467D01*
X149955330Y-84905161D01*
X149421161Y-85439330D01*
X149001467Y-86067446D01*
X148712377Y-86765372D01*
X148565000Y-87506285D01*
X133210734Y-87506285D01*
X133210734Y-87403752D01*
X133271089Y-87403752D01*
X133310392Y-87407623D01*
X133349694Y-87403752D01*
X133349695Y-87403752D01*
X133467227Y-87392176D01*
X133618035Y-87346429D01*
X133757020Y-87272140D01*
X133878842Y-87172163D01*
X133978819Y-87050341D01*
X134053108Y-86911356D01*
X134098855Y-86760548D01*
X134114302Y-86603713D01*
X134110431Y-86564410D01*
X134110431Y-84201000D01*
X144528509Y-84201000D01*
X144550423Y-84423499D01*
X144615324Y-84637447D01*
X144720716Y-84834623D01*
X144862551Y-85007449D01*
X145035377Y-85149284D01*
X145232553Y-85254676D01*
X145446501Y-85319577D01*
X145613248Y-85336000D01*
X145724752Y-85336000D01*
X145891499Y-85319577D01*
X146105447Y-85254676D01*
X146302623Y-85149284D01*
X146475449Y-85007449D01*
X146617284Y-84834623D01*
X146722676Y-84637447D01*
X146787577Y-84423499D01*
X146809491Y-84201000D01*
X146787577Y-83978501D01*
X146722676Y-83764553D01*
X146617284Y-83567377D01*
X146475449Y-83394551D01*
X146302623Y-83252716D01*
X146105447Y-83147324D01*
X145891499Y-83082423D01*
X145724752Y-83066000D01*
X145613248Y-83066000D01*
X145446501Y-83082423D01*
X145232553Y-83147324D01*
X145035377Y-83252716D01*
X144862551Y-83394551D01*
X144720716Y-83567377D01*
X144615324Y-83764553D01*
X144550423Y-83978501D01*
X144528509Y-84201000D01*
X134110431Y-84201000D01*
X134110431Y-82796413D01*
X134426192Y-82796413D01*
X134521956Y-83060814D01*
X134811571Y-83201704D01*
X135123108Y-83283384D01*
X135444595Y-83302718D01*
X135763675Y-83258961D01*
X136068088Y-83153795D01*
X136242044Y-83060814D01*
X136337808Y-82796413D01*
X135382000Y-81840605D01*
X134426192Y-82796413D01*
X134110431Y-82796413D01*
X134110431Y-82567493D01*
X134246587Y-82616808D01*
X135202395Y-81661000D01*
X135561605Y-81661000D01*
X136517413Y-82616808D01*
X136781814Y-82521044D01*
X136922704Y-82231429D01*
X137004384Y-81919892D01*
X137023718Y-81598405D01*
X136979961Y-81279325D01*
X136874795Y-80974912D01*
X136781814Y-80800956D01*
X136517413Y-80705192D01*
X135561605Y-81661000D01*
X135202395Y-81661000D01*
X135188253Y-81646858D01*
X135367858Y-81467253D01*
X135382000Y-81481395D01*
X136337808Y-80525587D01*
X136242044Y-80261186D01*
X135952429Y-80120296D01*
X135640892Y-80038616D01*
X135411487Y-80024820D01*
X136043158Y-79393427D01*
X136047676Y-79390320D01*
X136098828Y-79337782D01*
X136122805Y-79313815D01*
X136126266Y-79309600D01*
X136157612Y-79277404D01*
X136176141Y-79248854D01*
X136197747Y-79222539D01*
X136218945Y-79182901D01*
X136221906Y-79178339D01*
X136237445Y-79148310D01*
X136272067Y-79083570D01*
X136273662Y-79078318D01*
X136876397Y-77913488D01*
X136908925Y-77854909D01*
X136924591Y-77806097D01*
X136943581Y-77758458D01*
X136955780Y-77692535D01*
X137177356Y-76664978D01*
X137190686Y-76621035D01*
X137197783Y-76548983D01*
X137206029Y-76477088D01*
X137202262Y-76431333D01*
X137202262Y-75783420D01*
X137206028Y-75737631D01*
X137197782Y-75665791D01*
X137190686Y-75593748D01*
X137177345Y-75549769D01*
X136955777Y-74522631D01*
X136943587Y-74456750D01*
X136924583Y-74409073D01*
X136908900Y-74360221D01*
X136876384Y-74301676D01*
X136273665Y-73136800D01*
X136272067Y-73131537D01*
X136237449Y-73066806D01*
X136221917Y-73036787D01*
X136218951Y-73032216D01*
X136197747Y-72992568D01*
X136176149Y-72966262D01*
X136157625Y-72937719D01*
X136126272Y-72905515D01*
X136122805Y-72901292D01*
X136098830Y-72877328D01*
X136047692Y-72824801D01*
X136043167Y-72821689D01*
X135126931Y-71905856D01*
X135083437Y-71859021D01*
X135039356Y-71827149D01*
X134997301Y-71792651D01*
X134940926Y-71762534D01*
X134110431Y-71278332D01*
X134110431Y-65650777D01*
X134114302Y-65611475D01*
X134098855Y-65454640D01*
X134053108Y-65303832D01*
X133978819Y-65164847D01*
X133878842Y-65043025D01*
X133757020Y-64943048D01*
X133618035Y-64868759D01*
X133467227Y-64823012D01*
X133349695Y-64811436D01*
X133310392Y-64807565D01*
X133271090Y-64811436D01*
X133210734Y-64811436D01*
X133210734Y-57794999D01*
X138969928Y-57794999D01*
X138969928Y-59045001D01*
X138986992Y-59218255D01*
X139037528Y-59384851D01*
X139119595Y-59538387D01*
X139198000Y-59633924D01*
X139198001Y-65482382D01*
X139193114Y-65532000D01*
X139212615Y-65729994D01*
X139270368Y-65920379D01*
X139270369Y-65920380D01*
X139364154Y-66095840D01*
X139490368Y-66249633D01*
X139528901Y-66281256D01*
X143396870Y-70149226D01*
X143468063Y-70255774D01*
X143612226Y-70399937D01*
X143781744Y-70513205D01*
X143970102Y-70591226D01*
X144170061Y-70631000D01*
X144373939Y-70631000D01*
X144573898Y-70591226D01*
X144762256Y-70513205D01*
X144931774Y-70399937D01*
X145075937Y-70255774D01*
X145189205Y-70086256D01*
X145267226Y-69897898D01*
X145288622Y-69790333D01*
X145390226Y-69891937D01*
X145559744Y-70005205D01*
X145748102Y-70083226D01*
X145948061Y-70123000D01*
X146151939Y-70123000D01*
X146351898Y-70083226D01*
X146540256Y-70005205D01*
X146709774Y-69891937D01*
X146853937Y-69747774D01*
X146967205Y-69578256D01*
X147045226Y-69389898D01*
X147085000Y-69189939D01*
X147085000Y-68986061D01*
X147045226Y-68786102D01*
X146967205Y-68597744D01*
X146853937Y-68428226D01*
X146709774Y-68284063D01*
X146603226Y-68212870D01*
X143218000Y-64827645D01*
X143218000Y-59435421D01*
X143330499Y-59572502D01*
X143518552Y-59726833D01*
X143733100Y-59841511D01*
X143965899Y-59912130D01*
X144208000Y-59935975D01*
X144450102Y-59912130D01*
X144682901Y-59841511D01*
X144897449Y-59726833D01*
X145085502Y-59572502D01*
X145208481Y-59422652D01*
X145251693Y-59486725D01*
X145424526Y-59658078D01*
X145627467Y-59792421D01*
X145852718Y-59884591D01*
X145890391Y-59888462D01*
X146081000Y-59763731D01*
X146081000Y-58547000D01*
X146335000Y-58547000D01*
X146335000Y-59763731D01*
X146525609Y-59888462D01*
X146563282Y-59884591D01*
X146788533Y-59792421D01*
X146991474Y-59658078D01*
X147164307Y-59486725D01*
X147300390Y-59284946D01*
X147394493Y-59060496D01*
X147443000Y-58822000D01*
X147443000Y-58547000D01*
X146335000Y-58547000D01*
X146081000Y-58547000D01*
X146061000Y-58547000D01*
X146061000Y-58293000D01*
X146081000Y-58293000D01*
X146081000Y-57076269D01*
X146335000Y-57076269D01*
X146335000Y-58293000D01*
X147443000Y-58293000D01*
X147443000Y-58018000D01*
X147394493Y-57779504D01*
X147300390Y-57555054D01*
X147164307Y-57353275D01*
X146991474Y-57181922D01*
X146788533Y-57047579D01*
X146563282Y-56955409D01*
X146525609Y-56951538D01*
X146335000Y-57076269D01*
X146081000Y-57076269D01*
X145890391Y-56951538D01*
X145852718Y-56955409D01*
X145627467Y-57047579D01*
X145424526Y-57181922D01*
X145251693Y-57353275D01*
X145208481Y-57417348D01*
X145085502Y-57267498D01*
X144897448Y-57113167D01*
X144682900Y-56998489D01*
X144450101Y-56927870D01*
X144208000Y-56904025D01*
X143965898Y-56927870D01*
X143733099Y-56998489D01*
X143518551Y-57113167D01*
X143330498Y-57267498D01*
X143208000Y-57416763D01*
X143085502Y-57267498D01*
X142897448Y-57113167D01*
X142682900Y-56998489D01*
X142450101Y-56927870D01*
X142208000Y-56904025D01*
X141965898Y-56927870D01*
X141733099Y-56998489D01*
X141518551Y-57113167D01*
X141330498Y-57267498D01*
X141298809Y-57306111D01*
X141296405Y-57301613D01*
X141185962Y-57167038D01*
X141051387Y-57056595D01*
X140897851Y-56974528D01*
X140731255Y-56923992D01*
X140558001Y-56906928D01*
X139857999Y-56906928D01*
X139684745Y-56923992D01*
X139518149Y-56974528D01*
X139364613Y-57056595D01*
X139230038Y-57167038D01*
X139119595Y-57301613D01*
X139037528Y-57455149D01*
X138986992Y-57621745D01*
X138969928Y-57794999D01*
X133210734Y-57794999D01*
X133210734Y-48461683D01*
X134781272Y-48461683D01*
X134795430Y-48463979D01*
X134859935Y-48461683D01*
X134885019Y-48461683D01*
X134899214Y-48460285D01*
X134913455Y-48459778D01*
X134938290Y-48456436D01*
X135002551Y-48450107D01*
X135016283Y-48445942D01*
X135553644Y-48373634D01*
X135581697Y-48373436D01*
X135631565Y-48363149D01*
X135642887Y-48361626D01*
X135670039Y-48355213D01*
X135697363Y-48349577D01*
X135708271Y-48346184D01*
X135757825Y-48334480D01*
X135783344Y-48322829D01*
X136506081Y-48097996D01*
X136544588Y-48090070D01*
X136581127Y-48074650D01*
X136581297Y-48074597D01*
X136618346Y-48058943D01*
X136653396Y-48044151D01*
X136653544Y-48044071D01*
X136690085Y-48028631D01*
X136722625Y-48006554D01*
X137384226Y-47647250D01*
X137419241Y-47632632D01*
X137453295Y-47609740D01*
X137454658Y-47609000D01*
X137486036Y-47587731D01*
X137517255Y-47566745D01*
X137518442Y-47565765D01*
X137552417Y-47542736D01*
X137579074Y-47515722D01*
X138153825Y-47041347D01*
X138184854Y-47020740D01*
X138214447Y-46991312D01*
X138216178Y-46989884D01*
X138242366Y-46963550D01*
X138247947Y-46958000D01*
X142776928Y-46958000D01*
X142789188Y-47082482D01*
X142825498Y-47202180D01*
X142884463Y-47312494D01*
X142963815Y-47409185D01*
X143060506Y-47488537D01*
X143170820Y-47547502D01*
X143290518Y-47583812D01*
X143415000Y-47596072D01*
X145129250Y-47593000D01*
X145288000Y-47434250D01*
X145288000Y-45085000D01*
X145542000Y-45085000D01*
X145542000Y-47434250D01*
X145700750Y-47593000D01*
X147415000Y-47596072D01*
X147539482Y-47583812D01*
X147659180Y-47547502D01*
X147769494Y-47488537D01*
X147866185Y-47409185D01*
X147945537Y-47312494D01*
X148004502Y-47202180D01*
X148040812Y-47082482D01*
X148053072Y-46958000D01*
X148050000Y-45243750D01*
X147891250Y-45085000D01*
X145542000Y-45085000D01*
X145288000Y-45085000D01*
X142938750Y-45085000D01*
X142780000Y-45243750D01*
X142776928Y-46958000D01*
X138247947Y-46958000D01*
X138268598Y-46937465D01*
X138270021Y-46935741D01*
X138299455Y-46906143D01*
X138320068Y-46875106D01*
X138794392Y-46300437D01*
X138821398Y-46273789D01*
X138844422Y-46239824D01*
X138845411Y-46238625D01*
X138866599Y-46207107D01*
X138887664Y-46176031D01*
X138888397Y-46174681D01*
X138911300Y-46140612D01*
X138925922Y-46105589D01*
X139285226Y-45444025D01*
X139307311Y-45411473D01*
X139322743Y-45374949D01*
X139322817Y-45374812D01*
X139338101Y-45338599D01*
X139353275Y-45302684D01*
X139353321Y-45302536D01*
X139368739Y-45266005D01*
X139376671Y-45227472D01*
X139601493Y-44504734D01*
X139613124Y-44479265D01*
X139624846Y-44429659D01*
X139628255Y-44418701D01*
X139633878Y-44391437D01*
X139640284Y-44364330D01*
X139641817Y-44352950D01*
X139652112Y-44303035D01*
X139652310Y-44275039D01*
X139724684Y-43737662D01*
X139728863Y-43723885D01*
X139735187Y-43659674D01*
X139738526Y-43634884D01*
X139739036Y-43620595D01*
X139740439Y-43606353D01*
X139740439Y-43581317D01*
X139742741Y-43516858D01*
X139740439Y-43502652D01*
X139740439Y-41932027D01*
X141116711Y-41932027D01*
X141116711Y-41992447D01*
G37*
G04 #@! TD.AperFunction*
M02*
