G04 #@! TF.GenerationSoftware,KiCad,Pcbnew,(5.1.10-1-10_14)*
G04 #@! TF.CreationDate,2021-12-02T22:50:33+01:00*
G04 #@! TF.ProjectId,Power-Zauberling,506f7765-722d-45a6-9175-6265726c696e,rev?*
G04 #@! TF.SameCoordinates,Original*
G04 #@! TF.FileFunction,Legend,Bot*
G04 #@! TF.FilePolarity,Positive*
%FSLAX46Y46*%
G04 Gerber Fmt 4.6, Leading zero omitted, Abs format (unit mm)*
G04 Created by KiCad (PCBNEW (5.1.10-1-10_14)) date 2021-12-02 22:50:33*
%MOMM*%
%LPD*%
G01*
G04 APERTURE LIST*
%ADD10C,0.150000*%
%ADD11C,0.200000*%
%ADD12C,0.010000*%
%ADD13C,0.120000*%
%ADD14C,0.800000*%
%ADD15C,6.400000*%
%ADD16C,2.000000*%
%ADD17R,4.000000X4.000000*%
%ADD18O,1.905000X2.000000*%
%ADD19R,1.905000X2.000000*%
%ADD20O,3.500000X3.500000*%
%ADD21O,1.700000X1.700000*%
%ADD22R,1.700000X1.700000*%
%ADD23O,1.200000X1.750000*%
%ADD24O,1.700000X2.000000*%
G04 APERTURE END LIST*
D10*
X157146047Y-82002380D02*
X157146047Y-82716666D01*
X157193666Y-82859523D01*
X157288904Y-82954761D01*
X157431761Y-83002380D01*
X157527000Y-83002380D01*
X156193666Y-83002380D02*
X156669857Y-83002380D01*
X156669857Y-82002380D01*
X155288904Y-82907142D02*
X155336523Y-82954761D01*
X155479380Y-83002380D01*
X155574619Y-83002380D01*
X155717476Y-82954761D01*
X155812714Y-82859523D01*
X155860333Y-82764285D01*
X155907952Y-82573809D01*
X155907952Y-82430952D01*
X155860333Y-82240476D01*
X155812714Y-82145238D01*
X155717476Y-82050000D01*
X155574619Y-82002380D01*
X155479380Y-82002380D01*
X155336523Y-82050000D01*
X155288904Y-82097619D01*
X154574619Y-82002380D02*
X154574619Y-82716666D01*
X154622238Y-82859523D01*
X154717476Y-82954761D01*
X154860333Y-83002380D01*
X154955571Y-83002380D01*
X153622238Y-83002380D02*
X154098428Y-83002380D01*
X154098428Y-82002380D01*
X152717476Y-82907142D02*
X152765095Y-82954761D01*
X152907952Y-83002380D01*
X153003190Y-83002380D01*
X153146047Y-82954761D01*
X153241285Y-82859523D01*
X153288904Y-82764285D01*
X153336523Y-82573809D01*
X153336523Y-82430952D01*
X153288904Y-82240476D01*
X153241285Y-82145238D01*
X153146047Y-82050000D01*
X153003190Y-82002380D01*
X152907952Y-82002380D01*
X152765095Y-82050000D01*
X152717476Y-82097619D01*
X152003190Y-82002380D02*
X152003190Y-82716666D01*
X152050809Y-82859523D01*
X152146047Y-82954761D01*
X152288904Y-83002380D01*
X152384142Y-83002380D01*
X151050809Y-83002380D02*
X151527000Y-83002380D01*
X151527000Y-82002380D01*
X150146047Y-82907142D02*
X150193666Y-82954761D01*
X150336523Y-83002380D01*
X150431761Y-83002380D01*
X150574619Y-82954761D01*
X150669857Y-82859523D01*
X150717476Y-82764285D01*
X150765095Y-82573809D01*
X150765095Y-82430952D01*
X150717476Y-82240476D01*
X150669857Y-82145238D01*
X150574619Y-82050000D01*
X150431761Y-82002380D01*
X150336523Y-82002380D01*
X150193666Y-82050000D01*
X150146047Y-82097619D01*
X149431761Y-82002380D02*
X149431761Y-82716666D01*
X149479380Y-82859523D01*
X149574619Y-82954761D01*
X149717476Y-83002380D01*
X149812714Y-83002380D01*
X148479380Y-83002380D02*
X148955571Y-83002380D01*
X148955571Y-82002380D01*
X147574619Y-82907142D02*
X147622238Y-82954761D01*
X147765095Y-83002380D01*
X147860333Y-83002380D01*
X148003190Y-82954761D01*
X148098428Y-82859523D01*
X148146047Y-82764285D01*
X148193666Y-82573809D01*
X148193666Y-82430952D01*
X148146047Y-82240476D01*
X148098428Y-82145238D01*
X148003190Y-82050000D01*
X147860333Y-82002380D01*
X147765095Y-82002380D01*
X147622238Y-82050000D01*
X147574619Y-82097619D01*
D11*
X147700904Y-89677857D02*
X146177095Y-89677857D01*
X146939000Y-90439761D02*
X146939000Y-88915952D01*
X161289904Y-89677857D02*
X159766095Y-89677857D01*
X160528000Y-90439761D02*
X160528000Y-88915952D01*
D12*
G36*
X151812426Y-78855341D02*
G01*
X151758467Y-78868314D01*
X151707800Y-78889358D01*
X151661191Y-78917975D01*
X151619407Y-78953668D01*
X151583215Y-78995936D01*
X151553382Y-79044283D01*
X151545166Y-79061260D01*
X151530571Y-79099043D01*
X151521412Y-79137200D01*
X151517055Y-79178892D01*
X151516474Y-79204127D01*
X151518121Y-79245842D01*
X151523621Y-79282504D01*
X151533813Y-79317719D01*
X151549538Y-79355094D01*
X151553573Y-79363455D01*
X151564017Y-79383655D01*
X151574182Y-79400319D01*
X151585906Y-79415916D01*
X151601027Y-79432913D01*
X151619378Y-79451764D01*
X151638954Y-79471014D01*
X151654808Y-79485255D01*
X151669431Y-79496314D01*
X151685315Y-79506015D01*
X151704952Y-79516185D01*
X151712004Y-79519628D01*
X151742320Y-79533037D01*
X151771634Y-79543689D01*
X151795978Y-79550236D01*
X151834595Y-79555413D01*
X151876870Y-79556702D01*
X151918366Y-79554113D01*
X151945109Y-79549887D01*
X151963114Y-79544887D01*
X151985882Y-79536808D01*
X152010025Y-79526920D01*
X152025499Y-79519808D01*
X152047397Y-79508769D01*
X152064582Y-79498730D01*
X152079742Y-79487735D01*
X152095566Y-79473827D01*
X152114740Y-79455047D01*
X152115555Y-79454227D01*
X152143409Y-79424396D01*
X152165006Y-79396702D01*
X152182030Y-79368563D01*
X152196165Y-79337394D01*
X152202136Y-79321397D01*
X152216708Y-79266882D01*
X152222395Y-79211815D01*
X152219399Y-79157150D01*
X152207923Y-79103839D01*
X152188168Y-79052838D01*
X152160336Y-79005099D01*
X152126317Y-78963341D01*
X152082873Y-78923699D01*
X152036006Y-78892630D01*
X151985745Y-78870148D01*
X151932117Y-78856264D01*
X151875153Y-78850991D01*
X151868909Y-78850937D01*
X151812426Y-78855341D01*
G37*
X151812426Y-78855341D02*
X151758467Y-78868314D01*
X151707800Y-78889358D01*
X151661191Y-78917975D01*
X151619407Y-78953668D01*
X151583215Y-78995936D01*
X151553382Y-79044283D01*
X151545166Y-79061260D01*
X151530571Y-79099043D01*
X151521412Y-79137200D01*
X151517055Y-79178892D01*
X151516474Y-79204127D01*
X151518121Y-79245842D01*
X151523621Y-79282504D01*
X151533813Y-79317719D01*
X151549538Y-79355094D01*
X151553573Y-79363455D01*
X151564017Y-79383655D01*
X151574182Y-79400319D01*
X151585906Y-79415916D01*
X151601027Y-79432913D01*
X151619378Y-79451764D01*
X151638954Y-79471014D01*
X151654808Y-79485255D01*
X151669431Y-79496314D01*
X151685315Y-79506015D01*
X151704952Y-79516185D01*
X151712004Y-79519628D01*
X151742320Y-79533037D01*
X151771634Y-79543689D01*
X151795978Y-79550236D01*
X151834595Y-79555413D01*
X151876870Y-79556702D01*
X151918366Y-79554113D01*
X151945109Y-79549887D01*
X151963114Y-79544887D01*
X151985882Y-79536808D01*
X152010025Y-79526920D01*
X152025499Y-79519808D01*
X152047397Y-79508769D01*
X152064582Y-79498730D01*
X152079742Y-79487735D01*
X152095566Y-79473827D01*
X152114740Y-79455047D01*
X152115555Y-79454227D01*
X152143409Y-79424396D01*
X152165006Y-79396702D01*
X152182030Y-79368563D01*
X152196165Y-79337394D01*
X152202136Y-79321397D01*
X152216708Y-79266882D01*
X152222395Y-79211815D01*
X152219399Y-79157150D01*
X152207923Y-79103839D01*
X152188168Y-79052838D01*
X152160336Y-79005099D01*
X152126317Y-78963341D01*
X152082873Y-78923699D01*
X152036006Y-78892630D01*
X151985745Y-78870148D01*
X151932117Y-78856264D01*
X151875153Y-78850991D01*
X151868909Y-78850937D01*
X151812426Y-78855341D01*
G36*
X151814830Y-77122369D02*
G01*
X151762485Y-77134666D01*
X151713857Y-77155266D01*
X151668388Y-77184388D01*
X151640326Y-77207931D01*
X151601840Y-77248993D01*
X151571790Y-77293643D01*
X151549955Y-77342328D01*
X151536113Y-77395496D01*
X151531822Y-77426853D01*
X151531077Y-77439339D01*
X151530398Y-77460256D01*
X151529786Y-77488834D01*
X151529241Y-77524300D01*
X151528763Y-77565883D01*
X151528351Y-77612811D01*
X151528006Y-77664312D01*
X151527726Y-77719614D01*
X151527512Y-77777946D01*
X151527365Y-77838536D01*
X151527283Y-77900613D01*
X151527266Y-77963403D01*
X151527315Y-78026137D01*
X151527429Y-78088041D01*
X151527608Y-78148345D01*
X151527852Y-78206276D01*
X151528160Y-78261062D01*
X151528534Y-78311933D01*
X151528971Y-78358116D01*
X151529473Y-78398840D01*
X151530039Y-78433332D01*
X151530669Y-78460821D01*
X151531363Y-78480536D01*
X151532036Y-78490946D01*
X151540367Y-78542266D01*
X151554653Y-78587787D01*
X151575727Y-78629393D01*
X151604417Y-78668968D01*
X151616628Y-78682924D01*
X151656844Y-78720904D01*
X151701081Y-78751497D01*
X151748301Y-78774094D01*
X151795229Y-78787651D01*
X151844934Y-78795305D01*
X151888398Y-78797150D01*
X151926529Y-78793223D01*
X151926636Y-78793202D01*
X151975531Y-78780752D01*
X152019050Y-78762609D01*
X152059196Y-78737694D01*
X152097974Y-78704929D01*
X152106773Y-78696307D01*
X152127457Y-78674744D01*
X152142951Y-78656355D01*
X152155248Y-78638503D01*
X152166340Y-78618554D01*
X152167977Y-78615309D01*
X152173188Y-78605089D01*
X152177869Y-78596043D01*
X152182048Y-78587648D01*
X152185753Y-78579384D01*
X152189013Y-78570728D01*
X152191856Y-78561159D01*
X152194310Y-78550155D01*
X152196404Y-78537195D01*
X152198166Y-78521758D01*
X152199624Y-78503321D01*
X152200807Y-78481363D01*
X152201743Y-78455362D01*
X152202460Y-78424797D01*
X152202987Y-78389147D01*
X152203352Y-78347889D01*
X152203584Y-78300502D01*
X152203710Y-78246465D01*
X152203759Y-78185255D01*
X152203759Y-78116352D01*
X152203739Y-78039234D01*
X152203727Y-77957218D01*
X152203727Y-77398418D01*
X152193091Y-77361681D01*
X152180530Y-77324432D01*
X152165321Y-77292218D01*
X152145876Y-77262421D01*
X152120609Y-77232427D01*
X152104597Y-77215839D01*
X152065239Y-77180578D01*
X152025627Y-77153837D01*
X151984259Y-77134988D01*
X151939629Y-77123400D01*
X151890235Y-77118443D01*
X151871451Y-77118159D01*
X151814830Y-77122369D01*
G37*
X151814830Y-77122369D02*
X151762485Y-77134666D01*
X151713857Y-77155266D01*
X151668388Y-77184388D01*
X151640326Y-77207931D01*
X151601840Y-77248993D01*
X151571790Y-77293643D01*
X151549955Y-77342328D01*
X151536113Y-77395496D01*
X151531822Y-77426853D01*
X151531077Y-77439339D01*
X151530398Y-77460256D01*
X151529786Y-77488834D01*
X151529241Y-77524300D01*
X151528763Y-77565883D01*
X151528351Y-77612811D01*
X151528006Y-77664312D01*
X151527726Y-77719614D01*
X151527512Y-77777946D01*
X151527365Y-77838536D01*
X151527283Y-77900613D01*
X151527266Y-77963403D01*
X151527315Y-78026137D01*
X151527429Y-78088041D01*
X151527608Y-78148345D01*
X151527852Y-78206276D01*
X151528160Y-78261062D01*
X151528534Y-78311933D01*
X151528971Y-78358116D01*
X151529473Y-78398840D01*
X151530039Y-78433332D01*
X151530669Y-78460821D01*
X151531363Y-78480536D01*
X151532036Y-78490946D01*
X151540367Y-78542266D01*
X151554653Y-78587787D01*
X151575727Y-78629393D01*
X151604417Y-78668968D01*
X151616628Y-78682924D01*
X151656844Y-78720904D01*
X151701081Y-78751497D01*
X151748301Y-78774094D01*
X151795229Y-78787651D01*
X151844934Y-78795305D01*
X151888398Y-78797150D01*
X151926529Y-78793223D01*
X151926636Y-78793202D01*
X151975531Y-78780752D01*
X152019050Y-78762609D01*
X152059196Y-78737694D01*
X152097974Y-78704929D01*
X152106773Y-78696307D01*
X152127457Y-78674744D01*
X152142951Y-78656355D01*
X152155248Y-78638503D01*
X152166340Y-78618554D01*
X152167977Y-78615309D01*
X152173188Y-78605089D01*
X152177869Y-78596043D01*
X152182048Y-78587648D01*
X152185753Y-78579384D01*
X152189013Y-78570728D01*
X152191856Y-78561159D01*
X152194310Y-78550155D01*
X152196404Y-78537195D01*
X152198166Y-78521758D01*
X152199624Y-78503321D01*
X152200807Y-78481363D01*
X152201743Y-78455362D01*
X152202460Y-78424797D01*
X152202987Y-78389147D01*
X152203352Y-78347889D01*
X152203584Y-78300502D01*
X152203710Y-78246465D01*
X152203759Y-78185255D01*
X152203759Y-78116352D01*
X152203739Y-78039234D01*
X152203727Y-77957218D01*
X152203727Y-77398418D01*
X152193091Y-77361681D01*
X152180530Y-77324432D01*
X152165321Y-77292218D01*
X152145876Y-77262421D01*
X152120609Y-77232427D01*
X152104597Y-77215839D01*
X152065239Y-77180578D01*
X152025627Y-77153837D01*
X151984259Y-77134988D01*
X151939629Y-77123400D01*
X151890235Y-77118443D01*
X151871451Y-77118159D01*
X151814830Y-77122369D01*
G36*
X153779472Y-76399406D02*
G01*
X153747886Y-76401703D01*
X153727727Y-76404935D01*
X153677022Y-76420569D01*
X153629699Y-76444204D01*
X153586651Y-76474944D01*
X153548774Y-76511896D01*
X153516962Y-76554163D01*
X153492110Y-76600852D01*
X153475114Y-76651068D01*
X153473153Y-76659509D01*
X153471686Y-76668819D01*
X153470448Y-76682590D01*
X153469424Y-76701454D01*
X153468599Y-76726046D01*
X153467959Y-76756999D01*
X153467490Y-76794948D01*
X153467175Y-76840527D01*
X153467002Y-76894368D01*
X153466962Y-76926748D01*
X153466912Y-76979943D01*
X153466823Y-77024629D01*
X153466669Y-77061534D01*
X153466427Y-77091385D01*
X153466069Y-77114910D01*
X153465571Y-77132838D01*
X153464907Y-77145894D01*
X153464053Y-77154807D01*
X153462983Y-77160305D01*
X153461671Y-77163115D01*
X153460093Y-77163965D01*
X153458718Y-77163754D01*
X153413107Y-77149745D01*
X153374560Y-77138520D01*
X153341449Y-77129730D01*
X153312151Y-77123027D01*
X153285037Y-77118063D01*
X153258482Y-77114491D01*
X153230861Y-77111962D01*
X153210588Y-77110658D01*
X153121357Y-77109890D01*
X153035215Y-77117715D01*
X152952313Y-77134094D01*
X152872799Y-77158987D01*
X152796825Y-77192356D01*
X152724540Y-77234161D01*
X152717085Y-77239096D01*
X152649904Y-77289029D01*
X152590361Y-77343843D01*
X152537876Y-77404201D01*
X152491871Y-77470768D01*
X152453041Y-77541582D01*
X152418991Y-77619846D01*
X152393304Y-77698587D01*
X152375667Y-77779193D01*
X152365766Y-77863053D01*
X152363201Y-77939338D01*
X152366985Y-78030518D01*
X152378168Y-78116737D01*
X152397025Y-78198716D01*
X152423831Y-78277174D01*
X152458861Y-78352833D01*
X152502390Y-78426413D01*
X152554692Y-78498633D01*
X152595226Y-78547125D01*
X152637608Y-78590486D01*
X152686560Y-78632433D01*
X152739435Y-78670957D01*
X152793587Y-78704049D01*
X152820254Y-78717901D01*
X152882689Y-78744067D01*
X152950694Y-78764959D01*
X153021974Y-78780144D01*
X153094235Y-78789191D01*
X153165182Y-78791667D01*
X153203563Y-78790018D01*
X153275054Y-78780641D01*
X153342099Y-78763443D01*
X153404422Y-78738538D01*
X153461745Y-78706041D01*
X153513793Y-78666068D01*
X153523372Y-78657347D01*
X153533304Y-78646965D01*
X153539569Y-78638319D01*
X153540691Y-78635154D01*
X153541858Y-78629619D01*
X153542577Y-78629164D01*
X153546818Y-78631494D01*
X153557992Y-78638110D01*
X153575173Y-78648449D01*
X153597432Y-78661950D01*
X153623842Y-78678049D01*
X153653475Y-78696185D01*
X153675852Y-78709923D01*
X153807241Y-78790682D01*
X153848302Y-78789166D01*
X153895276Y-78782938D01*
X153940557Y-78768263D01*
X153983265Y-78745898D01*
X154022523Y-78716597D01*
X154057450Y-78681115D01*
X154087168Y-78640206D01*
X154110799Y-78594626D01*
X154126022Y-78550655D01*
X154126976Y-78546727D01*
X154127853Y-78542056D01*
X154128656Y-78536253D01*
X154129387Y-78528931D01*
X154130051Y-78519703D01*
X154130650Y-78508181D01*
X154131187Y-78493978D01*
X154131667Y-78476707D01*
X154132092Y-78455981D01*
X154132465Y-78431411D01*
X154132790Y-78402611D01*
X154133070Y-78369194D01*
X154133309Y-78330771D01*
X154133509Y-78286956D01*
X154133674Y-78237362D01*
X154133807Y-78181600D01*
X154133912Y-78119285D01*
X154133992Y-78050027D01*
X154134050Y-77973441D01*
X154134056Y-77959338D01*
X153486866Y-77959338D01*
X153486844Y-77961837D01*
X153483410Y-78012824D01*
X153474033Y-78057435D01*
X153458340Y-78096660D01*
X153435961Y-78131489D01*
X153414074Y-78155800D01*
X153378105Y-78185712D01*
X153340464Y-78206597D01*
X153300733Y-78218582D01*
X153258493Y-78221791D01*
X153213325Y-78216350D01*
X153212194Y-78216112D01*
X153170146Y-78202669D01*
X153132701Y-78181409D01*
X153100547Y-78152879D01*
X153074373Y-78117628D01*
X153063890Y-78097965D01*
X153051820Y-78070079D01*
X153043556Y-78044361D01*
X153038509Y-78017876D01*
X153036090Y-77987691D01*
X153035660Y-77957218D01*
X153038447Y-77906951D01*
X153046504Y-77863406D01*
X153060234Y-77825456D01*
X153080041Y-77791975D01*
X153105191Y-77762948D01*
X153134902Y-77737613D01*
X153166035Y-77719508D01*
X153200976Y-77707517D01*
X153237383Y-77701061D01*
X153279038Y-77700567D01*
X153319993Y-77708552D01*
X153358916Y-77724279D01*
X153394475Y-77747012D01*
X153425339Y-77776014D01*
X153450176Y-77810550D01*
X153456397Y-77822170D01*
X153471059Y-77855564D01*
X153480528Y-77887281D01*
X153485549Y-77920734D01*
X153486866Y-77959338D01*
X154134056Y-77959338D01*
X154134089Y-77889138D01*
X154134112Y-77796732D01*
X154134124Y-77695834D01*
X154134127Y-77594691D01*
X154134127Y-76668746D01*
X154120724Y-76627852D01*
X154100359Y-76580096D01*
X154072074Y-76535502D01*
X154036991Y-76495350D01*
X153996234Y-76460923D01*
X153950924Y-76433500D01*
X153950015Y-76433050D01*
X153927656Y-76422998D01*
X153903911Y-76413906D01*
X153882696Y-76407223D01*
X153875509Y-76405488D01*
X153846885Y-76401312D01*
X153813672Y-76399280D01*
X153779472Y-76399406D01*
G37*
X153779472Y-76399406D02*
X153747886Y-76401703D01*
X153727727Y-76404935D01*
X153677022Y-76420569D01*
X153629699Y-76444204D01*
X153586651Y-76474944D01*
X153548774Y-76511896D01*
X153516962Y-76554163D01*
X153492110Y-76600852D01*
X153475114Y-76651068D01*
X153473153Y-76659509D01*
X153471686Y-76668819D01*
X153470448Y-76682590D01*
X153469424Y-76701454D01*
X153468599Y-76726046D01*
X153467959Y-76756999D01*
X153467490Y-76794948D01*
X153467175Y-76840527D01*
X153467002Y-76894368D01*
X153466962Y-76926748D01*
X153466912Y-76979943D01*
X153466823Y-77024629D01*
X153466669Y-77061534D01*
X153466427Y-77091385D01*
X153466069Y-77114910D01*
X153465571Y-77132838D01*
X153464907Y-77145894D01*
X153464053Y-77154807D01*
X153462983Y-77160305D01*
X153461671Y-77163115D01*
X153460093Y-77163965D01*
X153458718Y-77163754D01*
X153413107Y-77149745D01*
X153374560Y-77138520D01*
X153341449Y-77129730D01*
X153312151Y-77123027D01*
X153285037Y-77118063D01*
X153258482Y-77114491D01*
X153230861Y-77111962D01*
X153210588Y-77110658D01*
X153121357Y-77109890D01*
X153035215Y-77117715D01*
X152952313Y-77134094D01*
X152872799Y-77158987D01*
X152796825Y-77192356D01*
X152724540Y-77234161D01*
X152717085Y-77239096D01*
X152649904Y-77289029D01*
X152590361Y-77343843D01*
X152537876Y-77404201D01*
X152491871Y-77470768D01*
X152453041Y-77541582D01*
X152418991Y-77619846D01*
X152393304Y-77698587D01*
X152375667Y-77779193D01*
X152365766Y-77863053D01*
X152363201Y-77939338D01*
X152366985Y-78030518D01*
X152378168Y-78116737D01*
X152397025Y-78198716D01*
X152423831Y-78277174D01*
X152458861Y-78352833D01*
X152502390Y-78426413D01*
X152554692Y-78498633D01*
X152595226Y-78547125D01*
X152637608Y-78590486D01*
X152686560Y-78632433D01*
X152739435Y-78670957D01*
X152793587Y-78704049D01*
X152820254Y-78717901D01*
X152882689Y-78744067D01*
X152950694Y-78764959D01*
X153021974Y-78780144D01*
X153094235Y-78789191D01*
X153165182Y-78791667D01*
X153203563Y-78790018D01*
X153275054Y-78780641D01*
X153342099Y-78763443D01*
X153404422Y-78738538D01*
X153461745Y-78706041D01*
X153513793Y-78666068D01*
X153523372Y-78657347D01*
X153533304Y-78646965D01*
X153539569Y-78638319D01*
X153540691Y-78635154D01*
X153541858Y-78629619D01*
X153542577Y-78629164D01*
X153546818Y-78631494D01*
X153557992Y-78638110D01*
X153575173Y-78648449D01*
X153597432Y-78661950D01*
X153623842Y-78678049D01*
X153653475Y-78696185D01*
X153675852Y-78709923D01*
X153807241Y-78790682D01*
X153848302Y-78789166D01*
X153895276Y-78782938D01*
X153940557Y-78768263D01*
X153983265Y-78745898D01*
X154022523Y-78716597D01*
X154057450Y-78681115D01*
X154087168Y-78640206D01*
X154110799Y-78594626D01*
X154126022Y-78550655D01*
X154126976Y-78546727D01*
X154127853Y-78542056D01*
X154128656Y-78536253D01*
X154129387Y-78528931D01*
X154130051Y-78519703D01*
X154130650Y-78508181D01*
X154131187Y-78493978D01*
X154131667Y-78476707D01*
X154132092Y-78455981D01*
X154132465Y-78431411D01*
X154132790Y-78402611D01*
X154133070Y-78369194D01*
X154133309Y-78330771D01*
X154133509Y-78286956D01*
X154133674Y-78237362D01*
X154133807Y-78181600D01*
X154133912Y-78119285D01*
X154133992Y-78050027D01*
X154134050Y-77973441D01*
X154134056Y-77959338D01*
X153486866Y-77959338D01*
X153486844Y-77961837D01*
X153483410Y-78012824D01*
X153474033Y-78057435D01*
X153458340Y-78096660D01*
X153435961Y-78131489D01*
X153414074Y-78155800D01*
X153378105Y-78185712D01*
X153340464Y-78206597D01*
X153300733Y-78218582D01*
X153258493Y-78221791D01*
X153213325Y-78216350D01*
X153212194Y-78216112D01*
X153170146Y-78202669D01*
X153132701Y-78181409D01*
X153100547Y-78152879D01*
X153074373Y-78117628D01*
X153063890Y-78097965D01*
X153051820Y-78070079D01*
X153043556Y-78044361D01*
X153038509Y-78017876D01*
X153036090Y-77987691D01*
X153035660Y-77957218D01*
X153038447Y-77906951D01*
X153046504Y-77863406D01*
X153060234Y-77825456D01*
X153080041Y-77791975D01*
X153105191Y-77762948D01*
X153134902Y-77737613D01*
X153166035Y-77719508D01*
X153200976Y-77707517D01*
X153237383Y-77701061D01*
X153279038Y-77700567D01*
X153319993Y-77708552D01*
X153358916Y-77724279D01*
X153394475Y-77747012D01*
X153425339Y-77776014D01*
X153450176Y-77810550D01*
X153456397Y-77822170D01*
X153471059Y-77855564D01*
X153480528Y-77887281D01*
X153485549Y-77920734D01*
X153486866Y-77959338D01*
X154134056Y-77959338D01*
X154134089Y-77889138D01*
X154134112Y-77796732D01*
X154134124Y-77695834D01*
X154134127Y-77594691D01*
X154134127Y-76668746D01*
X154120724Y-76627852D01*
X154100359Y-76580096D01*
X154072074Y-76535502D01*
X154036991Y-76495350D01*
X153996234Y-76460923D01*
X153950924Y-76433500D01*
X153950015Y-76433050D01*
X153927656Y-76422998D01*
X153903911Y-76413906D01*
X153882696Y-76407223D01*
X153875509Y-76405488D01*
X153846885Y-76401312D01*
X153813672Y-76399280D01*
X153779472Y-76399406D01*
G36*
X150414884Y-77135190D02*
G01*
X150344697Y-77135230D01*
X150282227Y-77135322D01*
X150226968Y-77135486D01*
X150178413Y-77135742D01*
X150136057Y-77136110D01*
X150099393Y-77136611D01*
X150067915Y-77137266D01*
X150041116Y-77138093D01*
X150018490Y-77139115D01*
X149999531Y-77140350D01*
X149983732Y-77141820D01*
X149970587Y-77143545D01*
X149959589Y-77145545D01*
X149950233Y-77147841D01*
X149942012Y-77150452D01*
X149934420Y-77153399D01*
X149926949Y-77156703D01*
X149919095Y-77160384D01*
X149915939Y-77161869D01*
X149883238Y-77181927D01*
X149853620Y-77209185D01*
X149828597Y-77241744D01*
X149809680Y-77277701D01*
X149799932Y-77307754D01*
X149796847Y-77329278D01*
X149795892Y-77355658D01*
X149796902Y-77383810D01*
X149799711Y-77410652D01*
X149804153Y-77433103D01*
X149807163Y-77442291D01*
X149814036Y-77456879D01*
X149823968Y-77475137D01*
X149834797Y-77493091D01*
X149840562Y-77500995D01*
X149851833Y-77515404D01*
X149868155Y-77535766D01*
X149889073Y-77561529D01*
X149914134Y-77592143D01*
X149942883Y-77627055D01*
X149974866Y-77665714D01*
X150009628Y-77707569D01*
X150046715Y-77752067D01*
X150085673Y-77798657D01*
X150126047Y-77846788D01*
X150129587Y-77851000D01*
X150405150Y-78178891D01*
X150179911Y-78181391D01*
X150127636Y-78182000D01*
X150083750Y-78182590D01*
X150047408Y-78183198D01*
X150017762Y-78183862D01*
X149993968Y-78184616D01*
X149975178Y-78185499D01*
X149960546Y-78186546D01*
X149949226Y-78187795D01*
X149940370Y-78189281D01*
X149933134Y-78191042D01*
X149929272Y-78192227D01*
X149881429Y-78212387D01*
X149838068Y-78239582D01*
X149800077Y-78272903D01*
X149768341Y-78311441D01*
X149743749Y-78354288D01*
X149727631Y-78398829D01*
X149722743Y-78425013D01*
X149720070Y-78456108D01*
X149719610Y-78488993D01*
X149721359Y-78520551D01*
X149725313Y-78547661D01*
X149727812Y-78557582D01*
X149746838Y-78605367D01*
X149773578Y-78649222D01*
X149807060Y-78688110D01*
X149846312Y-78720998D01*
X149890362Y-78746848D01*
X149915522Y-78757416D01*
X149950054Y-78770018D01*
X150564272Y-78770805D01*
X150655321Y-78770907D01*
X150737577Y-78770964D01*
X150811484Y-78770973D01*
X150877486Y-78770931D01*
X150936027Y-78770832D01*
X150987549Y-78770674D01*
X151032498Y-78770454D01*
X151071317Y-78770166D01*
X151104448Y-78769808D01*
X151132337Y-78769375D01*
X151155427Y-78768865D01*
X151174161Y-78768273D01*
X151188983Y-78767595D01*
X151200337Y-78766828D01*
X151208667Y-78765968D01*
X151212777Y-78765338D01*
X151257868Y-78752680D01*
X151298488Y-78732114D01*
X151334056Y-78703953D01*
X151341907Y-78695958D01*
X151367943Y-78664660D01*
X151386022Y-78634036D01*
X151396953Y-78601858D01*
X151401551Y-78565901D01*
X151401233Y-78533284D01*
X151394933Y-78484312D01*
X151381790Y-78440950D01*
X151361938Y-78403597D01*
X151354771Y-78393723D01*
X151348881Y-78386462D01*
X151337477Y-78372707D01*
X151321021Y-78353006D01*
X151299974Y-78327909D01*
X151274799Y-78297963D01*
X151245958Y-78263717D01*
X151213912Y-78225720D01*
X151179124Y-78184521D01*
X151142055Y-78140667D01*
X151103168Y-78094707D01*
X151063914Y-78048358D01*
X151024233Y-78001504D01*
X150986301Y-77956666D01*
X150950537Y-77914346D01*
X150917361Y-77875040D01*
X150887193Y-77839250D01*
X150860454Y-77807474D01*
X150837563Y-77780211D01*
X150818940Y-77757961D01*
X150805007Y-77741222D01*
X150796182Y-77730495D01*
X150792885Y-77726277D01*
X150792872Y-77726240D01*
X150797323Y-77725739D01*
X150810007Y-77725277D01*
X150829920Y-77724867D01*
X150856058Y-77724521D01*
X150887417Y-77724253D01*
X150922995Y-77724076D01*
X150961788Y-77724002D01*
X150968136Y-77724000D01*
X151017258Y-77723858D01*
X151060798Y-77723442D01*
X151098066Y-77722771D01*
X151128372Y-77721861D01*
X151151028Y-77720731D01*
X151165342Y-77719396D01*
X151167872Y-77718966D01*
X151183474Y-77714575D01*
X151203675Y-77707273D01*
X151224871Y-77698398D01*
X151231600Y-77695291D01*
X151251357Y-77685208D01*
X151267936Y-77674749D01*
X151284025Y-77661912D01*
X151302315Y-77644696D01*
X151310169Y-77636826D01*
X151344301Y-77597444D01*
X151369595Y-77556988D01*
X151386449Y-77514429D01*
X151395260Y-77468740D01*
X151396427Y-77418893D01*
X151396195Y-77414582D01*
X151394167Y-77391689D01*
X151391024Y-77368908D01*
X151387335Y-77350132D01*
X151386046Y-77345309D01*
X151367584Y-77298989D01*
X151341347Y-77256325D01*
X151308404Y-77218369D01*
X151269830Y-77186174D01*
X151226695Y-77160792D01*
X151180225Y-77143317D01*
X151175391Y-77142108D01*
X151169777Y-77141024D01*
X151162880Y-77140059D01*
X151154197Y-77139206D01*
X151143224Y-77138458D01*
X151129460Y-77137807D01*
X151112400Y-77137249D01*
X151091543Y-77136775D01*
X151066384Y-77136378D01*
X151036421Y-77136053D01*
X151001151Y-77135791D01*
X150960070Y-77135587D01*
X150912677Y-77135433D01*
X150858467Y-77135323D01*
X150796938Y-77135250D01*
X150727587Y-77135206D01*
X150649910Y-77135186D01*
X150580436Y-77135182D01*
X150493295Y-77135181D01*
X150414884Y-77135190D01*
G37*
X150414884Y-77135190D02*
X150344697Y-77135230D01*
X150282227Y-77135322D01*
X150226968Y-77135486D01*
X150178413Y-77135742D01*
X150136057Y-77136110D01*
X150099393Y-77136611D01*
X150067915Y-77137266D01*
X150041116Y-77138093D01*
X150018490Y-77139115D01*
X149999531Y-77140350D01*
X149983732Y-77141820D01*
X149970587Y-77143545D01*
X149959589Y-77145545D01*
X149950233Y-77147841D01*
X149942012Y-77150452D01*
X149934420Y-77153399D01*
X149926949Y-77156703D01*
X149919095Y-77160384D01*
X149915939Y-77161869D01*
X149883238Y-77181927D01*
X149853620Y-77209185D01*
X149828597Y-77241744D01*
X149809680Y-77277701D01*
X149799932Y-77307754D01*
X149796847Y-77329278D01*
X149795892Y-77355658D01*
X149796902Y-77383810D01*
X149799711Y-77410652D01*
X149804153Y-77433103D01*
X149807163Y-77442291D01*
X149814036Y-77456879D01*
X149823968Y-77475137D01*
X149834797Y-77493091D01*
X149840562Y-77500995D01*
X149851833Y-77515404D01*
X149868155Y-77535766D01*
X149889073Y-77561529D01*
X149914134Y-77592143D01*
X149942883Y-77627055D01*
X149974866Y-77665714D01*
X150009628Y-77707569D01*
X150046715Y-77752067D01*
X150085673Y-77798657D01*
X150126047Y-77846788D01*
X150129587Y-77851000D01*
X150405150Y-78178891D01*
X150179911Y-78181391D01*
X150127636Y-78182000D01*
X150083750Y-78182590D01*
X150047408Y-78183198D01*
X150017762Y-78183862D01*
X149993968Y-78184616D01*
X149975178Y-78185499D01*
X149960546Y-78186546D01*
X149949226Y-78187795D01*
X149940370Y-78189281D01*
X149933134Y-78191042D01*
X149929272Y-78192227D01*
X149881429Y-78212387D01*
X149838068Y-78239582D01*
X149800077Y-78272903D01*
X149768341Y-78311441D01*
X149743749Y-78354288D01*
X149727631Y-78398829D01*
X149722743Y-78425013D01*
X149720070Y-78456108D01*
X149719610Y-78488993D01*
X149721359Y-78520551D01*
X149725313Y-78547661D01*
X149727812Y-78557582D01*
X149746838Y-78605367D01*
X149773578Y-78649222D01*
X149807060Y-78688110D01*
X149846312Y-78720998D01*
X149890362Y-78746848D01*
X149915522Y-78757416D01*
X149950054Y-78770018D01*
X150564272Y-78770805D01*
X150655321Y-78770907D01*
X150737577Y-78770964D01*
X150811484Y-78770973D01*
X150877486Y-78770931D01*
X150936027Y-78770832D01*
X150987549Y-78770674D01*
X151032498Y-78770454D01*
X151071317Y-78770166D01*
X151104448Y-78769808D01*
X151132337Y-78769375D01*
X151155427Y-78768865D01*
X151174161Y-78768273D01*
X151188983Y-78767595D01*
X151200337Y-78766828D01*
X151208667Y-78765968D01*
X151212777Y-78765338D01*
X151257868Y-78752680D01*
X151298488Y-78732114D01*
X151334056Y-78703953D01*
X151341907Y-78695958D01*
X151367943Y-78664660D01*
X151386022Y-78634036D01*
X151396953Y-78601858D01*
X151401551Y-78565901D01*
X151401233Y-78533284D01*
X151394933Y-78484312D01*
X151381790Y-78440950D01*
X151361938Y-78403597D01*
X151354771Y-78393723D01*
X151348881Y-78386462D01*
X151337477Y-78372707D01*
X151321021Y-78353006D01*
X151299974Y-78327909D01*
X151274799Y-78297963D01*
X151245958Y-78263717D01*
X151213912Y-78225720D01*
X151179124Y-78184521D01*
X151142055Y-78140667D01*
X151103168Y-78094707D01*
X151063914Y-78048358D01*
X151024233Y-78001504D01*
X150986301Y-77956666D01*
X150950537Y-77914346D01*
X150917361Y-77875040D01*
X150887193Y-77839250D01*
X150860454Y-77807474D01*
X150837563Y-77780211D01*
X150818940Y-77757961D01*
X150805007Y-77741222D01*
X150796182Y-77730495D01*
X150792885Y-77726277D01*
X150792872Y-77726240D01*
X150797323Y-77725739D01*
X150810007Y-77725277D01*
X150829920Y-77724867D01*
X150856058Y-77724521D01*
X150887417Y-77724253D01*
X150922995Y-77724076D01*
X150961788Y-77724002D01*
X150968136Y-77724000D01*
X151017258Y-77723858D01*
X151060798Y-77723442D01*
X151098066Y-77722771D01*
X151128372Y-77721861D01*
X151151028Y-77720731D01*
X151165342Y-77719396D01*
X151167872Y-77718966D01*
X151183474Y-77714575D01*
X151203675Y-77707273D01*
X151224871Y-77698398D01*
X151231600Y-77695291D01*
X151251357Y-77685208D01*
X151267936Y-77674749D01*
X151284025Y-77661912D01*
X151302315Y-77644696D01*
X151310169Y-77636826D01*
X151344301Y-77597444D01*
X151369595Y-77556988D01*
X151386449Y-77514429D01*
X151395260Y-77468740D01*
X151396427Y-77418893D01*
X151396195Y-77414582D01*
X151394167Y-77391689D01*
X151391024Y-77368908D01*
X151387335Y-77350132D01*
X151386046Y-77345309D01*
X151367584Y-77298989D01*
X151341347Y-77256325D01*
X151308404Y-77218369D01*
X151269830Y-77186174D01*
X151226695Y-77160792D01*
X151180225Y-77143317D01*
X151175391Y-77142108D01*
X151169777Y-77141024D01*
X151162880Y-77140059D01*
X151154197Y-77139206D01*
X151143224Y-77138458D01*
X151129460Y-77137807D01*
X151112400Y-77137249D01*
X151091543Y-77136775D01*
X151066384Y-77136378D01*
X151036421Y-77136053D01*
X151001151Y-77135791D01*
X150960070Y-77135587D01*
X150912677Y-77135433D01*
X150858467Y-77135323D01*
X150796938Y-77135250D01*
X150727587Y-77135206D01*
X150649910Y-77135186D01*
X150580436Y-77135182D01*
X150493295Y-77135181D01*
X150414884Y-77135190D01*
G36*
X148933077Y-77135169D02*
G01*
X148847494Y-77135182D01*
X148839381Y-77135182D01*
X148751801Y-77135198D01*
X148672996Y-77135251D01*
X148602505Y-77135344D01*
X148539866Y-77135482D01*
X148484620Y-77135671D01*
X148436304Y-77135915D01*
X148394458Y-77136220D01*
X148358620Y-77136589D01*
X148328329Y-77137028D01*
X148303124Y-77137541D01*
X148282544Y-77138134D01*
X148266128Y-77138812D01*
X148253415Y-77139578D01*
X148243943Y-77140438D01*
X148237252Y-77141397D01*
X148236709Y-77141501D01*
X148191512Y-77154543D01*
X148151978Y-77174873D01*
X148118161Y-77202451D01*
X148090114Y-77237238D01*
X148074771Y-77264160D01*
X148066584Y-77281309D01*
X148061230Y-77294944D01*
X148058010Y-77308107D01*
X148056224Y-77323839D01*
X148055175Y-77345180D01*
X148054999Y-77350187D01*
X148055110Y-77385724D01*
X148058646Y-77415412D01*
X148066354Y-77442244D01*
X148078984Y-77469210D01*
X148089125Y-77486522D01*
X148095037Y-77494811D01*
X148106455Y-77509599D01*
X148122924Y-77530332D01*
X148143989Y-77556456D01*
X148169195Y-77587414D01*
X148198086Y-77622651D01*
X148230208Y-77661614D01*
X148265105Y-77703747D01*
X148302321Y-77748494D01*
X148341403Y-77795301D01*
X148381894Y-77843613D01*
X148386460Y-77849049D01*
X148663547Y-78178891D01*
X148438583Y-78181200D01*
X148213618Y-78183509D01*
X148176672Y-78196500D01*
X148154498Y-78205435D01*
X148131213Y-78216611D01*
X148111691Y-78227683D01*
X148110920Y-78228179D01*
X148084837Y-78247888D01*
X148058528Y-78272604D01*
X148034709Y-78299493D01*
X148016093Y-78325719D01*
X148013793Y-78329639D01*
X147993963Y-78373632D01*
X147981682Y-78421302D01*
X147976995Y-78470939D01*
X147979944Y-78520839D01*
X147990574Y-78569293D01*
X148006626Y-78610015D01*
X148026005Y-78641946D01*
X148051968Y-78673770D01*
X148082157Y-78703127D01*
X148114211Y-78727656D01*
X148138014Y-78741444D01*
X148146687Y-78745756D01*
X148154555Y-78749646D01*
X148162113Y-78753135D01*
X148169856Y-78756245D01*
X148178277Y-78758996D01*
X148187872Y-78761411D01*
X148199135Y-78763510D01*
X148212561Y-78765316D01*
X148228643Y-78766849D01*
X148247876Y-78768132D01*
X148270756Y-78769186D01*
X148297776Y-78770032D01*
X148329431Y-78770692D01*
X148366215Y-78771187D01*
X148408623Y-78771539D01*
X148457150Y-78771769D01*
X148512290Y-78771899D01*
X148574537Y-78771950D01*
X148644385Y-78771945D01*
X148722331Y-78771903D01*
X148808867Y-78771847D01*
X148837072Y-78771830D01*
X148927422Y-78771763D01*
X149008977Y-78771666D01*
X149082181Y-78771533D01*
X149147477Y-78771360D01*
X149205307Y-78771143D01*
X149256114Y-78770876D01*
X149300340Y-78770557D01*
X149338428Y-78770179D01*
X149370820Y-78769738D01*
X149397960Y-78769229D01*
X149420289Y-78768649D01*
X149438251Y-78767993D01*
X149452288Y-78767255D01*
X149462842Y-78766431D01*
X149470356Y-78765518D01*
X149471932Y-78765253D01*
X149514515Y-78753292D01*
X149553758Y-78733951D01*
X149588566Y-78708224D01*
X149617846Y-78677103D01*
X149640506Y-78641580D01*
X149655453Y-78602649D01*
X149656773Y-78597385D01*
X149660742Y-78565962D01*
X149659706Y-78529995D01*
X149654197Y-78492326D01*
X149644744Y-78455794D01*
X149631877Y-78423241D01*
X149620641Y-78403636D01*
X149615895Y-78397535D01*
X149605608Y-78384922D01*
X149590222Y-78366323D01*
X149570176Y-78342262D01*
X149545914Y-78313265D01*
X149517874Y-78279857D01*
X149486499Y-78242565D01*
X149452230Y-78201913D01*
X149415507Y-78158426D01*
X149376773Y-78112631D01*
X149336467Y-78065053D01*
X149331218Y-78058862D01*
X149291039Y-78011457D01*
X149252576Y-77966029D01*
X149216248Y-77923078D01*
X149182473Y-77883100D01*
X149151670Y-77846592D01*
X149124259Y-77814052D01*
X149100657Y-77785976D01*
X149081284Y-77762863D01*
X149066558Y-77745208D01*
X149056899Y-77733510D01*
X149052724Y-77728266D01*
X149052588Y-77728047D01*
X149056687Y-77727121D01*
X149069100Y-77726276D01*
X149088904Y-77725533D01*
X149115176Y-77724912D01*
X149146994Y-77724436D01*
X149183434Y-77724125D01*
X149223574Y-77724001D01*
X149228263Y-77724000D01*
X149277269Y-77723954D01*
X149318100Y-77723737D01*
X149351818Y-77723227D01*
X149379486Y-77722306D01*
X149402163Y-77720851D01*
X149420912Y-77718744D01*
X149436795Y-77715864D01*
X149450873Y-77712091D01*
X149464208Y-77707304D01*
X149477861Y-77701383D01*
X149492894Y-77694208D01*
X149493387Y-77693967D01*
X149521488Y-77677214D01*
X149550746Y-77654558D01*
X149578397Y-77628459D01*
X149601675Y-77601377D01*
X149608766Y-77591388D01*
X149631725Y-77548675D01*
X149646948Y-77502274D01*
X149654410Y-77453579D01*
X149654089Y-77403984D01*
X149645960Y-77354885D01*
X149630000Y-77307674D01*
X149614135Y-77276463D01*
X149596125Y-77250899D01*
X149572421Y-77224440D01*
X149545667Y-77199619D01*
X149518505Y-77178964D01*
X149501852Y-77168956D01*
X149492745Y-77164076D01*
X149484669Y-77159689D01*
X149477115Y-77155767D01*
X149469570Y-77152286D01*
X149461523Y-77149218D01*
X149452464Y-77146539D01*
X149441880Y-77144221D01*
X149429262Y-77142240D01*
X149414098Y-77140568D01*
X149395877Y-77139180D01*
X149374087Y-77138049D01*
X149348219Y-77137150D01*
X149317759Y-77136457D01*
X149282198Y-77135943D01*
X149241025Y-77135582D01*
X149193727Y-77135349D01*
X149139795Y-77135217D01*
X149078716Y-77135161D01*
X149009981Y-77135153D01*
X148933077Y-77135169D01*
G37*
X148933077Y-77135169D02*
X148847494Y-77135182D01*
X148839381Y-77135182D01*
X148751801Y-77135198D01*
X148672996Y-77135251D01*
X148602505Y-77135344D01*
X148539866Y-77135482D01*
X148484620Y-77135671D01*
X148436304Y-77135915D01*
X148394458Y-77136220D01*
X148358620Y-77136589D01*
X148328329Y-77137028D01*
X148303124Y-77137541D01*
X148282544Y-77138134D01*
X148266128Y-77138812D01*
X148253415Y-77139578D01*
X148243943Y-77140438D01*
X148237252Y-77141397D01*
X148236709Y-77141501D01*
X148191512Y-77154543D01*
X148151978Y-77174873D01*
X148118161Y-77202451D01*
X148090114Y-77237238D01*
X148074771Y-77264160D01*
X148066584Y-77281309D01*
X148061230Y-77294944D01*
X148058010Y-77308107D01*
X148056224Y-77323839D01*
X148055175Y-77345180D01*
X148054999Y-77350187D01*
X148055110Y-77385724D01*
X148058646Y-77415412D01*
X148066354Y-77442244D01*
X148078984Y-77469210D01*
X148089125Y-77486522D01*
X148095037Y-77494811D01*
X148106455Y-77509599D01*
X148122924Y-77530332D01*
X148143989Y-77556456D01*
X148169195Y-77587414D01*
X148198086Y-77622651D01*
X148230208Y-77661614D01*
X148265105Y-77703747D01*
X148302321Y-77748494D01*
X148341403Y-77795301D01*
X148381894Y-77843613D01*
X148386460Y-77849049D01*
X148663547Y-78178891D01*
X148438583Y-78181200D01*
X148213618Y-78183509D01*
X148176672Y-78196500D01*
X148154498Y-78205435D01*
X148131213Y-78216611D01*
X148111691Y-78227683D01*
X148110920Y-78228179D01*
X148084837Y-78247888D01*
X148058528Y-78272604D01*
X148034709Y-78299493D01*
X148016093Y-78325719D01*
X148013793Y-78329639D01*
X147993963Y-78373632D01*
X147981682Y-78421302D01*
X147976995Y-78470939D01*
X147979944Y-78520839D01*
X147990574Y-78569293D01*
X148006626Y-78610015D01*
X148026005Y-78641946D01*
X148051968Y-78673770D01*
X148082157Y-78703127D01*
X148114211Y-78727656D01*
X148138014Y-78741444D01*
X148146687Y-78745756D01*
X148154555Y-78749646D01*
X148162113Y-78753135D01*
X148169856Y-78756245D01*
X148178277Y-78758996D01*
X148187872Y-78761411D01*
X148199135Y-78763510D01*
X148212561Y-78765316D01*
X148228643Y-78766849D01*
X148247876Y-78768132D01*
X148270756Y-78769186D01*
X148297776Y-78770032D01*
X148329431Y-78770692D01*
X148366215Y-78771187D01*
X148408623Y-78771539D01*
X148457150Y-78771769D01*
X148512290Y-78771899D01*
X148574537Y-78771950D01*
X148644385Y-78771945D01*
X148722331Y-78771903D01*
X148808867Y-78771847D01*
X148837072Y-78771830D01*
X148927422Y-78771763D01*
X149008977Y-78771666D01*
X149082181Y-78771533D01*
X149147477Y-78771360D01*
X149205307Y-78771143D01*
X149256114Y-78770876D01*
X149300340Y-78770557D01*
X149338428Y-78770179D01*
X149370820Y-78769738D01*
X149397960Y-78769229D01*
X149420289Y-78768649D01*
X149438251Y-78767993D01*
X149452288Y-78767255D01*
X149462842Y-78766431D01*
X149470356Y-78765518D01*
X149471932Y-78765253D01*
X149514515Y-78753292D01*
X149553758Y-78733951D01*
X149588566Y-78708224D01*
X149617846Y-78677103D01*
X149640506Y-78641580D01*
X149655453Y-78602649D01*
X149656773Y-78597385D01*
X149660742Y-78565962D01*
X149659706Y-78529995D01*
X149654197Y-78492326D01*
X149644744Y-78455794D01*
X149631877Y-78423241D01*
X149620641Y-78403636D01*
X149615895Y-78397535D01*
X149605608Y-78384922D01*
X149590222Y-78366323D01*
X149570176Y-78342262D01*
X149545914Y-78313265D01*
X149517874Y-78279857D01*
X149486499Y-78242565D01*
X149452230Y-78201913D01*
X149415507Y-78158426D01*
X149376773Y-78112631D01*
X149336467Y-78065053D01*
X149331218Y-78058862D01*
X149291039Y-78011457D01*
X149252576Y-77966029D01*
X149216248Y-77923078D01*
X149182473Y-77883100D01*
X149151670Y-77846592D01*
X149124259Y-77814052D01*
X149100657Y-77785976D01*
X149081284Y-77762863D01*
X149066558Y-77745208D01*
X149056899Y-77733510D01*
X149052724Y-77728266D01*
X149052588Y-77728047D01*
X149056687Y-77727121D01*
X149069100Y-77726276D01*
X149088904Y-77725533D01*
X149115176Y-77724912D01*
X149146994Y-77724436D01*
X149183434Y-77724125D01*
X149223574Y-77724001D01*
X149228263Y-77724000D01*
X149277269Y-77723954D01*
X149318100Y-77723737D01*
X149351818Y-77723227D01*
X149379486Y-77722306D01*
X149402163Y-77720851D01*
X149420912Y-77718744D01*
X149436795Y-77715864D01*
X149450873Y-77712091D01*
X149464208Y-77707304D01*
X149477861Y-77701383D01*
X149492894Y-77694208D01*
X149493387Y-77693967D01*
X149521488Y-77677214D01*
X149550746Y-77654558D01*
X149578397Y-77628459D01*
X149601675Y-77601377D01*
X149608766Y-77591388D01*
X149631725Y-77548675D01*
X149646948Y-77502274D01*
X149654410Y-77453579D01*
X149654089Y-77403984D01*
X149645960Y-77354885D01*
X149630000Y-77307674D01*
X149614135Y-77276463D01*
X149596125Y-77250899D01*
X149572421Y-77224440D01*
X149545667Y-77199619D01*
X149518505Y-77178964D01*
X149501852Y-77168956D01*
X149492745Y-77164076D01*
X149484669Y-77159689D01*
X149477115Y-77155767D01*
X149469570Y-77152286D01*
X149461523Y-77149218D01*
X149452464Y-77146539D01*
X149441880Y-77144221D01*
X149429262Y-77142240D01*
X149414098Y-77140568D01*
X149395877Y-77139180D01*
X149374087Y-77138049D01*
X149348219Y-77137150D01*
X149317759Y-77136457D01*
X149282198Y-77135943D01*
X149241025Y-77135582D01*
X149193727Y-77135349D01*
X149139795Y-77135217D01*
X149078716Y-77135161D01*
X149009981Y-77135153D01*
X148933077Y-77135169D01*
G36*
X151812491Y-76374905D02*
G01*
X151758689Y-76387777D01*
X151708264Y-76408520D01*
X151661977Y-76436548D01*
X151620588Y-76471281D01*
X151584860Y-76512133D01*
X151555553Y-76558523D01*
X151533428Y-76609868D01*
X151526456Y-76632785D01*
X151518661Y-76674749D01*
X151516051Y-76720738D01*
X151518574Y-76767166D01*
X151526181Y-76810448D01*
X151529105Y-76821146D01*
X151549173Y-76873282D01*
X151576430Y-76920654D01*
X151610032Y-76962753D01*
X151649138Y-76999071D01*
X151692906Y-77029098D01*
X151740494Y-77052326D01*
X151791061Y-77068246D01*
X151843764Y-77076348D01*
X151897761Y-77076125D01*
X151940491Y-77069789D01*
X151994554Y-77053639D01*
X152044748Y-77029506D01*
X152090298Y-76998108D01*
X152130427Y-76960166D01*
X152164361Y-76916399D01*
X152191322Y-76867527D01*
X152208582Y-76821146D01*
X152216834Y-76783184D01*
X152221072Y-76741038D01*
X152221192Y-76698264D01*
X152217094Y-76658417D01*
X152213720Y-76641872D01*
X152196028Y-76588085D01*
X152170769Y-76538842D01*
X152138697Y-76494737D01*
X152100566Y-76456363D01*
X152057131Y-76424315D01*
X152009146Y-76399185D01*
X151957364Y-76381567D01*
X151902541Y-76372054D01*
X151868909Y-76370484D01*
X151812491Y-76374905D01*
G37*
X151812491Y-76374905D02*
X151758689Y-76387777D01*
X151708264Y-76408520D01*
X151661977Y-76436548D01*
X151620588Y-76471281D01*
X151584860Y-76512133D01*
X151555553Y-76558523D01*
X151533428Y-76609868D01*
X151526456Y-76632785D01*
X151518661Y-76674749D01*
X151516051Y-76720738D01*
X151518574Y-76767166D01*
X151526181Y-76810448D01*
X151529105Y-76821146D01*
X151549173Y-76873282D01*
X151576430Y-76920654D01*
X151610032Y-76962753D01*
X151649138Y-76999071D01*
X151692906Y-77029098D01*
X151740494Y-77052326D01*
X151791061Y-77068246D01*
X151843764Y-77076348D01*
X151897761Y-77076125D01*
X151940491Y-77069789D01*
X151994554Y-77053639D01*
X152044748Y-77029506D01*
X152090298Y-76998108D01*
X152130427Y-76960166D01*
X152164361Y-76916399D01*
X152191322Y-76867527D01*
X152208582Y-76821146D01*
X152216834Y-76783184D01*
X152221072Y-76741038D01*
X152221192Y-76698264D01*
X152217094Y-76658417D01*
X152213720Y-76641872D01*
X152196028Y-76588085D01*
X152170769Y-76538842D01*
X152138697Y-76494737D01*
X152100566Y-76456363D01*
X152057131Y-76424315D01*
X152009146Y-76399185D01*
X151957364Y-76381567D01*
X151902541Y-76372054D01*
X151868909Y-76370484D01*
X151812491Y-76374905D01*
G36*
X151811948Y-74653839D02*
G01*
X151774236Y-74662408D01*
X151723073Y-74682849D01*
X151676134Y-74710690D01*
X151634249Y-74745059D01*
X151598246Y-74785085D01*
X151568955Y-74829895D01*
X151547204Y-74878619D01*
X151537717Y-74911058D01*
X151536462Y-74916862D01*
X151535340Y-74923344D01*
X151534344Y-74931026D01*
X151533468Y-74940431D01*
X151532702Y-74952083D01*
X151532040Y-74966503D01*
X151531474Y-74984215D01*
X151530998Y-75005743D01*
X151530602Y-75031608D01*
X151530281Y-75062335D01*
X151530026Y-75098445D01*
X151529830Y-75140462D01*
X151529685Y-75188909D01*
X151529585Y-75244309D01*
X151529521Y-75307184D01*
X151529486Y-75378059D01*
X151529473Y-75457454D01*
X151529472Y-75488800D01*
X151529465Y-75573854D01*
X151529460Y-75650198D01*
X151529486Y-75718357D01*
X151529572Y-75778858D01*
X151529745Y-75832226D01*
X151530034Y-75878988D01*
X151530467Y-75919668D01*
X151531072Y-75954794D01*
X151531877Y-75984892D01*
X151532911Y-76010486D01*
X151534201Y-76032103D01*
X151535775Y-76050269D01*
X151537663Y-76065510D01*
X151539891Y-76078352D01*
X151542489Y-76089320D01*
X151545484Y-76098941D01*
X151548904Y-76107741D01*
X151552778Y-76116245D01*
X151557134Y-76124980D01*
X151562000Y-76134471D01*
X151564288Y-76138980D01*
X151591058Y-76182765D01*
X151625024Y-76223333D01*
X151664375Y-76258873D01*
X151707297Y-76287574D01*
X151719563Y-76294065D01*
X151755327Y-76308404D01*
X151796456Y-76319112D01*
X151840100Y-76325827D01*
X151883404Y-76328187D01*
X151923516Y-76325828D01*
X151942800Y-76322474D01*
X151960740Y-76317227D01*
X151982990Y-76308989D01*
X152005761Y-76299210D01*
X152014381Y-76295085D01*
X152063598Y-76265758D01*
X152106440Y-76230006D01*
X152142471Y-76188352D01*
X152171254Y-76141315D01*
X152192350Y-76089419D01*
X152195372Y-76079338D01*
X152196622Y-76074539D01*
X152197741Y-76069085D01*
X152198737Y-76062468D01*
X152199616Y-76054180D01*
X152200386Y-76043713D01*
X152201054Y-76030558D01*
X152201627Y-76014206D01*
X152202112Y-75994148D01*
X152202517Y-75969878D01*
X152202849Y-75940885D01*
X152203114Y-75906661D01*
X152203321Y-75866699D01*
X152203476Y-75820489D01*
X152203586Y-75767523D01*
X152203659Y-75707293D01*
X152203702Y-75639290D01*
X152203723Y-75563005D01*
X152203727Y-75488800D01*
X152203721Y-75404834D01*
X152203699Y-75329594D01*
X152203653Y-75262573D01*
X152203576Y-75203261D01*
X152203461Y-75151148D01*
X152203301Y-75105726D01*
X152203088Y-75066486D01*
X152202815Y-75032918D01*
X152202475Y-75004514D01*
X152202061Y-74980763D01*
X152201566Y-74961158D01*
X152200981Y-74945188D01*
X152200301Y-74932346D01*
X152199518Y-74922121D01*
X152198624Y-74914004D01*
X152197613Y-74907487D01*
X152196477Y-74902060D01*
X152195337Y-74897673D01*
X152176508Y-74846547D01*
X152150164Y-74799532D01*
X152117159Y-74757433D01*
X152078349Y-74721058D01*
X152034587Y-74691214D01*
X151986728Y-74668707D01*
X151938265Y-74654861D01*
X151898012Y-74649811D01*
X151854642Y-74649528D01*
X151811948Y-74653839D01*
G37*
X151811948Y-74653839D02*
X151774236Y-74662408D01*
X151723073Y-74682849D01*
X151676134Y-74710690D01*
X151634249Y-74745059D01*
X151598246Y-74785085D01*
X151568955Y-74829895D01*
X151547204Y-74878619D01*
X151537717Y-74911058D01*
X151536462Y-74916862D01*
X151535340Y-74923344D01*
X151534344Y-74931026D01*
X151533468Y-74940431D01*
X151532702Y-74952083D01*
X151532040Y-74966503D01*
X151531474Y-74984215D01*
X151530998Y-75005743D01*
X151530602Y-75031608D01*
X151530281Y-75062335D01*
X151530026Y-75098445D01*
X151529830Y-75140462D01*
X151529685Y-75188909D01*
X151529585Y-75244309D01*
X151529521Y-75307184D01*
X151529486Y-75378059D01*
X151529473Y-75457454D01*
X151529472Y-75488800D01*
X151529465Y-75573854D01*
X151529460Y-75650198D01*
X151529486Y-75718357D01*
X151529572Y-75778858D01*
X151529745Y-75832226D01*
X151530034Y-75878988D01*
X151530467Y-75919668D01*
X151531072Y-75954794D01*
X151531877Y-75984892D01*
X151532911Y-76010486D01*
X151534201Y-76032103D01*
X151535775Y-76050269D01*
X151537663Y-76065510D01*
X151539891Y-76078352D01*
X151542489Y-76089320D01*
X151545484Y-76098941D01*
X151548904Y-76107741D01*
X151552778Y-76116245D01*
X151557134Y-76124980D01*
X151562000Y-76134471D01*
X151564288Y-76138980D01*
X151591058Y-76182765D01*
X151625024Y-76223333D01*
X151664375Y-76258873D01*
X151707297Y-76287574D01*
X151719563Y-76294065D01*
X151755327Y-76308404D01*
X151796456Y-76319112D01*
X151840100Y-76325827D01*
X151883404Y-76328187D01*
X151923516Y-76325828D01*
X151942800Y-76322474D01*
X151960740Y-76317227D01*
X151982990Y-76308989D01*
X152005761Y-76299210D01*
X152014381Y-76295085D01*
X152063598Y-76265758D01*
X152106440Y-76230006D01*
X152142471Y-76188352D01*
X152171254Y-76141315D01*
X152192350Y-76089419D01*
X152195372Y-76079338D01*
X152196622Y-76074539D01*
X152197741Y-76069085D01*
X152198737Y-76062468D01*
X152199616Y-76054180D01*
X152200386Y-76043713D01*
X152201054Y-76030558D01*
X152201627Y-76014206D01*
X152202112Y-75994148D01*
X152202517Y-75969878D01*
X152202849Y-75940885D01*
X152203114Y-75906661D01*
X152203321Y-75866699D01*
X152203476Y-75820489D01*
X152203586Y-75767523D01*
X152203659Y-75707293D01*
X152203702Y-75639290D01*
X152203723Y-75563005D01*
X152203727Y-75488800D01*
X152203721Y-75404834D01*
X152203699Y-75329594D01*
X152203653Y-75262573D01*
X152203576Y-75203261D01*
X152203461Y-75151148D01*
X152203301Y-75105726D01*
X152203088Y-75066486D01*
X152202815Y-75032918D01*
X152202475Y-75004514D01*
X152202061Y-74980763D01*
X152201566Y-74961158D01*
X152200981Y-74945188D01*
X152200301Y-74932346D01*
X152199518Y-74922121D01*
X152198624Y-74914004D01*
X152197613Y-74907487D01*
X152196477Y-74902060D01*
X152195337Y-74897673D01*
X152176508Y-74846547D01*
X152150164Y-74799532D01*
X152117159Y-74757433D01*
X152078349Y-74721058D01*
X152034587Y-74691214D01*
X151986728Y-74668707D01*
X151938265Y-74654861D01*
X151898012Y-74649811D01*
X151854642Y-74649528D01*
X151811948Y-74653839D01*
G36*
X155532453Y-74641185D02*
G01*
X155479925Y-74651306D01*
X155433119Y-74668180D01*
X155391574Y-74691972D01*
X155354830Y-74722852D01*
X155353793Y-74723893D01*
X155339697Y-74738728D01*
X155326667Y-74753952D01*
X155314372Y-74770282D01*
X155302484Y-74788437D01*
X155290674Y-74809132D01*
X155278614Y-74833085D01*
X155265973Y-74861014D01*
X155252424Y-74893636D01*
X155237638Y-74931667D01*
X155221286Y-74975826D01*
X155203038Y-75026829D01*
X155182566Y-75085393D01*
X155165981Y-75133469D01*
X155151671Y-75175023D01*
X155138222Y-75213895D01*
X155125938Y-75249213D01*
X155115128Y-75280106D01*
X155106095Y-75305701D01*
X155099148Y-75325127D01*
X155094592Y-75337513D01*
X155092757Y-75341963D01*
X155090474Y-75338853D01*
X155085708Y-75328269D01*
X155078964Y-75311478D01*
X155070750Y-75289745D01*
X155061570Y-75264335D01*
X155060444Y-75261144D01*
X155033796Y-75185574D01*
X155009995Y-75118305D01*
X154988882Y-75058905D01*
X154970298Y-75006942D01*
X154954085Y-74961985D01*
X154940082Y-74923600D01*
X154928132Y-74891355D01*
X154918075Y-74864820D01*
X154909753Y-74843560D01*
X154903005Y-74827145D01*
X154897675Y-74815142D01*
X154893601Y-74807119D01*
X154893164Y-74806360D01*
X154870940Y-74775085D01*
X154841837Y-74744028D01*
X154808067Y-74715016D01*
X154771847Y-74689876D01*
X154735390Y-74670435D01*
X154721559Y-74664783D01*
X154672258Y-74650986D01*
X154619696Y-74644270D01*
X154566789Y-74644847D01*
X154526672Y-74650597D01*
X154479939Y-74664840D01*
X154434501Y-74687201D01*
X154391836Y-74716567D01*
X154353418Y-74751823D01*
X154320723Y-74791852D01*
X154303648Y-74819164D01*
X154289385Y-74847839D01*
X154279241Y-74875985D01*
X154272696Y-74905990D01*
X154269226Y-74940245D01*
X154268307Y-74980800D01*
X154268534Y-75007782D01*
X154269203Y-75027987D01*
X154270653Y-75043876D01*
X154273223Y-75057908D01*
X154277250Y-75072543D01*
X154283072Y-75090239D01*
X154283549Y-75091637D01*
X154288271Y-75103542D01*
X154296816Y-75123001D01*
X154308863Y-75149363D01*
X154324090Y-75181975D01*
X154342176Y-75220186D01*
X154362799Y-75263344D01*
X154385637Y-75310799D01*
X154410370Y-75361899D01*
X154436674Y-75415993D01*
X154464230Y-75472428D01*
X154492715Y-75530554D01*
X154521808Y-75589718D01*
X154551187Y-75649271D01*
X154580530Y-75708559D01*
X154609516Y-75766933D01*
X154637824Y-75823739D01*
X154665132Y-75878328D01*
X154691118Y-75930046D01*
X154715461Y-75978244D01*
X154737839Y-76022269D01*
X154757930Y-76061470D01*
X154775414Y-76095196D01*
X154789968Y-76122795D01*
X154801271Y-76143616D01*
X154809001Y-76157007D01*
X154810874Y-76159922D01*
X154846076Y-76204917D01*
X154884994Y-76241551D01*
X154928071Y-76270103D01*
X154975750Y-76290848D01*
X155028475Y-76304064D01*
X155045796Y-76306660D01*
X155100334Y-76309182D01*
X155153402Y-76302935D01*
X155204184Y-76288364D01*
X155251867Y-76265913D01*
X155295637Y-76236028D01*
X155334679Y-76199153D01*
X155368180Y-76155732D01*
X155389156Y-76119182D01*
X155393177Y-76110345D01*
X155400274Y-76093882D01*
X155410057Y-76070728D01*
X155422138Y-76041820D01*
X155436126Y-76008093D01*
X155451632Y-75970483D01*
X155468267Y-75929925D01*
X155485642Y-75887355D01*
X155487149Y-75883655D01*
X155504225Y-75841782D01*
X155520306Y-75802514D01*
X155535047Y-75766680D01*
X155548104Y-75735110D01*
X155559130Y-75708637D01*
X155567782Y-75688090D01*
X155573715Y-75674300D01*
X155576583Y-75668098D01*
X155576742Y-75667857D01*
X155579076Y-75671277D01*
X155584487Y-75682417D01*
X155592607Y-75700427D01*
X155603068Y-75724456D01*
X155615503Y-75753654D01*
X155629546Y-75787171D01*
X155644829Y-75824155D01*
X155655507Y-75850275D01*
X155679827Y-75909983D01*
X155701005Y-75961807D01*
X155719379Y-76006419D01*
X155735289Y-76044490D01*
X155749072Y-76076693D01*
X155761068Y-76103699D01*
X155771615Y-76126179D01*
X155781051Y-76144805D01*
X155789716Y-76160249D01*
X155797948Y-76173183D01*
X155806086Y-76184277D01*
X155814467Y-76194205D01*
X155823432Y-76203637D01*
X155833318Y-76213245D01*
X155843163Y-76222486D01*
X155870318Y-76244641D01*
X155902069Y-76265414D01*
X155935491Y-76283172D01*
X155967661Y-76296288D01*
X155983983Y-76300984D01*
X155998934Y-76303533D01*
X156019355Y-76305786D01*
X156042495Y-76307579D01*
X156065600Y-76308748D01*
X156085920Y-76309127D01*
X156100701Y-76308552D01*
X156103781Y-76308145D01*
X156114629Y-76306233D01*
X156130529Y-76303429D01*
X156143036Y-76301222D01*
X156167807Y-76294586D01*
X156196255Y-76283423D01*
X156225111Y-76269291D01*
X156251102Y-76253748D01*
X156266194Y-76242568D01*
X156296586Y-76213611D01*
X156326548Y-76178502D01*
X156353705Y-76140118D01*
X156362089Y-76126474D01*
X156367882Y-76115954D01*
X156377478Y-76097649D01*
X156390624Y-76072068D01*
X156407065Y-76039722D01*
X156426546Y-76001124D01*
X156448814Y-75956782D01*
X156473614Y-75907210D01*
X156500692Y-75852916D01*
X156529793Y-75794413D01*
X156560664Y-75732211D01*
X156593050Y-75666821D01*
X156626697Y-75598755D01*
X156661350Y-75528523D01*
X156696755Y-75456635D01*
X156732658Y-75383604D01*
X156768804Y-75309939D01*
X156789816Y-75267053D01*
X156812330Y-75220858D01*
X156831015Y-75181831D01*
X156846226Y-75148905D01*
X156858322Y-75121016D01*
X156867659Y-75097097D01*
X156874595Y-75076082D01*
X156879486Y-75056907D01*
X156882689Y-75038505D01*
X156884562Y-75019811D01*
X156885462Y-74999759D01*
X156885728Y-74980800D01*
X156884963Y-74943439D01*
X156881732Y-74912012D01*
X156875345Y-74883388D01*
X156865115Y-74854438D01*
X156851209Y-74823782D01*
X156840366Y-74803228D01*
X156828826Y-74785598D01*
X156814513Y-74768111D01*
X156795350Y-74747986D01*
X156792351Y-74744987D01*
X156773879Y-74727619D01*
X156754595Y-74711188D01*
X156737034Y-74697769D01*
X156725870Y-74690565D01*
X156678260Y-74668530D01*
X156627818Y-74653298D01*
X156576385Y-74645148D01*
X156525803Y-74644360D01*
X156477913Y-74651215D01*
X156473665Y-74652250D01*
X156420468Y-74669837D01*
X156371968Y-74694228D01*
X156328966Y-74724799D01*
X156292264Y-74760929D01*
X156262664Y-74801993D01*
X156249873Y-74826091D01*
X156245469Y-74836562D01*
X156238364Y-74854822D01*
X156228900Y-74879942D01*
X156217417Y-74910988D01*
X156204255Y-74947031D01*
X156189757Y-74987140D01*
X156174263Y-75030382D01*
X156158114Y-75075826D01*
X156149677Y-75099718D01*
X156133788Y-75144676D01*
X156118770Y-75186911D01*
X156104907Y-75225640D01*
X156092485Y-75260079D01*
X156081788Y-75289443D01*
X156073103Y-75312948D01*
X156066714Y-75329809D01*
X156062906Y-75339242D01*
X156061953Y-75341018D01*
X156059940Y-75336793D01*
X156055266Y-75324706D01*
X156048246Y-75305638D01*
X156039194Y-75280471D01*
X156028426Y-75250085D01*
X156016257Y-75215362D01*
X156003003Y-75177184D01*
X155993018Y-75148209D01*
X155972156Y-75087649D01*
X155953890Y-75035085D01*
X155937897Y-74989753D01*
X155923855Y-74950885D01*
X155911443Y-74917715D01*
X155900339Y-74889477D01*
X155890222Y-74865404D01*
X155880769Y-74844730D01*
X155871658Y-74826689D01*
X155862569Y-74810514D01*
X155853179Y-74795439D01*
X155843166Y-74780698D01*
X155832533Y-74765962D01*
X155798487Y-74725244D01*
X155762036Y-74692751D01*
X155721956Y-74667548D01*
X155680149Y-74649765D01*
X155662437Y-74644099D01*
X155646852Y-74640477D01*
X155630333Y-74638482D01*
X155609822Y-74637698D01*
X155591163Y-74637649D01*
X155532453Y-74641185D01*
G37*
X155532453Y-74641185D02*
X155479925Y-74651306D01*
X155433119Y-74668180D01*
X155391574Y-74691972D01*
X155354830Y-74722852D01*
X155353793Y-74723893D01*
X155339697Y-74738728D01*
X155326667Y-74753952D01*
X155314372Y-74770282D01*
X155302484Y-74788437D01*
X155290674Y-74809132D01*
X155278614Y-74833085D01*
X155265973Y-74861014D01*
X155252424Y-74893636D01*
X155237638Y-74931667D01*
X155221286Y-74975826D01*
X155203038Y-75026829D01*
X155182566Y-75085393D01*
X155165981Y-75133469D01*
X155151671Y-75175023D01*
X155138222Y-75213895D01*
X155125938Y-75249213D01*
X155115128Y-75280106D01*
X155106095Y-75305701D01*
X155099148Y-75325127D01*
X155094592Y-75337513D01*
X155092757Y-75341963D01*
X155090474Y-75338853D01*
X155085708Y-75328269D01*
X155078964Y-75311478D01*
X155070750Y-75289745D01*
X155061570Y-75264335D01*
X155060444Y-75261144D01*
X155033796Y-75185574D01*
X155009995Y-75118305D01*
X154988882Y-75058905D01*
X154970298Y-75006942D01*
X154954085Y-74961985D01*
X154940082Y-74923600D01*
X154928132Y-74891355D01*
X154918075Y-74864820D01*
X154909753Y-74843560D01*
X154903005Y-74827145D01*
X154897675Y-74815142D01*
X154893601Y-74807119D01*
X154893164Y-74806360D01*
X154870940Y-74775085D01*
X154841837Y-74744028D01*
X154808067Y-74715016D01*
X154771847Y-74689876D01*
X154735390Y-74670435D01*
X154721559Y-74664783D01*
X154672258Y-74650986D01*
X154619696Y-74644270D01*
X154566789Y-74644847D01*
X154526672Y-74650597D01*
X154479939Y-74664840D01*
X154434501Y-74687201D01*
X154391836Y-74716567D01*
X154353418Y-74751823D01*
X154320723Y-74791852D01*
X154303648Y-74819164D01*
X154289385Y-74847839D01*
X154279241Y-74875985D01*
X154272696Y-74905990D01*
X154269226Y-74940245D01*
X154268307Y-74980800D01*
X154268534Y-75007782D01*
X154269203Y-75027987D01*
X154270653Y-75043876D01*
X154273223Y-75057908D01*
X154277250Y-75072543D01*
X154283072Y-75090239D01*
X154283549Y-75091637D01*
X154288271Y-75103542D01*
X154296816Y-75123001D01*
X154308863Y-75149363D01*
X154324090Y-75181975D01*
X154342176Y-75220186D01*
X154362799Y-75263344D01*
X154385637Y-75310799D01*
X154410370Y-75361899D01*
X154436674Y-75415993D01*
X154464230Y-75472428D01*
X154492715Y-75530554D01*
X154521808Y-75589718D01*
X154551187Y-75649271D01*
X154580530Y-75708559D01*
X154609516Y-75766933D01*
X154637824Y-75823739D01*
X154665132Y-75878328D01*
X154691118Y-75930046D01*
X154715461Y-75978244D01*
X154737839Y-76022269D01*
X154757930Y-76061470D01*
X154775414Y-76095196D01*
X154789968Y-76122795D01*
X154801271Y-76143616D01*
X154809001Y-76157007D01*
X154810874Y-76159922D01*
X154846076Y-76204917D01*
X154884994Y-76241551D01*
X154928071Y-76270103D01*
X154975750Y-76290848D01*
X155028475Y-76304064D01*
X155045796Y-76306660D01*
X155100334Y-76309182D01*
X155153402Y-76302935D01*
X155204184Y-76288364D01*
X155251867Y-76265913D01*
X155295637Y-76236028D01*
X155334679Y-76199153D01*
X155368180Y-76155732D01*
X155389156Y-76119182D01*
X155393177Y-76110345D01*
X155400274Y-76093882D01*
X155410057Y-76070728D01*
X155422138Y-76041820D01*
X155436126Y-76008093D01*
X155451632Y-75970483D01*
X155468267Y-75929925D01*
X155485642Y-75887355D01*
X155487149Y-75883655D01*
X155504225Y-75841782D01*
X155520306Y-75802514D01*
X155535047Y-75766680D01*
X155548104Y-75735110D01*
X155559130Y-75708637D01*
X155567782Y-75688090D01*
X155573715Y-75674300D01*
X155576583Y-75668098D01*
X155576742Y-75667857D01*
X155579076Y-75671277D01*
X155584487Y-75682417D01*
X155592607Y-75700427D01*
X155603068Y-75724456D01*
X155615503Y-75753654D01*
X155629546Y-75787171D01*
X155644829Y-75824155D01*
X155655507Y-75850275D01*
X155679827Y-75909983D01*
X155701005Y-75961807D01*
X155719379Y-76006419D01*
X155735289Y-76044490D01*
X155749072Y-76076693D01*
X155761068Y-76103699D01*
X155771615Y-76126179D01*
X155781051Y-76144805D01*
X155789716Y-76160249D01*
X155797948Y-76173183D01*
X155806086Y-76184277D01*
X155814467Y-76194205D01*
X155823432Y-76203637D01*
X155833318Y-76213245D01*
X155843163Y-76222486D01*
X155870318Y-76244641D01*
X155902069Y-76265414D01*
X155935491Y-76283172D01*
X155967661Y-76296288D01*
X155983983Y-76300984D01*
X155998934Y-76303533D01*
X156019355Y-76305786D01*
X156042495Y-76307579D01*
X156065600Y-76308748D01*
X156085920Y-76309127D01*
X156100701Y-76308552D01*
X156103781Y-76308145D01*
X156114629Y-76306233D01*
X156130529Y-76303429D01*
X156143036Y-76301222D01*
X156167807Y-76294586D01*
X156196255Y-76283423D01*
X156225111Y-76269291D01*
X156251102Y-76253748D01*
X156266194Y-76242568D01*
X156296586Y-76213611D01*
X156326548Y-76178502D01*
X156353705Y-76140118D01*
X156362089Y-76126474D01*
X156367882Y-76115954D01*
X156377478Y-76097649D01*
X156390624Y-76072068D01*
X156407065Y-76039722D01*
X156426546Y-76001124D01*
X156448814Y-75956782D01*
X156473614Y-75907210D01*
X156500692Y-75852916D01*
X156529793Y-75794413D01*
X156560664Y-75732211D01*
X156593050Y-75666821D01*
X156626697Y-75598755D01*
X156661350Y-75528523D01*
X156696755Y-75456635D01*
X156732658Y-75383604D01*
X156768804Y-75309939D01*
X156789816Y-75267053D01*
X156812330Y-75220858D01*
X156831015Y-75181831D01*
X156846226Y-75148905D01*
X156858322Y-75121016D01*
X156867659Y-75097097D01*
X156874595Y-75076082D01*
X156879486Y-75056907D01*
X156882689Y-75038505D01*
X156884562Y-75019811D01*
X156885462Y-74999759D01*
X156885728Y-74980800D01*
X156884963Y-74943439D01*
X156881732Y-74912012D01*
X156875345Y-74883388D01*
X156865115Y-74854438D01*
X156851209Y-74823782D01*
X156840366Y-74803228D01*
X156828826Y-74785598D01*
X156814513Y-74768111D01*
X156795350Y-74747986D01*
X156792351Y-74744987D01*
X156773879Y-74727619D01*
X156754595Y-74711188D01*
X156737034Y-74697769D01*
X156725870Y-74690565D01*
X156678260Y-74668530D01*
X156627818Y-74653298D01*
X156576385Y-74645148D01*
X156525803Y-74644360D01*
X156477913Y-74651215D01*
X156473665Y-74652250D01*
X156420468Y-74669837D01*
X156371968Y-74694228D01*
X156328966Y-74724799D01*
X156292264Y-74760929D01*
X156262664Y-74801993D01*
X156249873Y-74826091D01*
X156245469Y-74836562D01*
X156238364Y-74854822D01*
X156228900Y-74879942D01*
X156217417Y-74910988D01*
X156204255Y-74947031D01*
X156189757Y-74987140D01*
X156174263Y-75030382D01*
X156158114Y-75075826D01*
X156149677Y-75099718D01*
X156133788Y-75144676D01*
X156118770Y-75186911D01*
X156104907Y-75225640D01*
X156092485Y-75260079D01*
X156081788Y-75289443D01*
X156073103Y-75312948D01*
X156066714Y-75329809D01*
X156062906Y-75339242D01*
X156061953Y-75341018D01*
X156059940Y-75336793D01*
X156055266Y-75324706D01*
X156048246Y-75305638D01*
X156039194Y-75280471D01*
X156028426Y-75250085D01*
X156016257Y-75215362D01*
X156003003Y-75177184D01*
X155993018Y-75148209D01*
X155972156Y-75087649D01*
X155953890Y-75035085D01*
X155937897Y-74989753D01*
X155923855Y-74950885D01*
X155911443Y-74917715D01*
X155900339Y-74889477D01*
X155890222Y-74865404D01*
X155880769Y-74844730D01*
X155871658Y-74826689D01*
X155862569Y-74810514D01*
X155853179Y-74795439D01*
X155843166Y-74780698D01*
X155832533Y-74765962D01*
X155798487Y-74725244D01*
X155762036Y-74692751D01*
X155721956Y-74667548D01*
X155680149Y-74649765D01*
X155662437Y-74644099D01*
X155646852Y-74640477D01*
X155630333Y-74638482D01*
X155609822Y-74637698D01*
X155591163Y-74637649D01*
X155532453Y-74641185D01*
G36*
X150800929Y-74667398D02*
G01*
X150733202Y-74667508D01*
X150657308Y-74667669D01*
X150572748Y-74667875D01*
X150559654Y-74667908D01*
X150473891Y-74668138D01*
X150396875Y-74668367D01*
X150328118Y-74668603D01*
X150267130Y-74668853D01*
X150213422Y-74669124D01*
X150166506Y-74669424D01*
X150125892Y-74669760D01*
X150091092Y-74670138D01*
X150061617Y-74670567D01*
X150036977Y-74671054D01*
X150016684Y-74671606D01*
X150000248Y-74672230D01*
X149987181Y-74672934D01*
X149976994Y-74673725D01*
X149969198Y-74674611D01*
X149963303Y-74675597D01*
X149958821Y-74676693D01*
X149958163Y-74676891D01*
X149925126Y-74689016D01*
X149897761Y-74703869D01*
X149872524Y-74723569D01*
X149859754Y-74735741D01*
X149831193Y-74769359D01*
X149811313Y-74804806D01*
X149799574Y-74843378D01*
X149795436Y-74886372D01*
X149795417Y-74890325D01*
X149797685Y-74929549D01*
X149804863Y-74963616D01*
X149817763Y-74995648D01*
X149827334Y-75013097D01*
X149833314Y-75021688D01*
X149844861Y-75036825D01*
X149861567Y-75058011D01*
X149883025Y-75084746D01*
X149908828Y-75116534D01*
X149938568Y-75152876D01*
X149971838Y-75193274D01*
X150008231Y-75237230D01*
X150047340Y-75284246D01*
X150088756Y-75333824D01*
X150125865Y-75378078D01*
X150166042Y-75425933D01*
X150204487Y-75471773D01*
X150240788Y-75515106D01*
X150274536Y-75555439D01*
X150305319Y-75592279D01*
X150332727Y-75625133D01*
X150356348Y-75653510D01*
X150375771Y-75676915D01*
X150390587Y-75694858D01*
X150400383Y-75706845D01*
X150404750Y-75712383D01*
X150404945Y-75712705D01*
X150400477Y-75713187D01*
X150387676Y-75713636D01*
X150367442Y-75714042D01*
X150340679Y-75714397D01*
X150308290Y-75714688D01*
X150271175Y-75714908D01*
X150230238Y-75715046D01*
X150188118Y-75715091D01*
X150128183Y-75715212D01*
X150076289Y-75715571D01*
X150032648Y-75716164D01*
X149997470Y-75716986D01*
X149970967Y-75718033D01*
X149953351Y-75719301D01*
X149946818Y-75720230D01*
X149901692Y-75734260D01*
X149858979Y-75756311D01*
X149819931Y-75785248D01*
X149785803Y-75819934D01*
X149757846Y-75859235D01*
X149737315Y-75902016D01*
X149733315Y-75913673D01*
X149721526Y-75965408D01*
X149718499Y-76016442D01*
X149723797Y-76065954D01*
X149736987Y-76113124D01*
X149757630Y-76157130D01*
X149785292Y-76197153D01*
X149819536Y-76232372D01*
X149859926Y-76261966D01*
X149906027Y-76285115D01*
X149936200Y-76295555D01*
X149940710Y-76296736D01*
X149946058Y-76297798D01*
X149952734Y-76298749D01*
X149961229Y-76299594D01*
X149972032Y-76300341D01*
X149985634Y-76300998D01*
X150002525Y-76301570D01*
X150023196Y-76302064D01*
X150048137Y-76302488D01*
X150077838Y-76302849D01*
X150112790Y-76303153D01*
X150153482Y-76303407D01*
X150200405Y-76303618D01*
X150254050Y-76303793D01*
X150314907Y-76303939D01*
X150383466Y-76304062D01*
X150460217Y-76304171D01*
X150545651Y-76304271D01*
X150557345Y-76304283D01*
X150630914Y-76304349D01*
X150702105Y-76304386D01*
X150770354Y-76304397D01*
X150835094Y-76304381D01*
X150895761Y-76304340D01*
X150951789Y-76304275D01*
X151002613Y-76304188D01*
X151047667Y-76304078D01*
X151086385Y-76303946D01*
X151118203Y-76303795D01*
X151142555Y-76303625D01*
X151158876Y-76303437D01*
X151166600Y-76303231D01*
X151166945Y-76303203D01*
X151206778Y-76297611D01*
X151240168Y-76289723D01*
X151269763Y-76278868D01*
X151277673Y-76275234D01*
X151312964Y-76253881D01*
X151344191Y-76226261D01*
X151369976Y-76194024D01*
X151388943Y-76158820D01*
X151397900Y-76131305D01*
X151401916Y-76099982D01*
X151401186Y-76064236D01*
X151396199Y-76026841D01*
X151387444Y-75990575D01*
X151375410Y-75958215D01*
X151363657Y-75936866D01*
X151359127Y-75931035D01*
X151349053Y-75918683D01*
X151333870Y-75900330D01*
X151314014Y-75876494D01*
X151289921Y-75847695D01*
X151262026Y-75814452D01*
X151230765Y-75777282D01*
X151196573Y-75736707D01*
X151159885Y-75693243D01*
X151121139Y-75647411D01*
X151080768Y-75599729D01*
X151072863Y-75590400D01*
X150793009Y-75260200D01*
X150976513Y-75257644D01*
X151025073Y-75256948D01*
X151065452Y-75256242D01*
X151098708Y-75255384D01*
X151125895Y-75254231D01*
X151148071Y-75252641D01*
X151166289Y-75250473D01*
X151181607Y-75247584D01*
X151195080Y-75243832D01*
X151207763Y-75239075D01*
X151220713Y-75233171D01*
X151234985Y-75225977D01*
X151243145Y-75221749D01*
X151273456Y-75202412D01*
X151305040Y-75175457D01*
X151310545Y-75170084D01*
X151344016Y-75130532D01*
X151369539Y-75086823D01*
X151386905Y-75039839D01*
X151395904Y-74990465D01*
X151396327Y-74939585D01*
X151387965Y-74888082D01*
X151382162Y-74867655D01*
X151363224Y-74823053D01*
X151336623Y-74782049D01*
X151303527Y-74745712D01*
X151265102Y-74715107D01*
X151222513Y-74691304D01*
X151176927Y-74675369D01*
X151170425Y-74673838D01*
X151164748Y-74672737D01*
X151157876Y-74671754D01*
X151149311Y-74670884D01*
X151138556Y-74670122D01*
X151125111Y-74669464D01*
X151108479Y-74668905D01*
X151088163Y-74668439D01*
X151063663Y-74668062D01*
X151034482Y-74667769D01*
X151000122Y-74667556D01*
X150960085Y-74667417D01*
X150913872Y-74667347D01*
X150860986Y-74667342D01*
X150800929Y-74667398D01*
G37*
X150800929Y-74667398D02*
X150733202Y-74667508D01*
X150657308Y-74667669D01*
X150572748Y-74667875D01*
X150559654Y-74667908D01*
X150473891Y-74668138D01*
X150396875Y-74668367D01*
X150328118Y-74668603D01*
X150267130Y-74668853D01*
X150213422Y-74669124D01*
X150166506Y-74669424D01*
X150125892Y-74669760D01*
X150091092Y-74670138D01*
X150061617Y-74670567D01*
X150036977Y-74671054D01*
X150016684Y-74671606D01*
X150000248Y-74672230D01*
X149987181Y-74672934D01*
X149976994Y-74673725D01*
X149969198Y-74674611D01*
X149963303Y-74675597D01*
X149958821Y-74676693D01*
X149958163Y-74676891D01*
X149925126Y-74689016D01*
X149897761Y-74703869D01*
X149872524Y-74723569D01*
X149859754Y-74735741D01*
X149831193Y-74769359D01*
X149811313Y-74804806D01*
X149799574Y-74843378D01*
X149795436Y-74886372D01*
X149795417Y-74890325D01*
X149797685Y-74929549D01*
X149804863Y-74963616D01*
X149817763Y-74995648D01*
X149827334Y-75013097D01*
X149833314Y-75021688D01*
X149844861Y-75036825D01*
X149861567Y-75058011D01*
X149883025Y-75084746D01*
X149908828Y-75116534D01*
X149938568Y-75152876D01*
X149971838Y-75193274D01*
X150008231Y-75237230D01*
X150047340Y-75284246D01*
X150088756Y-75333824D01*
X150125865Y-75378078D01*
X150166042Y-75425933D01*
X150204487Y-75471773D01*
X150240788Y-75515106D01*
X150274536Y-75555439D01*
X150305319Y-75592279D01*
X150332727Y-75625133D01*
X150356348Y-75653510D01*
X150375771Y-75676915D01*
X150390587Y-75694858D01*
X150400383Y-75706845D01*
X150404750Y-75712383D01*
X150404945Y-75712705D01*
X150400477Y-75713187D01*
X150387676Y-75713636D01*
X150367442Y-75714042D01*
X150340679Y-75714397D01*
X150308290Y-75714688D01*
X150271175Y-75714908D01*
X150230238Y-75715046D01*
X150188118Y-75715091D01*
X150128183Y-75715212D01*
X150076289Y-75715571D01*
X150032648Y-75716164D01*
X149997470Y-75716986D01*
X149970967Y-75718033D01*
X149953351Y-75719301D01*
X149946818Y-75720230D01*
X149901692Y-75734260D01*
X149858979Y-75756311D01*
X149819931Y-75785248D01*
X149785803Y-75819934D01*
X149757846Y-75859235D01*
X149737315Y-75902016D01*
X149733315Y-75913673D01*
X149721526Y-75965408D01*
X149718499Y-76016442D01*
X149723797Y-76065954D01*
X149736987Y-76113124D01*
X149757630Y-76157130D01*
X149785292Y-76197153D01*
X149819536Y-76232372D01*
X149859926Y-76261966D01*
X149906027Y-76285115D01*
X149936200Y-76295555D01*
X149940710Y-76296736D01*
X149946058Y-76297798D01*
X149952734Y-76298749D01*
X149961229Y-76299594D01*
X149972032Y-76300341D01*
X149985634Y-76300998D01*
X150002525Y-76301570D01*
X150023196Y-76302064D01*
X150048137Y-76302488D01*
X150077838Y-76302849D01*
X150112790Y-76303153D01*
X150153482Y-76303407D01*
X150200405Y-76303618D01*
X150254050Y-76303793D01*
X150314907Y-76303939D01*
X150383466Y-76304062D01*
X150460217Y-76304171D01*
X150545651Y-76304271D01*
X150557345Y-76304283D01*
X150630914Y-76304349D01*
X150702105Y-76304386D01*
X150770354Y-76304397D01*
X150835094Y-76304381D01*
X150895761Y-76304340D01*
X150951789Y-76304275D01*
X151002613Y-76304188D01*
X151047667Y-76304078D01*
X151086385Y-76303946D01*
X151118203Y-76303795D01*
X151142555Y-76303625D01*
X151158876Y-76303437D01*
X151166600Y-76303231D01*
X151166945Y-76303203D01*
X151206778Y-76297611D01*
X151240168Y-76289723D01*
X151269763Y-76278868D01*
X151277673Y-76275234D01*
X151312964Y-76253881D01*
X151344191Y-76226261D01*
X151369976Y-76194024D01*
X151388943Y-76158820D01*
X151397900Y-76131305D01*
X151401916Y-76099982D01*
X151401186Y-76064236D01*
X151396199Y-76026841D01*
X151387444Y-75990575D01*
X151375410Y-75958215D01*
X151363657Y-75936866D01*
X151359127Y-75931035D01*
X151349053Y-75918683D01*
X151333870Y-75900330D01*
X151314014Y-75876494D01*
X151289921Y-75847695D01*
X151262026Y-75814452D01*
X151230765Y-75777282D01*
X151196573Y-75736707D01*
X151159885Y-75693243D01*
X151121139Y-75647411D01*
X151080768Y-75599729D01*
X151072863Y-75590400D01*
X150793009Y-75260200D01*
X150976513Y-75257644D01*
X151025073Y-75256948D01*
X151065452Y-75256242D01*
X151098708Y-75255384D01*
X151125895Y-75254231D01*
X151148071Y-75252641D01*
X151166289Y-75250473D01*
X151181607Y-75247584D01*
X151195080Y-75243832D01*
X151207763Y-75239075D01*
X151220713Y-75233171D01*
X151234985Y-75225977D01*
X151243145Y-75221749D01*
X151273456Y-75202412D01*
X151305040Y-75175457D01*
X151310545Y-75170084D01*
X151344016Y-75130532D01*
X151369539Y-75086823D01*
X151386905Y-75039839D01*
X151395904Y-74990465D01*
X151396327Y-74939585D01*
X151387965Y-74888082D01*
X151382162Y-74867655D01*
X151363224Y-74823053D01*
X151336623Y-74782049D01*
X151303527Y-74745712D01*
X151265102Y-74715107D01*
X151222513Y-74691304D01*
X151176927Y-74675369D01*
X151170425Y-74673838D01*
X151164748Y-74672737D01*
X151157876Y-74671754D01*
X151149311Y-74670884D01*
X151138556Y-74670122D01*
X151125111Y-74669464D01*
X151108479Y-74668905D01*
X151088163Y-74668439D01*
X151063663Y-74668062D01*
X151034482Y-74667769D01*
X151000122Y-74667556D01*
X150960085Y-74667417D01*
X150913872Y-74667347D01*
X150860986Y-74667342D01*
X150800929Y-74667398D01*
G36*
X149115614Y-74667226D02*
G01*
X149052284Y-74667318D01*
X148981206Y-74667479D01*
X148901876Y-74667688D01*
X148818600Y-74667908D01*
X148732705Y-74668124D01*
X148655537Y-74668318D01*
X148586589Y-74668511D01*
X148525353Y-74668721D01*
X148471319Y-74668970D01*
X148423979Y-74669277D01*
X148382825Y-74669662D01*
X148347348Y-74670144D01*
X148317040Y-74670743D01*
X148291393Y-74671480D01*
X148269899Y-74672374D01*
X148252048Y-74673445D01*
X148237332Y-74674713D01*
X148225243Y-74676198D01*
X148215273Y-74677919D01*
X148206913Y-74679896D01*
X148199655Y-74682150D01*
X148192990Y-74684700D01*
X148186410Y-74687565D01*
X148179407Y-74690767D01*
X148174340Y-74693058D01*
X148152652Y-74705783D01*
X148129448Y-74724501D01*
X148107243Y-74746898D01*
X148088555Y-74770656D01*
X148086335Y-74774003D01*
X148070600Y-74802956D01*
X148060484Y-74833441D01*
X148055459Y-74867719D01*
X148054991Y-74907959D01*
X148056074Y-74930663D01*
X148057803Y-74947202D01*
X148060883Y-74960650D01*
X148066016Y-74974078D01*
X148073852Y-74990457D01*
X148084853Y-75010762D01*
X148097523Y-75031583D01*
X148109188Y-75048532D01*
X148109574Y-75049039D01*
X148115279Y-75056150D01*
X148126473Y-75069780D01*
X148142696Y-75089378D01*
X148163490Y-75114396D01*
X148188398Y-75144285D01*
X148216959Y-75178494D01*
X148248716Y-75216477D01*
X148283211Y-75257682D01*
X148319985Y-75301560D01*
X148358578Y-75347564D01*
X148396812Y-75393094D01*
X148665402Y-75712782D01*
X148434892Y-75715311D01*
X148381382Y-75715905D01*
X148336222Y-75716468D01*
X148298529Y-75717087D01*
X148267417Y-75717843D01*
X148242002Y-75718821D01*
X148221398Y-75720105D01*
X148204722Y-75721778D01*
X148191087Y-75723924D01*
X148179610Y-75726628D01*
X148169406Y-75729972D01*
X148159589Y-75734041D01*
X148149275Y-75738919D01*
X148140635Y-75743181D01*
X148096638Y-75769887D01*
X148058683Y-75803083D01*
X148027292Y-75841854D01*
X148002988Y-75885284D01*
X147986294Y-75932456D01*
X147977733Y-75982454D01*
X147977415Y-76029127D01*
X147983825Y-76076654D01*
X147996524Y-76119053D01*
X148016439Y-76158718D01*
X148041252Y-76193997D01*
X148076654Y-76231301D01*
X148118199Y-76261808D01*
X148165528Y-76285280D01*
X148195145Y-76295478D01*
X148199638Y-76296671D01*
X148204920Y-76297745D01*
X148211485Y-76298704D01*
X148219824Y-76299558D01*
X148230427Y-76300311D01*
X148243789Y-76300973D01*
X148260399Y-76301549D01*
X148280749Y-76302046D01*
X148305333Y-76302471D01*
X148334641Y-76302832D01*
X148369164Y-76303136D01*
X148409396Y-76303388D01*
X148455827Y-76303597D01*
X148508949Y-76303769D01*
X148569255Y-76303912D01*
X148637235Y-76304031D01*
X148713383Y-76304135D01*
X148798188Y-76304229D01*
X148813981Y-76304245D01*
X148887456Y-76304307D01*
X148958584Y-76304341D01*
X149026797Y-76304349D01*
X149091525Y-76304332D01*
X149152200Y-76304291D01*
X149208250Y-76304226D01*
X149259108Y-76304139D01*
X149304202Y-76304030D01*
X149342965Y-76303901D01*
X149374826Y-76303753D01*
X149399216Y-76303586D01*
X149415565Y-76303403D01*
X149423304Y-76303202D01*
X149423581Y-76303182D01*
X149471929Y-76296382D01*
X149513351Y-76285020D01*
X149549254Y-76268519D01*
X149581042Y-76246306D01*
X149596158Y-76232557D01*
X149625288Y-76197586D01*
X149646898Y-76157845D01*
X149656689Y-76129485D01*
X149660509Y-76104945D01*
X149660834Y-76074877D01*
X149657900Y-76042204D01*
X149651941Y-76009848D01*
X149645111Y-75986023D01*
X149642856Y-75979357D01*
X149640801Y-75973375D01*
X149638599Y-75967641D01*
X149635902Y-75961718D01*
X149632360Y-75955169D01*
X149627627Y-75947555D01*
X149621354Y-75938439D01*
X149613193Y-75927385D01*
X149602795Y-75913955D01*
X149589814Y-75897711D01*
X149573899Y-75878216D01*
X149554704Y-75855033D01*
X149531880Y-75827724D01*
X149505080Y-75795852D01*
X149473954Y-75758980D01*
X149438155Y-75716670D01*
X149397335Y-75668484D01*
X149351146Y-75613987D01*
X149315499Y-75571927D01*
X149051322Y-75260200D01*
X149235143Y-75257651D01*
X149281552Y-75256983D01*
X149319719Y-75256350D01*
X149350637Y-75255695D01*
X149375298Y-75254958D01*
X149394697Y-75254082D01*
X149409826Y-75253008D01*
X149421678Y-75251677D01*
X149431248Y-75250031D01*
X149439527Y-75248012D01*
X149447510Y-75245561D01*
X149448981Y-75245073D01*
X149495089Y-75225008D01*
X149537535Y-75197350D01*
X149575192Y-75163241D01*
X149606933Y-75123819D01*
X149631630Y-75080224D01*
X149644146Y-75047764D01*
X149650390Y-75019786D01*
X149653893Y-74986537D01*
X149654619Y-74951309D01*
X149652537Y-74917395D01*
X149647612Y-74888089D01*
X149645826Y-74881509D01*
X149628641Y-74837983D01*
X149604459Y-74796572D01*
X149574647Y-74758956D01*
X149540571Y-74726811D01*
X149503599Y-74701813D01*
X149496239Y-74697950D01*
X149487345Y-74693439D01*
X149479290Y-74689378D01*
X149471567Y-74685745D01*
X149463673Y-74682516D01*
X149455102Y-74679671D01*
X149445349Y-74677185D01*
X149433909Y-74675038D01*
X149420277Y-74673206D01*
X149403948Y-74671668D01*
X149384416Y-74670400D01*
X149361178Y-74669380D01*
X149333727Y-74668587D01*
X149301559Y-74667997D01*
X149264169Y-74667588D01*
X149221051Y-74667338D01*
X149171701Y-74667225D01*
X149115614Y-74667226D01*
G37*
X149115614Y-74667226D02*
X149052284Y-74667318D01*
X148981206Y-74667479D01*
X148901876Y-74667688D01*
X148818600Y-74667908D01*
X148732705Y-74668124D01*
X148655537Y-74668318D01*
X148586589Y-74668511D01*
X148525353Y-74668721D01*
X148471319Y-74668970D01*
X148423979Y-74669277D01*
X148382825Y-74669662D01*
X148347348Y-74670144D01*
X148317040Y-74670743D01*
X148291393Y-74671480D01*
X148269899Y-74672374D01*
X148252048Y-74673445D01*
X148237332Y-74674713D01*
X148225243Y-74676198D01*
X148215273Y-74677919D01*
X148206913Y-74679896D01*
X148199655Y-74682150D01*
X148192990Y-74684700D01*
X148186410Y-74687565D01*
X148179407Y-74690767D01*
X148174340Y-74693058D01*
X148152652Y-74705783D01*
X148129448Y-74724501D01*
X148107243Y-74746898D01*
X148088555Y-74770656D01*
X148086335Y-74774003D01*
X148070600Y-74802956D01*
X148060484Y-74833441D01*
X148055459Y-74867719D01*
X148054991Y-74907959D01*
X148056074Y-74930663D01*
X148057803Y-74947202D01*
X148060883Y-74960650D01*
X148066016Y-74974078D01*
X148073852Y-74990457D01*
X148084853Y-75010762D01*
X148097523Y-75031583D01*
X148109188Y-75048532D01*
X148109574Y-75049039D01*
X148115279Y-75056150D01*
X148126473Y-75069780D01*
X148142696Y-75089378D01*
X148163490Y-75114396D01*
X148188398Y-75144285D01*
X148216959Y-75178494D01*
X148248716Y-75216477D01*
X148283211Y-75257682D01*
X148319985Y-75301560D01*
X148358578Y-75347564D01*
X148396812Y-75393094D01*
X148665402Y-75712782D01*
X148434892Y-75715311D01*
X148381382Y-75715905D01*
X148336222Y-75716468D01*
X148298529Y-75717087D01*
X148267417Y-75717843D01*
X148242002Y-75718821D01*
X148221398Y-75720105D01*
X148204722Y-75721778D01*
X148191087Y-75723924D01*
X148179610Y-75726628D01*
X148169406Y-75729972D01*
X148159589Y-75734041D01*
X148149275Y-75738919D01*
X148140635Y-75743181D01*
X148096638Y-75769887D01*
X148058683Y-75803083D01*
X148027292Y-75841854D01*
X148002988Y-75885284D01*
X147986294Y-75932456D01*
X147977733Y-75982454D01*
X147977415Y-76029127D01*
X147983825Y-76076654D01*
X147996524Y-76119053D01*
X148016439Y-76158718D01*
X148041252Y-76193997D01*
X148076654Y-76231301D01*
X148118199Y-76261808D01*
X148165528Y-76285280D01*
X148195145Y-76295478D01*
X148199638Y-76296671D01*
X148204920Y-76297745D01*
X148211485Y-76298704D01*
X148219824Y-76299558D01*
X148230427Y-76300311D01*
X148243789Y-76300973D01*
X148260399Y-76301549D01*
X148280749Y-76302046D01*
X148305333Y-76302471D01*
X148334641Y-76302832D01*
X148369164Y-76303136D01*
X148409396Y-76303388D01*
X148455827Y-76303597D01*
X148508949Y-76303769D01*
X148569255Y-76303912D01*
X148637235Y-76304031D01*
X148713383Y-76304135D01*
X148798188Y-76304229D01*
X148813981Y-76304245D01*
X148887456Y-76304307D01*
X148958584Y-76304341D01*
X149026797Y-76304349D01*
X149091525Y-76304332D01*
X149152200Y-76304291D01*
X149208250Y-76304226D01*
X149259108Y-76304139D01*
X149304202Y-76304030D01*
X149342965Y-76303901D01*
X149374826Y-76303753D01*
X149399216Y-76303586D01*
X149415565Y-76303403D01*
X149423304Y-76303202D01*
X149423581Y-76303182D01*
X149471929Y-76296382D01*
X149513351Y-76285020D01*
X149549254Y-76268519D01*
X149581042Y-76246306D01*
X149596158Y-76232557D01*
X149625288Y-76197586D01*
X149646898Y-76157845D01*
X149656689Y-76129485D01*
X149660509Y-76104945D01*
X149660834Y-76074877D01*
X149657900Y-76042204D01*
X149651941Y-76009848D01*
X149645111Y-75986023D01*
X149642856Y-75979357D01*
X149640801Y-75973375D01*
X149638599Y-75967641D01*
X149635902Y-75961718D01*
X149632360Y-75955169D01*
X149627627Y-75947555D01*
X149621354Y-75938439D01*
X149613193Y-75927385D01*
X149602795Y-75913955D01*
X149589814Y-75897711D01*
X149573899Y-75878216D01*
X149554704Y-75855033D01*
X149531880Y-75827724D01*
X149505080Y-75795852D01*
X149473954Y-75758980D01*
X149438155Y-75716670D01*
X149397335Y-75668484D01*
X149351146Y-75613987D01*
X149315499Y-75571927D01*
X149051322Y-75260200D01*
X149235143Y-75257651D01*
X149281552Y-75256983D01*
X149319719Y-75256350D01*
X149350637Y-75255695D01*
X149375298Y-75254958D01*
X149394697Y-75254082D01*
X149409826Y-75253008D01*
X149421678Y-75251677D01*
X149431248Y-75250031D01*
X149439527Y-75248012D01*
X149447510Y-75245561D01*
X149448981Y-75245073D01*
X149495089Y-75225008D01*
X149537535Y-75197350D01*
X149575192Y-75163241D01*
X149606933Y-75123819D01*
X149631630Y-75080224D01*
X149644146Y-75047764D01*
X149650390Y-75019786D01*
X149653893Y-74986537D01*
X149654619Y-74951309D01*
X149652537Y-74917395D01*
X149647612Y-74888089D01*
X149645826Y-74881509D01*
X149628641Y-74837983D01*
X149604459Y-74796572D01*
X149574647Y-74758956D01*
X149540571Y-74726811D01*
X149503599Y-74701813D01*
X149496239Y-74697950D01*
X149487345Y-74693439D01*
X149479290Y-74689378D01*
X149471567Y-74685745D01*
X149463673Y-74682516D01*
X149455102Y-74679671D01*
X149445349Y-74677185D01*
X149433909Y-74675038D01*
X149420277Y-74673206D01*
X149403948Y-74671668D01*
X149384416Y-74670400D01*
X149361178Y-74669380D01*
X149333727Y-74668587D01*
X149301559Y-74667997D01*
X149264169Y-74667588D01*
X149221051Y-74667338D01*
X149171701Y-74667225D01*
X149115614Y-74667226D01*
G36*
X153769938Y-73871048D02*
G01*
X153749413Y-73872157D01*
X153732733Y-73874310D01*
X153717207Y-73877845D01*
X153701557Y-73882630D01*
X153649784Y-73904295D01*
X153603029Y-73933177D01*
X153561964Y-73968569D01*
X153527260Y-74009763D01*
X153499588Y-74056054D01*
X153479619Y-74106734D01*
X153475783Y-74120499D01*
X153473779Y-74128853D01*
X153472096Y-74137484D01*
X153470706Y-74147246D01*
X153469581Y-74158993D01*
X153468693Y-74173575D01*
X153468016Y-74191847D01*
X153467520Y-74214661D01*
X153467179Y-74242869D01*
X153466964Y-74277325D01*
X153466849Y-74318882D01*
X153466804Y-74368392D01*
X153466800Y-74396669D01*
X153466800Y-74637716D01*
X153403300Y-74618077D01*
X153352832Y-74603630D01*
X153306702Y-74593178D01*
X153261259Y-74586086D01*
X153212848Y-74581720D01*
X153186286Y-74580356D01*
X153101587Y-74581363D01*
X153018089Y-74591183D01*
X152936538Y-74609573D01*
X152857684Y-74636288D01*
X152782273Y-74671085D01*
X152711053Y-74713721D01*
X152659059Y-74752127D01*
X152638533Y-74769852D01*
X152614644Y-74792296D01*
X152589712Y-74817116D01*
X152566059Y-74841971D01*
X152546005Y-74864518D01*
X152537746Y-74874582D01*
X152492645Y-74939077D01*
X152453394Y-75010604D01*
X152420073Y-75088981D01*
X152392764Y-75174028D01*
X152378852Y-75230182D01*
X152366050Y-75287909D01*
X152364216Y-75625037D01*
X152363861Y-75691716D01*
X152363598Y-75749860D01*
X152363462Y-75800169D01*
X152363490Y-75843343D01*
X152363718Y-75880083D01*
X152364183Y-75911088D01*
X152364921Y-75937060D01*
X152365969Y-75958700D01*
X152367364Y-75976706D01*
X152369141Y-75991781D01*
X152371338Y-76004624D01*
X152373991Y-76015936D01*
X152377137Y-76026417D01*
X152380812Y-76036768D01*
X152385053Y-76047689D01*
X152386440Y-76051180D01*
X152410830Y-76100443D01*
X152442499Y-76144039D01*
X152481369Y-76181888D01*
X152527367Y-76213912D01*
X152558362Y-76230300D01*
X152596933Y-76245740D01*
X152636051Y-76255152D01*
X152678468Y-76259047D01*
X152711727Y-76258759D01*
X152764846Y-76253069D01*
X152813008Y-76240303D01*
X152857486Y-76219898D01*
X152899556Y-76191291D01*
X152933829Y-76160645D01*
X152953315Y-76140424D01*
X152967962Y-76122569D01*
X152980204Y-76103750D01*
X152992473Y-76080639D01*
X152992876Y-76079827D01*
X152999824Y-76065900D01*
X153005833Y-76053682D01*
X153010977Y-76042416D01*
X153015331Y-76031346D01*
X153018970Y-76019715D01*
X153021969Y-76006766D01*
X153024401Y-75991742D01*
X153026343Y-75973887D01*
X153027869Y-75952444D01*
X153029052Y-75926657D01*
X153029970Y-75895768D01*
X153030694Y-75859022D01*
X153031302Y-75815660D01*
X153031867Y-75764928D01*
X153032464Y-75706067D01*
X153032772Y-75675837D01*
X153033432Y-75613841D01*
X153034056Y-75560380D01*
X153034666Y-75514752D01*
X153035285Y-75476254D01*
X153035938Y-75444186D01*
X153036648Y-75417844D01*
X153037437Y-75396529D01*
X153038329Y-75379536D01*
X153039347Y-75366166D01*
X153040515Y-75355716D01*
X153041856Y-75347484D01*
X153043393Y-75340769D01*
X153043964Y-75338709D01*
X153060976Y-75295193D01*
X153084888Y-75257182D01*
X153114915Y-75225275D01*
X153150266Y-75200072D01*
X153190156Y-75182173D01*
X153233795Y-75172177D01*
X153265385Y-75170200D01*
X153306214Y-75174824D01*
X153345098Y-75188341D01*
X153381466Y-75210514D01*
X153401131Y-75227197D01*
X153417450Y-75243919D01*
X153429776Y-75260257D01*
X153439650Y-75278884D01*
X153448610Y-75302477D01*
X153453727Y-75318610D01*
X153455736Y-75325411D01*
X153457472Y-75332114D01*
X153458961Y-75339431D01*
X153460231Y-75348073D01*
X153461306Y-75358753D01*
X153462213Y-75372182D01*
X153462977Y-75389074D01*
X153463625Y-75410140D01*
X153464182Y-75436092D01*
X153464674Y-75467643D01*
X153465128Y-75505504D01*
X153465570Y-75550388D01*
X153466024Y-75603007D01*
X153466518Y-75664072D01*
X153466574Y-75671218D01*
X153469109Y-75989873D01*
X153483586Y-76030334D01*
X153497735Y-76065785D01*
X153513434Y-76095823D01*
X153532578Y-76123421D01*
X153557066Y-76151550D01*
X153568400Y-76163231D01*
X153610066Y-76199431D01*
X153654781Y-76226990D01*
X153702949Y-76246073D01*
X153754976Y-76256847D01*
X153803927Y-76259589D01*
X153827563Y-76258728D01*
X153851803Y-76256691D01*
X153872379Y-76253866D01*
X153877258Y-76252911D01*
X153894548Y-76247964D01*
X153916455Y-76240006D01*
X153939447Y-76230371D01*
X153950680Y-76225132D01*
X153972485Y-76213893D01*
X153990271Y-76202875D01*
X154006938Y-76189964D01*
X154025389Y-76173045D01*
X154034832Y-76163773D01*
X154065799Y-76129905D01*
X154089913Y-76095962D01*
X154109077Y-76058926D01*
X154122040Y-76025279D01*
X154134127Y-75989873D01*
X154135406Y-75080091D01*
X154135569Y-74969729D01*
X154135725Y-74868210D01*
X154135862Y-74775142D01*
X154135969Y-74690132D01*
X154136033Y-74612787D01*
X154136042Y-74542715D01*
X154135984Y-74479523D01*
X154135848Y-74422819D01*
X154135620Y-74372208D01*
X154135290Y-74327299D01*
X154134845Y-74287699D01*
X154134272Y-74253016D01*
X154133560Y-74222855D01*
X154132698Y-74196826D01*
X154131671Y-74174534D01*
X154130470Y-74155587D01*
X154129081Y-74139593D01*
X154127493Y-74126158D01*
X154125693Y-74114891D01*
X154123669Y-74105397D01*
X154121410Y-74097285D01*
X154118903Y-74090162D01*
X154116137Y-74083635D01*
X154113099Y-74077310D01*
X154109776Y-74070797D01*
X154106158Y-74063701D01*
X154104070Y-74059473D01*
X154075718Y-74011463D01*
X154040405Y-73969141D01*
X153998907Y-73933156D01*
X153952002Y-73904153D01*
X153900468Y-73882782D01*
X153887054Y-73878736D01*
X153868769Y-73874608D01*
X153847884Y-73872036D01*
X153822028Y-73870808D01*
X153797000Y-73870645D01*
X153769938Y-73871048D01*
G37*
X153769938Y-73871048D02*
X153749413Y-73872157D01*
X153732733Y-73874310D01*
X153717207Y-73877845D01*
X153701557Y-73882630D01*
X153649784Y-73904295D01*
X153603029Y-73933177D01*
X153561964Y-73968569D01*
X153527260Y-74009763D01*
X153499588Y-74056054D01*
X153479619Y-74106734D01*
X153475783Y-74120499D01*
X153473779Y-74128853D01*
X153472096Y-74137484D01*
X153470706Y-74147246D01*
X153469581Y-74158993D01*
X153468693Y-74173575D01*
X153468016Y-74191847D01*
X153467520Y-74214661D01*
X153467179Y-74242869D01*
X153466964Y-74277325D01*
X153466849Y-74318882D01*
X153466804Y-74368392D01*
X153466800Y-74396669D01*
X153466800Y-74637716D01*
X153403300Y-74618077D01*
X153352832Y-74603630D01*
X153306702Y-74593178D01*
X153261259Y-74586086D01*
X153212848Y-74581720D01*
X153186286Y-74580356D01*
X153101587Y-74581363D01*
X153018089Y-74591183D01*
X152936538Y-74609573D01*
X152857684Y-74636288D01*
X152782273Y-74671085D01*
X152711053Y-74713721D01*
X152659059Y-74752127D01*
X152638533Y-74769852D01*
X152614644Y-74792296D01*
X152589712Y-74817116D01*
X152566059Y-74841971D01*
X152546005Y-74864518D01*
X152537746Y-74874582D01*
X152492645Y-74939077D01*
X152453394Y-75010604D01*
X152420073Y-75088981D01*
X152392764Y-75174028D01*
X152378852Y-75230182D01*
X152366050Y-75287909D01*
X152364216Y-75625037D01*
X152363861Y-75691716D01*
X152363598Y-75749860D01*
X152363462Y-75800169D01*
X152363490Y-75843343D01*
X152363718Y-75880083D01*
X152364183Y-75911088D01*
X152364921Y-75937060D01*
X152365969Y-75958700D01*
X152367364Y-75976706D01*
X152369141Y-75991781D01*
X152371338Y-76004624D01*
X152373991Y-76015936D01*
X152377137Y-76026417D01*
X152380812Y-76036768D01*
X152385053Y-76047689D01*
X152386440Y-76051180D01*
X152410830Y-76100443D01*
X152442499Y-76144039D01*
X152481369Y-76181888D01*
X152527367Y-76213912D01*
X152558362Y-76230300D01*
X152596933Y-76245740D01*
X152636051Y-76255152D01*
X152678468Y-76259047D01*
X152711727Y-76258759D01*
X152764846Y-76253069D01*
X152813008Y-76240303D01*
X152857486Y-76219898D01*
X152899556Y-76191291D01*
X152933829Y-76160645D01*
X152953315Y-76140424D01*
X152967962Y-76122569D01*
X152980204Y-76103750D01*
X152992473Y-76080639D01*
X152992876Y-76079827D01*
X152999824Y-76065900D01*
X153005833Y-76053682D01*
X153010977Y-76042416D01*
X153015331Y-76031346D01*
X153018970Y-76019715D01*
X153021969Y-76006766D01*
X153024401Y-75991742D01*
X153026343Y-75973887D01*
X153027869Y-75952444D01*
X153029052Y-75926657D01*
X153029970Y-75895768D01*
X153030694Y-75859022D01*
X153031302Y-75815660D01*
X153031867Y-75764928D01*
X153032464Y-75706067D01*
X153032772Y-75675837D01*
X153033432Y-75613841D01*
X153034056Y-75560380D01*
X153034666Y-75514752D01*
X153035285Y-75476254D01*
X153035938Y-75444186D01*
X153036648Y-75417844D01*
X153037437Y-75396529D01*
X153038329Y-75379536D01*
X153039347Y-75366166D01*
X153040515Y-75355716D01*
X153041856Y-75347484D01*
X153043393Y-75340769D01*
X153043964Y-75338709D01*
X153060976Y-75295193D01*
X153084888Y-75257182D01*
X153114915Y-75225275D01*
X153150266Y-75200072D01*
X153190156Y-75182173D01*
X153233795Y-75172177D01*
X153265385Y-75170200D01*
X153306214Y-75174824D01*
X153345098Y-75188341D01*
X153381466Y-75210514D01*
X153401131Y-75227197D01*
X153417450Y-75243919D01*
X153429776Y-75260257D01*
X153439650Y-75278884D01*
X153448610Y-75302477D01*
X153453727Y-75318610D01*
X153455736Y-75325411D01*
X153457472Y-75332114D01*
X153458961Y-75339431D01*
X153460231Y-75348073D01*
X153461306Y-75358753D01*
X153462213Y-75372182D01*
X153462977Y-75389074D01*
X153463625Y-75410140D01*
X153464182Y-75436092D01*
X153464674Y-75467643D01*
X153465128Y-75505504D01*
X153465570Y-75550388D01*
X153466024Y-75603007D01*
X153466518Y-75664072D01*
X153466574Y-75671218D01*
X153469109Y-75989873D01*
X153483586Y-76030334D01*
X153497735Y-76065785D01*
X153513434Y-76095823D01*
X153532578Y-76123421D01*
X153557066Y-76151550D01*
X153568400Y-76163231D01*
X153610066Y-76199431D01*
X153654781Y-76226990D01*
X153702949Y-76246073D01*
X153754976Y-76256847D01*
X153803927Y-76259589D01*
X153827563Y-76258728D01*
X153851803Y-76256691D01*
X153872379Y-76253866D01*
X153877258Y-76252911D01*
X153894548Y-76247964D01*
X153916455Y-76240006D01*
X153939447Y-76230371D01*
X153950680Y-76225132D01*
X153972485Y-76213893D01*
X153990271Y-76202875D01*
X154006938Y-76189964D01*
X154025389Y-76173045D01*
X154034832Y-76163773D01*
X154065799Y-76129905D01*
X154089913Y-76095962D01*
X154109077Y-76058926D01*
X154122040Y-76025279D01*
X154134127Y-75989873D01*
X154135406Y-75080091D01*
X154135569Y-74969729D01*
X154135725Y-74868210D01*
X154135862Y-74775142D01*
X154135969Y-74690132D01*
X154136033Y-74612787D01*
X154136042Y-74542715D01*
X154135984Y-74479523D01*
X154135848Y-74422819D01*
X154135620Y-74372208D01*
X154135290Y-74327299D01*
X154134845Y-74287699D01*
X154134272Y-74253016D01*
X154133560Y-74222855D01*
X154132698Y-74196826D01*
X154131671Y-74174534D01*
X154130470Y-74155587D01*
X154129081Y-74139593D01*
X154127493Y-74126158D01*
X154125693Y-74114891D01*
X154123669Y-74105397D01*
X154121410Y-74097285D01*
X154118903Y-74090162D01*
X154116137Y-74083635D01*
X154113099Y-74077310D01*
X154109776Y-74070797D01*
X154106158Y-74063701D01*
X154104070Y-74059473D01*
X154075718Y-74011463D01*
X154040405Y-73969141D01*
X153998907Y-73933156D01*
X153952002Y-73904153D01*
X153900468Y-73882782D01*
X153887054Y-73878736D01*
X153868769Y-73874608D01*
X153847884Y-73872036D01*
X153822028Y-73870808D01*
X153797000Y-73870645D01*
X153769938Y-73871048D01*
D13*
X138148000Y-60230000D02*
X138148000Y-55510000D01*
X138148000Y-55510000D02*
X148268000Y-55510000D01*
X148268000Y-55510000D02*
X148268000Y-60230000D01*
X148268000Y-60230000D02*
X138148000Y-60230000D01*
X139908000Y-60230000D02*
X139908000Y-60430000D01*
X139908000Y-60430000D02*
X139608000Y-60430000D01*
X139608000Y-60430000D02*
X139608000Y-60230000D01*
X139908000Y-60330000D02*
X139608000Y-60330000D01*
X140708000Y-60230000D02*
X140708000Y-59620000D01*
X140708000Y-59620000D02*
X138758000Y-59620000D01*
X138758000Y-59620000D02*
X138758000Y-56120000D01*
X138758000Y-56120000D02*
X147658000Y-56120000D01*
X147658000Y-56120000D02*
X147658000Y-59620000D01*
X147658000Y-59620000D02*
X145708000Y-59620000D01*
X145708000Y-59620000D02*
X145708000Y-60230000D01*
X138148000Y-58920000D02*
X138758000Y-58920000D01*
X138148000Y-57620000D02*
X138758000Y-57620000D01*
X148268000Y-58920000D02*
X147658000Y-58920000D01*
X148268000Y-57620000D02*
X147658000Y-57620000D01*
X141108000Y-56120000D02*
X141108000Y-56620000D01*
X141108000Y-56620000D02*
X141308000Y-56620000D01*
X141308000Y-56620000D02*
X141308000Y-56120000D01*
X141208000Y-56120000D02*
X141208000Y-56620000D01*
X143108000Y-56120000D02*
X143108000Y-56620000D01*
X143108000Y-56620000D02*
X143308000Y-56620000D01*
X143308000Y-56620000D02*
X143308000Y-56120000D01*
X143208000Y-56120000D02*
X143208000Y-56620000D01*
X145108000Y-56120000D02*
X145108000Y-56620000D01*
X145108000Y-56620000D02*
X145308000Y-56620000D01*
X145308000Y-56620000D02*
X145308000Y-56120000D01*
X145208000Y-56120000D02*
X145208000Y-56620000D01*
X139098000Y-60530000D02*
X137848000Y-60530000D01*
X137848000Y-60530000D02*
X137848000Y-59280000D01*
X154658000Y-60230000D02*
X154658000Y-55510000D01*
X154658000Y-55510000D02*
X166778000Y-55510000D01*
X166778000Y-55510000D02*
X166778000Y-60230000D01*
X166778000Y-60230000D02*
X154658000Y-60230000D01*
X156418000Y-60230000D02*
X156418000Y-60430000D01*
X156418000Y-60430000D02*
X156118000Y-60430000D01*
X156118000Y-60430000D02*
X156118000Y-60230000D01*
X156418000Y-60330000D02*
X156118000Y-60330000D01*
X157218000Y-60230000D02*
X157218000Y-59620000D01*
X157218000Y-59620000D02*
X155268000Y-59620000D01*
X155268000Y-59620000D02*
X155268000Y-56120000D01*
X155268000Y-56120000D02*
X166168000Y-56120000D01*
X166168000Y-56120000D02*
X166168000Y-59620000D01*
X166168000Y-59620000D02*
X164218000Y-59620000D01*
X164218000Y-59620000D02*
X164218000Y-60230000D01*
X154658000Y-58920000D02*
X155268000Y-58920000D01*
X154658000Y-57620000D02*
X155268000Y-57620000D01*
X166778000Y-58920000D02*
X166168000Y-58920000D01*
X166778000Y-57620000D02*
X166168000Y-57620000D01*
X157618000Y-56120000D02*
X157618000Y-56620000D01*
X157618000Y-56620000D02*
X157818000Y-56620000D01*
X157818000Y-56620000D02*
X157818000Y-56120000D01*
X157718000Y-56120000D02*
X157718000Y-56620000D01*
X159618000Y-56120000D02*
X159618000Y-56620000D01*
X159618000Y-56620000D02*
X159818000Y-56620000D01*
X159818000Y-56620000D02*
X159818000Y-56120000D01*
X159718000Y-56120000D02*
X159718000Y-56620000D01*
X161618000Y-56120000D02*
X161618000Y-56620000D01*
X161618000Y-56620000D02*
X161818000Y-56620000D01*
X161818000Y-56620000D02*
X161818000Y-56120000D01*
X161718000Y-56120000D02*
X161718000Y-56620000D01*
X163618000Y-56120000D02*
X163618000Y-56620000D01*
X163618000Y-56620000D02*
X163818000Y-56620000D01*
X163818000Y-56620000D02*
X163818000Y-56120000D01*
X163718000Y-56120000D02*
X163718000Y-56620000D01*
X155608000Y-60530000D02*
X154358000Y-60530000D01*
X154358000Y-60530000D02*
X154358000Y-59280000D01*
X163088000Y-91520000D02*
X163088000Y-97490000D01*
X163088000Y-97490000D02*
X155468000Y-97490000D01*
X155468000Y-97490000D02*
X155468000Y-91520000D01*
X155468000Y-91520000D02*
X163088000Y-91520000D01*
X159778000Y-91530000D02*
X159778000Y-92280000D01*
X159778000Y-92280000D02*
X158778000Y-92280000D01*
X158778000Y-92280000D02*
X158778000Y-91530000D01*
X158778000Y-91530000D02*
X159778000Y-91530000D01*
X163078000Y-91530000D02*
X163078000Y-92280000D01*
X163078000Y-92280000D02*
X161278000Y-92280000D01*
X161278000Y-92280000D02*
X161278000Y-91530000D01*
X161278000Y-91530000D02*
X163078000Y-91530000D01*
X157278000Y-91530000D02*
X157278000Y-92280000D01*
X157278000Y-92280000D02*
X155478000Y-92280000D01*
X155478000Y-92280000D02*
X155478000Y-91530000D01*
X155478000Y-91530000D02*
X157278000Y-91530000D01*
X163078000Y-93780000D02*
X162328000Y-93780000D01*
X162328000Y-93780000D02*
X162328000Y-96730000D01*
X162328000Y-96730000D02*
X159278000Y-96730000D01*
X155478000Y-93780000D02*
X156228000Y-93780000D01*
X156228000Y-93780000D02*
X156228000Y-96730000D01*
X156228000Y-96730000D02*
X159278000Y-96730000D01*
X162128000Y-91230000D02*
X163378000Y-91230000D01*
X163378000Y-91230000D02*
X163378000Y-92480000D01*
X149372000Y-91520000D02*
X149372000Y-97490000D01*
X149372000Y-97490000D02*
X141752000Y-97490000D01*
X141752000Y-97490000D02*
X141752000Y-91520000D01*
X141752000Y-91520000D02*
X149372000Y-91520000D01*
X146062000Y-91530000D02*
X146062000Y-92280000D01*
X146062000Y-92280000D02*
X145062000Y-92280000D01*
X145062000Y-92280000D02*
X145062000Y-91530000D01*
X145062000Y-91530000D02*
X146062000Y-91530000D01*
X149362000Y-91530000D02*
X149362000Y-92280000D01*
X149362000Y-92280000D02*
X147562000Y-92280000D01*
X147562000Y-92280000D02*
X147562000Y-91530000D01*
X147562000Y-91530000D02*
X149362000Y-91530000D01*
X143562000Y-91530000D02*
X143562000Y-92280000D01*
X143562000Y-92280000D02*
X141762000Y-92280000D01*
X141762000Y-92280000D02*
X141762000Y-91530000D01*
X141762000Y-91530000D02*
X143562000Y-91530000D01*
X149362000Y-93780000D02*
X148612000Y-93780000D01*
X148612000Y-93780000D02*
X148612000Y-96730000D01*
X148612000Y-96730000D02*
X145562000Y-96730000D01*
X141762000Y-93780000D02*
X142512000Y-93780000D01*
X142512000Y-93780000D02*
X142512000Y-96730000D01*
X142512000Y-96730000D02*
X145562000Y-96730000D01*
X148412000Y-91230000D02*
X149662000Y-91230000D01*
X149662000Y-91230000D02*
X149662000Y-92480000D01*
D10*
X144105190Y-62428380D02*
X144105190Y-61428380D01*
X143676619Y-61523619D02*
X143629000Y-61476000D01*
X143533761Y-61428380D01*
X143295666Y-61428380D01*
X143200428Y-61476000D01*
X143152809Y-61523619D01*
X143105190Y-61618857D01*
X143105190Y-61714095D01*
X143152809Y-61856952D01*
X143724238Y-62428380D01*
X143105190Y-62428380D01*
X142105190Y-62333142D02*
X142152809Y-62380761D01*
X142295666Y-62428380D01*
X142390904Y-62428380D01*
X142533761Y-62380761D01*
X142629000Y-62285523D01*
X142676619Y-62190285D01*
X142724238Y-61999809D01*
X142724238Y-61856952D01*
X142676619Y-61666476D01*
X142629000Y-61571238D01*
X142533761Y-61476000D01*
X142390904Y-61428380D01*
X142295666Y-61428380D01*
X142152809Y-61476000D01*
X142105190Y-61523619D01*
X163972476Y-61904571D02*
X164305809Y-61904571D01*
X164305809Y-62428380D02*
X164305809Y-61428380D01*
X163829619Y-61428380D01*
X163591523Y-61428380D02*
X163020095Y-61428380D01*
X163305809Y-62428380D02*
X163305809Y-61428380D01*
X162686761Y-62428380D02*
X162686761Y-61428380D01*
X162448666Y-61428380D01*
X162305809Y-61476000D01*
X162210571Y-61571238D01*
X162162952Y-61666476D01*
X162115333Y-61856952D01*
X162115333Y-61999809D01*
X162162952Y-62190285D01*
X162210571Y-62285523D01*
X162305809Y-62380761D01*
X162448666Y-62428380D01*
X162686761Y-62428380D01*
X161686761Y-62428380D02*
X161686761Y-61428380D01*
X160162952Y-62809333D02*
X160210571Y-62761714D01*
X160305809Y-62618857D01*
X160353428Y-62523619D01*
X160401047Y-62380761D01*
X160448666Y-62142666D01*
X160448666Y-61952190D01*
X160401047Y-61714095D01*
X160353428Y-61571238D01*
X160305809Y-61476000D01*
X160210571Y-61333142D01*
X160162952Y-61285523D01*
X159924857Y-61428380D02*
X159353428Y-61428380D01*
X159639142Y-62428380D02*
X159639142Y-61428380D01*
X159162952Y-61428380D02*
X158591523Y-61428380D01*
X158877238Y-62428380D02*
X158877238Y-61428380D01*
X157782000Y-62428380D02*
X158258190Y-62428380D01*
X158258190Y-61428380D01*
X157543904Y-62809333D02*
X157496285Y-62761714D01*
X157401047Y-62618857D01*
X157353428Y-62523619D01*
X157305809Y-62380761D01*
X157258190Y-62142666D01*
X157258190Y-61952190D01*
X157305809Y-61714095D01*
X157353428Y-61571238D01*
X157401047Y-61476000D01*
X157496285Y-61333142D01*
X157543904Y-61285523D01*
X160964380Y-99020380D02*
X160631047Y-100020380D01*
X160297714Y-99020380D01*
X159583428Y-99972761D02*
X159678666Y-100020380D01*
X159869142Y-100020380D01*
X159964380Y-99972761D01*
X160012000Y-99877523D01*
X160012000Y-99496571D01*
X159964380Y-99401333D01*
X159869142Y-99353714D01*
X159678666Y-99353714D01*
X159583428Y-99401333D01*
X159535809Y-99496571D01*
X159535809Y-99591809D01*
X160012000Y-99687047D01*
X159202476Y-100020380D02*
X158678666Y-99353714D01*
X159202476Y-99353714D02*
X158678666Y-100020380D01*
X158440571Y-99353714D02*
X158059619Y-99353714D01*
X158297714Y-99020380D02*
X158297714Y-99877523D01*
X158250095Y-99972761D01*
X158154857Y-100020380D01*
X158059619Y-100020380D01*
X147121380Y-99020380D02*
X146788047Y-100020380D01*
X146454714Y-99020380D01*
X145740428Y-99972761D02*
X145835666Y-100020380D01*
X146026142Y-100020380D01*
X146121380Y-99972761D01*
X146169000Y-99877523D01*
X146169000Y-99496571D01*
X146121380Y-99401333D01*
X146026142Y-99353714D01*
X145835666Y-99353714D01*
X145740428Y-99401333D01*
X145692809Y-99496571D01*
X145692809Y-99591809D01*
X146169000Y-99687047D01*
X145359476Y-100020380D02*
X144835666Y-99353714D01*
X145359476Y-99353714D02*
X144835666Y-100020380D01*
X144597571Y-99353714D02*
X144216619Y-99353714D01*
X144454714Y-99020380D02*
X144454714Y-99877523D01*
X144407095Y-99972761D01*
X144311857Y-100020380D01*
X144216619Y-100020380D01*
%LPC*%
D14*
X154097056Y-86186944D03*
X152400000Y-85484000D03*
X150702944Y-86186944D03*
X150000000Y-87884000D03*
X150702944Y-89581056D03*
X152400000Y-90284000D03*
X154097056Y-89581056D03*
X154800000Y-87884000D03*
D15*
X152400000Y-87884000D03*
D14*
X154097056Y-62564944D03*
X152400000Y-61862000D03*
X150702944Y-62564944D03*
X150000000Y-64262000D03*
X150702944Y-65959056D03*
X152400000Y-66662000D03*
X154097056Y-65959056D03*
X154800000Y-64262000D03*
D15*
X152400000Y-64262000D03*
D16*
X169545000Y-70612000D03*
X135382000Y-81661000D03*
D17*
X145542000Y-107569000D03*
X159258000Y-107569000D03*
X145415000Y-44958000D03*
X159385000Y-44958000D03*
D18*
X149860000Y-71120000D03*
X152400000Y-71120000D03*
D19*
X154940000Y-71120000D03*
D20*
X152400000Y-87780000D03*
D21*
X134620000Y-91440000D03*
X134620000Y-93980000D03*
X134620000Y-96520000D03*
D22*
X134620000Y-99060000D03*
D23*
X146208000Y-58420000D03*
X144208000Y-58420000D03*
X142208000Y-58420000D03*
G36*
G01*
X139608000Y-59045001D02*
X139608000Y-57794999D01*
G75*
G02*
X139857999Y-57545000I249999J0D01*
G01*
X140558001Y-57545000D01*
G75*
G02*
X140808000Y-57794999I0J-249999D01*
G01*
X140808000Y-59045001D01*
G75*
G02*
X140558001Y-59295000I-249999J0D01*
G01*
X139857999Y-59295000D01*
G75*
G02*
X139608000Y-59045001I0J249999D01*
G01*
G37*
X164718000Y-58420000D03*
X162718000Y-58420000D03*
X160718000Y-58420000D03*
X158718000Y-58420000D03*
G36*
G01*
X156118000Y-59045001D02*
X156118000Y-57794999D01*
G75*
G02*
X156367999Y-57545000I249999J0D01*
G01*
X157068001Y-57545000D01*
G75*
G02*
X157318000Y-57794999I0J-249999D01*
G01*
X157318000Y-59045001D01*
G75*
G02*
X157068001Y-59295000I-249999J0D01*
G01*
X156367999Y-59295000D01*
G75*
G02*
X156118000Y-59045001I0J249999D01*
G01*
G37*
D24*
X158028000Y-93980000D03*
G36*
G01*
X161378000Y-93230000D02*
X161378000Y-94730000D01*
G75*
G02*
X161128000Y-94980000I-250000J0D01*
G01*
X159928000Y-94980000D01*
G75*
G02*
X159678000Y-94730000I0J250000D01*
G01*
X159678000Y-93230000D01*
G75*
G02*
X159928000Y-92980000I250000J0D01*
G01*
X161128000Y-92980000D01*
G75*
G02*
X161378000Y-93230000I0J-250000D01*
G01*
G37*
D21*
X170180000Y-89154000D03*
X170180000Y-91694000D03*
X170180000Y-94234000D03*
X170180000Y-96774000D03*
X170180000Y-99314000D03*
D22*
X170180000Y-101854000D03*
D24*
X144312000Y-93980000D03*
G36*
G01*
X147662000Y-93230000D02*
X147662000Y-94730000D01*
G75*
G02*
X147412000Y-94980000I-250000J0D01*
G01*
X146212000Y-94980000D01*
G75*
G02*
X145962000Y-94730000I0J250000D01*
G01*
X145962000Y-93230000D01*
G75*
G02*
X146212000Y-92980000I250000J0D01*
G01*
X147412000Y-92980000D01*
G75*
G02*
X147662000Y-93230000I0J-250000D01*
G01*
G37*
M02*
