M48
; DRILL file {KiCad (5.1.10-1-10_14)} date Thursday, December 02, 2021 at 10:52:30 PM
; FORMAT={-:-/ absolute / metric / decimal}
; #@! TF.CreationDate,2021-12-02T22:52:30+01:00
; #@! TF.GenerationSoftware,Kicad,Pcbnew,(5.1.10-1-10_14)
; #@! TF.FileFunction,Plated,1,2,PTH
FMAT,2
METRIC
T1C0.400
T2C0.500
T3C0.750
T4C1.000
T5C1.100
T6C2.000
T7C3.200
%
G90
G05
T1
X140.208Y-77.47
X144.272Y-69.596
X144.272Y-79.756
X145.669Y-84.201
X146.05Y-69.088
X146.05Y-81.534
X157.607Y-77.47
X158.623Y-55.753
X161.798Y-68.58
X162.052Y-82.804
X162.052Y-82.804
X162.052Y-84.836
X163.068Y-99.314
X164.338Y-98.044
T2
X150.0Y-64.262
X150.0Y-87.884
X150.703Y-62.565
X150.703Y-65.959
X150.703Y-86.187
X150.703Y-89.581
X152.4Y-61.862
X152.4Y-66.662
X152.4Y-85.484
X152.4Y-90.284
X154.097Y-62.565
X154.097Y-65.959
X154.097Y-86.187
X154.097Y-89.581
X154.8Y-64.262
X154.8Y-87.884
T3
X140.208Y-58.42
X142.208Y-58.42
X144.208Y-58.42
X146.208Y-58.42
X156.718Y-58.42
X158.718Y-58.42
X160.718Y-58.42
X162.718Y-58.42
X164.718Y-58.42
T4
X134.62Y-91.44
X134.62Y-93.98
X134.62Y-96.52
X134.62Y-99.06
X135.382Y-81.661
X144.312Y-93.98
X146.812Y-93.98
X158.028Y-93.98
X160.528Y-93.98
X169.545Y-70.612
X170.18Y-89.154
X170.18Y-91.694
X170.18Y-94.234
X170.18Y-96.774
X170.18Y-99.314
X170.18Y-101.854
T5
X149.86Y-71.12
X152.4Y-71.12
X154.94Y-71.12
T6
X145.415Y-44.958
X145.542Y-107.569
X159.258Y-107.569
X159.385Y-44.958
T7
X152.4Y-64.262
X152.4Y-87.884
T0
M30
